<svg xmlns="http://www.w3.org/2000/svg" fill="none" viewBox="27.96 3.63 84.74 151.16">
<path d="M84.5302 92.4288C84.072 90.2787 82.2074 88.7447 80.0166 88.7369C61.4916 88.6967 61.2695 89.2165 59.7326 93.5628C58.5211 97.0032 54.023 129.849 51.7473 146.989C51.2382 150.742 53.9037 154.228 57.6565 154.737C58.5754 154.86 59.5074 154.778 60.3933 154.561L89.125 146.62C92.6118 145.651 94.7939 142.139 94.049 138.588L84.5302 92.4288Z" fill="#797B87"/>
<path d="M65.3657 78.1079L65.5484 78.1982L65.8082 78.3092L72.6395 81.3809C73.8617 81.9153 75.2859 81.3866 75.8203 80.1645C75.8513 80.0487 75.9106 79.9818 75.9416 79.866C76.1071 79.2483 76.2726 78.6307 76.3609 77.9923C76.4596 77.3154 76.5093 76.6667 76.5203 76.0077C76.5577 74.942 76.9714 73.3978 77.5913 71.7021C77.4893 70.8473 77.3922 70.2834 77.3922 70.2834C77.3922 70.2834 76.3293 61.434 78.2533 60.5842C79.1909 60.1734 80.3737 61.3178 81.4014 63.0413C81.9537 61.9067 82.315 61.176 82.315 61.176L75.1845 58.6034L73.4215 62.5581C73.8653 63.8355 72.9283 65.9428 72.9283 65.9428C73.8919 67.4422 72.3531 69.0159 72.3531 69.0159C73.3656 70.4871 71.6028 72.1248 71.6028 72.1248C73.641 74.8638 66.0027 77.1201 66.0027 77.1201C65.7449 77.4648 65.536 77.7812 65.3657 78.1079Z" fill="white"/>
<path d="M72.9216 81.7055C74.2727 82.0675 75.7205 81.2969 76.1211 79.9562C76.501 78.6926 76.688 77.3773 76.7101 76.0593C76.7164 75.1094 77.0991 73.6811 77.7604 71.8309C77.7707 71.7923 77.7811 71.7537 77.7811 71.7537C77.6791 70.8989 77.582 70.335 77.582 70.335C77.312 67.9456 76.8382 61.5297 78.3321 60.8957C79.0842 60.5593 80.203 61.4797 81.2486 63.2907C81.2768 63.3397 81.3437 63.399 81.4313 63.3811C81.5188 63.3631 81.5677 63.3349 81.627 63.268C82.1793 62.1334 82.5303 61.4413 82.5303 61.4413C82.5406 61.4027 82.5613 61.3255 82.533 61.2765C82.5048 61.2276 82.4765 61.1787 82.3993 61.158L75.2688 58.5854C75.153 58.5543 75.0551 58.6109 74.9958 58.6777L73.2328 62.6324C73.2225 62.671 73.2018 62.7482 73.23 62.7972C73.6173 63.9767 72.7396 66.0171 72.7293 66.0557C72.7086 66.1329 72.6982 66.1715 72.7548 66.2694C73.6336 67.622 72.2623 69.0337 72.203 69.1005C72.1437 69.1674 72.1127 69.2832 72.1796 69.3425C73.1073 70.6668 71.5017 72.1812 71.4631 72.1709C71.4038 72.2377 71.3728 72.3536 71.4293 72.4514C71.7147 72.7762 71.7939 73.2525 71.6801 73.6771C71.0368 75.6149 66.0381 77.1303 65.9892 77.1586L65.9402 77.1869C65.5873 77.4233 65.3294 77.7679 65.177 78.1822C65.146 78.298 65.1639 78.3856 65.2797 78.4166L65.501 78.5173L65.7609 78.6283L72.5535 81.6896C72.6514 81.6331 72.8058 81.6745 72.9216 81.7055ZM77.3744 71.7274C76.7028 73.6162 76.3483 75.0935 76.3317 76.082C76.3199 77.3615 76.1047 78.6278 75.7351 79.8527C75.3758 81.0391 74.1342 81.658 72.9865 81.3091C72.9093 81.2884 72.7935 81.2574 72.7266 81.1981L65.6741 78.0258C65.8133 77.8148 66.0015 77.5757 66.2077 77.424C66.7047 77.2676 71.4511 75.7673 72.1358 73.6751C72.3088 73.1836 72.24 72.6687 71.9367 72.2564C72.5682 71.5981 73.3755 70.2836 72.6484 69.1371C73.0041 68.736 73.9865 67.3856 73.1953 66.0151C73.358 65.5622 74.0268 63.8382 73.6781 62.669L75.3405 58.9356L82.0463 61.3944C81.8967 61.6439 81.6954 62.0865 81.3651 62.7014C80.2423 60.8696 79.0539 60.0547 78.155 60.4758C76.1434 61.3436 77.0733 69.4539 77.1649 70.3473C77.1546 70.3859 77.3007 70.9216 77.3744 71.7274Z" fill="#191A20"/>
<path d="M87.6304 59.8693C83.1112 65.1542 82.6838 65.2052 80.6537 64.2889L74.1878 61.3978C73.6012 61.1165 73.2028 60.596 73.1263 59.9549C72.9396 58.9533 73.1699 57.9392 73.7374 57.0569C75.0059 55.4108 87.6304 59.8693 87.6304 59.8693Z" fill="url(#paint0_linear_4380_14742)"/>
<path d="M81.5443 64.8176C83.2042 65.2624 84.1811 64.2415 87.8392 60.0085C87.8985 59.9416 87.9088 59.903 87.8909 59.8155C87.8627 59.7665 87.8344 59.7176 87.7675 59.6583C86.4474 59.1805 74.9397 55.1867 73.6504 56.91C73.0444 57.782 72.832 58.8836 73.0084 59.9238C73.1131 60.6139 73.568 61.2323 74.1932 61.5239L80.6592 64.4149C80.8984 64.6032 81.1968 64.7245 81.5443 64.8176ZM87.3063 59.9898C82.9161 65.1024 82.6279 64.9425 80.7805 64.1165L74.2863 61.1765C73.7666 60.9545 73.4454 60.4547 73.3482 59.8908C73.1898 58.9381 73.3711 57.9523 73.9179 57.1472C74.7404 56.0849 82.43 58.2695 87.3063 59.9898Z" fill="#191A20"/>
<path d="M108.032 49.0351L104.934 47.6258C101.864 46.2654 98.3128 47.6307 96.9242 50.6514L95.7265 53.2681C94.3661 56.3377 95.7315 59.8893 98.7521 61.278L101.85 62.6873C105.612 64.3986 110.042 62.6894 111.753 58.9277C113.513 55.1378 111.804 50.7078 108.032 49.0351Z" fill="url(#paint1_linear_4380_14742)"/>
<path d="M103.002 63.327C107.094 64.4234 111.342 62.0035 112.439 57.9115C113.421 54.2442 111.585 50.4423 108.15 48.9013L105.052 47.492C101.916 46.0723 98.1892 47.4734 96.7592 50.6485L95.6001 53.2755C94.1805 56.412 95.5816 60.1388 98.7181 61.5584L101.816 62.9677C102.202 63.0712 102.578 63.2132 103.002 63.327ZM103.966 47.5319C104.275 47.6146 104.573 47.736 104.872 47.8573L107.97 49.2666C111.716 50.7256 113.565 54.9446 112.095 58.7298C110.636 62.4763 106.417 64.3248 102.632 62.8554C102.411 62.7548 102.19 62.6541 101.968 62.5534L98.8705 61.1441C95.9167 59.8148 94.6079 56.361 95.9269 53.4458L97.0859 50.8188C98.3325 48.1738 101.225 46.7975 103.966 47.5319Z" fill="#191A20"/>
<path d="M42.038 27.4216L32.6263 50.9657C32.6263 50.9657 74.2305 57.521 82.0311 59.4456C89.8317 61.3703 99.1298 68.206 104.808 55.6602C110.459 43.0655 99.1859 40.6656 92.5444 36.1139C85.9028 31.5622 53.4026 4.77303 53.4026 4.77303L42.038 27.4216Z" fill="white"/>
<path d="M32.5777 51.1587C33.0126 51.2339 74.2976 57.7449 82.021 59.6489C83.5369 60.0137 85.0783 60.5922 86.7072 61.1528C93.4337 63.5344 100.42 66.027 105.033 55.7608C109.645 45.4947 103.201 41.906 96.9288 38.4463C95.4109 37.6258 93.9806 36.7874 92.715 35.9518C86.1789 31.4697 53.9179 4.86883 53.5733 4.61098C53.545 4.56204 53.4678 4.54135 53.4188 4.56961C53.3699 4.59787 53.3209 4.62613 53.272 4.65439L41.9074 27.3029C41.9074 27.3029 41.9074 27.3029 41.897 27.3415L32.4853 50.8857C32.4646 50.9629 32.4543 51.0015 32.4825 51.0504C32.4618 51.1277 32.5391 51.1483 32.5777 51.1587ZM82.5491 59.3767L82.1245 59.2629C74.7099 57.4417 36.4518 51.3693 32.9231 50.7961L42.2238 27.5118L53.4774 5.12317C56.2215 7.38932 86.1216 31.9923 92.4082 36.3247C93.702 37.2093 95.2199 38.0297 96.6606 38.8295C102.76 42.1603 109.071 45.6304 104.58 55.5981C100.089 65.5658 93.3338 63.1353 86.7616 60.795C85.4133 60.2682 83.9388 59.749 82.5491 59.3767Z" fill="#191A20"/>
<path d="M32.9954 23.3433C27.234 36.1979 26.5733 48.3919 31.5185 50.6272C31.8942 50.7693 32.2802 50.8727 32.638 50.9272C28.7779 47.5759 29.7261 36.1623 35.1027 24.2803C40.4793 12.3984 48.3359 4.07712 53.4144 4.73451C53.1083 4.487 52.7919 4.2781 52.4266 4.09746C47.471 1.90074 38.7464 10.5273 32.9954 23.3433Z" fill="white"/>
<path d="M32.0653 51.0628C32.2583 51.1146 32.4513 51.1663 32.616 51.169C32.6932 51.1897 32.7911 51.1332 32.8118 51.056C32.8325 50.9788 32.8146 50.8912 32.7477 50.832C28.9262 47.491 29.9902 36.1084 35.2765 24.4091C40.5628 12.7098 48.3422 4.3679 53.382 5.01495C53.4592 5.03563 53.5571 4.97911 53.5778 4.90191C53.5985 4.8247 53.5806 4.73715 53.5137 4.67786C53.218 4.39175 52.863 4.17251 52.4977 3.99187C47.4366 1.72552 38.5756 10.3982 32.7935 23.3301C30.0032 29.5747 28.2785 35.8567 28.0072 41.0386C27.7151 46.2976 28.9364 49.7693 31.409 50.887C31.6406 50.9491 31.8336 51.0008 32.0653 51.0628ZM52.7596 4.55854C47.5618 4.65529 40.0168 12.8945 34.9497 24.2388C29.8827 35.5831 28.6878 46.6824 32.0529 50.6458C31.8985 50.6044 31.744 50.563 31.6386 50.4934C29.31 49.4557 28.1839 46.0922 28.4628 41.0365C28.7239 35.8933 30.4278 29.6885 33.2078 23.4825C38.9382 10.7436 47.5159 2.20187 52.3943 4.3779C52.4715 4.39858 52.6155 4.47856 52.7596 4.55854Z" fill="#191A20"/>
<path d="M35.094 24.3189C29.7456 36.2498 28.7692 47.6145 32.6293 50.9658C35.2702 51.301 38.6786 49.2353 42.0864 45.4731C45.2467 42.0169 48.3727 37.1448 50.941 31.4199C53.5093 25.695 55.0864 20.1183 55.5914 15.4541C56.1123 10.4219 55.4322 6.47455 53.4057 4.77305C48.3272 4.11566 40.481 12.3983 35.094 24.3189Z" fill="url(#paint2_linear_4380_14742)"/>
<path d="M32.5756 51.1588C35.2551 51.5044 38.6814 49.5263 42.2078 45.6303C45.4867 42.0404 48.6437 37.0525 51.1217 31.5103C53.5894 26.0067 55.2464 20.2859 55.7824 15.5059L55.7928 15.4673C56.3268 10.2317 55.5385 6.37949 53.5712 4.61112C53.5326 4.60078 53.494 4.59043 53.4554 4.58009C48.2122 3.91992 40.286 12.3466 34.899 24.2672C29.561 36.1595 28.5328 47.7172 32.4881 51.1767C32.5267 51.1871 32.5756 51.1588 32.5756 51.1588ZM55.3757 15.4797C54.8397 20.2596 53.2033 25.9033 50.7563 31.3297C48.299 36.7947 45.142 41.7826 41.9121 45.3442C38.4553 49.1347 35.2145 51.0384 32.728 50.7445C28.9658 47.3367 30.0477 36.0417 35.285 24.3706C40.5224 12.6996 48.2914 4.39628 53.3134 4.95578C55.1752 6.65451 55.9173 10.3702 55.3757 15.4797Z" fill="#191A20"/>
<path d="M34.3903 24.0064C32.5162 28.221 32.2746 32.2109 33.8904 32.9749L34.0834 33.0266C35.7433 33.4714 38.4266 30.7149 40.2592 26.6547C42.0919 22.5946 42.3411 18.7307 40.9314 17.8152L40.7487 17.7248C39.1716 16.9712 36.3029 19.8022 34.3903 24.0064Z" fill="url(#paint3_linear_4380_14742)"/>
<path d="M34.0321 33.2197C35.8464 33.7058 38.5786 30.9211 40.4809 26.7555C42.3445 22.5795 42.6041 18.6771 41.0607 17.6429L40.878 17.5526C39.9929 17.1499 38.8313 17.6248 37.5401 18.8924C36.1481 20.3813 35.034 22.0687 34.1976 23.9548C32.2333 28.352 32.0585 32.4013 33.8287 33.2066L34.0321 33.2197ZM40.7077 17.8793C40.7746 17.9386 40.8132 17.949 40.8904 17.9696C42.1946 18.8156 41.8578 22.6973 40.1259 26.5362C38.3835 30.4137 35.7286 33.2192 34.1844 32.8054L33.9914 32.7537C32.5197 32.0697 32.7896 28.1287 34.6222 24.0685C35.3993 22.2494 36.5135 20.5619 37.8564 19.1013C38.9698 18.0343 40.0053 17.567 40.7077 17.8793Z" fill="#191A20"/>
<path d="M34.1224 33.0371C35.0667 33.3729 39.1014 34.9919 40.908 37.6688C42.951 40.6987 42.0751 45.5117 42.0751 45.5117C45.2354 42.0555 48.3613 37.1834 50.9297 31.4585C53.498 25.7336 55.0751 20.1569 55.5801 15.4927C55.5801 15.4927 52.5583 19.3584 48.915 19.8303C45.7377 20.2616 41.8348 18.3055 40.9704 17.8257C42.4083 18.7902 42.1205 22.6437 40.2982 26.6652C38.4758 30.6868 35.7823 33.4819 34.1224 33.0371Z" fill="white"/>
<path d="M42.0218 45.7047C42.099 45.7254 42.1866 45.7074 42.2459 45.6406C45.5248 42.0507 48.6818 37.0628 51.1598 31.5206C53.6275 26.017 55.2845 20.2961 55.8205 15.5162C55.8412 15.439 55.7847 15.3411 55.7075 15.3204C55.6303 15.2997 55.5041 15.3073 55.4448 15.3741C55.3959 15.4024 52.4051 19.1522 48.9266 19.6269C45.7493 20.0582 41.8181 18.0532 41.0977 17.6533C40.9923 17.5837 40.8944 17.6402 40.8248 17.7456C40.7551 17.8511 40.8116 17.949 40.8785 18.0083C42.211 18.9032 41.8846 22.7463 40.1422 26.6238C38.3999 30.5013 35.7449 33.3067 34.2008 32.893C34.085 32.862 33.9871 32.9185 33.9561 33.0343C33.925 33.1501 33.9816 33.248 34.0974 33.279C34.8873 33.5734 39.0096 35.1745 40.7775 37.8411C42.7254 40.7627 41.9088 45.5089 41.8985 45.5475C41.8985 45.5475 41.9164 45.635 42.0218 45.7047ZM55.2869 16.1179C54.7047 20.7614 53.0918 26.163 50.7455 31.3682C48.3992 36.5733 45.42 41.3606 42.3652 44.8864C42.5446 43.445 42.6903 39.9672 41.0636 37.5454C39.5783 35.3682 36.7045 33.8948 35.068 33.2081C36.7728 32.7133 38.9279 30.229 40.4793 26.7555C42.0203 23.3206 42.4825 20.0517 41.7147 18.4392C43.2636 19.1439 46.3642 20.3884 48.939 20.044C51.8639 19.6278 54.3383 17.1877 55.2869 16.1179Z" fill="#191A20"/>
<path d="M61.489 68.7943C61.489 68.7943 60.0867 70.3217 61.2723 71.3014C61.2723 71.3014 60.3021 75.3858 61.5172 77.4905C62.722 79.6338 64.9394 83.2483 65.5182 85.7204C66.0971 88.1925 64.5925 93.499 64.5925 93.499C64.5925 93.499 72.777 95.0714 79.8865 93.7078C79.666 84.3394 83.6479 74.1111 83.5166 69.8143C83.3342 67.4071 82.6264 65.1073 81.4395 63.0516C80.4222 61.2895 79.1904 60.1733 78.2914 60.5944C76.3674 61.4442 77.4303 70.2936 77.4303 70.2936C77.4303 70.2936 77.566 70.8678 77.6294 71.7123C77.0095 73.4081 76.5957 74.9522 76.5584 76.0179C76.5473 76.677 76.4873 77.3643 76.399 78.0026C76.3107 78.6409 76.1452 79.2586 75.9797 79.8762C75.5998 81.1398 74.2396 81.8924 72.9864 81.4739C72.8706 81.4429 72.7934 81.4222 72.6879 81.3525L65.8567 78.2809C65.8567 78.2809 65.3548 78.1464 65.4865 77.8093C65.5693 77.5005 65.7961 77.2716 66.1077 77.1896C66.1077 77.1896 73.7073 74.923 71.7078 72.1944C71.7078 72.1944 73.4706 70.5566 72.458 69.0854C72.458 69.0854 73.9968 67.5118 73.0332 66.0123C73.0332 66.0123 73.9702 63.905 73.5264 62.6276C73.4265 62.2285 73.1308 61.9424 72.7654 61.7617C70.9359 61.0233 66.1421 61.311 63.8838 61.8644C61.6536 62.4667 62.2421 65.5206 62.2421 65.5206C62.2421 65.5206 60.2365 67.7553 61.489 68.7943Z" fill="white"/>
<path d="M64.5671 93.741C64.6443 93.7617 72.8778 95.3059 79.9383 93.9705C80.0259 93.9526 80.0955 93.8471 80.1162 93.7699C79.9761 88.2709 81.3346 82.4288 82.4214 77.755C83.1745 74.4813 83.8034 71.6709 83.736 69.9151C83.5535 67.5078 82.8175 65.1591 81.6024 63.0544C80.4155 60.9986 79.1706 60.0858 78.1944 60.4863C76.1828 61.354 77.1127 69.4643 77.2043 70.3578C77.194 70.3964 77.3015 70.9217 77.4138 71.7379C76.7422 73.6266 76.3877 75.1039 76.3711 76.0924C76.3593 77.3719 76.1441 78.6382 75.7745 79.8632C75.4152 81.0495 74.1736 81.6685 73.0259 81.3196C72.9487 81.2989 72.8329 81.2678 72.766 81.2085L65.9347 78.1369C65.8189 78.1058 65.7521 78.0465 65.6852 77.9873C65.6852 77.9873 65.6852 77.9873 65.6955 77.9487C65.7576 77.717 65.9355 77.5165 66.1595 77.4524C66.3836 77.3883 71.4312 75.8445 72.1262 73.7138C72.2993 73.2223 72.2304 72.7073 71.9271 72.2951C72.5586 71.6368 73.366 70.3223 72.6388 69.1758C72.9946 68.7746 73.977 67.4243 73.1857 66.0538C73.3871 65.6112 74.038 63.7996 73.6507 62.6201C73.5225 62.172 73.1985 61.837 72.756 61.6356C70.8107 60.8661 65.9679 61.1821 63.7481 61.7458C61.5284 62.3096 61.8418 65.0001 61.9389 65.564C61.6914 65.8701 60.7993 67.0378 60.8985 68.0574C60.9033 68.3483 61.0342 68.6316 61.2527 68.897C60.8763 69.3754 60.6439 69.9338 60.6432 70.5542C60.6659 70.9326 60.8251 71.2649 61.0926 71.5021C60.945 72.2073 60.2457 75.7436 61.3657 77.7401L61.7614 78.4254C62.9765 80.5301 64.8134 83.7116 65.3385 85.921C65.8994 88.3056 64.4155 93.5349 64.3948 93.6121C64.3844 93.6507 64.4023 93.7383 64.4306 93.7872C64.4513 93.71 64.4795 93.7589 64.5671 93.741ZM79.6633 93.6072C73.3522 94.771 66.1685 93.6323 64.8635 93.4067C65.1428 92.3644 66.2834 87.9533 65.7197 85.7336C65.156 83.5138 63.3398 80.255 62.0861 78.14L61.6904 77.4547C60.5421 75.4093 61.4428 71.4304 61.4531 71.3918C61.4738 71.3146 61.4559 71.2271 61.389 71.1678C61.1498 70.9796 61.0085 70.7348 60.9651 70.4336C60.9094 69.7153 61.6105 68.9515 61.6105 68.9515C61.6595 68.9233 61.6801 68.846 61.6519 68.7971C61.6236 68.7482 61.5954 68.6992 61.5671 68.6503C61.3665 68.4724 61.2252 68.2277 61.2101 67.9753C61.1392 67.0047 62.2271 65.724 62.2374 65.6854C62.2864 65.6571 62.307 65.5799 62.2891 65.4924C62.2816 65.3662 61.7365 62.6136 63.7812 62.0857C65.9238 61.5013 70.7176 61.2136 72.5085 61.9417C72.8455 62.0734 73.064 62.3388 73.1847 62.6607C73.572 63.8403 72.6942 65.8807 72.6839 65.9193C72.6632 65.9965 72.6529 66.0351 72.7094 66.133C73.5882 67.4856 72.2169 68.8973 72.1577 68.9641C72.0984 69.031 72.0673 69.1468 72.1342 69.2061C73.062 70.5304 71.4563 72.0448 71.4177 72.0345C71.3584 72.1013 71.3274 72.2171 71.3839 72.315C71.6693 72.6397 71.7485 73.1161 71.6347 73.5407C70.9914 75.4785 65.9927 76.9939 65.9438 77.0222C65.5833 77.1324 65.2971 77.4282 65.2041 77.7756C65.173 77.8914 65.1702 78.0561 65.2268 78.154C65.3501 78.3112 65.5225 78.4401 65.7155 78.4919L72.4695 81.5429C73.7972 82.1468 75.358 81.5721 75.9233 80.2341C75.9544 80.1183 76.024 80.0128 76.0447 79.9356C76.4246 78.672 76.6116 77.3567 76.6337 76.0387C76.64 75.0888 77.0227 73.6605 77.684 71.8103C77.6943 71.7717 77.7047 71.7331 77.7047 71.7331C77.6027 70.8783 77.5056 70.3144 77.5056 70.3144C77.2356 67.925 76.7618 61.5091 78.2557 60.8751C79.0078 60.5387 80.1266 61.4591 81.1722 63.2701C82.3591 65.3259 83.0772 67.587 83.27 69.9557C83.3478 71.6729 82.6802 74.473 81.9478 77.6695C80.91 82.315 79.5721 88.0799 79.6633 93.6072Z" fill="#191A20"/>
<path d="M63.3027 65.267C66.9411 64.5042 72.9453 66.0303 72.9453 66.0303L63.3027 65.267Z" fill="white"/>
<path d="M63.2523 65.46C63.2909 65.4703 63.3295 65.4807 63.3399 65.4421C66.8908 64.6972 72.8177 66.2025 72.895 66.2232C73.0108 66.2543 73.1087 66.1977 73.1397 66.0819C73.1707 65.9661 73.1142 65.8682 72.9984 65.8372C72.7668 65.7751 66.9067 64.3291 63.2785 65.0533C63.1524 65.0608 63.0827 65.1663 63.1289 65.3028C63.1468 65.3903 63.1751 65.4393 63.2523 65.46Z" fill="#191A20"/>
<path d="M72.3711 69.1033C72.3711 69.1033 67.1334 68.1136 62.8622 68.4586L72.3711 69.1033Z" fill="white"/>
<path d="M62.8366 68.7007C62.8752 68.711 62.8752 68.711 62.9138 68.7213C67.1079 68.3557 72.3069 69.335 72.3455 69.3453C72.4614 69.3764 72.5696 69.2812 72.6006 69.1654C72.6317 69.0496 72.5365 68.9414 72.4207 68.9104C72.3821 68.9 67.1445 67.9103 62.8628 68.2939C62.7367 68.3015 62.6671 68.407 62.6746 68.5331C62.6926 68.6207 62.7208 68.6696 62.8366 68.7007Z" fill="#191A20"/>
<path d="M71.6484 72.2612C68.8097 71.5833 65.9165 71.2632 63.0357 71.3602L71.6484 72.2612Z" fill="white"/>
<path d="M62.9545 71.5042C62.9931 71.5146 62.9931 71.5146 63.0317 71.5249C65.9022 71.4666 68.7954 71.7867 71.6059 72.4156C71.7217 72.4466 71.8196 72.3901 71.8506 72.2743C71.8817 72.1585 71.8251 72.0606 71.7093 72.0296C68.8706 71.3517 65.9671 71.0702 63.0194 71.1079C62.9036 71.0768 62.7953 71.1719 62.8029 71.2981C62.7719 71.4139 62.867 71.5221 62.9545 71.5042Z" fill="#191A20"/>
<path d="M75.701 58.3696C75.7782 58.3903 75.8271 58.362 75.8761 58.3338C75.9843 58.2386 86.5012 49.0994 87.7414 32.4267C87.7339 32.3005 87.6774 32.2026 87.5512 32.2102C87.4251 32.2178 87.3272 32.2743 87.3347 32.4005C86.0973 48.9084 75.7272 57.9629 75.619 58.058C75.5211 58.1145 75.5287 58.2407 75.5852 58.3386C75.6238 58.3489 75.6624 58.3593 75.701 58.3696Z" fill="#191A20"/>
<path d="M64.6464 93.7616C65.8921 94.054 67.1198 94.2588 68.3889 94.3093C76.6391 94.8649 80.7173 94.4682 81.6253 92.9324C81.9349 92.3947 81.8584 91.7536 81.3573 90.9987C81.3008 90.9008 81.185 90.8698 81.0871 90.9263C80.9892 90.9828 80.9582 91.0986 81.0147 91.1965C81.431 91.8046 81.4999 92.3195 81.2703 92.7131C80.1121 94.7197 71.3007 94.0965 68.4151 93.9025C63.9902 93.5857 62.8714 92.6654 62.5992 92.1373C62.4965 91.9029 62.4813 91.6506 62.582 91.4293C62.6516 91.3239 62.6054 91.1874 62.5282 91.1667C62.4228 91.097 62.2863 91.1432 62.2656 91.2204C62.085 91.5858 62.0587 91.9925 62.2565 92.3351C62.5081 92.9404 63.3339 93.4099 64.6464 93.7616Z" fill="#191A20"/>
<defs>
<linearGradient id="paint0_linear_4380_14742" x1="80.7691" y1="57.7399" x2="79.0954" y2="63.9863" gradientUnits="userSpaceOnUse">
<stop stop-color="#EEE420"/>
<stop offset="1" stop-color="#F75A5A"/>
</linearGradient>
<linearGradient id="paint1_linear_4380_14742" x1="105.975" y1="47.8273" x2="101.958" y2="62.8215" gradientUnits="userSpaceOnUse">
<stop stop-color="#EEE420"/>
<stop offset="1" stop-color="#F75A5A"/>
</linearGradient>
<linearGradient id="paint2_linear_4380_14742" x1="49.4942" y1="3.72497" x2="36.5542" y2="52.0174" gradientUnits="userSpaceOnUse">
<stop stop-color="#EEE420"/>
<stop offset="1" stop-color="#F75A5A"/>
</linearGradient>
<linearGradient id="paint3_linear_4380_14742" x1="39.4651" y1="17.3598" x2="35.1879" y2="33.3226" gradientUnits="userSpaceOnUse">
<stop stop-color="#EEE420"/>
<stop offset="1" stop-color="#F75A5A"/>
</linearGradient>
</defs>
</svg>