<svg width="126" height="122" viewBox="0 0 126 122" fill="none" xmlns="http://www.w3.org/2000/svg">
<path d="M84.5302 92.4286C84.072 90.2784 82.2074 88.7445 80.0166 88.7367C61.4916 88.6965 61.2695 89.2163 59.7326 93.5625C58.5211 97.003 54.023 129.849 51.7473 146.989C51.2382 150.742 53.9037 154.228 57.6565 154.737C58.5754 154.859 59.5074 154.778 60.3933 154.56L89.125 146.619C92.6118 145.65 94.7939 142.139 94.049 138.588L84.5302 92.4286Z" fill="#797B87"/>
<path d="M65.3618 78.1081L65.5445 78.1985L65.8043 78.3095L72.6356 81.3811C73.8578 81.9155 75.282 81.3869 75.8164 80.1647C75.8474 80.0489 75.9067 79.982 75.9377 79.8662C76.1032 79.2486 76.2687 78.6309 76.357 77.9926C76.4557 77.3157 76.5054 76.667 76.5164 76.0079C76.5538 74.9422 76.9675 73.3981 77.5874 71.7023C77.4854 70.8475 77.3883 70.2836 77.3883 70.2836C77.3883 70.2836 76.3254 61.4342 78.2494 60.5844C79.187 60.1737 80.3698 61.3181 81.3975 63.0416C81.9498 61.9069 82.3111 61.1762 82.3111 61.1762L75.1806 58.6036L73.4176 62.5583C73.8614 63.8357 72.9244 65.943 72.9244 65.943C73.888 67.4425 72.3492 69.0161 72.3492 69.0161C73.3617 70.4873 71.5989 72.1251 71.5989 72.1251C73.6371 74.8641 65.9988 77.1204 65.9988 77.1204C65.741 77.465 65.5321 77.7814 65.3618 78.1081Z" fill="white"/>
<path d="M72.9216 81.7053C74.2727 82.0673 75.7205 81.2967 76.1211 79.9559C76.501 78.6924 76.688 77.3771 76.7101 76.0591C76.7164 75.1091 77.0991 73.6808 77.7604 71.8306C77.7707 71.792 77.7811 71.7534 77.7811 71.7534C77.6791 70.8986 77.582 70.3347 77.582 70.3347C77.312 67.9454 76.8382 61.5295 78.3321 60.8954C79.0842 60.5591 80.203 61.4795 81.2486 63.2905C81.2768 63.3394 81.3437 63.3987 81.4313 63.3808C81.5188 63.3629 81.5677 63.3346 81.627 63.2678C82.1793 62.1331 82.5303 61.4411 82.5303 61.4411C82.5406 61.4025 82.5613 61.3253 82.533 61.2763C82.5048 61.2274 82.4765 61.1784 82.3993 61.1577L75.2688 58.5851C75.153 58.5541 75.0551 58.6106 74.9958 58.6775L73.2328 62.6322C73.2225 62.6708 73.2018 62.748 73.23 62.7969C73.6173 63.9764 72.7396 66.0169 72.7293 66.0555C72.7086 66.1327 72.6982 66.1713 72.7548 66.2692C73.6336 67.6218 72.2623 69.0334 72.203 69.1003C72.1437 69.1672 72.1127 69.283 72.1796 69.3423C73.1073 70.6666 71.5017 72.181 71.4631 72.1706C71.4038 72.2375 71.3728 72.3533 71.4293 72.4512C71.7147 72.7759 71.7939 73.2523 71.6801 73.6769C71.0368 75.6146 66.0381 77.1301 65.9892 77.1584L65.9402 77.1866C65.5873 77.423 65.3294 77.7677 65.177 78.182C65.146 78.2978 65.1639 78.3853 65.2797 78.4164L65.501 78.517L65.7609 78.628L72.5535 81.6894C72.6514 81.6328 72.8058 81.6742 72.9216 81.7053ZM77.3744 71.7272C76.7028 73.616 76.3483 75.0932 76.3317 76.0818C76.3199 77.3612 76.1047 78.6275 75.7351 79.8525C75.3758 81.0389 74.1342 81.6578 72.9865 81.3089C72.9093 81.2882 72.7935 81.2572 72.7266 81.1979L65.6741 78.0255C65.8133 77.8146 66.0015 77.5754 66.2077 77.4238C66.7047 77.2673 71.4511 75.767 72.1358 73.6749C72.3088 73.1834 72.24 72.6684 71.9367 72.2562C72.5682 71.5979 73.3755 70.2833 72.6484 69.1369C73.0041 68.7357 73.9865 67.3853 73.1953 66.0148C73.358 65.5619 74.0268 63.8379 73.6781 62.6687L75.3405 58.9353L82.0463 61.3941C81.8967 61.6437 81.6954 62.0862 81.3651 62.7011C80.2423 60.8694 79.0539 60.0545 78.155 60.4756C76.1434 61.3433 77.0733 69.4537 77.1649 70.3471C77.1546 70.3857 77.3007 70.9213 77.3744 71.7272Z" fill="#191A20"/>
<path d="M87.6304 59.8691C83.1112 65.154 82.6838 65.2049 80.6537 64.2886L74.1878 61.3976C73.6012 61.1163 73.2028 60.5958 73.1263 59.9547C72.9396 58.953 73.1699 57.939 73.7374 57.0567C75.0059 55.4106 87.6304 59.8691 87.6304 59.8691Z" fill="url(#paint0_linear_4507_5655)"/>
<path d="M81.5404 64.8174C83.2003 65.2621 84.1772 64.2413 87.8353 60.0083C87.8946 59.9414 87.9049 59.9028 87.887 59.8152C87.8587 59.7663 87.8305 59.7174 87.7636 59.6581C86.4435 59.1802 74.9358 55.1865 73.6465 56.9098C73.0405 57.7817 72.8281 58.8833 73.0045 59.9236C73.1092 60.6136 73.5641 61.232 74.1893 61.5237L80.6553 64.4147C80.8944 64.6029 81.1929 64.7243 81.5404 64.8174ZM87.3024 59.9896C82.9121 65.1022 82.624 64.9422 80.7766 64.1162L74.2824 61.1762C73.7627 60.9542 73.4415 60.4544 73.3443 59.8905C73.1859 58.9378 73.3672 57.952 73.914 57.1469C74.7365 56.0847 82.4261 58.2692 87.3024 59.9896Z" fill="#191A20"/>
<path d="M108.032 49.0336L104.934 47.6243C101.864 46.264 98.3128 47.6293 96.9242 50.6499L95.7265 53.2666C94.3661 56.3362 95.7315 59.8879 98.7521 61.2765L101.85 62.6858C105.612 64.3971 110.042 62.6879 111.753 58.9262C113.513 55.1363 111.804 50.7063 108.032 49.0336Z" fill="url(#paint1_linear_4507_5655)"/>
<path d="M103.002 63.326C107.094 64.4225 111.342 62.0025 112.439 57.9106C113.421 54.2433 111.585 50.4413 108.15 48.9003L105.052 47.491C101.916 46.0713 98.1892 47.4725 96.7592 50.6475L95.6001 53.2746C94.1805 56.411 95.5816 60.1378 98.7181 61.5575L101.816 62.9668C102.202 63.0702 102.578 63.2122 103.002 63.326ZM103.966 47.5309C104.275 47.6136 104.573 47.735 104.872 47.8563L107.97 49.2656C111.716 50.7246 113.565 54.9437 112.095 58.7288C110.636 62.4753 106.417 64.3238 102.632 62.8545C102.411 62.7538 102.19 62.6531 101.968 62.5525L98.8705 61.1432C95.9167 59.8138 94.6079 56.36 95.9269 53.4449L97.0859 50.8178C98.3325 48.1729 101.225 46.7965 103.966 47.5309Z" fill="#191A20"/>
<path d="M42.038 27.4208L32.6263 50.965C32.6263 50.965 74.2305 57.5202 82.0311 59.4449C89.8317 61.3696 99.1298 68.2053 104.808 55.6595C110.459 43.0648 99.1859 40.6648 92.5444 36.1131C85.9028 31.5614 53.4026 4.7723 53.4026 4.7723L42.038 27.4208Z" fill="white"/>
<path d="M32.5738 51.1579C33.0087 51.2331 74.2937 57.7442 82.0171 59.6482C83.533 60.013 85.0743 60.5915 86.7033 61.1521C93.4298 63.5337 100.416 66.0263 105.029 55.7601C109.642 45.4939 103.197 41.9053 96.9249 38.4455C95.407 37.6251 93.9767 36.7867 92.7111 35.9511C86.175 31.469 53.914 4.8681 53.5694 4.61025C53.5411 4.5613 53.4639 4.54062 53.4149 4.56888C53.366 4.59714 53.317 4.62539 53.2681 4.65365L41.9035 27.3022C41.9035 27.3022 41.9035 27.3022 41.8931 27.3408L32.4814 50.885C32.4607 50.9622 32.4504 51.0008 32.4786 51.0497C32.4579 51.1269 32.5351 51.1476 32.5738 51.1579ZM82.5452 59.3759L82.1206 59.2621C74.706 57.4409 36.4479 51.3685 32.9192 50.7954L42.2199 27.5111L53.4735 5.12244C56.2176 7.38859 86.1177 31.9915 92.4043 36.324C93.6981 37.2086 95.216 38.029 96.6567 38.8288C102.757 42.1596 109.067 45.6297 104.576 55.5974C100.085 65.5651 93.3299 63.1345 86.7577 60.7943C85.4094 60.2675 83.9349 59.7483 82.5452 59.3759Z" fill="#191A20"/>
<path d="M32.9915 23.3431C27.2301 36.1977 26.5694 48.3917 31.5146 50.627C31.8903 50.769 32.2763 50.8725 32.6341 50.927C28.774 47.5757 29.7222 36.1621 35.0988 24.2801C40.4754 12.3981 48.332 4.07687 53.4105 4.73427C53.1044 4.48676 52.788 4.27786 52.4227 4.09722C47.4671 1.9005 38.7425 10.5271 32.9915 23.3431Z" fill="white"/>
<path d="M32.0613 51.0623C32.2544 51.1141 32.4474 51.1658 32.6121 51.1686C32.6893 51.1892 32.7872 51.1327 32.8079 51.0555C32.8286 50.9783 32.8107 50.8908 32.7438 50.8315C28.9223 47.4905 29.9863 36.108 35.2726 24.4086C40.5589 12.7093 48.3383 4.36741 53.3781 5.01446C53.4553 5.03515 53.5532 4.97863 53.5739 4.90142C53.5946 4.82421 53.5767 4.73666 53.5098 4.67737C53.2141 4.39127 52.8591 4.17202 52.4938 3.99138C47.4327 1.72503 38.5717 10.3977 32.7896 23.3296C29.9993 29.5742 28.2746 35.8562 28.0033 41.0381C27.7112 46.2971 28.9325 49.7688 31.4051 50.8865C31.6367 50.9486 31.8297 51.0003 32.0613 51.0623ZM52.7557 4.55805C47.5579 4.6548 40.0129 12.894 34.9458 24.2383C29.8788 35.5827 28.6839 46.6819 32.049 50.6453C31.8946 50.6039 31.7401 50.5625 31.6347 50.4929C29.3061 49.4552 28.18 46.0918 28.4589 41.036C28.72 35.8928 30.4239 29.688 33.2039 23.482C38.9342 10.7432 47.512 2.20138 52.3903 4.37741C52.4676 4.3981 52.6116 4.47807 52.7557 4.55805Z" fill="#191A20"/>
<path d="M35.0901 24.3191C29.7417 36.25 28.7653 47.6147 32.6254 50.966C35.2663 51.3012 38.6747 49.2355 42.0825 45.4733C45.2428 42.0172 48.3687 37.1451 50.9371 31.4202C53.5054 25.6953 55.0825 20.1185 55.5875 15.4544C56.1084 10.4221 55.4283 6.4748 53.4018 4.77329C48.3233 4.1159 40.4771 12.3985 35.0901 24.3191Z" fill="url(#paint2_linear_4507_5655)"/>
<path d="M32.5756 51.1591C35.2551 51.5047 38.6814 49.5265 42.2078 45.6306C45.4867 42.0407 48.6437 37.0528 51.1217 31.5105C53.5894 26.0069 55.2464 20.2861 55.7824 15.5061L55.7928 15.4675C56.3268 10.2319 55.5385 6.37974 53.5712 4.61137C53.5326 4.60102 53.494 4.59068 53.4554 4.58033C48.2122 3.92017 40.286 12.3469 34.899 24.2675C29.561 36.1598 28.5328 47.7174 32.4881 51.177C32.5267 51.1873 32.5756 51.1591 32.5756 51.1591ZM55.3757 15.4799C54.8397 20.2599 53.2033 25.9035 50.7563 31.3299C48.299 36.7949 45.142 41.7828 41.9121 45.3444C38.4553 49.1349 35.2145 51.0386 32.728 50.7448C28.9658 47.337 30.0477 36.0419 35.285 24.3709C40.5224 12.6998 48.2914 4.39652 53.3134 4.95602C55.1752 6.65476 55.9173 10.3705 55.3757 15.4799Z" fill="#191A20"/>
<path d="M34.3864 24.0049C32.5123 28.2195 32.2707 32.2095 33.8865 32.9734L34.0795 33.0251C35.7394 33.4699 38.4227 30.7134 40.2553 26.6533C42.088 22.5931 42.3372 18.7293 40.9275 17.8137L40.7448 17.7234C39.1677 16.9698 36.299 19.8007 34.3864 24.0049Z" fill="url(#paint3_linear_4507_5655)"/>
<path d="M34.0282 33.2195C35.8425 33.7056 38.5747 30.9208 40.4769 26.7552C42.3406 22.5793 42.6002 18.6768 41.0568 17.6427L40.8741 17.5523C39.989 17.1497 38.8274 17.6245 37.5361 18.8922C36.1442 20.3811 35.0301 22.0685 34.1937 23.9545C32.2293 28.3518 32.0546 32.401 33.8248 33.2063L34.0282 33.2195ZM40.7038 17.8791C40.7707 17.9384 40.8093 17.9487 40.8865 17.9694C42.1907 18.8154 41.8539 22.6971 40.1219 26.536C38.3796 30.4135 35.7247 33.2189 34.1805 32.8052L33.9875 32.7534C32.5158 32.0695 32.7857 28.1284 34.6183 24.0683C35.3954 22.2491 36.5095 20.5617 37.8525 19.1011C38.9659 18.034 40.0014 17.5667 40.7038 17.8791Z" fill="#191A20"/>
<path d="M34.1224 33.0366C35.0667 33.3724 39.1014 34.9914 40.908 37.6683C42.951 40.6982 42.0751 45.5112 42.0751 45.5112C45.2354 42.055 48.3613 37.1829 50.9297 31.458C53.498 25.7332 55.0751 20.1564 55.5801 15.4923C55.5801 15.4923 52.5583 19.3579 48.915 19.8298C45.7377 20.2611 41.8348 18.305 40.9704 17.8252C42.4083 18.7897 42.1205 22.6432 40.2982 26.6647C38.4758 30.6863 35.7823 33.4814 34.1224 33.0366Z" fill="white"/>
<path d="M42.0179 45.7037C42.0951 45.7244 42.1827 45.7065 42.242 45.6396C45.5209 42.0497 48.6779 37.0618 51.1559 31.5196C53.6236 26.016 55.2806 20.2951 55.8166 15.5152C55.8373 15.438 55.7808 15.3401 55.7036 15.3194C55.6264 15.2987 55.5002 15.3063 55.4409 15.3732C55.392 15.4014 52.4012 19.1513 48.9227 19.6259C45.7454 20.0572 41.8142 18.0522 41.0938 17.6523C40.9884 17.5827 40.8905 17.6392 40.8208 17.7447C40.7512 17.8501 40.8077 17.948 40.8746 18.0073C42.207 18.9022 41.8806 22.7453 40.1383 26.6228C38.396 30.5003 35.741 33.3058 34.1969 32.892C34.0811 32.861 33.9832 32.9175 33.9522 33.0333C33.9211 33.1491 33.9777 33.247 34.0935 33.278C34.8834 33.5725 39.0057 35.1735 40.7736 37.8401C42.7215 40.7618 41.9049 45.5079 41.8945 45.5465C41.8945 45.5465 41.9125 45.6341 42.0179 45.7037ZM55.283 16.117C54.7008 20.7604 53.0879 26.1621 50.7416 31.3672C48.3953 36.5723 45.4161 41.3597 42.3613 44.8855C42.5407 43.444 42.6864 39.9662 41.0597 37.5444C39.5744 35.3673 36.7006 33.8939 35.0641 33.2071C36.7689 32.7123 38.924 30.2281 40.4754 26.7545C42.0164 23.3196 42.4786 20.0507 41.7107 18.4382C43.2597 19.1429 46.3603 20.3874 48.9351 20.043C51.86 19.6269 54.3344 17.1868 55.283 16.117Z" fill="#191A20"/>
<path d="M61.489 68.794C61.489 68.794 60.0867 70.3215 61.2723 71.3012C61.2723 71.3012 60.3021 75.3855 61.5172 77.4903C62.722 79.6336 64.9394 83.2481 65.5182 85.7201C66.0971 88.1922 64.5925 93.4988 64.5925 93.4988C64.5925 93.4988 72.777 95.0712 79.8865 93.7076C79.666 84.3392 83.6479 74.1109 83.5166 69.8141C83.3342 67.4068 82.6264 65.1071 81.4395 63.0513C80.4222 61.2892 79.1904 60.1731 78.2914 60.5942C76.3674 61.444 77.4303 70.2934 77.4303 70.2934C77.4303 70.2934 77.566 70.8676 77.6294 71.7121C77.0095 73.4078 76.5957 74.952 76.5584 76.0177C76.5473 76.6767 76.4873 77.364 76.399 78.0023C76.3107 78.6407 76.1452 79.2583 75.9797 79.876C75.5998 81.1395 74.2396 81.8922 72.9864 81.4736C72.8706 81.4426 72.7934 81.4219 72.6879 81.3523L65.8567 78.2806C65.8567 78.2806 65.3548 78.1462 65.4865 77.8091C65.5693 77.5002 65.7961 77.2714 66.1077 77.1894C66.1077 77.1894 73.7073 74.9228 71.7078 72.1941C71.7078 72.1941 73.4706 70.5564 72.458 69.0852C72.458 69.0852 73.9968 67.5115 73.0332 66.0121C73.0332 66.0121 73.9702 63.9048 73.5264 62.6274C73.4265 62.2282 73.1308 61.9421 72.7654 61.7615C70.9359 61.023 66.1421 61.3108 63.8838 61.8641C61.6536 62.4664 62.2421 65.5203 62.2421 65.5203C62.2421 65.5203 60.2365 67.755 61.489 68.794Z" fill="white"/>
<path d="M64.5671 93.7405C64.6443 93.7612 72.8778 95.3054 79.9383 93.97C80.0259 93.9521 80.0955 93.8467 80.1162 93.7695C79.9761 88.2704 81.3346 82.4283 82.4214 77.7545C83.1745 74.4808 83.8034 71.6704 83.736 69.9146C83.5535 67.5073 82.8175 65.1586 81.6024 63.0539C80.4155 60.9982 79.1706 60.0853 78.1944 60.4858C76.1828 61.3535 77.1127 69.4639 77.2043 70.3573C77.194 70.3959 77.3015 70.9212 77.4138 71.7374C76.7422 73.6262 76.3877 75.1034 76.3711 76.092C76.3593 77.3714 76.1441 78.6377 75.7745 79.8627C75.4152 81.049 74.1736 81.668 73.0259 81.3191C72.9487 81.2984 72.8329 81.2673 72.766 81.2081L65.9347 78.1364C65.8189 78.1054 65.7521 78.0461 65.6852 77.9868C65.6852 77.9868 65.6852 77.9868 65.6955 77.9482C65.7576 77.7166 65.9355 77.516 66.1595 77.4519C66.3836 77.3878 71.4312 75.8441 72.1262 73.7133C72.2993 73.2218 72.2304 72.7069 71.9271 72.2946C72.5586 71.6363 73.366 70.3218 72.6388 69.1753C72.9946 68.7741 73.977 67.4238 73.1857 66.0533C73.3871 65.6107 74.038 63.7991 73.6507 62.6196C73.5225 62.1715 73.1985 61.8365 72.756 61.6351C70.8107 60.8657 65.9679 61.1817 63.7481 61.7454C61.5284 62.3091 61.8418 64.9997 61.9389 65.5636C61.6914 65.8696 60.7993 67.0373 60.8985 68.0569C60.9033 68.3478 61.0342 68.6311 61.2527 68.8965C60.8763 69.3749 60.6439 69.9333 60.6432 70.5537C60.6659 70.9322 60.8251 71.2644 61.0926 71.5016C60.945 72.2068 60.2457 75.7431 61.3657 77.7396L61.7614 78.4249C62.9765 80.5296 64.8134 83.7111 65.3385 85.9206C65.8994 88.3051 64.4155 93.5344 64.3948 93.6116C64.3844 93.6502 64.4023 93.7378 64.4306 93.7867C64.4513 93.7095 64.4795 93.7585 64.5671 93.7405ZM79.6633 93.6067C73.3522 94.7705 66.1685 93.6318 64.8635 93.4062C65.1428 92.3639 66.2834 87.9528 65.7197 85.7331C65.156 83.5133 63.3398 80.2545 62.0861 78.1395L61.6904 77.4542C60.5421 75.4088 61.4428 71.4299 61.4531 71.3913C61.4738 71.3141 61.4559 71.2266 61.389 71.1673C61.1498 70.9791 61.0085 70.7343 60.9651 70.4331C60.9094 69.7148 61.6105 68.951 61.6105 68.951C61.6595 68.9228 61.6801 68.8456 61.6519 68.7966C61.6236 68.7477 61.5954 68.6987 61.5671 68.6498C61.3665 68.4719 61.2252 68.2272 61.2101 67.9749C61.1392 67.0042 62.2271 65.7235 62.2374 65.6849C62.2864 65.6566 62.307 65.5794 62.2891 65.4919C62.2816 65.3657 61.7365 62.6131 63.7812 62.0852C65.9238 61.5008 70.7176 61.2131 72.5085 61.9412C72.8455 62.0729 73.064 62.3383 73.1847 62.6603C73.572 63.8398 72.6942 65.8802 72.6839 65.9188C72.6632 65.996 72.6529 66.0346 72.7094 66.1325C73.5882 67.4851 72.2169 68.8968 72.1577 68.9636C72.0984 69.0305 72.0673 69.1463 72.1342 69.2056C73.062 70.5299 71.4563 72.0443 71.4177 72.034C71.3584 72.1008 71.3274 72.2167 71.3839 72.3145C71.6693 72.6393 71.7485 73.1156 71.6347 73.5402C70.9914 75.478 65.9927 76.9934 65.9438 77.0217C65.5833 77.132 65.2971 77.4277 65.2041 77.7751C65.173 77.8909 65.1702 78.0557 65.2268 78.1536C65.3501 78.3107 65.5225 78.4397 65.7155 78.4914L72.4695 81.5424C73.7972 82.1464 75.358 81.5716 75.9233 80.2336C75.9544 80.1178 76.024 80.0123 76.0447 79.9351C76.4246 78.6715 76.6116 77.3563 76.6337 76.0382C76.64 75.0883 77.0227 73.66 77.684 71.8098C77.6943 71.7712 77.7047 71.7326 77.7047 71.7326C77.6027 70.8778 77.5056 70.3139 77.5056 70.3139C77.2356 67.9245 76.7618 61.5086 78.2557 60.8746C79.0078 60.5382 80.1266 61.4586 81.1722 63.2696C82.3591 65.3254 83.0772 67.5866 83.27 69.9552C83.3478 71.6724 82.6802 74.4725 81.9478 77.669C80.91 82.3145 79.5721 88.0795 79.6633 93.6067Z" fill="#191A20"/>
<path d="M63.3027 65.266C66.9411 64.5032 72.9453 66.0293 72.9453 66.0293L63.3027 65.266Z" fill="white"/>
<path d="M63.2484 65.4597C63.287 65.4701 63.3256 65.4804 63.3359 65.4418C66.8869 64.6969 72.8138 66.2023 72.891 66.223C73.0069 66.254 73.1048 66.1975 73.1358 66.0817C73.1668 65.9659 73.1103 65.868 72.9945 65.837C72.7629 65.7749 66.9028 64.3288 63.2746 65.053C63.1485 65.0606 63.0788 65.166 63.125 65.3025C63.1429 65.3901 63.1712 65.439 63.2484 65.4597Z" fill="#191A20"/>
<path d="M72.3672 69.1035C72.3672 69.1035 67.1295 68.1138 62.8583 68.4588L72.3672 69.1035Z" fill="white"/>
<path d="M62.8327 68.7009C62.8713 68.7112 62.8713 68.7112 62.9099 68.7216C67.104 68.3559 72.303 69.3352 72.3416 69.3456C72.4575 69.3766 72.5657 69.2815 72.5967 69.1657C72.6278 69.0499 72.5326 68.9416 72.4168 68.9106C72.3782 68.9003 67.1406 67.9106 62.8589 68.2942C62.7328 68.3018 62.6632 68.4072 62.6707 68.5334C62.6886 68.6209 62.7169 68.6699 62.8327 68.7009Z" fill="#191A20"/>
<path d="M71.6484 72.2598C68.8097 71.5819 65.9165 71.2618 63.0357 71.3587L71.6484 72.2598Z" fill="white"/>
<path d="M62.9506 71.503C62.9892 71.5134 62.9892 71.5134 63.0278 71.5237C65.8983 71.4653 68.7915 71.7855 71.602 72.4144C71.7178 72.4454 71.8157 72.3889 71.8467 72.2731C71.8778 72.1573 71.8212 72.0594 71.7054 72.0284C68.8667 71.3505 65.9632 71.069 63.0155 71.1066C62.8997 71.0756 62.7914 71.1707 62.799 71.2969C62.768 71.4127 62.8631 71.5209 62.9506 71.503Z" fill="#191A20"/>
<path d="M75.6971 58.3681C75.7743 58.3888 75.8232 58.3606 75.8722 58.3323C75.9804 58.2372 86.4973 49.0979 87.7375 32.4252C87.73 32.2991 87.6735 32.2012 87.5473 32.2088C87.4211 32.2163 87.3232 32.2728 87.3308 32.399C86.0934 48.9069 75.7233 57.9614 75.6151 58.0565C75.5172 58.1131 75.5247 58.2392 75.5813 58.3371C75.6199 58.3474 75.6585 58.3578 75.6971 58.3681Z" fill="#191A20"/>
<path d="M64.6425 93.7604C65.8882 94.0528 67.1159 94.2576 68.385 94.308C76.6352 94.8637 80.7134 94.467 81.6214 92.9312C81.931 92.3935 81.8545 91.7524 81.3534 90.9975C81.2969 90.8996 81.1811 90.8686 81.0832 90.9251C80.9853 90.9816 80.9543 91.0974 81.0108 91.1953C81.4271 91.8034 81.496 92.3183 81.2664 92.7119C80.1081 94.7185 71.2968 94.0953 68.4112 93.9013C63.9863 93.5845 62.8675 92.6641 62.5953 92.1361C62.4926 91.9017 62.4774 91.6494 62.5781 91.4281C62.6477 91.3226 62.6015 91.1861 62.5243 91.1654C62.4189 91.0958 62.2824 91.142 62.2617 91.2192C62.0811 91.5845 62.0548 91.9913 62.2526 92.3339C62.5042 92.9392 63.33 93.4087 64.6425 93.7604Z" fill="#191A20"/>
<defs>
<linearGradient id="paint0_linear_4507_5655" x1="80.7691" y1="57.7397" x2="79.0954" y2="63.9861" gradientUnits="userSpaceOnUse">
<stop stop-color="#EEE420"/>
<stop offset="1" stop-color="#F75A5A"/>
</linearGradient>
<linearGradient id="paint1_linear_4507_5655" x1="105.975" y1="47.8258" x2="101.958" y2="62.82" gradientUnits="userSpaceOnUse">
<stop stop-color="#EEE420"/>
<stop offset="1" stop-color="#F75A5A"/>
</linearGradient>
<linearGradient id="paint2_linear_4507_5655" x1="49.4903" y1="3.72521" x2="36.5503" y2="52.0177" gradientUnits="userSpaceOnUse">
<stop stop-color="#EEE420"/>
<stop offset="1" stop-color="#F75A5A"/>
</linearGradient>
<linearGradient id="paint3_linear_4507_5655" x1="39.4612" y1="17.3583" x2="35.184" y2="33.3211" gradientUnits="userSpaceOnUse">
<stop stop-color="#EEE420"/>
<stop offset="1" stop-color="#F75A5A"/>
</linearGradient>
</defs>
</svg>
