<svg width="156" height="40" viewBox="0 0 156 40" fill="none" xmlns="http://www.w3.org/2000/svg">
<path d="M64.5757 29.7285H51.7807V9.36604H63.9982C68.1619 9.36604 70.4109 11.1288 70.4109 14.3199C70.4109 16.8424 69.0737 18.6659 65.6698 18.9091V19.1826C69.4384 19.4561 71.2619 21.3404 71.2619 24.0756C71.2619 27.5403 69.1344 29.7285 64.5757 29.7285ZM56.3395 13.4689V17.4502H63.4816C65.1531 17.4502 65.8521 16.8728 65.8521 15.4748C65.8521 14.0768 65.1227 13.4689 63.4208 13.4689H56.3395ZM56.3395 21.2188V25.6256H64.0286C65.8825 25.6256 66.6423 25.0482 66.6423 23.407C66.6423 21.7963 65.8825 21.2188 64.0286 21.2188H56.3395ZM77.1992 12.9523H72.6404V9.36604H77.1992V12.9523ZM77.1992 29.7285H72.6404V14.5022H77.1992V29.7285ZM90.0098 29.7285H86.2412C82.6854 29.7285 80.5275 28.057 80.5275 24.2276V18.2708H78.1266V14.5022H80.5275V11.5542H85.0863V14.5022H90.0098V18.2708H85.0863V23.7109C85.0863 25.2305 85.6637 25.6256 87.2745 25.6256H90.0098V29.7285ZM95.972 29.7285H91.4133V14.5022H95.6377V18.5443H95.9112C96.3367 16.0826 97.9475 14.1983 101.017 14.1983C104.421 14.1983 105.819 16.5385 105.819 19.5169V22.0394H101.26V20.459C101.26 18.7875 100.592 18.0581 98.7377 18.0581C96.7014 18.0581 95.972 19.0002 95.972 20.9149V29.7285ZM115.281 30.0324C110.084 30.0324 106.588 26.9325 106.588 22.1306C106.588 17.2679 110.084 14.1983 115.281 14.1983C120.478 14.1983 123.973 17.2679 123.973 22.1306C123.973 26.9325 120.478 30.0324 115.281 30.0324ZM115.281 25.9903C118.35 25.9903 119.444 24.8051 119.444 22.1306C119.444 19.4561 118.35 18.21 115.281 18.21C112.181 18.21 111.117 19.4561 111.117 22.1306C111.117 24.8051 112.181 25.9903 115.281 25.9903ZM133.645 30.0324C128.448 30.0324 124.953 26.9325 124.953 22.1306C124.953 17.2679 128.448 14.1983 133.645 14.1983C138.842 14.1983 142.337 17.2679 142.337 22.1306C142.337 26.9325 138.842 30.0324 133.645 30.0324ZM133.645 25.9903C136.715 25.9903 137.809 24.8051 137.809 22.1306C137.809 19.4561 136.715 18.21 133.645 18.21C130.545 18.21 129.481 19.4561 129.481 22.1306C129.481 24.8051 130.545 25.9903 133.645 25.9903ZM154.623 29.7285H150.855C147.299 29.7285 145.141 28.057 145.141 24.2276V18.2708H142.74V14.5022H145.141V11.5542H149.7V14.5022H154.623V18.2708H149.7V23.7109C149.7 25.2305 150.277 25.6256 151.888 25.6256H154.623V29.7285Z" fill="white"/>
<rect x="72.1797" y="8.51953" width="5.31887" height="4.32931" rx="0.742167" fill="#1F76F9"/>
<g filter="url(#filter0_i_5854_1175)">
<path d="M29.1754 16.7169C29.5243 16.112 29.7104 15.4141 29.7104 14.6697C29.7104 12.3665 27.8493 10.5287 25.5695 10.5287C23.2663 10.5287 21.4052 12.3898 21.4052 14.6697C21.4052 16.9728 23.2663 18.8339 25.5695 18.8339C26.1045 18.8339 26.5931 18.7409 27.0584 18.5548C30.1757 22.3701 32.4323 26.6972 33.8049 31.2802C33.2931 31.6524 32.758 32.0247 32.1997 32.3504C31.967 32.4667 31.7577 32.6063 31.4087 32.8157C30.1525 33.5834 28.966 34.1417 27.8261 34.7C25.3834 35.8633 23.057 37.0032 21.382 39.4227C19.6837 36.9799 17.3573 35.8633 14.9379 34.7C13.7747 34.1417 12.5882 33.5834 11.3087 32.8157L11.0993 32.6761C10.9365 32.583 10.7736 32.5132 10.634 32.4202C4.25973 28.5816 0.328125 21.6489 0.328125 14.2742C0.328125 13.7624 0.351389 13.2506 0.374653 12.762C0.677084 8.50467 2.2125 5.45708 5.28334 3.4331C5.49271 4.52651 5.74862 5.61993 6.05105 6.69007C7.51667 11.878 10.0757 16.7634 13.542 20.9975C13.1931 21.6024 13.007 22.3003 13.007 23.0447C13.007 25.3479 14.8681 27.209 17.1712 27.209C19.4743 27.209 21.3122 25.3479 21.3122 23.0447C21.3122 20.7416 19.4511 18.9037 17.1712 18.9037C16.6361 18.9037 16.1476 18.9968 15.6823 19.1829C11.5879 14.1811 8.93577 8.27203 7.91216 2.10705C11.1924 0.804259 15.6125 0.222656 21.382 0.222656C35.666 0.222656 41.7379 3.85185 42.366 12.7853C42.3893 13.2738 42.4125 13.7624 42.4125 14.2742C42.4125 19.9739 40.0861 25.3711 36.1313 29.2795C34.6191 24.743 32.2462 20.4624 29.1754 16.7169Z" fill="#1F76F9"/>
</g>
<path d="M36.1245 29.28C35.4033 30.0012 34.6356 30.6526 33.7981 31.2574C32.4255 26.6744 30.1689 22.3473 27.0516 18.532C26.5863 18.7181 26.0745 18.8111 25.5627 18.8111C23.2595 18.8111 21.3984 16.95 21.3984 14.6469C21.3984 12.3437 23.2595 10.5059 25.5627 10.5059C27.8658 10.5059 29.7036 12.367 29.7036 14.6469C29.7036 15.3913 29.5175 16.0892 29.1686 16.6941C32.2394 20.4629 34.6123 24.7435 36.1245 29.28Z" fill="#E9F2FF"/>
<path d="M21.3101 23.0451C21.3101 25.3482 19.449 27.2094 17.1691 27.2094C14.866 27.2094 13.0049 25.3482 13.0049 23.0451C13.0049 22.3007 13.191 21.6027 13.5399 20.9979C10.0736 16.7638 7.51459 11.8783 6.04896 6.69045C5.74653 5.6203 5.49063 4.52689 5.28125 3.43348C6.04896 2.92167 6.93299 2.47965 7.88681 2.10742C8.93368 8.27241 11.5858 14.1815 15.657 19.1833C16.1222 18.9972 16.634 18.9041 17.1458 18.9041C19.449 18.9041 21.3101 20.7652 21.3101 23.0451Z" fill="#E9F2FF"/>
<defs>
<filter id="filter0_i_5854_1175" x="0.328125" y="0.222656" width="44.5598" height="41.6731" filterUnits="userSpaceOnUse" color-interpolation-filters="sRGB">
<feFlood flood-opacity="0" result="BackgroundImageFix"/>
<feBlend mode="normal" in="SourceGraphic" in2="BackgroundImageFix" result="shape"/>
<feColorMatrix in="SourceAlpha" type="matrix" values="0 0 0 0 0 0 0 0 0 0 0 0 0 0 0 0 0 0 127 0" result="hardAlpha"/>
<feOffset dx="2.47389" dy="2.47389"/>
<feGaussianBlur stdDeviation="1.23695"/>
<feComposite in2="hardAlpha" operator="arithmetic" k2="-1" k3="1"/>
<feColorMatrix type="matrix" values="0 0 0 0 0.174292 0 0 0 0 0.308281 0 0 0 0 0.783333 0 0 0 1 0"/>
<feBlend mode="normal" in2="shape" result="effect1_innerShadow_5854_1175"/>
</filter>
</defs>
</svg>
