<svg width="46" height="38" viewBox="0 0 46 38" fill="none" xmlns="http://www.w3.org/2000/svg">
<path d="M45.5014 19.2498C45.4994 17.2629 44.9349 15.3172 43.873 13.6378C42.8112 11.9585 41.2955 10.6141 39.5014 9.76038V9.49976C39.4997 7.56704 38.8758 5.68622 37.7222 4.13559C36.5685 2.58496 34.9463 1.4469 33.0956 0.889806C31.2449 0.332708 29.2641 0.386168 27.4461 1.04228C25.6282 1.69838 24.0698 2.92228 23.0014 4.53288C21.9331 2.92228 20.3746 1.69838 18.5567 1.04228C16.7387 0.386168 14.7579 0.332708 12.9072 0.889806C11.0565 1.4469 9.43432 2.58496 8.28065 4.13559C7.12699 5.68622 6.50314 7.56704 6.50141 9.49976V9.76038C4.70579 10.6118 3.18865 11.9553 2.1263 13.6347C1.06394 15.3142 0.5 17.2606 0.5 19.2479C0.5 21.2351 1.06394 23.1816 2.1263 24.861C3.18865 26.5405 4.70579 27.884 6.50141 28.7354V28.9998C6.50314 30.9325 7.12699 32.8133 8.28065 34.3639C9.43432 35.9145 11.0565 37.0526 12.9072 37.6097C14.7579 38.1668 16.7387 38.1133 18.5567 37.4572C20.3746 36.8011 21.9331 35.5772 23.0014 33.9666C24.0698 35.5772 25.6282 36.8011 27.4461 37.4572C29.2641 38.1133 31.2449 38.1668 33.0956 37.6097C34.9463 37.0526 36.5685 35.9145 37.7222 34.3639C38.8758 32.8133 39.4997 30.9325 39.5014 28.9998V28.7354C41.2952 27.8823 42.8108 26.5386 43.8726 24.8599C44.9345 23.1812 45.4992 21.2361 45.5014 19.2498ZM15.5014 34.9998C14.0219 34.9995 12.5947 34.4527 11.4938 33.4643C10.393 32.4759 9.69608 31.1157 9.53703 29.6448C10.0221 29.714 10.5114 29.749 11.0014 29.7498H12.5014C12.8992 29.7498 13.2808 29.5917 13.5621 29.3104C13.8434 29.0291 14.0014 28.6476 14.0014 28.2498C14.0014 27.8519 13.8434 27.4704 13.5621 27.1891C13.2808 26.9078 12.8992 26.7498 12.5014 26.7498H11.0014C9.23058 26.7518 7.51614 26.1272 6.16162 24.9866C4.80709 23.8459 3.89987 22.2628 3.60055 20.5174C3.30124 18.7721 3.62915 16.9771 4.52624 15.4503C5.42332 13.9236 6.8317 12.7634 8.50203 12.1754C8.79429 12.0719 9.04731 11.8804 9.22627 11.6272C9.40524 11.3741 9.50136 11.0717 9.50141 10.7616V9.49976C9.50141 7.90846 10.1335 6.38233 11.2588 5.25712C12.384 4.1319 13.9101 3.49976 15.5014 3.49976C17.0927 3.49976 18.6188 4.1319 19.7441 5.25712C20.8693 6.38233 21.5014 7.90846 21.5014 9.49976V22.2985C19.8543 20.817 17.7168 19.9981 15.5014 19.9998C15.1036 19.9998 14.7221 20.1578 14.4407 20.4391C14.1594 20.7204 14.0014 21.1019 14.0014 21.4998C14.0014 21.8976 14.1594 22.2791 14.4407 22.5604C14.7221 22.8417 15.1036 22.9998 15.5014 22.9998C17.0927 22.9998 18.6188 23.6319 19.7441 24.7571C20.8693 25.8823 21.5014 27.4085 21.5014 28.9998C21.5014 30.5911 20.8693 32.1172 19.7441 33.2424C18.6188 34.3676 17.0927 34.9998 15.5014 34.9998ZM35.0014 26.7498H33.5014C33.1036 26.7498 32.7221 26.9078 32.4408 27.1891C32.1594 27.4704 32.0014 27.8519 32.0014 28.2498C32.0014 28.6476 32.1594 29.0291 32.4408 29.3104C32.7221 29.5917 33.1036 29.7498 33.5014 29.7498H35.0014C35.4914 29.749 35.9807 29.714 36.4658 29.6448C36.3412 30.7973 35.8854 31.889 35.1535 32.7879C34.4216 33.6869 33.445 34.3546 32.3417 34.7103C31.2384 35.066 30.0557 35.0945 28.9365 34.7923C27.8174 34.4901 26.8097 33.8702 26.0354 33.0076C25.2611 32.1449 24.7533 31.0764 24.5733 29.9312C24.3933 28.786 24.549 27.6133 25.0214 26.5547C25.4938 25.4961 26.2627 24.597 27.2352 23.9661C28.2078 23.3352 29.3422 22.9996 30.5014 22.9998C30.8992 22.9998 31.2808 22.8417 31.5621 22.5604C31.8434 22.2791 32.0014 21.8976 32.0014 21.4998C32.0014 21.1019 31.8434 20.7204 31.5621 20.4391C31.2808 20.1578 30.8992 19.9998 30.5014 19.9998C28.286 19.9981 26.1486 20.817 24.5014 22.2985V9.49976C24.5014 7.90846 25.1336 6.38233 26.2588 5.25712C27.384 4.1319 28.9101 3.49976 30.5014 3.49976C32.0927 3.49976 33.6188 4.1319 34.7441 5.25712C35.8693 6.38233 36.5014 7.90846 36.5014 9.49976V10.7616C36.5015 11.0717 36.5976 11.3741 36.7766 11.6272C36.9555 11.8804 37.2085 12.0719 37.5008 12.1754C39.1711 12.7634 40.5795 13.9236 41.4766 15.4503C42.3737 16.9771 42.7016 18.7721 42.4023 20.5174C42.103 22.2628 41.1957 23.8459 39.8412 24.9866C38.4867 26.1272 36.7722 26.7518 35.0014 26.7498ZM38.0014 16.9998C38.0014 17.3976 37.8434 17.7791 37.5621 18.0604C37.2808 18.3417 36.8992 18.4998 36.5014 18.4998H35.7514C33.9612 18.4998 32.2443 17.7886 30.9784 16.5227C29.7126 15.2569 29.0014 13.54 29.0014 11.7498V10.9998C29.0014 10.6019 29.1594 10.2204 29.4408 9.9391C29.7221 9.65779 30.1036 9.49976 30.5014 9.49976C30.8992 9.49976 31.2808 9.65779 31.5621 9.9391C31.8434 10.2204 32.0014 10.6019 32.0014 10.9998V11.7498C32.0014 12.7443 32.3965 13.6981 33.0998 14.4014C33.803 15.1047 34.7569 15.4998 35.7514 15.4998H36.5014C36.8992 15.4998 37.2808 15.6578 37.5621 15.9391C37.8434 16.2204 38.0014 16.6019 38.0014 16.9998ZM10.2514 18.4998H9.50141C9.10358 18.4998 8.72205 18.3417 8.44075 18.0604C8.15944 17.7791 8.00141 17.3976 8.00141 16.9998C8.00141 16.6019 8.15944 16.2204 8.44075 15.9391C8.72205 15.6578 9.10358 15.4998 9.50141 15.4998H10.2514C11.246 15.4998 12.1998 15.1047 12.9031 14.4014C13.6063 13.6981 14.0014 12.7443 14.0014 11.7498V10.9998C14.0014 10.6019 14.1594 10.2204 14.4407 9.9391C14.7221 9.65779 15.1036 9.49976 15.5014 9.49976C15.8992 9.49976 16.2808 9.65779 16.5621 9.9391C16.8434 10.2204 17.0014 10.6019 17.0014 10.9998V11.7498C17.0014 13.54 16.2903 15.2569 15.0244 16.5227C13.7585 17.7886 12.0416 18.4998 10.2514 18.4998Z" fill="url(#paint0_linear_5203_5938)"/>
<defs>
<linearGradient id="paint0_linear_5203_5938" x1="23.0007" y1="0.507812" x2="23.0007" y2="37.9917" gradientUnits="userSpaceOnUse">
<stop stop-color="white"/>
<stop offset="1" stop-color="#FF7792"/>
</linearGradient>
</defs>
</svg>
