<svg width="270" height="266" viewBox="0 0 270 266" fill="none" xmlns="http://www.w3.org/2000/svg">
<path d="M163.703 193.219C154.553 186.483 151.033 174.265 151.184 162.953C151.235 157.222 152.29 151.139 156.262 147.016C158.173 145.055 160.636 143.698 163.2 142.592C171.295 139.072 182.104 138.519 187.785 145.307C189.444 147.318 190.45 149.731 191.405 152.144C194.773 160.54 197.84 169.037 200.555 177.684C203.22 186.181 206.086 199.554 194.07 200.308C184.266 200.912 171.747 199.102 163.703 193.219Z" fill="white"/>
<path d="M190.407 200.761C181.608 200.761 170.799 198.901 163.509 193.521C155.264 187.488 150.689 176.327 150.84 162.903C150.94 155.513 152.649 150.234 156.068 146.714C158.28 144.452 161.146 143.095 163.107 142.19C171.402 138.57 182.363 138.067 188.094 145.005C189.703 146.966 190.708 149.329 191.814 151.943C195.183 160.289 198.25 168.886 200.965 177.483C203.931 186.885 204.082 193.27 201.518 196.99C200.009 199.202 197.496 200.409 194.127 200.61C192.92 200.761 191.664 200.761 190.407 200.761ZM163.911 192.918C172.157 198.951 184.876 200.51 194.027 199.906C197.144 199.705 199.456 198.599 200.814 196.588C203.227 193.069 203.026 186.935 200.11 177.735C197.445 169.137 194.378 160.591 191.01 152.245C189.954 149.681 188.999 147.418 187.44 145.508C181.96 138.871 171.352 139.374 163.308 142.893C161.397 143.698 158.582 145.106 156.521 147.217C153.253 150.586 151.594 155.714 151.543 162.903C151.393 176.076 155.917 186.985 163.911 192.918Z" fill="#282932"/>
<path d="M67.9842 150.334L41.5391 139.424C50.9406 119.364 61.4986 107.448 68.8389 102.773C78.1902 95.0302 101.317 94.4772 122.483 93.6728C122.483 93.6728 132.538 92.8181 142.644 95.6335C167.38 102.471 190.406 138.318 190.406 138.318L160.441 142.39C160.441 142.39 164.313 178.639 167.731 222.781C167.731 222.781 128.919 231.529 68.2355 228.11C68.1853 228.11 68.5372 156.618 67.9842 150.334Z" fill="#797B87"/>
<path d="M125.249 90.1043L128.568 106.042C128.568 106.042 125.048 116.6 114.34 115.494C103.631 114.388 98.7038 105.79 98.7038 105.79L94.8828 76.5298C94.8828 76.5298 102.022 71.4016 97.4972 55.0117C97.4972 55.0117 109.764 59.1846 124.948 55.1625C124.948 55.1625 132.087 72.6083 131.886 80.8032C131.685 88.9982 125.249 90.1043 125.249 90.1043Z" fill="white"/>
<path d="M115.895 115.895C115.392 115.895 114.839 115.845 114.337 115.795C103.577 114.689 98.4996 105.991 98.4494 105.89C98.3991 105.84 98.3991 105.79 98.3991 105.74L94.5781 76.4791C94.5781 76.3282 94.6284 76.2277 94.7289 76.1271C94.7792 76.0769 101.566 70.8984 97.2427 55.0113C97.1925 54.8604 97.2427 54.7096 97.3433 54.6593C97.4438 54.5588 97.5947 54.5085 97.7455 54.5588C97.846 54.6091 110.113 58.6311 124.945 54.7096C125.146 54.6593 125.347 54.7599 125.397 54.9107C125.699 55.6146 132.536 72.5575 132.386 80.7022C132.235 87.942 127.207 89.9027 125.749 90.3049L128.967 105.89C128.967 105.941 128.967 106.041 128.967 106.092C128.917 106.242 125.548 115.895 115.895 115.895ZM99.103 105.589C99.5554 106.343 104.482 114.035 114.387 115.041C124.291 116.046 127.81 107.047 128.162 105.941L124.894 90.1038C124.894 90.0033 124.894 89.9027 124.945 89.8022C124.995 89.7016 125.096 89.6513 125.196 89.6513C125.447 89.6011 131.43 88.4447 131.581 80.7022C131.732 73.2614 125.699 57.877 124.794 55.514C116.046 57.7764 106.896 57.7764 98.1477 55.514C101.969 70.1946 96.4886 75.6746 95.3825 76.6299L99.103 105.589Z" fill="#282932"/>
<path d="M100.964 75.1725C100.411 73.8151 99.4557 72.6587 98.1988 71.8543C96.9922 71.2007 95.685 70.7482 94.3276 70.4968C93.6237 70.2957 92.8193 70.2455 92.1154 70.3963C91.6127 70.5471 91.1099 70.7985 90.7077 71.1504C89.6519 71.8543 88.8978 72.9101 88.5459 74.1167C88.395 75.1222 88.4956 76.1277 88.7972 77.083C89.0486 78.1388 89.4508 79.1946 90.0039 80.1498C92.3668 84.0713 97.4447 85.3785 101.366 83.0155C101.416 83.0155 101.416 82.9653 101.467 82.9653" fill="white"/>
<path d="M97.0907 84.5242C94.0238 84.5242 91.2084 82.9153 89.6498 80.301C89.0968 79.2955 88.6443 78.29 88.3929 77.1839C88.041 76.1784 87.9405 75.0723 88.1416 74.0165C88.4935 72.7093 89.2979 71.6033 90.4542 70.8491C90.9067 70.4972 91.4095 70.1956 92.0128 70.0447C92.8172 69.8939 93.6216 69.9442 94.426 70.1453C95.8338 70.3464 97.1912 70.8491 98.4481 71.553C99.8056 72.3574 100.811 73.6143 101.414 75.0723C101.465 75.2734 101.414 75.4745 101.213 75.5751C101.012 75.6254 100.811 75.5751 100.711 75.374C100.208 74.0668 99.2525 72.9607 98.0962 72.2569C96.9398 71.6033 95.6327 71.2011 94.3255 70.9497C93.6719 70.7486 92.968 70.7486 92.2642 70.8491C91.8117 71 91.3592 71.2011 91.0073 71.5027C90.052 72.1563 89.3482 73.1116 88.9962 74.2176C88.8454 75.1729 88.946 76.1281 89.2476 77.0331C89.499 78.0889 89.9012 79.0441 90.4542 79.9994C92.6664 83.77 97.5431 84.9767 101.314 82.7645C101.364 82.7645 101.364 82.7142 101.414 82.7142C101.565 82.6137 101.817 82.664 101.917 82.8148C102.018 82.9656 101.967 83.217 101.817 83.3176C100.258 84.122 98.6995 84.5242 97.0907 84.5242Z" fill="#282932"/>
<path d="M126.556 98.0479C126.556 98.0479 120.623 99.8076 115.495 96.0369C110.367 92.2662 110.367 89.6016 110.367 89.6016C110.367 89.6016 118.26 92.6684 124.897 90.3557L126.556 98.0479Z" fill="#282932"/>
<path d="M123.183 98.852C120.318 98.9023 117.553 97.9973 115.24 96.3382C110.011 92.467 109.961 89.7521 109.961 89.6013C109.961 89.5007 110.011 89.3499 110.112 89.2996C110.212 89.2493 110.363 89.1991 110.464 89.2493C110.564 89.2996 118.307 92.2156 124.742 90.0035C124.843 89.9532 124.943 90.0035 125.044 90.0538C125.144 90.104 125.195 90.2046 125.245 90.3051L126.904 97.9471C126.954 98.1482 126.854 98.3493 126.653 98.3995C125.496 98.7012 124.34 98.852 123.183 98.852ZM110.866 90.2046C111.168 91.1598 112.173 93.1206 115.692 95.7349C119.916 98.852 124.792 98.0979 126.099 97.7962L124.591 90.9084C119.061 92.6178 112.827 90.8582 110.866 90.2046Z" fill="#282932"/>
<path d="M115.742 66.2734C115.742 66.2734 122.529 73.4126 121.474 75.0214C120.418 76.6303 116.697 76.3286 116.697 76.3286" fill="white"/>
<path d="M117.402 76.7315C116.95 76.7315 116.698 76.6813 116.648 76.6813C116.447 76.6813 116.296 76.4802 116.296 76.279C116.296 76.0779 116.497 75.9271 116.698 75.9271C117.653 76.0277 120.368 75.9774 121.122 74.8211C121.675 73.9664 118.609 69.8437 115.441 66.5255C115.29 66.3747 115.29 66.1233 115.441 65.9725C115.592 65.8217 115.843 65.8217 115.994 65.9725C117.653 67.6819 122.882 73.4636 121.776 75.173C120.921 76.5304 118.609 76.7315 117.402 76.7315Z" fill="#282932"/>
<path d="M107.264 69.3974C107.959 69.1175 108.204 68.0971 107.81 67.1183C107.416 66.1394 106.533 65.5728 105.837 65.8526C105.142 66.1325 104.897 67.1529 105.291 68.1317C105.685 69.1106 106.568 69.6772 107.264 69.3974Z" fill="#282932"/>
<path d="M121.287 67.1005C121.983 66.8206 122.227 65.8002 121.833 64.8214C121.439 63.8425 120.556 63.2759 119.861 63.5558C119.165 63.8356 118.921 64.856 119.315 65.8349C119.709 66.8137 120.592 67.3803 121.287 67.1005Z" fill="#282932"/>
<path d="M116.704 86.1319C114.089 86.1319 111.676 84.5733 109.665 81.6573C108.509 79.9479 107.604 78.138 106.95 76.1773C106.9 75.9762 107.001 75.7751 107.202 75.7248C107.403 75.6745 107.604 75.7751 107.654 75.9762C108.257 77.8364 109.162 79.596 110.218 81.2048C112.481 84.4728 115.246 85.8805 118.112 85.1766C125.05 83.5175 124.949 75.2723 124.949 75.1717C124.949 74.9706 125.1 74.7695 125.301 74.7695C125.502 74.7695 125.653 74.9204 125.703 75.1215C125.703 75.222 125.854 84.0203 118.313 85.8805C117.81 86.0816 117.257 86.1319 116.704 86.1319Z" fill="#282932"/>
<path d="M77.3796 143.9L64.6095 174.266L93.0657 149.681L111.215 155.815C111.215 155.815 107.143 182.863 82.4072 205.638C57.6714 228.413 32.081 224.09 30.623 202.722C29.165 181.355 44.1975 139.928 44.1975 139.928" fill="white"/>
<path d="M50.235 221.274C47.319 221.324 44.403 220.771 41.6881 219.715C34.8506 217 30.7782 210.967 30.2252 202.772C28.7672 181.556 43.6991 140.229 43.85 139.827C43.9002 139.626 44.1516 139.525 44.3527 139.575C44.5538 139.626 44.6544 139.877 44.6041 140.028C44.6041 140.028 44.6041 140.028 44.6041 140.078C44.4533 140.48 29.6219 181.656 31.0296 202.722C31.5827 210.615 35.4539 216.397 41.9898 219.011C52.8996 223.335 68.284 218.106 82.1602 205.386C105.086 184.22 110.264 159.133 110.817 156.066L93.2209 150.083L64.9156 174.517C64.7647 174.668 64.5133 174.618 64.3625 174.467C64.262 174.366 64.262 174.215 64.3122 174.065L77.0823 143.748C77.1829 143.547 77.384 143.447 77.5851 143.547C77.7862 143.648 77.8867 143.849 77.7862 144.05L65.5691 172.908L92.8187 149.379C92.9192 149.279 93.07 149.279 93.1706 149.329L111.32 155.462C111.471 155.513 111.622 155.714 111.572 155.865C111.521 156.116 107.248 183.265 82.6629 205.939C71.9039 215.844 60.1896 221.274 50.235 221.274Z" fill="#282932"/>
<path d="M100.354 105.438L132.732 131.128L133.637 132.687L137.91 140.178L129.665 137.664L127.956 137.162L95.5781 111.42L100.354 105.438Z" fill="url(#paint0_linear_4510_10069)"/>
<path d="M137.919 140.531H137.818L127.863 137.514C127.813 137.514 127.763 137.464 127.763 137.464L95.3852 111.723C95.2847 111.672 95.2847 111.572 95.2344 111.471C95.2344 111.371 95.2344 111.27 95.2847 111.17L100.061 105.187C100.212 105.036 100.413 105.036 100.564 105.136L132.941 130.878C132.992 130.928 132.992 130.928 133.042 130.978L138.22 139.978C138.321 140.179 138.271 140.38 138.069 140.48C138.069 140.531 138.019 140.531 137.919 140.531ZM128.165 136.81L137.114 139.525L132.489 131.38L100.463 105.941L96.1393 111.371L128.165 136.81Z" fill="#282932"/>
<path d="M133.644 132.688L137.917 140.179L129.672 137.665L133.644 132.688Z" fill="#797B87"/>
<path d="M137.922 140.53H137.822L129.577 138.017C129.376 137.966 129.275 137.765 129.325 137.564C129.325 137.514 129.376 137.464 129.376 137.413L133.347 132.436C133.448 132.335 133.548 132.285 133.649 132.285C133.75 132.285 133.9 132.386 133.951 132.486L138.274 139.977C138.375 140.178 138.325 140.38 138.124 140.48C138.073 140.53 138.023 140.53 137.922 140.53ZM130.331 137.464L137.168 139.525L133.599 133.341L130.331 137.464Z" fill="#282932"/>
<path d="M87.791 104.835L92.2153 99.254C92.6175 98.7512 93.3214 98.6507 93.8241 99.0529L109.812 111.722L103.93 119.113L87.9419 106.443C87.4894 106.091 87.3888 105.337 87.791 104.835Z" fill="url(#paint1_linear_4510_10069)"/>
<path d="M103.928 119.566C103.827 119.566 103.777 119.516 103.677 119.466L87.7391 106.796C87.0855 106.293 86.9347 105.338 87.4877 104.685C87.4877 104.685 87.4877 104.685 87.538 104.634L91.9622 99.0537C92.5153 98.4001 93.4705 98.2996 94.1241 98.8023L110.112 111.472C110.263 111.623 110.313 111.824 110.162 112.025L104.23 119.415C104.179 119.516 104.079 119.566 103.928 119.566ZM93.1186 99.2045H93.018C92.8169 99.2548 92.6158 99.3554 92.5153 99.5062L88.091 105.087C87.9402 105.238 87.8899 105.439 87.9402 105.64C87.9904 105.841 88.091 106.042 88.2418 106.143L103.928 118.611L109.307 111.874L93.6213 99.4056C93.4705 99.3051 93.3197 99.2548 93.1186 99.2045Z" fill="#282932"/>
<path d="M97.7418 118.107C97.6412 118.107 97.5909 118.057 97.4904 118.007C97.4401 117.957 89.4965 111.722 88.4407 110.717C87.1336 109.51 87.6866 107.047 87.7369 106.745C87.7871 106.544 87.9882 106.443 88.1893 106.443C88.3904 106.494 88.491 106.695 88.4407 106.896C88.4407 106.896 87.8877 109.158 88.8932 110.113C89.8485 110.968 96.8871 116.549 97.8926 117.353C98.0434 117.504 98.0937 117.705 97.9429 117.906C97.9931 118.007 97.8926 118.057 97.7418 118.107Z" fill="#282932"/>
<path d="M110.765 158.077C111.167 156.368 111.871 152.849 111.871 152.849C111.871 152.849 118.96 153.402 120.468 151.24C121.976 149.078 126.451 133.593 124.943 130.928C123.434 128.264 117.753 124.644 115.993 123.94C114.234 123.236 107.296 124.644 107.296 124.644L112.776 119.113C112.776 119.113 121.725 124.392 125.747 124.041C129.769 123.689 130.925 122.231 128.864 119.817C126.803 117.404 111.77 110.667 109.257 110.969C106.743 111.27 95.6318 121.728 95.3804 123.236C95.129 124.744 86.5821 153.703 88.392 156.921" fill="white"/>
<path d="M110.769 158.428H110.669C110.467 158.378 110.367 158.177 110.417 157.976C110.819 156.316 111.523 152.797 111.523 152.747C111.574 152.546 111.724 152.445 111.925 152.445C113.836 152.596 119.065 152.646 120.171 150.987C120.875 149.931 122.383 145.507 123.489 141.133C124.796 135.955 125.249 132.134 124.645 131.078C123.187 128.514 117.456 124.894 115.897 124.24C114.59 123.687 109.311 124.542 107.401 124.944C107.2 124.995 106.998 124.844 106.948 124.643C106.948 124.542 106.948 124.391 107.049 124.291L112.529 118.76C112.629 118.66 112.83 118.61 112.981 118.71C113.082 118.76 121.88 123.939 125.701 123.587C127.762 123.386 129.07 122.883 129.371 122.179C129.673 121.475 129.07 120.621 128.516 119.967C126.556 117.705 111.624 110.968 109.261 111.269C106.898 111.571 95.9377 121.777 95.6864 123.235C95.6361 123.537 95.3344 124.743 94.6808 127.156C92.6698 134.597 87.2903 154.255 88.698 156.668C88.7986 156.869 88.7483 157.071 88.5472 157.171C88.3461 157.272 88.145 157.221 88.0444 157.02C86.687 154.657 90.2566 140.48 93.977 126.905C94.53 124.944 94.9322 123.335 94.9825 123.084C95.2339 121.324 106.546 110.867 109.16 110.515C111.775 110.163 126.908 116.95 129.12 119.464C130.075 120.621 130.427 121.626 130.075 122.431C129.623 123.486 128.215 124.09 125.751 124.341C122.031 124.643 114.339 120.369 112.83 119.515L108.406 123.939C110.518 123.587 114.741 122.933 116.149 123.486C117.858 124.19 123.74 127.911 125.299 130.625C126.254 132.285 125.047 137.966 124.243 141.234C123.137 145.759 121.629 150.183 120.824 151.339C119.417 153.4 113.786 153.25 112.227 153.149C112.026 154.054 111.523 156.719 111.171 158.076C111.121 158.327 110.97 158.428 110.769 158.428Z" fill="#282932"/>
<path d="M105.039 131.481C105.039 131.481 114.441 129.872 116.502 130.475C118.563 131.079 124.546 137.464 124.546 137.464" fill="white"/>
<path d="M124.489 137.815C124.389 137.815 124.288 137.765 124.188 137.715C122.579 135.955 117.953 131.279 116.345 130.827C114.736 130.374 107.647 131.43 105.033 131.883C104.831 131.933 104.63 131.782 104.58 131.581C104.53 131.38 104.681 131.179 104.882 131.128C105.284 131.078 114.384 129.52 116.495 130.123C118.607 130.726 124.439 136.96 124.69 137.212C124.841 137.363 124.841 137.614 124.69 137.765C124.69 137.815 124.59 137.865 124.489 137.815Z" fill="#282932"/>
<path d="M111.875 152.849C111.875 152.849 113.283 148.374 112.931 145.207L111.875 152.849Z" fill="white"/>
<path d="M111.873 153.201C111.822 153.201 111.822 153.201 111.772 153.201C111.571 153.15 111.47 152.949 111.521 152.748C111.521 152.698 112.878 148.324 112.576 145.207C112.576 145.006 112.677 144.805 112.928 144.805C113.129 144.805 113.331 144.905 113.331 145.157C113.682 148.425 112.325 152.799 112.275 153C112.174 153.1 112.023 153.201 111.873 153.201Z" fill="#282932"/>
<path d="M106.75 145.056C107.202 144.956 115.096 145.157 115.599 145.056H106.75Z" fill="white"/>
<path d="M114.437 145.457C113.733 145.457 112.627 145.457 111.169 145.407C109.359 145.407 107.097 145.357 106.845 145.407C106.644 145.457 106.443 145.307 106.393 145.105C106.342 144.904 106.493 144.703 106.644 144.653C106.895 144.603 108.203 144.603 111.169 144.653C112.979 144.653 115.241 144.703 115.493 144.653C115.694 144.603 115.895 144.753 115.945 144.955C115.995 145.156 115.895 145.357 115.694 145.407C115.241 145.457 114.839 145.457 114.437 145.457Z" fill="#282932"/>
<path d="M103.523 137.816C103.523 137.816 110.311 136.308 113.478 137.011C116.645 137.715 122.226 144.301 122.829 144.905" fill="white"/>
<path d="M122.835 145.256C122.734 145.256 122.634 145.206 122.583 145.156C122.483 145.055 122.332 144.904 122.131 144.653C120.623 142.994 116.148 137.966 113.433 137.413C110.366 136.759 103.68 138.217 103.629 138.217C103.428 138.268 103.227 138.167 103.177 137.966C103.127 137.765 103.227 137.564 103.428 137.514H103.479C103.78 137.463 110.366 136.005 113.634 136.709C116.249 137.262 120.07 141.234 122.734 144.2C122.935 144.452 123.086 144.603 123.187 144.703C123.337 144.854 123.337 145.105 123.187 145.256C123.036 145.256 122.935 145.256 122.835 145.256Z" fill="#282932"/>
<path d="M50.6879 185.276C50.4868 185.276 50.3359 185.125 50.3359 184.874C50.3359 184.773 50.3862 184.673 50.4868 184.572L64.4132 173.914C64.564 173.813 64.8154 173.813 64.9159 173.964C65.0668 174.115 65.0165 174.366 64.8657 174.467L50.9895 185.125C50.8387 185.276 50.7884 185.276 50.6879 185.276Z" fill="#282932"/>
<path d="M88.5963 68.8874C88.4455 68.8874 88.2947 68.7869 88.2444 68.5858C86.9875 63.2565 85.7306 57.877 84.6245 52.6483L84.524 52.0953C84.0212 49.8329 83.4682 47.2688 83.619 44.9059C83.7698 42.0401 86.0322 41.839 87.44 41.8893C87.7919 39.4258 89.0991 37.2137 91.1604 35.8059C96.3891 32.1861 101.919 33.7949 107.249 35.3534C110.718 36.359 114.287 37.4148 117.605 36.912C119.818 36.6103 121.879 35.5546 123.89 34.549H123.94C124.644 34.1971 125.398 33.8452 126.102 33.4932C127.56 32.8397 134.8 29.8231 136.761 33.7949C137.364 35.0015 136.911 36.2584 136.358 37.3142C135.655 38.7722 134.85 40.1799 133.945 41.5374C134.398 41.286 134.9 41.0849 135.403 40.8838C137.364 40.0291 139.576 39.9788 141.587 40.733C142.442 41.0849 143.196 41.6379 143.699 42.4423C144.704 44.0512 144.302 46.1628 142.492 48.6766C141.487 50.0843 140.431 51.492 139.274 52.7992C140.682 51.9445 142.241 51.1903 143.95 51.6428C144.754 51.7937 145.408 52.3467 145.81 53.0506C146.514 54.5085 145.358 56.0168 144.956 56.5196C141.939 60.4914 138.068 63.7593 133.694 66.1726C133.493 66.2731 133.292 66.2228 133.191 66.0217C133.09 65.8206 133.141 65.6195 133.342 65.519C133.342 65.519 133.342 65.519 133.392 65.519C137.666 63.2063 141.436 59.9886 144.403 56.0671C144.704 55.6649 145.659 54.408 145.157 53.3522C144.855 52.8494 144.403 52.4472 143.799 52.3467C142.09 51.8942 140.531 52.8997 139.023 53.855C138.52 54.1566 138.068 54.4583 137.565 54.7599C137.364 54.8605 137.163 54.7599 137.062 54.6091C137.012 54.4583 137.012 54.3074 137.113 54.2069C138.872 52.3467 140.481 50.3859 141.939 48.2743C143.498 46.0119 143.9 44.202 143.095 42.8948C142.693 42.2412 142.04 41.7888 141.336 41.4871C139.727 40.8335 137.716 40.8838 135.705 41.6379C134.75 42.0401 133.794 42.4926 132.94 43.0959C132.789 43.1965 132.588 43.1965 132.437 43.0457C132.336 42.8948 132.286 42.6937 132.387 42.5932C133.593 40.8335 134.699 38.9733 135.655 37.0628C136.107 36.1579 136.459 35.1021 136.057 34.1971C134.347 30.7783 127.208 33.8954 126.353 34.2474C125.65 34.549 124.895 34.901 124.242 35.2529H124.192C122.13 36.2584 119.968 37.3645 117.656 37.6661C114.187 38.1689 110.517 37.1131 106.997 36.1076C101.819 34.5993 96.4394 33.0408 91.5123 36.4595C89.5516 37.817 88.2947 39.9788 88.0936 42.3418C88.0433 42.5429 87.8925 42.6937 87.6913 42.6937C85.982 42.6434 84.4737 42.7943 84.3229 45.0064C84.172 47.2185 84.7754 49.8329 85.2781 52.045L85.3787 52.5981C86.535 57.877 87.7416 63.2063 88.9985 68.5355C89.0488 68.7366 88.9482 68.9377 88.7471 68.988C88.6466 68.8874 88.6466 68.8874 88.5963 68.8874Z" fill="#797B87"/>
<path d="M91.3597 108.556C91.1586 108.556 90.9575 108.354 91.0078 108.153C91.0078 108.053 91.0581 108.003 91.1084 107.902L96.1862 101.768C96.3371 101.617 96.5884 101.567 96.7393 101.718C96.8901 101.869 96.9404 102.12 96.7895 102.271L91.7117 108.405C91.6111 108.505 91.5106 108.556 91.3597 108.556Z" fill="white"/>
<path d="M138.773 141.135C138.672 141.135 138.622 141.085 138.521 141.034L137.465 140.23C137.315 140.129 137.264 139.878 137.365 139.727C137.465 139.576 137.717 139.526 137.868 139.627C137.868 139.627 137.918 139.627 137.918 139.677L138.974 140.481C139.124 140.632 139.175 140.833 139.024 141.034C139.024 141.085 138.923 141.135 138.773 141.135Z" fill="#282932"/>
<path d="M145.505 64.7637H233.639C235.097 64.7637 236.253 65.92 236.253 67.378V182.962C236.253 184.42 235.097 185.577 233.639 185.577H145.505C144.047 185.577 142.891 184.42 142.891 182.962V67.378C142.891 65.92 144.097 64.7637 145.505 64.7637Z" fill="#484954"/>
<path d="M230.524 72.1543H148.625V178.136H230.524V72.1543Z" fill="white"/>
<path d="M230.571 178.538H148.621C148.42 178.538 148.219 178.387 148.219 178.136V72.1542C148.219 71.9531 148.37 71.8022 148.571 71.752H230.47C230.671 71.752 230.822 71.9028 230.872 72.1039V178.136C230.923 178.387 230.772 178.538 230.571 178.538ZM149.023 177.784H230.168V72.5564H149.023V177.784Z" fill="#282932"/>
<path d="M211.018 60.4903H199.253C198.197 55.1611 193.069 51.692 187.74 52.7478C183.818 53.502 180.752 56.5688 179.997 60.4903H168.183C166.624 60.4903 165.367 61.7472 165.367 63.3058V73.1598C165.367 74.7184 166.624 75.9753 168.183 75.9753H211.018C212.576 75.9753 213.833 74.7184 213.833 73.1598V63.3058C213.833 61.7472 212.576 60.4903 211.018 60.4903ZM189.6 61.7975C188.192 61.7975 187.086 60.6914 187.086 59.2837C187.086 57.876 188.192 56.7699 189.6 56.7699C191.008 56.7699 192.114 57.876 192.114 59.2837C192.114 60.6411 191.008 61.7975 189.6 61.7975Z" fill="#484954"/>
<path d="M180.196 106.544H160.387C159.985 106.544 159.633 106.192 159.633 105.789V84.6233C159.633 84.2211 159.985 83.8691 160.387 83.8691H180.196C180.598 83.8691 180.95 84.2211 180.95 84.6233V105.789C180.95 106.192 180.598 106.544 180.196 106.544ZM160.387 84.6233V105.789H180.196V84.6735L160.387 84.6233Z" fill="#282932"/>
<path d="M184.824 89.8013C184.724 90.0024 184.623 90.1532 184.472 90.304C180.199 94.5775 175.976 98.8006 171.702 103.074C171.501 103.426 171.049 103.527 170.697 103.325C170.596 103.275 170.546 103.175 170.445 103.074L163.256 95.6333C162.954 95.3819 162.904 94.9294 163.105 94.6278C163.155 94.5775 163.206 94.5272 163.256 94.4769L165.066 92.8681C165.317 92.5664 165.719 92.5162 166.021 92.7675C166.071 92.8178 166.122 92.8178 166.122 92.8681L170.395 97.1918C170.848 97.6443 171.149 97.6443 171.602 97.1918L181.556 87.2875C181.757 86.9355 182.21 86.8853 182.562 87.0864C182.662 87.1366 182.713 87.1869 182.763 87.2875C183.316 87.8405 183.869 88.3935 184.422 88.9969C184.523 89.1477 184.673 89.2985 184.774 89.4493L184.824 89.8013Z" fill="url(#paint2_linear_4510_10069)"/>
<path d="M180.196 135.401H160.387C159.985 135.401 159.633 135.049 159.633 134.647V113.481C159.633 113.078 159.985 112.727 160.387 112.727H180.196C180.598 112.727 180.95 113.078 180.95 113.481V134.647C180.95 135.049 180.598 135.401 180.196 135.401ZM160.387 113.481V134.647H180.196V113.481H160.387Z" fill="#282932"/>
<path d="M184.824 118.659C184.724 118.86 184.623 119.011 184.472 119.161C180.199 123.435 175.976 127.658 171.702 131.932C171.501 132.283 171.049 132.384 170.697 132.183C170.596 132.133 170.546 132.032 170.445 131.932L163.256 124.491C162.954 124.239 162.904 123.787 163.105 123.485C163.155 123.435 163.206 123.385 163.256 123.334L165.066 121.726C165.317 121.424 165.719 121.374 166.021 121.625C166.071 121.675 166.122 121.675 166.122 121.726L170.395 126.049C170.848 126.502 171.149 126.502 171.602 126.049L181.556 116.145C181.757 115.793 182.21 115.743 182.562 115.944C182.662 115.994 182.713 116.044 182.763 116.145C183.316 116.698 183.869 117.251 184.422 117.854C184.523 118.005 184.673 118.156 184.774 118.307L184.824 118.659Z" fill="url(#paint3_linear_4510_10069)"/>
<path d="M180.196 164.259H160.387C159.985 164.259 159.633 163.907 159.633 163.505V142.389C159.633 141.987 159.985 141.635 160.387 141.635H180.196C180.598 141.635 180.95 141.987 180.95 142.389V163.505C180.95 163.957 180.598 164.259 180.196 164.259ZM160.387 142.389V163.555H180.196V142.439L160.387 142.389Z" fill="#282932"/>
<path d="M220.672 92.2654H191.512C191.31 92.2654 191.109 92.1145 191.109 91.8631C191.109 91.6118 191.26 91.4609 191.512 91.4609H220.672C220.873 91.4609 221.074 91.6118 221.074 91.8631C221.074 92.1145 220.873 92.2654 220.672 92.2654Z" fill="#282932"/>
<path d="M213.076 98.9001H191.457C191.256 98.9001 191.055 98.7493 191.055 98.4979C191.055 98.2465 191.206 98.0957 191.457 98.0957H213.076C213.277 98.0957 213.478 98.2465 213.478 98.4979C213.478 98.7493 213.277 98.9001 213.076 98.9001Z" fill="#282932"/>
<path d="M220.672 121.072H191.512C191.31 121.072 191.109 120.921 191.109 120.67C191.109 120.418 191.26 120.268 191.512 120.268H220.672C220.873 120.268 221.074 120.418 221.074 120.67C221.074 120.921 220.873 121.072 220.672 121.072Z" fill="#282932"/>
<path d="M213.076 127.709H191.457C191.256 127.709 191.055 127.558 191.055 127.307C191.055 127.055 191.206 126.904 191.457 126.904H213.076C213.277 126.904 213.478 127.055 213.478 127.307C213.478 127.558 213.277 127.709 213.076 127.709Z" fill="#282932"/>
<path d="M220.672 149.98H191.512C191.31 149.98 191.109 149.829 191.109 149.578C191.109 149.327 191.26 149.176 191.512 149.176H220.672C220.873 149.176 221.074 149.327 221.074 149.578C221.074 149.829 220.873 149.98 220.672 149.98Z" fill="#282932"/>
<path d="M213.076 156.617H191.457C191.256 156.617 191.055 156.466 191.055 156.215C191.055 155.963 191.206 155.812 191.457 155.812H213.076C213.277 155.812 213.478 155.963 213.478 156.215C213.478 156.466 213.277 156.617 213.076 156.617Z" fill="#282932"/>
<path d="M218.257 185.276C218.458 183.969 218.559 182.611 218.659 181.304C218.861 178.64 218.207 175.673 217.403 173.21C217.051 172.104 216.548 170.947 215.593 170.193C214.637 169.439 213.079 169.439 212.425 170.445C211.822 171.299 212.073 172.456 212.325 173.461C212.928 176.226 213.079 179.042 212.727 181.857C212.274 178.087 211.772 174.165 209.71 170.947C209.258 170.193 208.655 169.59 207.951 169.138C207.197 168.685 206.241 168.735 205.537 169.188C204.482 169.942 204.582 171.501 204.683 172.808C205.035 176.126 204.984 179.494 204.532 182.813C204.783 179.897 204.582 176.981 203.929 174.115C203.476 172.255 202.672 170.193 200.862 169.59C200.46 169.439 200.057 169.439 199.605 169.489C198.75 169.791 198.147 170.495 197.996 171.35C197.845 172.204 197.845 173.059 197.996 173.914C198.348 177.282 198.247 180.651 197.694 183.969C198.097 181.053 197.996 178.087 197.393 175.221C197.242 174.065 196.789 172.959 196.086 172.054C195.331 171.199 194.024 170.646 192.968 171.149C192.164 171.601 191.611 172.355 191.46 173.26C191.309 174.165 191.309 175.07 191.36 175.925C191.46 179.293 190.807 182.662 189.499 185.829C188.444 188.443 187.036 191.309 187.287 194.225C187.539 197.242 189.952 199.856 192.767 200.962C195.583 202.068 198.8 201.968 201.767 201.415C211.571 199.454 219.715 194.778 223.184 185.377" fill="white"/>
<path d="M197.544 202.27C195.835 202.32 194.125 202.018 192.516 201.365C189.349 200.108 187.036 197.292 186.785 194.326C186.533 191.611 187.69 188.947 188.695 186.584L189.047 185.729C190.304 182.662 190.958 179.344 190.857 175.975V175.573C190.807 174.769 190.857 174.015 190.958 173.21C191.109 172.205 191.762 171.3 192.667 170.847C193.924 170.294 195.432 170.898 196.237 171.853C196.991 172.808 197.443 173.914 197.644 175.121C197.594 174.769 197.594 174.367 197.544 174.015V173.814C197.393 173.009 197.393 172.155 197.544 171.35C197.695 170.345 198.449 169.49 199.404 169.188C199.857 169.088 200.359 169.088 200.862 169.289C202.471 169.792 203.577 171.4 204.18 174.065C204.231 174.367 204.331 174.719 204.381 175.02C204.331 174.316 204.281 173.613 204.231 172.909C204.08 171.451 204.029 169.792 205.236 168.937C206.091 168.384 207.197 168.334 208.052 168.887C208.856 169.339 209.51 170.043 209.962 170.847C211.219 172.909 212.023 175.221 212.375 177.635C212.325 176.277 212.124 174.92 211.822 173.613C211.571 172.557 211.319 171.25 212.023 170.294C212.375 169.842 212.928 169.49 213.481 169.44C214.286 169.339 215.09 169.49 215.744 169.993C216.8 170.747 217.302 172.054 217.705 173.16C218.76 176.327 219.163 179.093 219.012 181.405C218.961 181.807 218.961 182.159 218.961 182.511C218.911 183.467 218.811 184.472 218.66 185.427C218.609 185.628 218.408 185.779 218.207 185.729C218.006 185.679 217.855 185.478 217.906 185.277C218.056 184.321 218.157 183.416 218.207 182.461C218.207 182.109 218.258 181.757 218.258 181.355C218.408 179.143 218.006 176.478 217.001 173.361C216.649 172.356 216.196 171.199 215.342 170.546C214.839 170.194 214.235 170.043 213.632 170.143C213.23 170.194 212.878 170.395 212.677 170.697C212.174 171.4 212.426 172.456 212.627 173.411C213.28 176.227 213.381 179.093 213.029 181.958C213.029 182.159 212.828 182.31 212.627 182.31C212.426 182.31 212.275 182.159 212.275 181.958C211.873 178.439 211.37 174.417 209.308 171.25C208.906 170.546 208.353 169.993 207.649 169.54C206.996 169.188 206.242 169.188 205.638 169.54C204.784 170.194 204.834 171.551 204.934 172.808C205.286 176.177 205.236 179.545 204.784 182.914C204.733 183.115 204.583 183.265 204.331 183.215C204.13 183.165 203.979 183.014 204.029 182.813C204.281 179.947 204.029 177.082 203.376 174.266C202.823 171.903 201.868 170.445 200.56 170.043C200.259 169.942 199.907 169.892 199.555 169.993C198.851 170.244 198.348 170.847 198.248 171.601C198.147 172.356 198.147 173.11 198.248 173.864V174.065C198.6 177.433 198.499 180.852 197.946 184.221C197.896 184.422 197.695 184.573 197.494 184.522C197.293 184.472 197.192 184.321 197.192 184.12C197.594 181.254 197.494 178.338 196.89 175.523C196.739 174.417 196.287 173.411 195.633 172.506C195.03 171.803 193.874 171.3 192.969 171.702C192.265 172.054 191.812 172.758 191.662 173.562C191.561 174.266 191.511 175.02 191.561 175.724V176.126C191.662 179.595 191.008 183.014 189.701 186.181C189.6 186.433 189.449 186.735 189.349 187.036C188.343 189.449 187.288 191.913 187.539 194.427C187.79 197.091 189.852 199.706 192.768 200.862C195.181 201.817 198.097 201.968 201.566 201.264C212.526 199.102 219.665 193.773 222.732 185.478C222.782 185.277 222.983 185.176 223.185 185.226C223.386 185.277 223.486 185.478 223.436 185.679V185.729C220.269 194.276 212.979 199.756 201.717 202.018C200.359 202.119 198.952 202.27 197.544 202.27Z" fill="#282932"/>
<defs>
<linearGradient id="paint0_linear_4510_10069" x1="116.744" y1="105.438" x2="116.744" y2="140.178" gradientUnits="userSpaceOnUse">
<stop stop-color="white"/>
<stop offset="1" stop-color="#444AFA"/>
</linearGradient>
<linearGradient id="paint1_linear_4510_10069" x1="98.6755" y1="98.8047" x2="98.6755" y2="119.113" gradientUnits="userSpaceOnUse">
<stop stop-color="white"/>
<stop offset="1" stop-color="#444AFA"/>
</linearGradient>
<linearGradient id="paint2_linear_4510_10069" x1="175" y1="98.9993" x2="166.798" y2="85.4959" gradientUnits="userSpaceOnUse">
<stop stop-color="#00D885"/>
<stop offset="1" stop-color="white"/>
</linearGradient>
<linearGradient id="paint3_linear_4510_10069" x1="175" y1="127.857" x2="166.798" y2="114.353" gradientUnits="userSpaceOnUse">
<stop stop-color="#00D885"/>
<stop offset="1" stop-color="white"/>
</linearGradient>
</defs>
</svg>
