<svg width="71" height="70" viewBox="0 0 71 70" fill="none" xmlns="http://www.w3.org/2000/svg">
<g clip-path="url(#clip0_5203_5928)">
<g filter="url(#filter0_d_5203_5928)">
<path d="M35.5 61.25C49.9975 61.25 61.75 49.4975 61.75 35C61.75 20.5025 49.9975 8.75 35.5 8.75C21.0025 8.75 9.25 20.5025 9.25 35C9.25 49.4975 21.0025 61.25 35.5 61.25Z" fill="#00D885"/>
<path d="M35.5 61.25C49.9975 61.25 61.75 49.4975 61.75 35C61.75 20.5025 49.9975 8.75 35.5 8.75C21.0025 8.75 9.25 20.5025 9.25 35C9.25 49.4975 21.0025 61.25 35.5 61.25Z" stroke="#00D885" stroke-width="1.5" stroke-linecap="round" stroke-linejoin="round"/>
</g>
<path d="M24.5625 37.1875L31.125 43.75L46.4375 28.4375" stroke="#191A20" stroke-width="2" stroke-linecap="round" stroke-linejoin="round"/>
</g>
<defs>
<filter id="filter0_d_5203_5928" x="2.5" y="5" width="66" height="66" filterUnits="userSpaceOnUse" color-interpolation-filters="sRGB">
<feFlood flood-opacity="0" result="BackgroundImageFix"/>
<feColorMatrix in="SourceAlpha" type="matrix" values="0 0 0 0 0 0 0 0 0 0 0 0 0 0 0 0 0 0 127 0" result="hardAlpha"/>
<feOffset dy="3"/>
<feGaussianBlur stdDeviation="3"/>
<feComposite in2="hardAlpha" operator="out"/>
<feColorMatrix type="matrix" values="0 0 0 0 0 0 0 0 0 0.847059 0 0 0 0 0.521569 0 0 0 0.2 0"/>
<feBlend mode="normal" in2="BackgroundImageFix" result="effect1_dropShadow_5203_5928"/>
<feBlend mode="normal" in="SourceGraphic" in2="effect1_dropShadow_5203_5928" result="shape"/>
</filter>
<clipPath id="clip0_5203_5928">
<rect width="70" height="70" fill="white" transform="translate(0.5)"/>
</clipPath>
</defs>
</svg>
