<svg width="270" height="266" viewBox="0 0 270 266" fill="none" xmlns="http://www.w3.org/2000/svg">
<path d="M134.298 39.6911C134.136 37.6931 125.226 43.5251 125.226 43.5251C125.226 43.5251 132.786 37.6931 132.138 36.2891C131.49 34.8851 122.958 41.2031 122.958 41.2031C122.958 41.2031 130.734 35.2091 129.546 33.9131C128.358 32.6171 119.988 39.3671 119.988 39.3671C119.988 39.3671 128.466 31.9151 125.226 31.7531C123.768 31.6451 112.375 39.4211 100.062 48.7091C103.465 52.9751 106.974 57.1871 110.7 61.2371C114.642 57.1331 117.774 53.8931 118.206 53.3531C119.502 51.7331 132.084 52.8131 132.138 50.8151C132.192 48.8171 123.823 47.8991 123.823 47.8991C123.823 47.8991 134.406 41.6891 134.298 39.6911Z" fill="white"/>
<path d="M110.703 61.6147C110.595 61.6147 110.487 61.5607 110.433 61.5067C107.139 57.8887 103.737 53.9467 99.7408 48.9787C99.6868 48.8707 99.6328 48.8167 99.6328 48.7087C99.6328 48.6007 99.6868 48.4927 99.7948 48.4387C108.921 41.5807 123.177 31.4287 125.175 31.4287H125.229C125.715 31.3747 126.147 31.6447 126.309 32.0767C126.579 32.8867 125.607 34.2907 124.365 35.7487C126.741 34.1827 129.117 32.9407 129.819 33.7507C129.981 33.9667 130.089 34.1827 130.035 34.4527C129.981 35.1547 129.171 36.2347 128.091 37.3147C129.711 36.3427 131.223 35.6407 131.925 35.8027C132.141 35.8567 132.357 36.0187 132.465 36.2347C132.897 37.1527 131.277 38.9887 129.387 40.7167C131.439 39.6367 133.491 38.7187 134.247 39.1507C134.517 39.2587 134.679 39.5287 134.679 39.7987C134.787 41.6347 127.929 45.9547 125.013 47.7367C127.713 48.1147 132.573 49.0327 132.519 50.9227C132.465 52.2727 129.657 52.4887 125.013 52.7587C122.313 52.9207 118.965 53.0827 118.479 53.7307C118.101 54.2167 115.617 56.8087 110.973 61.6687C110.919 61.5607 110.811 61.6147 110.703 61.6147ZM100.605 48.7087C104.331 53.3527 107.571 57.1867 110.703 60.5887C116.157 54.9187 117.615 53.3527 117.885 53.0287C118.533 52.1647 121.017 52.0027 125.013 51.7867C127.389 51.6787 131.709 51.4087 131.763 50.7067C131.763 49.6807 127.659 48.6007 123.825 48.2227C123.663 48.2227 123.501 48.0607 123.501 47.8987C123.447 47.7367 123.555 47.5747 123.717 47.4667C128.847 44.4967 134.085 40.7707 134.031 39.6907C134.031 39.6907 134.031 39.6907 134.031 39.6367C133.491 39.2587 129.603 41.1487 125.553 43.7947C125.391 43.9027 125.121 43.8487 125.013 43.6867C124.905 43.5247 124.959 43.3087 125.121 43.2007C129.009 40.2307 132.195 37.0447 131.871 36.3967C131.277 36.1267 127.335 38.3947 123.285 41.4187C123.123 41.5267 122.853 41.5267 122.745 41.3647C122.637 41.2027 122.637 40.9327 122.799 40.8247C125.283 38.9347 129.225 35.4247 129.333 34.2367C129.333 34.1827 129.333 34.1287 129.333 34.1287C128.847 33.5887 124.581 36.2347 120.315 39.6367C120.153 39.7987 119.883 39.7447 119.775 39.5827C119.613 39.4207 119.667 39.1507 119.829 39.0427C122.853 36.3967 125.931 33.0487 125.661 32.2387C125.607 32.1847 125.445 32.1307 125.283 32.1307C123.987 32.0767 114.321 38.4487 100.605 48.7087Z" fill="#484954"/>
<path d="M66.7992 78.3003C64.2612 86.3463 79.5972 123.39 79.5972 123.39L98.6592 99.9003C98.2272 99.1443 88.6152 82.4583 88.6152 82.4583C88.6152 82.4583 102.817 69.3363 110.701 61.1823C106.975 57.1323 103.465 52.9203 100.063 48.6543C84.8352 60.1023 68.2032 73.8723 66.7992 78.3003Z" fill="#484954"/>
<path d="M79.5986 123.769H79.5446C79.4366 123.769 79.2746 123.661 79.2206 123.553C78.5726 122.041 63.8306 86.2391 66.4226 78.1931C67.8806 73.6571 84.6206 59.7791 99.7946 48.3311C99.9566 48.2231 100.173 48.2231 100.335 48.3851C104.277 53.3531 107.679 57.2951 110.973 60.9131C111.135 61.0751 111.135 61.2911 110.973 61.4531C103.683 69.0131 90.9386 80.8391 89.1026 82.5671C90.3446 84.7271 98.6066 99.0911 98.9846 99.7391C99.0386 99.9011 99.0386 100.063 98.9306 100.171L79.8686 123.661C79.8146 123.769 79.7066 123.823 79.5986 123.769ZM99.9566 49.1951C85.5926 59.9951 68.5286 74.0891 67.1246 78.4631C64.8026 85.6991 77.7086 117.937 79.6526 122.689L98.1206 99.9011L88.1846 82.6751C88.0766 82.5131 88.1306 82.3511 88.2386 82.1891C88.4006 82.0811 102.225 69.2291 110.055 61.1831C106.977 57.7271 103.737 53.8931 99.9566 49.1951Z" fill="#484954"/>
<path d="M111.943 116.641C113.509 127.387 120.637 136.567 128.467 144.829C133.111 149.797 138.889 154.819 145.639 154.495C148.879 154.333 151.957 152.929 154.819 151.363C161.947 147.421 168.319 142.183 173.611 136.027C171.451 136.027 169.615 134.407 169.399 132.247C172.207 133.597 175.555 133.219 178.039 131.275C183.331 127.063 180.739 123.391 176.689 120.259C170.371 115.399 165.349 109.027 162.055 101.791C156.979 90.5046 146.989 75.4386 132.139 78.8406C117.883 82.1346 113.995 94.9326 112.051 107.677C111.565 110.593 111.565 113.617 111.943 116.641Z" fill="#797B87"/>
<path d="M144.986 154.873C138.29 154.873 132.728 149.959 128.138 145.099C120.848 137.323 113.126 127.873 111.56 116.695C111.128 113.671 111.128 110.593 111.614 107.569C112.478 102.115 113.828 95.149 117.122 89.479C120.524 83.593 125.384 79.975 132.026 78.409C138.776 76.843 151.736 77.761 162.374 101.575C165.614 108.811 170.636 115.075 176.9 119.935C179.924 122.257 181.328 124.309 181.382 126.415C181.382 128.197 180.356 129.925 178.25 131.599C175.874 133.435 172.742 133.921 169.88 132.895C170.366 134.515 171.878 135.595 173.552 135.595C173.714 135.595 173.876 135.649 173.93 135.811C173.984 135.973 173.984 136.135 173.876 136.243C168.53 142.453 162.158 147.691 154.976 151.687C152.276 153.199 149.09 154.711 145.634 154.873H144.986ZM136.238 78.733C134.888 78.733 133.538 78.895 132.188 79.219C118.148 82.459 114.368 94.825 112.37 107.677C111.884 110.647 111.884 113.617 112.316 116.587C113.882 127.549 121.496 136.891 128.732 144.559C133.322 149.473 138.938 154.387 145.58 154.063C148.874 153.901 151.952 152.389 154.544 150.985C161.402 147.151 167.558 142.237 172.742 136.297C170.744 135.919 169.178 134.245 168.962 132.247C168.962 132.085 169.016 131.977 169.124 131.869C169.232 131.815 169.394 131.761 169.502 131.815C172.202 133.057 175.334 132.733 177.71 130.897C179.6 129.385 180.572 127.873 180.518 126.361C180.518 124.579 179.168 122.635 176.36 120.475C169.988 115.561 164.912 109.135 161.618 101.845C153.14 82.783 143.15 78.733 136.238 78.733Z" fill="#484954"/>
<path d="M210.655 150.445C210.061 152.821 200.125 170.587 200.125 170.587L213.085 177.607C213.085 177.607 224.803 157.951 225.829 156.655C226.855 155.359 235.333 144.019 236.467 140.023C237.601 136.027 229.447 133.111 226.099 133.435C222.751 133.759 211.249 148.015 210.655 150.445Z" fill="white"/>
<path d="M213.086 177.984C213.032 177.984 212.978 177.984 212.87 177.93L199.91 170.91C199.802 170.856 199.748 170.748 199.694 170.694C199.64 170.586 199.694 170.478 199.748 170.37C203.15 164.268 209.738 152.226 210.224 150.336C210.872 147.798 222.482 133.326 225.992 133.002C228.53 132.786 233.876 134.352 235.982 136.89C236.792 137.754 237.062 138.942 236.792 140.076C235.55 144.396 226.154 156.708 226.046 156.816C225.074 158.112 213.464 177.552 213.356 177.714C213.302 177.876 213.194 177.93 213.086 177.984ZM200.666 170.424L212.924 177.066C214.49 174.42 224.534 157.626 225.506 156.384C227.504 153.846 235.064 143.532 236.09 139.914C236.306 139.05 236.09 138.132 235.442 137.43C233.498 135.054 228.422 133.596 226.154 133.812C222.968 134.082 211.574 148.446 211.088 150.552C210.494 152.766 202.124 167.832 200.666 170.424Z" fill="#484954"/>
<path d="M206.931 158.113L195.375 172.207L170.427 155.467L159.789 175.285C159.789 175.285 195.159 201.853 200.181 199.315C205.203 196.777 220.431 165.457 220.431 165.457L206.931 158.113Z" fill="#484954"/>
<path d="M199.314 199.801C192.024 199.801 162.972 178.147 159.516 175.555C159.354 175.447 159.3 175.231 159.408 175.069L170.046 155.251C170.1 155.143 170.208 155.089 170.316 155.035C170.424 155.035 170.532 155.035 170.64 155.089L195.318 171.667L206.658 157.789C206.766 157.627 206.982 157.627 207.144 157.681L220.59 165.025C220.752 165.133 220.86 165.349 220.752 165.511C220.104 166.807 205.416 196.993 200.34 199.531C199.962 199.747 199.638 199.855 199.314 199.801ZM160.218 175.177C170.208 182.683 196.02 200.935 199.962 198.937C204.552 196.615 218.214 168.913 219.834 165.565L206.982 158.545L195.588 172.423C195.48 172.585 195.264 172.585 195.102 172.477L170.478 155.953L160.218 175.177Z" fill="#484954"/>
<path d="M217.514 123.553L217.406 158.113H233.768V123.553H217.514Z" fill="#484954"/>
<path d="M233.764 158.491H217.456C217.348 158.491 217.24 158.437 217.186 158.383C217.132 158.329 217.078 158.221 217.078 158.113L217.186 123.607C217.186 123.391 217.348 123.229 217.564 123.229H233.818C234.034 123.229 234.196 123.391 234.196 123.607V158.113C234.142 158.329 233.98 158.491 233.764 158.491ZM217.834 157.735H233.44V123.985H217.942L217.834 157.735Z" fill="#484954"/>
<path d="M219.187 126.631L219.133 153.739H232.093V126.631H219.187Z" fill="url(#paint0_linear_4510_10014)"/>
<path d="M232.088 154.171H219.128C219.02 154.171 218.912 154.117 218.858 154.063C218.804 154.009 218.75 153.901 218.75 153.793L218.858 126.685C218.858 126.469 219.02 126.307 219.236 126.307H232.142C232.358 126.307 232.52 126.469 232.52 126.685V153.793C232.466 153.955 232.304 154.171 232.088 154.171ZM219.506 153.361H231.656V127.009H219.56L219.506 153.361Z" fill="#484954"/>
<path d="M209.898 152.227C209.898 152.227 207.468 140.617 211.14 138.781C214.812 136.945 227.34 134.839 225.396 137.701C223.452 140.563 216.648 142.291 216.648 142.291C216.648 142.291 218.052 146.341 216.54 149.257" fill="white"/>
<path d="M209.899 152.605C209.737 152.605 209.575 152.497 209.521 152.281C209.413 151.795 207.091 140.347 210.925 138.403C214.057 136.837 224.263 134.839 225.721 136.513C226.045 136.891 226.045 137.485 225.667 137.863C223.939 140.455 218.593 142.075 217.081 142.507C217.405 143.641 218.107 146.881 216.811 149.365C216.703 149.581 216.487 149.635 216.271 149.527C216.055 149.419 216.001 149.203 216.109 148.987C217.567 146.287 216.217 142.399 216.217 142.345C216.163 142.237 216.163 142.129 216.217 142.021C216.271 141.913 216.379 141.859 216.487 141.805C216.541 141.805 223.183 140.077 225.019 137.377C225.127 137.161 225.181 137.053 225.127 136.999C224.209 135.919 214.759 137.323 211.249 139.051C208.495 140.401 209.575 148.933 210.223 152.065C210.277 152.281 210.115 152.497 209.899 152.551V152.605Z" fill="#484954"/>
<path d="M119.606 129.655L98.114 92.7188L73.868 119.557L82.832 138.943C82.832 138.943 68.954 171.667 69.008 235.819C69.008 235.819 142.61 235.495 161.132 235.495L136.886 197.857C136.886 197.857 142.934 180.415 146.066 176.041L164.102 185.869L185.162 157.195L119.606 129.655Z" fill="#797B87"/>
<path d="M119.289 164.863C131.169 171.775 133.977 143.695 134.517 137.593C134.679 135.919 134.733 134.191 134.193 132.571C133.545 130.519 131.925 128.899 130.305 127.441C128.415 125.659 126.201 123.877 123.609 123.769C121.179 123.661 118.911 125.119 117.399 127.009C115.887 128.899 115.131 131.275 114.429 133.597C111.621 143.371 111.729 153.685 117.129 162.541C117.561 163.405 118.209 164.107 119.019 164.701L119.289 164.863Z" fill="#484954"/>
<path d="M122.846 166.32C121.496 166.266 120.254 165.888 119.12 165.186L118.85 165.024C118.04 164.43 117.338 163.674 116.852 162.756C111.884 154.602 110.966 144.504 114.098 133.488C114.746 131.166 115.61 128.736 117.122 126.792C118.85 124.578 121.28 123.336 123.656 123.39C126.302 123.498 128.57 125.28 130.622 127.17C132.242 128.682 133.862 130.302 134.618 132.462C135.158 134.19 135.05 136.026 134.942 137.646C134.132 146.718 131.81 162.432 125.438 165.726C124.628 166.104 123.71 166.32 122.846 166.32ZM123.386 124.146C121.334 124.146 119.282 125.28 117.716 127.224C116.15 129.168 115.448 131.436 114.8 133.704C111.722 144.504 112.64 154.44 117.446 162.378C117.878 163.188 118.472 163.836 119.174 164.376L119.444 164.538C121.496 165.726 123.332 165.888 124.952 165.024C129.38 162.756 132.728 152.712 134.078 137.538C134.186 136.026 134.294 134.244 133.808 132.678C133.16 130.68 131.594 129.114 130.028 127.71C128.084 125.928 125.978 124.254 123.548 124.146H123.386Z" fill="#484954"/>
<path d="M154.761 112.158C155.841 116.154 154.059 121.23 151.359 124.146C149.577 126.09 145.635 126.63 144.825 123.444C143.799 119.232 144.555 114.804 146.823 111.132C148.605 108.27 151.845 106.65 154.005 110.322C154.329 110.916 154.599 111.564 154.761 112.158Z" fill="#484954"/>
<path d="M147.797 126.145C147.473 126.145 147.149 126.091 146.825 126.037C145.637 125.767 144.719 124.795 144.503 123.607C143.477 119.287 144.233 114.751 146.555 111.025C147.743 109.081 149.471 107.893 151.091 107.893C152.009 107.893 153.305 108.325 154.385 110.215C154.709 110.809 154.979 111.457 155.195 112.105C156.383 116.425 154.331 121.609 151.685 124.471C150.659 125.497 149.255 126.091 147.797 126.145ZM150.983 108.649C149.687 108.649 148.229 109.675 147.149 111.403C144.935 114.967 144.179 119.287 145.205 123.391C145.367 124.309 146.069 125.065 146.987 125.281C148.499 125.551 150.011 125.065 151.091 123.931C153.521 121.285 155.519 116.317 154.385 112.267C154.223 111.673 153.953 111.079 153.683 110.539C152.927 109.297 152.063 108.649 150.983 108.649Z" fill="#484954"/>
<path d="M136.242 130.033C134.46 136.675 132.786 151.741 121.77 143.857C120.636 142.939 119.664 141.913 118.854 140.725C113.454 133.489 114.966 128.953 117.774 121.015C118.962 117.559 120.042 114.049 121.23 110.647C122.418 107.245 124.416 103.951 126.036 100.657C125.982 100.765 131.436 101.521 136.89 99.0369C142.344 96.5529 146.88 93.9609 146.88 93.9609C148.338 96.1749 149.958 97.8489 150.714 100.495C151.416 103.033 151.632 105.733 151.308 108.325C150.606 114.805 148.014 121.771 145.098 127.495C142.182 133.219 136.242 130.033 136.242 130.033Z" fill="white"/>
<path d="M127.332 146.45C125.604 146.45 123.66 145.694 121.554 144.128C120.366 143.21 119.394 142.13 118.53 140.888C112.914 133.436 114.642 128.684 117.396 120.8C117.99 119.126 118.53 117.452 119.07 115.832C119.664 114.05 120.258 112.214 120.906 110.432C121.878 107.948 123.012 105.464 124.308 103.142C124.794 102.224 125.28 101.306 125.712 100.388C125.82 100.172 126.036 100.118 126.252 100.226H126.306C129.87 100.658 133.488 100.064 136.782 98.6055C142.182 96.1215 146.664 93.5835 146.718 93.5835C146.88 93.4755 147.15 93.5295 147.258 93.6915C147.636 94.2315 148.014 94.7715 148.392 95.2575C149.526 96.8235 150.552 98.2815 151.2 100.28C151.956 102.872 152.172 105.626 151.848 108.272C151.254 114.05 148.986 120.908 145.584 127.604C144.882 129.224 143.532 130.412 141.858 131.006C139.644 131.708 137.484 130.952 136.566 130.52C136.404 131.222 136.242 131.978 136.026 132.788C134.892 137.756 133.326 144.506 129.222 146.072C128.574 146.342 127.926 146.45 127.332 146.45ZM126.306 101.036C125.874 101.846 125.442 102.71 125.01 103.52C123.714 105.842 122.58 108.218 121.662 110.702C121.014 112.484 120.42 114.32 119.88 116.048C119.34 117.668 118.8 119.396 118.206 121.07C115.398 128.954 113.886 133.328 119.232 140.456C120.042 141.59 120.96 142.616 122.04 143.48C124.74 145.424 127.062 146.072 128.898 145.37C132.624 143.966 134.136 137.432 135.216 132.626C135.432 131.6 135.648 130.682 135.864 129.872C135.918 129.656 136.134 129.548 136.35 129.602C136.404 129.602 136.404 129.602 136.404 129.656C136.458 129.656 139.05 131.06 141.534 130.304C142.992 129.818 144.18 128.738 144.774 127.334C148.122 120.746 150.336 113.942 150.93 108.272C151.254 105.68 151.038 103.088 150.336 100.604C149.796 98.7135 148.716 97.3095 147.636 95.7975C147.312 95.3655 147.042 94.9335 146.718 94.5015C145.584 95.1495 141.588 97.3095 136.998 99.4155C132.408 101.522 127.818 101.36 126.306 101.036Z" fill="#484954"/>
<path d="M134.408 136.406C134.408 136.406 129.062 135.218 126.632 130.736C124.202 126.254 125.66 122.852 125.66 122.852C125.66 122.852 130.304 128.252 136.244 129.98L134.408 136.406Z" fill="#484954"/>
<path d="M134.405 136.783H134.297C134.081 136.729 128.735 135.487 126.251 130.951C123.767 126.415 125.225 122.905 125.279 122.743C125.333 122.635 125.441 122.527 125.549 122.527C125.657 122.527 125.819 122.527 125.873 122.635C125.927 122.689 130.517 127.981 136.241 129.655C136.457 129.709 136.565 129.925 136.511 130.141L134.675 136.513C134.729 136.675 134.567 136.783 134.405 136.783ZM125.819 123.607C125.333 125.983 125.711 128.467 126.953 130.573C128.951 134.191 132.947 135.595 134.135 135.973L135.755 130.303C131.003 128.737 127.115 125.011 125.819 123.607Z" fill="#484954"/>
<path d="M137.698 119.124C136.618 119.016 135.538 118.692 134.62 118.152C134.458 118.044 134.35 117.828 134.458 117.612C134.566 117.45 134.782 117.342 134.998 117.45C135.646 117.828 137.59 118.692 138.508 118.098C139.048 117.72 138.454 114.21 137.158 110.322C137.104 110.106 137.212 109.89 137.374 109.836C137.59 109.782 137.806 109.89 137.86 110.052C138.616 112.374 140.29 117.828 138.886 118.692C138.562 119.016 138.13 119.124 137.698 119.124Z" fill="#484954"/>
<path d="M136.131 123.822C135.213 123.822 134.349 123.66 133.539 123.228C131.379 122.148 130.083 119.664 129.651 115.776C129.597 115.56 129.759 115.398 129.975 115.344C130.191 115.29 130.353 115.452 130.407 115.668C130.839 119.286 131.973 121.608 133.863 122.526C136.725 123.93 140.397 121.77 140.451 121.77C140.613 121.662 140.883 121.716 140.991 121.878C141.099 122.04 141.045 122.31 140.883 122.418C139.371 123.282 137.751 123.714 136.131 123.822Z" fill="#484954"/>
<path d="M136.457 106.542C136.241 106.542 136.079 106.38 136.079 106.164C136.025 105.3 135.755 104.76 135.323 104.544C134.405 104.112 132.839 104.922 132.299 105.246C132.137 105.354 131.867 105.3 131.759 105.084C131.651 104.922 131.705 104.706 131.867 104.598C131.975 104.544 134.189 103.086 135.647 103.842C136.349 104.166 136.727 104.976 136.835 106.11C136.889 106.326 136.727 106.542 136.457 106.542Z" fill="#484954"/>
<path d="M146.067 110.862C145.851 110.862 145.689 110.7 145.689 110.538C145.689 110.538 145.527 108.648 144.447 107.946C143.529 107.352 142.395 108.756 142.395 108.756C142.233 108.918 142.017 108.918 141.855 108.756C141.747 108.648 141.693 108.432 141.801 108.27C142.341 107.568 143.637 106.488 144.879 107.298C146.283 108.216 146.445 110.376 146.499 110.484C146.499 110.646 146.337 110.808 146.067 110.862Z" fill="#484954"/>
<path d="M115.718 108.758C115.556 110.162 115.826 111.512 116.42 112.754C117.662 115.022 120.686 115.94 123.116 115.238C129.596 113.294 132.674 101.036 127.76 96.2296C123.224 91.7476 118.094 98.8756 117.014 102.98C116.528 104.924 115.826 106.76 115.718 108.758Z" fill="#484954"/>
<path d="M121.394 115.884C119.18 115.884 117.02 114.804 116.048 112.968C115.4 111.672 115.184 110.214 115.292 108.756C115.4 107.298 115.724 105.894 116.21 104.49C116.372 103.95 116.534 103.464 116.642 102.924C117.398 100.008 120.206 95.5264 123.5 94.6084C125.12 94.1764 126.686 94.6084 128.036 95.9584C130.412 98.2804 131.168 102.492 130.034 106.92C128.9 111.348 126.308 114.642 123.176 115.56C122.636 115.776 122.042 115.83 121.394 115.884ZM116.102 108.756C115.94 110.052 116.21 111.402 116.75 112.59C117.83 114.588 120.584 115.614 123.014 114.858C125.876 113.994 128.306 110.916 129.332 106.758C130.358 102.6 129.71 98.6584 127.496 96.4984C126.308 95.3644 125.012 94.9324 123.662 95.3104C120.692 96.1204 118.046 100.44 117.344 103.086C117.182 103.626 117.02 104.166 116.912 104.706C116.534 106.056 116.21 107.406 116.102 108.756Z" fill="#484954"/>
<path d="M151.576 116.317C151.09 116.317 150.712 115.939 150.712 115.453C150.712 115.291 150.766 115.129 150.82 115.021C150.928 114.859 160.486 99.0911 162.16 89.2631C162.754 85.6991 161.188 82.0811 157.732 79.0571C152.98 74.9531 145.906 73.1171 140.938 74.6831C132.028 77.4911 127.33 97.9571 127.276 98.1731C127.168 98.6591 126.736 98.9291 126.25 98.8211C125.764 98.7131 125.494 98.2271 125.602 97.7951C125.818 96.9311 130.624 76.1411 140.452 73.0091C146.068 71.2271 153.682 73.1711 158.92 77.7071C162.862 81.1091 164.644 85.3211 163.942 89.4791C162.268 99.6311 152.818 115.183 152.386 115.831C152.17 116.209 151.9 116.371 151.576 116.317Z" fill="#484954"/>
<path d="M198.449 238.68C195.371 238.68 192.293 238.194 189.323 237.222C186.299 236.25 183.221 234.468 179.765 231.66C174.959 227.772 170.747 223.128 166.643 218.7C164.051 215.838 161.351 212.922 158.543 210.222C149.795 201.69 141.047 197.208 132.623 196.776C121.283 196.236 111.239 202.716 102.059 209.79C101.141 210.492 100.277 211.194 99.3594 211.896C91.9074 217.782 83.5374 224.424 73.1694 222.912C66.0954 221.832 60.6414 216.972 57.2394 213.084C48.9774 203.472 45.1974 189.81 47.0334 176.418C49.0314 162.054 57.0234 151.956 70.7934 146.394C82.1874 141.75 92.9334 135.27 103.301 129.006L103.355 128.952C109.781 125.064 116.639 120.096 118.475 112.644C118.529 112.428 118.799 112.266 119.015 112.374C119.231 112.428 119.339 112.644 119.339 112.86C117.395 120.636 110.429 125.766 103.841 129.708L103.733 129.762C93.3114 136.026 82.5654 142.56 71.1174 147.204C57.6714 152.658 49.8414 162.54 47.8974 176.58C46.0614 189.702 49.7874 203.094 57.8874 212.544C61.1274 216.324 66.4734 221.076 73.2774 222.102C83.2674 223.614 91.1514 217.35 98.8194 211.302C99.7374 210.6 100.655 209.844 101.519 209.142C110.807 201.96 121.067 195.372 132.677 195.966C141.317 196.398 150.227 200.988 159.137 209.682C161.945 212.436 164.645 215.352 167.237 218.214C171.287 222.642 175.499 227.286 180.251 231.12C183.653 233.874 186.569 235.602 189.539 236.52C201.203 240.3 212.867 236.574 224.261 225.504C241.163 209.034 250.721 184.032 250.397 156.87C250.235 144.18 247.913 134.244 243.161 126.576C241.271 123.444 238.895 119.988 234.899 118.26C232.901 117.396 228.203 117.072 226.367 119.61C225.665 120.582 225.611 121.716 225.503 123.174C225.449 123.822 225.449 124.524 225.341 125.28C225.287 125.496 225.071 125.658 224.855 125.658C224.639 125.604 224.477 125.388 224.477 125.172C224.585 124.416 224.639 123.768 224.639 123.12C224.747 121.608 224.801 120.258 225.665 119.07C227.771 116.1 232.955 116.424 235.223 117.45C239.435 119.286 241.865 122.904 243.863 126.09C248.669 133.92 251.099 144.018 251.207 156.87C251.531 184.248 241.919 209.466 224.801 226.152C216.215 234.468 207.359 238.68 198.449 238.68Z" fill="#484954"/>
<path d="M114.909 48.2763C114.693 48.2763 114.477 48.0603 114.477 47.8443C114.477 47.7363 114.531 47.6283 114.639 47.5203C116.529 45.8463 118.419 45.1443 120.255 45.3603C121.821 45.5763 123.225 46.3863 124.197 47.6283C124.359 47.8443 124.305 48.1143 124.089 48.2223C123.873 48.3843 123.603 48.3303 123.495 48.1143C122.685 47.0883 121.497 46.3863 120.147 46.2243C118.581 46.0623 116.907 46.7103 115.233 48.1683C115.125 48.2763 115.017 48.2763 114.909 48.2763Z" fill="#484954"/>
<path d="M140.667 188.19C140.613 188.19 140.559 188.19 140.505 188.136C140.289 188.028 140.235 187.812 140.343 187.596L151.251 165.78C151.359 165.564 151.575 165.51 151.791 165.564C152.007 165.672 152.061 165.888 151.953 166.104L141.045 187.92C140.937 188.082 140.775 188.19 140.667 188.19Z" fill="#484954"/>
<path d="M120.365 192.458C107.891 192.458 93.2031 188.408 92.3931 188.192C92.1771 188.138 92.0691 187.922 92.1231 187.706C92.1771 187.49 92.3931 187.382 92.6091 187.436C92.8791 187.49 119.069 194.726 131.165 190.136C131.381 190.082 131.597 190.136 131.651 190.352C131.705 190.568 131.651 190.784 131.435 190.838C128.357 191.972 124.469 192.458 120.365 192.458Z" fill="#484954"/>
<path d="M226.257 121.176H224.367V123.984H226.257V121.176Z" fill="#484954"/>
<path d="M226.26 124.308H224.37C224.154 124.308 223.992 124.146 223.992 123.93V121.122C223.992 120.906 224.154 120.744 224.37 120.744H226.26C226.476 120.744 226.638 120.906 226.638 121.122V123.93C226.638 124.146 226.476 124.308 226.26 124.308ZM224.748 123.552H225.882V121.5H224.748V123.552Z" fill="#484954"/>
<path d="M123.227 112.97L122.633 112.376C129.383 105.356 124.901 97.5798 124.847 97.5258L125.603 97.0938C125.657 97.2018 130.463 105.518 123.227 112.97Z" fill="white"/>
<path d="M151.74 124.309L150.93 123.985C153.468 117.505 152.82 112.699 152.82 112.645L153.684 112.537C153.738 112.753 154.386 117.613 151.74 124.309Z" fill="white"/>
<path d="M88.2607 82.2097L81.9922 88.6172L82.6098 89.2214L88.8783 82.8139L88.2607 82.2097Z" fill="white"/>
<path d="M195.552 171.865L195.172 172.641L201.816 175.894L202.196 175.118L195.552 171.865Z" fill="white"/>
<path d="M22.3045 129.436C21.9265 129.328 21.5485 129.274 21.1705 129.166C20.0365 128.896 19.1185 128.032 18.7945 126.898C18.5785 125.926 18.7405 124.9 19.3345 124.09C20.3065 122.632 21.8185 121.66 23.4925 121.39C24.6265 121.174 25.1125 121.228 26.8945 121.606V100.762L47.3605 96.6582V97.0902C47.3605 105.406 47.3605 113.722 47.3605 122.092C47.4145 123.388 46.8745 124.684 45.8485 125.548C44.0665 127.114 41.9605 127.762 39.5845 127.06C38.4505 126.79 37.5325 125.926 37.2085 124.846C36.9385 123.874 37.1545 122.848 37.6945 122.038C38.6665 120.58 40.1785 119.608 41.8525 119.338C43.0405 119.068 43.5805 119.176 45.2005 119.554V105.298L43.7425 105.568C38.8825 106.54 34.0225 107.512 29.1625 108.484C28.8925 108.538 28.8385 108.646 28.8385 108.862C28.8385 113.938 28.8385 118.96 28.8385 124.036C28.8925 125.602 28.1365 127.114 26.8405 127.978C25.8685 128.68 24.7345 129.166 23.5465 129.328C23.4925 129.328 23.4385 129.382 23.3845 129.382L22.3045 129.436Z" fill="url(#paint1_linear_4510_10014)"/>
<path d="M188.624 67.1751C188.786 67.0671 189.002 67.0131 189.164 66.9051C189.704 66.6351 190.028 66.0951 190.028 65.5011C190.028 65.0151 189.812 64.5291 189.434 64.2051C188.786 63.6111 187.922 63.3411 187.004 63.3951C186.41 63.3951 185.87 63.6111 185.384 63.9351L182.684 53.6211L171.992 54.2691L172.046 54.4851C173.126 58.5891 174.206 62.7471 175.286 66.8511C175.448 67.4991 175.88 68.0391 176.474 68.3631C177.5 68.9571 178.742 68.9031 179.768 68.3091C180.308 68.0391 180.632 67.4991 180.632 66.9051C180.632 66.4191 180.416 65.9331 180.038 65.6091C179.39 65.0151 178.472 64.7451 177.608 64.7991C177.014 64.7991 176.474 65.0151 175.988 65.3391L174.098 58.2651L174.854 58.2111L182.468 57.7251C182.576 57.7251 182.63 57.7791 182.684 57.8871C183.332 60.3711 184.034 62.9091 184.682 65.3931C184.844 66.2031 185.438 66.7971 186.194 67.0671C186.734 67.2831 187.382 67.3911 187.976 67.2831C188.03 67.2831 188.03 67.2831 188.084 67.2831L188.624 67.1751Z" fill="url(#paint2_linear_4510_10014)"/>
<path d="M230.204 207.9C230.204 207.738 230.204 207.576 230.204 207.414C230.15 206.982 229.988 206.55 229.718 206.172C229.286 205.524 228.692 204.984 228.044 204.606C227.396 204.174 226.64 203.904 225.884 203.742C225.398 203.634 224.912 203.634 224.372 203.742H224.264C224.264 203.688 224.264 203.634 224.264 203.58C224.372 203.256 224.426 202.932 224.534 202.608C225.128 200.61 225.668 198.558 226.262 196.56C226.91 194.346 227.504 192.186 228.152 189.972L228.206 189.864L227.612 189.81C225.938 189.702 224.318 190.026 222.806 190.674C221.402 191.268 220.214 192.294 219.458 193.644C219.242 194.022 219.08 194.4 218.918 194.832C218.81 195.102 218.702 195.372 218.594 195.642C218.594 195.696 218.594 195.696 218.594 195.75L218.81 195.642C219.512 195.21 220.214 194.778 220.97 194.454C222.104 193.914 223.4 193.698 224.642 193.806C225.182 193.86 225.722 193.968 226.262 194.13H226.316C226.316 194.184 226.316 194.238 226.262 194.238L223.13 205.2C223.13 205.254 223.13 205.308 223.13 205.416C223.184 206.064 223.454 206.658 223.886 207.144C224.426 207.792 225.128 208.332 225.938 208.71C226.154 208.818 226.37 208.926 226.586 208.98L227.234 209.142H227.342C227.828 209.25 228.368 209.25 228.908 209.142C229.34 209.088 229.718 208.872 230.042 208.548C230.15 208.44 230.204 208.278 230.312 208.116L230.204 207.9Z" fill="url(#paint3_linear_4510_10014)"/>
<path d="M18.8516 209.788C18.8516 209.572 18.9056 209.356 18.9596 209.14C19.1216 208.546 19.4456 208.06 19.8236 207.628C20.5256 206.926 21.3356 206.332 22.3076 205.954C23.2256 205.522 24.2516 205.306 25.2776 205.306C25.9256 205.306 26.5736 205.36 27.1676 205.63L27.3296 205.684C27.3296 205.63 27.3296 205.522 27.3296 205.468C27.2756 205.036 27.2216 204.604 27.2216 204.172C26.8976 201.472 26.5736 198.718 26.2496 196.018C25.8716 193.048 25.5476 190.132 25.1696 187.162V187C25.4396 187 25.7096 187 25.9796 187.054C28.0856 187.27 30.1376 187.972 31.9736 189.106C33.7016 190.132 34.9976 191.752 35.6996 193.588C35.9156 194.128 36.0236 194.668 36.1856 195.208C36.2936 195.586 36.3476 195.964 36.4556 196.288C36.4556 196.342 36.4556 196.396 36.4556 196.45C36.3476 196.396 36.2936 196.288 36.1856 196.234C35.3756 195.532 34.5656 194.884 33.6476 194.29C32.2976 193.372 30.7316 192.832 29.0576 192.724C28.3556 192.67 27.6536 192.724 26.9516 192.832H26.8976C26.8976 192.886 26.8976 192.94 26.8976 192.994C27.4916 197.908 28.0856 202.822 28.6796 207.682C28.6796 207.79 28.6796 207.844 28.6796 207.952C28.4636 208.762 27.9776 209.518 27.3296 210.058C26.4656 210.814 25.4936 211.354 24.4136 211.678C24.0896 211.786 23.8196 211.84 23.4956 211.948L22.6316 212.056H22.4696C21.7676 212.11 21.1196 212.002 20.4716 211.786C19.9316 211.624 19.4456 211.246 19.1756 210.814C19.0676 210.652 19.0136 210.436 18.9056 210.22L18.8516 209.788Z" fill="url(#paint4_linear_4510_10014)"/>
<path d="M196.506 103.949C196.614 103.733 196.722 103.517 196.83 103.301C197.208 102.707 197.802 102.221 198.396 101.951C199.476 101.411 200.664 101.087 201.852 101.033C203.04 100.925 204.282 101.087 205.47 101.465C206.226 101.681 206.928 102.059 207.522 102.545L207.684 102.653C207.738 102.599 207.738 102.491 207.792 102.437C207.9 101.951 208.062 101.411 208.17 100.871C208.872 97.6851 209.574 94.4991 210.222 91.2591C210.978 87.8031 211.734 84.2931 212.436 80.8371L212.49 80.6211C212.76 80.7291 213.084 80.8371 213.354 80.9991C215.676 82.0791 217.728 83.6991 219.348 85.6971C220.86 87.5331 221.724 89.8551 221.778 92.2311C221.778 92.9331 221.724 93.5811 221.67 94.2831C221.616 94.7151 221.562 95.2011 221.508 95.6331C221.508 95.6871 221.508 95.7411 221.454 95.7951C221.4 95.6871 221.292 95.5791 221.238 95.4711C220.644 94.3371 219.942 93.2571 219.186 92.2851C217.998 90.7191 216.432 89.4771 214.65 88.7211C213.894 88.3971 213.03 88.1811 212.22 88.0191H212.166C212.166 88.0731 212.166 88.1271 212.112 88.2351C210.87 94.0131 209.628 99.7371 208.386 105.461C208.386 105.569 208.332 105.677 208.278 105.731C207.684 106.595 206.874 107.189 205.902 107.567C204.66 108.053 203.31 108.323 201.96 108.215C201.582 108.215 201.204 108.161 200.826 108.107L199.854 107.891L199.692 107.837C198.882 107.621 198.18 107.243 197.532 106.757C196.992 106.379 196.614 105.785 196.452 105.137C196.398 104.921 196.398 104.651 196.398 104.381L196.506 103.949Z" fill="url(#paint5_linear_4510_10014)"/>
<path d="M44.2272 143.314C39.7992 143.314 39.7992 150.226 44.2272 150.226C48.6553 150.226 48.6553 143.314 44.2272 143.314Z" fill="url(#paint6_linear_4510_10014)"/>
<path d="M202.068 129.275C202.014 129.005 201.852 128.735 201.636 128.519L201.312 128.249C201.042 128.087 200.772 128.033 200.448 128.033H199.962C199.746 128.033 199.476 128.087 199.314 128.195C198.666 128.465 198.234 129.059 198.234 129.761L198.288 130.247C198.342 130.517 198.504 130.787 198.72 131.003L199.044 131.273C199.314 131.435 199.638 131.489 199.908 131.489H200.394C200.61 131.489 200.88 131.435 201.042 131.327C201.474 131.165 201.798 130.841 201.96 130.409C202.068 130.193 202.122 129.977 202.122 129.761C202.068 129.599 202.068 129.437 202.068 129.275Z" fill="url(#paint7_linear_4510_10014)"/>
<path d="M57.8404 58.9668C55.0324 58.9668 55.0324 63.2868 57.8404 63.2868C60.6484 63.2868 60.6484 58.9668 57.8404 58.9668Z" fill="url(#paint8_linear_4510_10014)"/>
<path d="M184.359 211.246C181.605 211.246 181.551 215.566 184.359 215.566C187.167 215.566 187.113 211.246 184.359 211.246Z" fill="#D1D3D4"/>
<defs>
<linearGradient id="paint0_linear_4510_10014" x1="225.613" y1="126.631" x2="225.613" y2="153.739" gradientUnits="userSpaceOnUse">
<stop stop-color="white"/>
<stop offset="1" stop-color="#00D885"/>
</linearGradient>
<linearGradient id="paint1_linear_4510_10014" x1="43.601" y1="120.723" x2="20.4316" y2="101.277" gradientUnits="userSpaceOnUse">
<stop stop-color="#00D885"/>
<stop offset="1" stop-color="white"/>
</linearGradient>
<linearGradient id="paint2_linear_4510_10014" x1="181.01" y1="53.6211" x2="181.01" y2="68.7825" gradientUnits="userSpaceOnUse">
<stop stop-color="white"/>
<stop offset="1" stop-color="#EEE420"/>
</linearGradient>
<linearGradient id="paint3_linear_4510_10014" x1="224.453" y1="189.789" x2="224.453" y2="209.223" gradientUnits="userSpaceOnUse">
<stop stop-color="white"/>
<stop offset="1" stop-color="#444AFA"/>
</linearGradient>
<linearGradient id="paint4_linear_4510_10014" x1="27.6536" y1="187" x2="27.6536" y2="212.07" gradientUnits="userSpaceOnUse">
<stop stop-color="white"/>
<stop offset="1" stop-color="#EEE420"/>
</linearGradient>
<linearGradient id="paint5_linear_4510_10014" x1="218.446" y1="100.898" x2="198.779" y2="83.5492" gradientUnits="userSpaceOnUse">
<stop stop-color="#00D885"/>
<stop offset="1" stop-color="white"/>
</linearGradient>
<linearGradient id="paint6_linear_4510_10014" x1="42.3127" y1="148.155" x2="47.7204" y2="144.446" gradientUnits="userSpaceOnUse">
<stop stop-color="#F75A5A"/>
<stop offset="1" stop-color="white"/>
</linearGradient>
<linearGradient id="paint7_linear_4510_10014" x1="199.058" y1="130.453" x2="201.888" y2="128.181" gradientUnits="userSpaceOnUse">
<stop stop-color="#F75A5A"/>
<stop offset="1" stop-color="white"/>
</linearGradient>
<linearGradient id="paint8_linear_4510_10014" x1="56.6263" y1="61.9921" x2="60.0235" y2="59.6278" gradientUnits="userSpaceOnUse">
<stop stop-color="#F75A5A"/>
<stop offset="1" stop-color="white"/>
</linearGradient>
</defs>
</svg>
