<svg width="28" height="27" viewBox="0 0 28 27" fill="none" xmlns="http://www.w3.org/2000/svg">
<path d="M27.311 12.2973L21.6735 17.2173L23.3622 24.5423C23.4516 24.9252 23.4261 25.326 23.2889 25.6945C23.1517 26.063 22.909 26.3829 22.591 26.6142C22.273 26.8455 21.8939 26.9779 21.501 26.9949C21.1081 27.0119 20.719 26.9127 20.3822 26.7098L13.9935 22.8348L7.61847 26.7098C7.28168 26.9127 6.89253 27.0119 6.49968 26.9949C6.10683 26.9779 5.72771 26.8455 5.40971 26.6142C5.09171 26.3829 4.84895 26.063 4.71178 25.6945C4.5746 25.326 4.5491 24.9252 4.63847 24.5423L6.32472 17.2248L0.685965 12.2973C0.387726 12.04 0.172068 11.7005 0.0660352 11.3212C-0.0399976 10.9419 -0.0316851 10.5397 0.0899302 10.1651C0.211546 9.79055 0.44105 9.4602 0.749663 9.21552C1.05828 8.97085 1.43226 8.82273 1.82472 8.78975L9.25722 8.146L12.1585 1.226C12.31 0.862896 12.5655 0.552735 12.893 0.334573C13.2204 0.11641 13.605 0 13.9985 0C14.3919 0 14.7766 0.11641 15.104 0.334573C15.4314 0.552735 15.687 0.862896 15.8385 1.226L18.7485 8.146L26.1785 8.78975C26.5709 8.82273 26.9449 8.97085 27.2535 9.21552C27.5621 9.4602 27.7916 9.79055 27.9133 10.1651C28.0349 10.5397 28.0432 10.9419 27.9371 11.3212C27.8311 11.7005 27.6155 12.04 27.3172 12.2973H27.311Z" fill="#00D885"/>
</svg>
