<svg xmlns="http://www.w3.org/2000/svg" fill="none" viewBox="36.83 38.48 196.35 193.07">
<path d="M172.096 64.9094C171.988 64.9094 171.88 64.8554 171.826 64.8014C171.826 64.8014 171.448 64.4234 170.746 63.8294C170.584 63.6674 170.584 63.4514 170.692 63.2894C170.854 63.1274 171.07 63.1274 171.232 63.2354C171.988 63.8834 172.366 64.2614 172.366 64.2614C172.528 64.4234 172.528 64.6394 172.366 64.8014C172.312 64.9094 172.204 64.9094 172.096 64.9094Z" fill="#484954"/>
<path d="M116.857 218.863C116.641 218.863 116.479 218.701 116.479 218.485C116.479 218.269 116.641 218.107 116.857 218.107C117.883 218.107 118.855 218.107 119.881 218.053C120.097 218.053 120.259 218.161 120.259 218.377V218.431C120.259 218.647 120.097 218.809 119.881 218.809C118.909 218.809 117.883 218.863 116.857 218.863ZM113.833 218.863C112.807 218.863 111.781 218.809 110.809 218.755C110.593 218.755 110.431 218.539 110.431 218.377C110.431 218.161 110.647 217.999 110.809 217.999C111.781 218.053 112.807 218.107 113.833 218.107C114.049 218.107 114.211 218.269 114.211 218.485C114.265 218.647 114.049 218.863 113.833 218.863ZM122.959 218.755C122.743 218.755 122.581 218.593 122.581 218.377C122.581 218.161 122.743 217.999 122.959 217.999C123.985 217.945 124.957 217.945 125.983 217.891C126.199 217.891 126.361 218.053 126.361 218.269C126.361 218.485 126.199 218.647 125.983 218.647C125.011 218.701 123.985 218.701 122.959 218.755ZM107.839 218.485C106.759 218.377 105.733 218.269 104.761 218.107C104.545 218.053 104.437 217.891 104.437 217.675C104.491 217.459 104.653 217.351 104.869 217.351C105.841 217.513 106.813 217.621 107.839 217.729C108.055 217.729 108.217 217.891 108.217 218.107C108.217 218.323 108.001 218.485 107.839 218.485ZM129.007 218.485C128.791 218.485 128.629 218.323 128.629 218.107C128.629 217.891 128.791 217.729 129.007 217.729C130.033 217.675 131.005 217.621 132.031 217.513C132.247 217.513 132.409 217.675 132.463 217.837C132.463 218.053 132.301 218.215 132.139 218.215C131.059 218.377 130.033 218.431 129.007 218.485ZM135.001 217.999C134.785 217.999 134.623 217.837 134.623 217.621C134.623 217.405 134.785 217.243 135.001 217.243C136.027 217.135 136.999 217.027 138.025 216.973C138.241 216.919 138.403 217.081 138.457 217.297C138.511 217.513 138.349 217.675 138.133 217.729C138.133 217.729 138.133 217.729 138.079 217.729C137.053 217.783 136.027 217.891 135.001 217.999ZM101.791 217.567H101.737C100.711 217.351 99.7385 217.081 98.7665 216.811C98.5505 216.757 98.4425 216.541 98.5505 216.325C98.6045 216.163 98.8205 216.055 98.9825 216.109C99.9005 216.379 100.873 216.649 101.899 216.865C102.115 216.919 102.223 217.135 102.169 217.297C102.115 217.459 102.007 217.567 101.791 217.567ZM140.995 217.351C140.779 217.351 140.617 217.189 140.617 216.973C140.617 216.811 140.779 216.649 140.941 216.595C141.967 216.487 142.939 216.325 143.911 216.217C144.127 216.163 144.289 216.325 144.343 216.541C144.397 216.757 144.235 216.919 144.019 216.973C143.101 217.081 142.075 217.243 140.995 217.351ZM146.989 216.487C146.773 216.487 146.611 216.325 146.611 216.109C146.611 215.947 146.719 215.785 146.935 215.731C147.961 215.569 148.933 215.407 149.905 215.245C150.121 215.191 150.283 215.353 150.337 215.569C150.391 215.785 150.229 215.947 150.067 216.001C149.095 216.163 148.069 216.325 147.097 216.487H146.989ZM96.0125 215.839C95.9585 215.839 95.9045 215.839 95.8505 215.839C94.8785 215.461 93.9605 215.029 93.0425 214.543C92.8805 214.435 92.7725 214.219 92.8805 214.057C92.9885 213.895 93.2045 213.787 93.3665 213.895C94.2305 214.381 95.1485 214.759 96.0665 215.137C96.2825 215.191 96.3365 215.407 96.2825 215.623C96.2825 215.731 96.1745 215.839 96.0125 215.839ZM152.983 215.461C152.821 215.461 152.659 215.353 152.605 215.137C152.551 214.921 152.713 214.759 152.875 214.705C153.847 214.489 154.873 214.273 155.845 214.057C156.061 214.003 156.277 214.165 156.277 214.327C156.277 214.489 156.169 214.759 156.007 214.759C155.035 214.975 154.009 215.191 153.037 215.407H152.983V215.461ZM158.923 214.111C158.761 214.111 158.599 214.003 158.545 213.841C158.491 213.625 158.599 213.409 158.815 213.355C159.787 213.085 160.759 212.869 161.731 212.599C161.947 212.545 162.163 212.653 162.217 212.869C162.271 213.085 162.163 213.301 161.947 213.355C160.975 213.625 160.003 213.895 159.031 214.111H158.923ZM90.7205 212.977C90.6665 212.977 90.5585 212.977 90.5045 212.923C89.6945 212.329 88.8845 211.627 88.1825 210.925C88.0205 210.763 88.0205 210.547 88.1825 210.385C88.3445 210.223 88.5605 210.223 88.7225 210.385C89.4245 211.087 90.1805 211.735 90.9365 212.329C91.0985 212.437 91.1525 212.707 91.0445 212.869C90.9365 212.869 90.8285 212.923 90.7205 212.977ZM164.755 212.491C164.539 212.491 164.377 212.329 164.377 212.113C164.377 211.951 164.485 211.789 164.647 211.735C165.619 211.465 166.591 211.141 167.509 210.817C167.725 210.763 167.941 210.871 167.995 211.033C168.049 211.249 167.941 211.465 167.779 211.519C166.807 211.843 165.889 212.167 164.863 212.437L164.755 212.491ZM170.479 210.547C170.263 210.547 170.101 210.385 170.101 210.169C170.101 210.007 170.209 209.845 170.371 209.791C171.343 209.467 172.261 209.089 173.179 208.711C173.341 208.603 173.611 208.711 173.665 208.873C173.719 209.035 173.665 209.305 173.503 209.359H173.449C172.531 209.737 171.559 210.115 170.641 210.493C170.587 210.547 170.533 210.547 170.479 210.547ZM86.5625 208.657C86.4545 208.657 86.2925 208.603 86.2385 208.495C85.6985 207.631 85.2125 206.713 84.8345 205.741C84.7805 205.525 84.8345 205.309 85.0505 205.255C85.2665 205.201 85.4825 205.255 85.5365 205.471C85.9145 206.389 86.3465 207.253 86.8865 208.117C86.9945 208.279 86.9405 208.549 86.7785 208.657C86.6705 208.603 86.6165 208.657 86.5625 208.657ZM176.095 208.279C175.933 208.279 175.825 208.171 175.771 208.063C175.663 207.847 175.771 207.631 175.933 207.577C176.851 207.145 177.769 206.713 178.633 206.281C178.795 206.173 179.065 206.227 179.173 206.389C179.281 206.551 179.227 206.821 179.065 206.929C179.065 206.929 179.011 206.929 179.011 206.983C178.147 207.415 177.175 207.901 176.257 208.333C176.203 208.225 176.149 208.225 176.095 208.279ZM181.495 205.525C181.333 205.525 181.225 205.471 181.171 205.309C181.063 205.147 181.117 204.877 181.279 204.769C181.279 204.769 181.279 204.769 181.333 204.769C182.197 204.283 183.061 203.743 183.925 203.203C184.087 203.095 184.357 203.149 184.465 203.311C184.573 203.473 184.519 203.743 184.357 203.851C183.547 204.391 182.629 204.931 181.765 205.417C181.603 205.471 181.549 205.471 181.495 205.525ZM84.3485 203.041C84.1865 203.041 84.0245 202.933 83.9705 202.717C83.8625 202.015 83.8085 201.367 83.7545 200.665V200.503C83.7545 200.233 83.7545 199.909 83.8085 199.639C83.8085 199.423 84.0245 199.261 84.2405 199.315C84.4565 199.315 84.6185 199.531 84.5645 199.747C84.5105 200.017 84.5105 200.287 84.5105 200.557V200.719C84.5105 201.367 84.5645 202.015 84.6725 202.663C84.7265 202.879 84.5645 203.041 84.3485 203.095V203.041ZM186.571 202.231C186.355 202.231 186.193 202.069 186.193 201.853C186.193 201.745 186.247 201.637 186.355 201.529C187.165 200.935 187.975 200.341 188.731 199.693C188.893 199.585 189.109 199.585 189.271 199.747C189.433 199.909 189.379 200.125 189.217 200.287C188.461 200.935 187.651 201.583 186.787 202.177C186.733 202.231 186.679 202.231 186.571 202.231ZM191.215 198.397C190.999 198.397 190.837 198.235 190.837 198.019C190.837 197.911 190.891 197.803 190.945 197.749C191.701 197.047 192.349 196.345 193.051 195.589C193.213 195.427 193.429 195.427 193.591 195.535C193.753 195.643 193.753 195.913 193.645 196.075C192.997 196.831 192.241 197.587 191.539 198.289C191.431 198.343 191.323 198.343 191.215 198.397ZM85.2665 197.209C85.2125 197.209 85.1045 197.209 85.0505 197.155C84.8885 197.047 84.8345 196.831 84.9425 196.615C85.4825 195.751 86.1845 194.941 87.0485 194.293C87.2105 194.185 87.4265 194.185 87.5885 194.347C87.7505 194.509 87.6965 194.725 87.5345 194.887C86.7785 195.481 86.1305 196.237 85.5905 197.047C85.5365 197.101 85.3745 197.209 85.2665 197.209ZM195.265 193.861C195.157 193.861 195.103 193.807 195.049 193.807C194.887 193.699 194.833 193.429 194.941 193.267C195.535 192.511 196.075 191.647 196.615 190.783C196.723 190.621 196.939 190.567 197.155 190.675C197.371 190.783 197.371 190.999 197.263 191.215C196.723 192.079 196.129 192.943 195.535 193.753C195.481 193.807 195.373 193.861 195.265 193.861ZM89.8025 193.321C89.6405 193.321 89.5325 193.267 89.4785 193.105C89.3705 192.943 89.4245 192.673 89.6405 192.619C90.5585 192.133 91.4765 191.755 92.4485 191.431C92.6645 191.377 92.8805 191.485 92.9345 191.647C92.9885 191.863 92.8805 192.079 92.7185 192.133C91.8005 192.457 90.8825 192.835 89.9645 193.321C89.9105 193.321 89.8565 193.321 89.8025 193.321ZM116.479 191.917C116.425 191.917 116.425 191.917 116.371 191.917C115.399 191.701 114.427 191.485 113.455 191.323C113.239 191.269 113.131 191.107 113.131 190.891C113.185 190.675 113.347 190.567 113.563 190.567C114.535 190.729 115.561 190.945 116.533 191.215C116.749 191.269 116.857 191.485 116.803 191.647C116.803 191.809 116.695 191.917 116.479 191.917ZM95.4725 191.323C95.2565 191.323 95.0945 191.161 95.0945 190.945C95.0945 190.783 95.2025 190.621 95.3645 190.567C96.3365 190.351 97.3625 190.135 98.3885 190.027C98.6045 189.973 98.7665 190.135 98.8205 190.351C98.8205 190.567 98.7125 190.729 98.4965 190.783C97.4705 190.891 96.4985 191.107 95.5265 191.323H95.4725ZM110.539 190.783C109.513 190.675 108.487 190.567 107.515 190.513C107.299 190.513 107.137 190.297 107.137 190.135C107.137 189.919 107.353 189.757 107.569 189.811C108.595 189.865 109.621 189.973 110.593 190.081C110.809 190.135 110.917 190.297 110.917 190.513C110.863 190.675 110.755 190.783 110.539 190.783ZM101.467 190.459C101.251 190.459 101.089 190.297 101.089 190.081C101.089 189.865 101.251 189.703 101.467 189.703C102.331 189.649 103.249 189.649 104.167 189.649H104.491C104.707 189.649 104.869 189.865 104.815 190.081C104.815 190.243 104.653 190.405 104.491 190.405H104.167C103.303 190.405 102.385 190.405 101.467 190.459ZM198.505 188.785C198.451 188.785 198.397 188.785 198.343 188.731C198.181 188.623 198.073 188.407 198.181 188.191C198.667 187.327 199.099 186.463 199.531 185.491C199.639 185.329 199.855 185.275 200.071 185.329C200.233 185.437 200.287 185.599 200.233 185.815C199.801 186.733 199.315 187.651 198.829 188.515C198.775 188.677 198.613 188.731 198.505 188.785ZM201.097 183.331C201.043 183.331 200.989 183.331 200.935 183.331C200.719 183.277 200.665 183.007 200.719 182.845C201.097 181.927 201.475 180.955 201.799 180.037C201.853 179.821 202.069 179.713 202.285 179.821C202.501 179.875 202.609 180.091 202.501 180.307C202.177 181.279 201.799 182.197 201.421 183.169C201.421 183.223 201.259 183.331 201.097 183.331ZM203.203 177.607C203.149 177.607 203.149 177.607 203.095 177.607C202.879 177.553 202.771 177.337 202.825 177.121C203.095 176.149 203.365 175.177 203.635 174.205C203.689 173.989 203.905 173.881 204.067 173.935C204.283 173.989 204.391 174.205 204.337 174.367C204.067 175.339 203.797 176.311 203.527 177.283C203.473 177.499 203.365 177.607 203.203 177.607ZM204.661 171.721H204.607C204.391 171.667 204.283 171.505 204.283 171.289C204.499 170.263 204.661 169.291 204.769 168.319C204.823 168.103 204.985 167.941 205.201 167.995C205.417 168.049 205.579 168.211 205.525 168.427C205.417 169.399 205.201 170.425 205.039 171.451C204.985 171.613 204.823 171.721 204.661 171.721ZM205.471 165.727C205.255 165.727 205.093 165.511 205.093 165.349C205.147 164.377 205.201 163.405 205.201 162.433V162.325C205.201 162.109 205.363 161.947 205.579 161.947C205.795 161.947 205.957 162.109 205.957 162.325V162.433C205.957 163.405 205.903 164.377 205.849 165.403C205.849 165.565 205.687 165.727 205.471 165.727ZM205.471 159.679C205.255 159.679 205.093 159.517 205.093 159.355C204.985 158.383 204.877 157.357 204.661 156.385C204.607 156.169 204.769 156.007 204.985 155.953C205.201 155.899 205.363 156.061 205.417 156.277C205.579 157.303 205.741 158.275 205.849 159.301C205.849 159.463 205.687 159.625 205.471 159.679ZM204.337 153.739C204.175 153.739 204.013 153.631 203.959 153.469C203.635 152.497 203.311 151.579 202.879 150.715C202.771 150.499 202.879 150.283 203.041 150.229C203.203 150.175 203.473 150.229 203.527 150.391C203.959 151.309 204.337 152.281 204.607 153.253C204.661 153.469 204.553 153.685 204.337 153.739ZM201.745 148.285C201.637 148.285 201.475 148.231 201.421 148.123C200.881 147.313 200.233 146.557 199.585 145.801C199.423 145.639 199.423 145.423 199.585 145.261C199.747 145.099 199.963 145.099 200.125 145.261C200.827 146.017 201.475 146.827 202.069 147.691C202.177 147.853 202.177 148.069 202.015 148.231C202.015 148.231 202.015 148.231 201.961 148.231C201.907 148.231 201.799 148.285 201.745 148.285ZM94.1765 145.909H92.7725C92.5565 145.909 92.3945 145.747 92.3945 145.531C92.3945 145.315 92.5565 145.153 92.7725 145.153C93.7985 145.153 94.7705 145.153 95.7965 145.153C96.0125 145.153 96.1745 145.315 96.1745 145.531C96.1745 145.747 96.0125 145.909 95.7965 145.909H94.1765ZM98.8205 145.801C98.6045 145.801 98.4425 145.639 98.4425 145.423C98.4425 145.207 98.6045 145.045 98.8205 145.045L101.845 144.991C102.061 144.991 102.223 145.153 102.223 145.369C102.223 145.585 102.061 145.747 101.845 145.747L98.8205 145.801ZM89.7485 145.801C88.7225 145.801 87.6965 145.747 86.7245 145.693C86.5085 145.693 86.3465 145.531 86.3465 145.315C86.3465 145.099 86.5085 144.937 86.7245 144.937C87.6965 144.991 88.7225 144.991 89.7485 145.045C89.9645 145.045 90.1265 145.207 90.1265 145.423C90.1265 145.639 89.9645 145.801 89.7485 145.801ZM104.869 145.585C104.653 145.585 104.491 145.423 104.491 145.207C104.491 144.991 104.653 144.829 104.869 144.829C105.895 144.775 106.867 144.721 107.893 144.667C108.109 144.667 108.271 144.829 108.271 144.991C108.271 145.207 108.109 145.369 107.893 145.369L104.869 145.585ZM83.7005 145.531C82.6745 145.477 81.6485 145.369 80.6765 145.315C80.4605 145.315 80.2985 145.099 80.3525 144.883C80.3525 144.667 80.5685 144.505 80.7845 144.559C81.7565 144.667 82.7825 144.721 83.8085 144.775C84.0245 144.775 84.1865 144.937 84.1865 145.153C84.1325 145.423 83.9165 145.585 83.7005 145.531ZM110.971 145.315C110.755 145.315 110.593 145.153 110.593 144.937C110.593 144.721 110.755 144.559 110.917 144.559L113.941 144.343C114.157 144.343 114.319 144.505 114.373 144.667C114.427 144.829 114.211 145.045 114.049 145.099C112.969 145.153 111.997 145.261 110.971 145.315ZM77.6525 144.991C76.5725 144.883 75.5465 144.721 74.5745 144.559C74.3585 144.559 74.1965 144.343 74.2505 144.127C74.2505 143.911 74.4665 143.749 74.6825 143.803H74.7365C75.7085 143.965 76.7345 144.073 77.7065 144.235C77.9225 144.235 78.0845 144.451 78.0305 144.667C78.0305 144.883 77.8685 144.991 77.6525 144.991ZM116.965 144.883C116.749 144.883 116.587 144.721 116.587 144.559C116.587 144.343 116.749 144.181 116.911 144.127L119.935 143.857C120.151 143.857 120.313 144.019 120.367 144.181C120.367 144.397 120.205 144.559 120.043 144.613L116.965 144.883ZM123.013 144.397C122.797 144.397 122.635 144.235 122.635 144.019C122.635 143.803 122.797 143.641 123.013 143.641L126.037 143.371C126.253 143.371 126.415 143.479 126.469 143.695C126.469 143.911 126.361 144.073 126.145 144.127L123.013 144.397ZM71.6585 144.073H71.6045C70.5785 143.857 69.6065 143.641 68.6345 143.425C68.4185 143.371 68.3105 143.155 68.3645 142.993C68.4185 142.777 68.6345 142.669 68.7965 142.723C69.7685 142.939 70.7405 143.209 71.7125 143.371C71.9285 143.425 72.0365 143.587 72.0365 143.803C71.9825 143.911 71.8745 144.073 71.6585 144.073ZM197.641 143.911C197.533 143.911 197.479 143.857 197.425 143.857C196.615 143.263 195.805 142.723 194.941 142.291C194.779 142.183 194.671 141.967 194.779 141.805C194.887 141.643 195.103 141.535 195.265 141.643C196.183 142.129 197.047 142.669 197.857 143.317C198.019 143.425 198.073 143.695 197.965 143.857C197.857 143.857 197.749 143.911 197.641 143.911ZM129.061 143.803C128.845 143.803 128.683 143.641 128.683 143.425C128.683 143.209 128.845 143.047 129.061 143.047L132.085 142.777C132.301 142.777 132.463 142.885 132.517 143.101C132.517 143.317 132.409 143.479 132.193 143.533L129.061 143.803ZM135.109 143.209C134.893 143.209 134.731 143.047 134.731 142.885C134.731 142.669 134.839 142.507 135.055 142.453L138.079 142.129C138.295 142.129 138.457 142.237 138.511 142.453C138.511 142.669 138.403 142.831 138.187 142.885L135.109 143.209ZM65.7725 142.561C65.7185 142.561 65.7185 142.561 65.6645 142.561C64.6385 142.237 63.6665 141.913 62.8025 141.535C62.5865 141.481 62.5325 141.265 62.5865 141.049C62.6405 140.833 62.8565 140.779 63.0725 140.833C63.9365 141.157 64.9085 141.535 65.8805 141.805C66.0965 141.859 66.2045 142.075 66.1505 142.291C66.0965 142.453 65.9345 142.561 65.7725 142.561ZM141.103 142.561C140.887 142.561 140.725 142.399 140.725 142.237C140.725 142.021 140.833 141.859 141.049 141.805L144.073 141.481C144.289 141.481 144.451 141.643 144.451 141.859C144.451 142.075 144.343 142.237 144.127 142.237L141.103 142.561ZM147.205 141.913L147.151 141.535V141.157L150.121 140.833C150.337 140.779 150.499 140.941 150.553 141.157C150.607 141.373 150.445 141.535 150.229 141.589C150.229 141.589 150.229 141.589 150.175 141.589L147.205 141.913ZM153.145 141.265C152.929 141.265 152.767 141.103 152.767 140.941C152.767 140.725 152.875 140.563 153.091 140.509L156.115 140.185C156.331 140.185 156.493 140.293 156.547 140.509C156.547 140.725 156.439 140.887 156.223 140.941L153.145 141.265ZM192.241 141.049C192.187 141.049 192.133 141.049 192.133 141.049C191.215 140.725 190.243 140.455 189.271 140.185C189.055 140.131 188.947 139.915 189.001 139.699C189.055 139.537 189.217 139.429 189.433 139.429C190.405 139.645 191.431 139.969 192.403 140.293C192.619 140.347 192.727 140.563 192.619 140.779C192.565 140.995 192.403 141.103 192.241 141.049ZM159.193 140.671C158.977 140.671 158.815 140.509 158.815 140.347C158.815 140.131 158.923 139.969 159.139 139.915L162.163 139.645C162.379 139.645 162.541 139.753 162.595 139.969C162.595 140.185 162.487 140.347 162.271 140.401L159.193 140.671ZM60.1565 140.347C60.1025 140.347 60.0485 140.347 59.9945 140.293C59.0765 139.861 58.2125 139.321 57.3485 138.781C57.1865 138.673 57.1325 138.457 57.2405 138.241C57.3485 138.079 57.5645 138.025 57.7805 138.133C58.6445 138.673 59.5085 139.159 60.3725 139.591C60.5345 139.699 60.6425 139.915 60.5345 140.077C60.4265 140.239 60.3185 140.347 60.1565 140.347ZM165.241 140.131C165.025 140.131 164.863 139.969 164.863 139.753C164.863 139.537 165.025 139.375 165.241 139.375L168.265 139.105C168.481 139.105 168.643 139.267 168.697 139.429C168.751 139.591 168.535 139.807 168.373 139.861L165.241 140.131ZM186.409 139.645C185.383 139.537 184.411 139.429 183.385 139.375C183.169 139.375 183.007 139.213 183.007 138.997C183.007 138.781 183.169 138.619 183.385 138.619C183.385 138.619 183.385 138.619 183.439 138.619C184.465 138.673 185.491 138.781 186.463 138.889C186.679 138.889 186.841 139.105 186.841 139.267C186.841 139.429 186.625 139.699 186.409 139.645ZM171.289 139.645C171.073 139.645 170.911 139.429 170.965 139.213C170.965 139.051 171.127 138.889 171.289 138.889C172.315 138.835 173.341 138.781 174.313 138.727C174.529 138.673 174.691 138.835 174.745 139.051C174.799 139.267 174.637 139.429 174.421 139.483C174.367 139.483 174.367 139.483 174.313 139.483C173.341 139.537 172.369 139.591 171.289 139.645ZM177.337 139.375C177.121 139.375 176.959 139.213 176.959 138.997C176.959 138.781 177.121 138.619 177.337 138.619C178.363 138.619 179.389 138.565 180.361 138.565C180.577 138.565 180.739 138.727 180.739 138.943C180.739 139.159 180.577 139.321 180.361 139.321C179.389 139.321 178.417 139.321 177.337 139.375ZM55.0805 137.053C54.9725 137.053 54.9185 136.999 54.8105 136.945C54.0545 136.297 53.2985 135.541 52.6505 134.785C52.4885 134.623 52.5425 134.407 52.7045 134.245C52.8665 134.083 53.0825 134.137 53.2445 134.299C53.8925 135.055 54.5945 135.757 55.3505 136.405C55.5125 136.567 55.5125 136.783 55.4045 136.945C55.2965 137.053 55.1885 137.053 55.0805 137.053ZM51.1925 132.463C51.0305 132.463 50.9225 132.409 50.8685 132.247C50.5985 131.761 50.3285 131.275 50.1125 130.735C49.9505 130.303 49.7345 129.871 49.5725 129.439C49.5185 129.223 49.5725 129.007 49.7885 128.953C50.0045 128.899 50.2205 128.953 50.2745 129.169C50.4365 129.601 50.6525 130.033 50.8145 130.411C51.0305 130.897 51.3005 131.383 51.5705 131.869C51.6785 132.031 51.6245 132.301 51.4625 132.409C51.3545 132.463 51.3005 132.463 51.1925 132.463ZM48.8705 126.847C48.7085 126.847 48.5465 126.739 48.4925 126.577C48.1685 125.605 47.8985 124.633 47.6285 123.661C47.5745 123.445 47.6825 123.229 47.8985 123.175C48.1145 123.121 48.3305 123.229 48.3845 123.445C48.6545 124.417 48.9245 125.389 49.2485 126.307C49.3025 126.523 49.1945 126.739 49.0325 126.793C48.9245 126.847 48.9245 126.847 48.8705 126.847ZM47.3585 121.015C47.1965 121.015 47.0345 120.907 46.9805 120.691C46.8185 119.719 46.6565 118.693 46.4945 117.667C46.4945 117.451 46.6565 117.289 46.8725 117.289C47.0345 117.289 47.1965 117.397 47.2505 117.559C47.3585 118.585 47.5205 119.557 47.7365 120.529C47.7905 120.745 47.6285 120.907 47.4125 120.961L47.3585 121.015ZM46.6025 115.021C46.3865 115.021 46.2245 114.859 46.2245 114.697C46.1705 113.671 46.1165 112.645 46.0625 111.673C46.0625 111.457 46.2245 111.295 46.4405 111.295C46.6565 111.295 46.8185 111.457 46.8185 111.673C46.8185 112.699 46.8725 113.671 46.9805 114.697C46.9805 114.805 46.8185 115.021 46.6025 115.021C46.6565 115.021 46.6565 115.021 46.6025 115.021ZM46.4945 108.973C46.2785 108.973 46.1165 108.811 46.1165 108.595C46.1165 107.569 46.2245 106.543 46.2785 105.571C46.2785 105.355 46.4945 105.193 46.7105 105.247C46.9265 105.247 47.0885 105.463 47.0345 105.679C46.9805 106.705 46.9265 107.677 46.8725 108.703C46.8725 108.811 46.6565 108.973 46.4945 108.973ZM46.9265 102.925C46.6565 102.925 46.5485 102.709 46.5485 102.493C46.6565 101.521 46.8185 100.495 46.9805 99.4688C47.0345 99.2528 47.1965 99.1448 47.4125 99.1448C47.6285 99.1988 47.7365 99.3608 47.7365 99.5768C47.5745 100.549 47.4125 101.575 47.3045 102.547C47.2505 102.763 47.0885 102.925 46.9265 102.925ZM47.8985 96.9308H47.8445C47.6285 96.8768 47.5205 96.7148 47.5205 96.4988C47.7365 95.5268 47.9525 94.5008 48.1685 93.5288C48.2225 93.3128 48.4385 93.2048 48.6005 93.2588C48.8165 93.3128 48.9245 93.5288 48.8705 93.6908C48.6545 94.6628 48.3845 95.6348 48.2225 96.6068C48.2225 96.8228 48.0605 96.9308 47.8985 96.9308ZM49.3025 91.0448C49.2485 91.0448 49.2485 91.0448 49.1945 91.0448C48.9785 90.9908 48.8705 90.7748 48.9245 90.5588C49.1945 89.5868 49.5185 88.6148 49.8425 87.6428C49.8965 87.4268 50.1125 87.3188 50.3285 87.4268C50.5445 87.4808 50.6525 87.6968 50.5445 87.9128C50.2205 88.8308 49.9505 89.8028 49.6265 90.7748C49.6265 90.9908 49.5185 91.0988 49.3025 91.0448ZM51.2465 85.3208C51.1925 85.3208 51.1385 85.3208 51.1385 85.3208C50.9225 85.2668 50.8685 85.0508 50.9225 84.8348C51.3005 83.8628 51.6785 82.9448 52.0565 82.0268C52.1645 81.8648 52.3805 81.7568 52.5425 81.8648C52.7045 81.9728 52.8125 82.1348 52.7045 82.3508C52.3265 83.2688 51.9485 84.1868 51.5705 85.1588C51.5705 85.2668 51.4085 85.3748 51.2465 85.3208ZM53.6765 79.7588C53.4605 79.7588 53.2985 79.5968 53.2985 79.3808C53.2985 79.3268 53.2985 79.2728 53.3525 79.2188C53.7845 78.3008 54.2705 77.3828 54.7565 76.5188C54.8645 76.3568 55.0805 76.3028 55.2965 76.4108C55.4585 76.5188 55.5125 76.7348 55.4585 76.8968C54.9725 77.7608 54.4865 78.6248 54.0545 79.5428C53.9465 79.7048 53.8385 79.7588 53.6765 79.7588ZM56.6465 74.4668C56.5925 74.4668 56.4845 74.4668 56.4305 74.4128C56.2685 74.3048 56.2145 74.0888 56.3225 73.8728C56.8625 73.0088 57.4565 72.1448 58.0505 71.3348C58.1585 71.1728 58.4285 71.1188 58.5905 71.2808C58.7525 71.3888 58.8065 71.6588 58.6985 71.8208C58.1045 72.5768 57.5645 73.4408 57.0245 74.3048C56.8625 74.4128 56.7545 74.4668 56.6465 74.4668ZM60.2645 69.6068C60.1565 69.6068 60.1025 69.5528 59.9945 69.4988C59.8325 69.3368 59.8325 69.1208 59.9405 68.9588C60.5885 68.2028 61.2905 67.4468 61.9925 66.6908C62.1545 66.5288 62.3705 66.5288 62.5325 66.6908C62.6945 66.8528 62.6945 67.0688 62.5325 67.2308C61.8305 67.9328 61.1285 68.6888 60.4805 69.4448C60.4265 69.5528 60.3185 69.6068 60.2645 69.6068ZM64.4765 65.2868C64.3685 65.2868 64.2605 65.2328 64.2065 65.1788C64.0445 65.0168 64.0445 64.8008 64.2065 64.6388C64.9625 63.9368 65.7185 63.2888 66.4745 62.5868C66.6365 62.4248 66.8525 62.4788 67.0145 62.6408C67.1765 62.8028 67.1225 63.0188 66.9605 63.1808C66.2045 63.8288 65.4485 64.4768 64.6925 65.1788C64.6385 65.2328 64.5305 65.2868 64.4765 65.2868ZM168.643 62.0468C168.535 62.0468 168.481 61.9928 168.427 61.9928C167.671 61.3988 166.807 60.8048 165.943 60.2648C165.781 60.1568 165.727 59.9408 165.835 59.7248C165.943 59.5628 166.159 59.5088 166.375 59.6168C167.239 60.2108 168.103 60.8048 168.859 61.3448C169.021 61.4528 169.075 61.7228 168.967 61.8848C168.859 61.9928 168.751 62.0468 168.643 62.0468ZM69.0665 61.3448C68.9585 61.3448 68.8505 61.2908 68.7425 61.1828C68.6345 61.0208 68.6345 60.8048 68.7965 60.6428C69.6065 60.0488 70.4165 59.4008 71.2265 58.8608C71.3885 58.7528 71.6045 58.7528 71.7665 58.9148C71.9285 59.0768 71.8745 59.2928 71.7125 59.4548C71.7125 59.4548 71.7125 59.4548 71.6585 59.4548C70.8485 60.0488 70.0385 60.6428 69.2285 61.2368C69.2285 61.2908 69.1745 61.3448 69.0665 61.3448ZM163.567 58.6988C163.513 58.6988 163.405 58.6988 163.351 58.6448C162.487 58.1588 161.623 57.6728 160.705 57.1868C160.543 57.0788 160.435 56.8628 160.543 56.6468C160.651 56.4848 160.867 56.3768 161.083 56.4848C162.001 56.9708 162.865 57.4568 163.729 57.9968C163.891 58.1048 163.999 58.3208 163.891 58.5368C163.837 58.6448 163.729 58.6988 163.567 58.6988ZM74.0345 57.8348C73.9265 57.8348 73.7645 57.7808 73.7105 57.6728C73.6025 57.5108 73.6565 57.2408 73.8185 57.1328C74.6825 56.5928 75.5465 56.0528 76.4105 55.5668C76.5725 55.4588 76.8425 55.5128 76.9505 55.6748C76.9505 55.6748 76.9505 55.6748 76.9505 55.7288C77.0585 55.8908 77.0045 56.1608 76.8425 56.2688C75.9785 56.7548 75.1145 57.2948 74.2505 57.8348C74.1965 57.8348 74.0885 57.8348 74.0345 57.8348ZM158.275 55.8368C158.221 55.8368 158.167 55.8368 158.113 55.7828C157.195 55.3508 156.277 54.9188 155.359 54.5408C155.143 54.4868 155.035 54.2708 155.143 54.0548C155.197 53.8388 155.413 53.7308 155.629 53.8388H155.683C156.601 54.2708 157.573 54.7028 158.437 55.1348C158.599 55.2428 158.707 55.4588 158.599 55.6208C158.545 55.7288 158.383 55.8368 158.275 55.8368ZM79.2725 54.8108C79.1105 54.8108 79.0025 54.7568 78.9485 54.5948C78.8405 54.4328 78.9485 54.1628 79.1105 54.1088C79.9745 53.6228 80.9465 53.1908 81.8105 52.7588C81.9725 52.6508 82.2425 52.7588 82.2965 52.9208C82.4045 53.0828 82.2965 53.3528 82.1345 53.4068C81.2165 53.8388 80.2985 54.2708 79.4345 54.7568C79.3265 54.7568 79.2725 54.7568 79.2725 54.8108ZM152.713 53.4068C152.659 53.4068 152.605 53.4068 152.551 53.4068C151.633 53.0288 150.661 52.7048 149.743 52.3268C149.527 52.2728 149.419 52.0568 149.527 51.8408C149.581 51.6248 149.797 51.5168 150.013 51.6248C150.985 51.9488 151.903 52.3268 152.875 52.7048C153.091 52.7588 153.145 53.0288 153.091 53.1908C152.983 53.2988 152.875 53.4068 152.713 53.4068ZM84.7265 52.1648C84.5645 52.1648 84.4565 52.0568 84.4025 51.9488C84.3485 51.7328 84.4025 51.5168 84.6185 51.4628C85.5365 51.0848 86.5085 50.7068 87.4265 50.3288C87.6425 50.2748 87.8585 50.3828 87.9125 50.5448C87.9665 50.7068 87.8585 50.9228 87.6965 51.0308C86.7785 51.4088 85.8065 51.7328 84.8885 52.1648C84.8345 52.1648 84.7805 52.1648 84.7265 52.1648ZM146.989 51.3008H146.881C145.963 50.9768 144.991 50.7068 144.019 50.4368C143.803 50.3828 143.695 50.1668 143.749 49.9508C143.803 49.7348 144.019 49.6268 144.235 49.6808C145.207 49.9508 146.179 50.2748 147.151 50.5988C147.367 50.6528 147.475 50.8688 147.421 51.0848C147.259 51.1928 147.151 51.3008 146.989 51.3008ZM90.3965 50.0588C90.2345 50.0588 90.0725 49.9508 90.0185 49.7888C89.9645 49.5728 90.0725 49.3568 90.2345 49.3028C91.2065 48.9788 92.1785 48.7088 93.1505 48.3848C93.3665 48.3308 93.5285 48.4928 93.5825 48.7088C93.6365 48.8708 93.5285 49.0868 93.3665 49.1408C92.3945 49.4108 91.4225 49.7348 90.5045 50.0048C90.4505 50.0588 90.4505 50.0588 90.3965 50.0588ZM141.157 49.6268C141.103 49.6268 141.103 49.6268 141.049 49.6268C140.077 49.4108 139.105 49.1408 138.133 48.9248C137.917 48.8708 137.809 48.6548 137.863 48.4928C137.917 48.2768 138.133 48.1688 138.295 48.2228C139.321 48.4388 140.293 48.7088 141.265 48.9248C141.481 48.9788 141.589 49.1948 141.535 49.3568C141.535 49.5188 141.373 49.6808 141.157 49.6268ZM96.2285 48.3848C96.0125 48.3848 95.8505 48.2228 95.8505 48.0068C95.8505 47.8448 95.9585 47.6828 96.1205 47.6288C97.0925 47.4128 98.1185 47.1968 99.0905 46.9808C99.3065 46.9808 99.4685 47.0888 99.5225 47.3048C99.5225 47.4668 99.4145 47.6828 99.2525 47.7368C98.2805 47.9528 97.3085 48.1688 96.3365 48.3848H96.2285ZM135.271 48.3308H135.217C134.245 48.1148 133.273 47.9528 132.247 47.7908C132.031 47.7368 131.923 47.5748 131.923 47.3588C131.977 47.1428 132.139 47.0348 132.355 47.0348C133.381 47.1968 134.353 47.4128 135.325 47.5748C135.541 47.6288 135.649 47.7908 135.649 48.0068C135.595 48.1688 135.433 48.2768 135.271 48.3308ZM129.331 47.3048H129.277C128.305 47.1428 127.279 47.0348 126.307 46.9268C126.091 46.9268 125.929 46.7108 125.983 46.4948C126.037 46.2788 126.199 46.1168 126.415 46.1708C127.441 46.2788 128.467 46.4408 129.439 46.5488C129.655 46.6028 129.763 46.7648 129.763 46.9808C129.655 47.1428 129.493 47.3048 129.331 47.3048ZM102.169 47.1968C102.007 47.1968 101.845 47.0888 101.791 46.8728C101.737 46.6568 101.899 46.4948 102.115 46.4408C103.087 46.2788 104.113 46.1168 105.139 46.0088C105.355 46.0088 105.517 46.1168 105.571 46.3328C105.625 46.5488 105.463 46.7108 105.247 46.7648C104.221 46.8728 103.249 47.0348 102.277 47.1968H102.169ZM123.283 46.5488C122.257 46.4408 121.231 46.3868 120.259 46.3328C120.043 46.3328 119.881 46.1168 119.881 45.9548C119.881 45.7388 120.043 45.5768 120.259 45.5768C121.231 45.6308 122.257 45.6848 123.283 45.7928C123.499 45.7928 123.661 46.0088 123.607 46.2248C123.661 46.4408 123.499 46.5488 123.283 46.5488ZM108.163 46.4948C107.947 46.4948 107.785 46.3328 107.785 46.1708C107.785 45.9548 107.893 45.7928 108.109 45.7928C109.135 45.6848 110.161 45.6308 111.133 45.5768C111.349 45.5768 111.511 45.7388 111.511 45.9008C111.511 46.1168 111.349 46.2788 111.133 46.2788C110.215 46.3328 109.189 46.3868 108.163 46.4948ZM117.235 46.2248C116.209 46.2248 115.237 46.1708 114.211 46.2248C113.995 46.2248 113.833 46.0628 113.833 45.8468C113.833 45.6308 113.995 45.4688 114.211 45.4688C115.237 45.4688 116.209 45.4688 117.235 45.4688C117.451 45.4688 117.613 45.6308 117.613 45.8468C117.667 46.0628 117.505 46.2248 117.235 46.2248Z" fill="#484954"/>
<path d="M121.012 193.16C120.958 193.16 120.958 193.16 120.904 193.16C120.418 192.998 119.932 192.836 119.446 192.728C119.23 192.674 119.122 192.458 119.23 192.242C119.284 192.08 119.5 191.972 119.662 192.026L121.12 192.458C121.336 192.512 121.444 192.728 121.336 192.944C121.336 193.052 121.174 193.16 121.012 193.16Z" fill="#484954"/>
<path d="M75.17 182.737C75.008 182.737 74.9 182.629 74.8461 182.467L67.934 163.242L60.374 177.985C60.266 178.147 60.05 178.255 59.888 178.147C59.834 178.147 59.78 178.093 59.78 178.039L52.22 168.211L47.522 175.771C47.414 175.933 47.198 175.987 46.982 175.879L42.932 173.449C42.77 173.341 42.662 173.125 42.77 172.909C42.878 172.747 43.094 172.639 43.31 172.747L47.09 175.015L51.842 167.401C51.896 167.293 52.004 167.239 52.166 167.239C52.274 167.239 52.436 167.293 52.49 167.401L59.996 177.175L67.718 162.162C67.826 162 68.042 161.893 68.204 162.001C68.312 162.055 68.366 162.109 68.366 162.217L75.278 181.387L78.572 174.475C78.68 174.313 78.896 174.258 79.112 174.312C79.274 174.42 79.328 174.583 79.274 174.799L75.602 182.575C75.494 182.629 75.332 182.737 75.17 182.737Z" fill="#484954"/>
<path d="M47.1986 176.526C47.7354 176.526 48.1706 176.091 48.1706 175.554C48.1706 175.017 47.7354 174.582 47.1986 174.582C46.6617 174.582 46.2266 175.017 46.2266 175.554C46.2266 176.091 46.6617 176.526 47.1986 176.526Z" fill="#484954"/>
<path d="M47.2016 176.905C46.4456 176.905 45.8516 176.311 45.8516 175.555C45.8516 174.799 46.4456 174.205 47.2016 174.205C47.9576 174.205 48.5516 174.799 48.5516 175.555C48.5516 176.311 47.9576 176.905 47.2016 176.905ZM47.2016 174.961C46.8776 174.961 46.6076 175.231 46.6076 175.555C46.6076 175.879 46.8776 176.149 47.2016 176.149C47.5256 176.149 47.7956 175.879 47.7956 175.555C47.7956 175.231 47.5256 174.961 47.2016 174.961Z" fill="white"/>
<path d="M52.1673 168.536C52.7041 168.536 53.1393 168.101 53.1393 167.564C53.1393 167.027 52.7041 166.592 52.1673 166.592C51.6305 166.592 51.1953 167.027 51.1953 167.564C51.1953 168.101 51.6305 168.536 52.1673 168.536Z" fill="#484954"/>
<path d="M52.1703 168.913C51.4143 168.913 50.8203 168.319 50.8203 167.563C50.8203 166.807 51.4143 166.213 52.1703 166.213C52.9263 166.213 53.5203 166.807 53.5203 167.563C53.5203 168.319 52.9263 168.913 52.1703 168.913ZM52.1703 166.969C51.8463 166.969 51.5763 167.239 51.5763 167.563C51.5763 167.887 51.8463 168.157 52.1703 168.157C52.4943 168.157 52.7643 167.887 52.7643 167.563C52.7643 167.239 52.4943 166.969 52.1703 166.969Z" fill="white"/>
<path d="M67.9876 163.298C68.5244 163.298 68.9596 162.862 68.9596 162.326C68.9596 161.789 68.5244 161.354 67.9876 161.354C67.4508 161.354 67.0156 161.789 67.0156 162.326C67.0156 162.862 67.4508 163.298 67.9876 163.298Z" fill="#484954"/>
<path d="M67.9906 163.622C67.2346 163.622 66.6406 163.028 66.6406 162.272C66.6406 161.516 67.2346 160.922 67.9906 160.922C68.7466 160.922 69.3406 161.516 69.3406 162.272C69.3406 163.028 68.7466 163.622 67.9906 163.622ZM67.9906 161.732C67.6666 161.732 67.3966 162.002 67.3966 162.326C67.3966 162.65 67.6666 162.92 67.9906 162.92C68.3146 162.92 68.5846 162.65 68.5846 162.326C68.5846 162.002 68.3146 161.732 67.9906 161.732Z" fill="white"/>
<path d="M75.1673 183.331C75.7041 183.331 76.1393 182.896 76.1393 182.359C76.1393 181.822 75.7041 181.387 75.1673 181.387C74.6305 181.387 74.1953 181.822 74.1953 182.359C74.1953 182.896 74.6305 183.331 75.1673 183.331Z" fill="#484954"/>
<path d="M75.1703 183.655C74.4143 183.655 73.8203 183.061 73.8203 182.305C73.8203 181.549 74.4143 180.955 75.1703 180.955C75.9263 180.955 76.5203 181.549 76.5203 182.305C76.5203 183.061 75.9263 183.655 75.1703 183.655ZM75.1703 181.765C74.8463 181.765 74.5763 182.035 74.5763 182.359C74.5763 182.683 74.8463 182.953 75.1703 182.953C75.4943 182.953 75.7643 182.683 75.7643 182.359C75.7643 182.035 75.5483 181.765 75.1703 181.765Z" fill="white"/>
<path d="M60.0501 178.796C60.5869 178.796 61.0221 178.36 61.0221 177.824C61.0221 177.287 60.5869 176.852 60.0501 176.852C59.5133 176.852 59.0781 177.287 59.0781 177.824C59.0781 178.36 59.5133 178.796 60.0501 178.796Z" fill="#484954"/>
<path d="M60.0531 179.173C59.2971 179.173 58.7031 178.579 58.7031 177.823C58.7031 177.067 59.2971 176.473 60.0531 176.473C60.8091 176.473 61.4031 177.067 61.4031 177.823C61.3491 178.579 60.7551 179.173 60.0531 179.173ZM60.0531 177.229C59.7291 177.229 59.4591 177.499 59.4591 177.823C59.4591 178.147 59.7291 178.417 60.0531 178.417C60.3771 178.417 60.6471 178.147 60.6471 177.823C60.5931 177.499 60.3771 177.229 60.0531 177.229Z" fill="white"/>
<path d="M37.2117 101.359C37.2117 101.359 36.2397 91.0449 55.0317 91.0449L54.4917 130.519L39.4797 123.877L37.2117 101.359Z" fill="white"/>
<path d="M54.4345 130.897C54.3805 130.897 54.3265 130.897 54.2725 130.843L39.3145 124.201C39.2065 124.147 39.0985 124.039 39.0985 123.877L36.8305 101.359C36.7765 99.1993 37.6405 97.0933 39.1525 95.5273C42.1225 92.2873 47.4685 90.6133 55.0285 90.6133C55.1365 90.6133 55.2445 90.6673 55.2985 90.7213C55.3525 90.7753 55.4065 90.8833 55.4065 90.9913L54.8665 130.465C54.8665 130.573 54.8125 130.735 54.7045 130.789C54.6505 130.897 54.5425 130.951 54.4345 130.897ZM39.8545 123.661L54.1105 129.979L54.6505 91.4233C47.5225 91.4773 42.5005 93.0433 39.7465 96.0673C38.3425 97.4713 37.5865 99.3613 37.5865 101.359L39.8545 123.661Z" fill="#484954"/>
<path d="M39.1514 109.297C38.8814 109.297 38.7734 109.081 38.7734 108.865C38.7734 108.757 40.0694 99.1454 52.9214 98.4434C53.1374 98.4434 53.2994 98.6054 53.2994 98.8214C53.2994 99.0374 53.1374 99.1994 52.9214 99.1994C40.7714 99.8474 39.5294 108.595 39.5294 108.973C39.4754 109.135 39.3674 109.297 39.1514 109.297Z" fill="#484954"/>
<path d="M39.7452 116.642C39.5292 116.642 39.3672 116.48 39.3672 116.264C39.3672 116.156 39.5832 106.436 52.2192 104.276C52.4352 104.222 52.5972 104.384 52.6512 104.6C52.7052 104.816 52.5432 104.978 52.3272 105.032C40.3392 107.084 40.1232 115.886 40.1232 116.264C40.1232 116.48 39.9612 116.642 39.7452 116.642Z" fill="#484954"/>
<path d="M39.8546 121.232C39.6386 121.232 39.4766 121.07 39.4766 120.854C39.4766 120.746 39.6926 111.026 52.3286 108.866C52.5446 108.812 52.7066 108.974 52.7606 109.19C52.8146 109.406 52.6526 109.568 52.4366 109.622C40.4486 111.674 40.2326 120.746 40.2326 120.854C40.2326 121.07 40.0706 121.232 39.8546 121.232Z" fill="#484954"/>
<path d="M78.0839 73.8723C83.8079 71.0103 86.1299 64.0443 83.2679 58.3743C80.4059 52.6503 73.4399 50.3283 67.7699 53.1903L72.9539 63.5583L62.5859 68.7423C65.3939 74.4123 72.3599 76.7343 78.0839 73.8723Z" fill="white"/>
<path d="M72.8995 75.4932C68.3635 75.4932 64.2055 72.9012 62.2075 68.9052C62.0995 68.7432 62.2075 68.4732 62.3695 68.4192L72.3595 63.3972L67.3375 53.4072C67.2835 53.2992 67.2835 53.1912 67.3375 53.1372C67.3915 53.0292 67.4455 52.9752 67.4995 52.9212C73.3855 49.9512 80.5675 52.3812 83.5375 58.2672C86.5075 64.1532 84.0775 71.3352 78.1915 74.3053C76.5715 75.0613 74.7355 75.4932 72.8995 75.4932ZM63.0715 68.9052C65.9335 74.1972 72.5215 76.3032 77.9215 73.6032C83.4295 70.8492 85.6975 64.0992 82.9435 58.5912C80.2435 53.1912 73.7635 50.9232 68.2555 53.4072L73.2775 63.3972C73.3855 63.5592 73.2775 63.8292 73.1155 63.8832L63.0715 68.9052Z" fill="#484954"/>
<path d="M58.8661 67.4465L69.2341 62.2625L64.0501 51.8945C58.3261 54.7565 56.0041 61.7225 58.8661 67.4465Z" fill="url(#paint0_linear_4507_6001)"/>
<path d="M58.8663 67.8248C58.7043 67.8248 58.5963 67.7168 58.5423 67.6088C55.5723 61.7228 58.0023 54.5408 63.8883 51.5708C64.0503 51.4628 64.3203 51.5708 64.3743 51.7328L69.5583 62.1008C69.6123 62.2088 69.6123 62.3168 69.5583 62.3708C69.5043 62.4788 69.4503 62.5328 69.3423 62.5868L58.9743 67.7708C58.9743 67.8248 58.8663 67.8248 58.8663 67.8248ZM63.8883 52.4348C58.7043 55.2428 56.5983 61.5608 59.0283 66.9068L68.6943 62.0468L63.8883 52.4348Z" fill="#484954"/>
<path d="M143.969 42.3901L127.013 38.8801C125.447 38.5561 123.935 39.5821 123.611 41.1481L121.883 49.4641C121.559 51.0301 122.531 52.5961 124.097 52.9201L123.449 57.3481L127.499 53.6221L141.053 56.4301C142.619 56.7541 144.131 55.7281 144.455 54.1621L146.183 45.8461C146.561 44.2801 145.535 42.7141 143.969 42.3901Z" fill="#484954"/>
<path d="M123.446 57.727C123.392 57.727 123.338 57.727 123.284 57.673C123.122 57.619 123.068 57.457 123.068 57.295L123.662 53.191C122.096 52.651 121.178 51.031 121.502 49.411L123.23 41.095C123.608 39.313 125.336 38.179 127.118 38.557L144.074 42.067C145.856 42.445 146.99 44.173 146.612 45.955L144.884 54.271C144.506 56.053 142.778 57.187 140.996 56.809L127.604 54.055L123.716 57.673C123.662 57.673 123.554 57.727 123.446 57.727ZM126.416 39.205C125.93 39.205 125.444 39.367 125.012 39.637C124.472 40.015 124.04 40.609 123.932 41.257L122.204 49.573C121.934 50.923 122.798 52.273 124.148 52.543C124.364 52.597 124.472 52.759 124.472 52.975L123.986 56.323L127.226 53.299C127.334 53.191 127.442 53.191 127.55 53.191L141.104 55.999C142.454 56.269 143.804 55.405 144.074 54.055L145.802 45.739C145.964 45.091 145.802 44.389 145.424 43.849C145.046 43.309 144.452 42.877 143.804 42.769L126.902 39.259C126.794 39.205 126.632 39.205 126.416 39.205Z" fill="white"/>
<path d="M141.425 48.9781H141.371L126.629 46.1701C126.413 46.1161 126.305 45.9541 126.305 45.7381C126.359 45.5221 126.521 45.4141 126.737 45.4141L141.479 48.2221C141.695 48.2761 141.803 48.4381 141.803 48.6541C141.749 48.8701 141.587 48.9781 141.425 48.9781Z" fill="white"/>
<path d="M136.248 51.8406H136.194L125.988 49.8966C125.772 49.8426 125.664 49.6806 125.664 49.4646C125.718 49.2486 125.88 49.1406 126.096 49.1406L136.302 51.0846C136.518 51.1386 136.626 51.3546 136.572 51.5166C136.572 51.7326 136.41 51.8406 136.248 51.8406Z" fill="white"/>
<path d="M61.5109 114.913C61.5109 114.913 42.2869 116.101 37.2109 101.359L40.2349 139.753C40.2349 139.753 44.2309 147.637 62.2669 149.365L61.5109 114.913Z" fill="white"/>
<path d="M62.2621 149.797C44.2261 148.069 40.0681 140.293 39.9061 139.969C39.9061 139.915 39.8521 139.861 39.8521 139.807L36.8281 101.413C36.8281 101.197 36.9361 101.035 37.1521 101.035C37.3141 100.981 37.5301 101.089 37.5841 101.305C42.4441 115.561 61.2901 114.589 61.4521 114.589C61.5601 114.589 61.6681 114.589 61.7221 114.697C61.7761 114.751 61.8301 114.859 61.8301 114.967L62.5861 149.419C62.5861 149.527 62.5321 149.635 62.4781 149.689C62.4241 149.743 62.3701 149.797 62.2621 149.797ZM40.6081 139.699C41.0401 140.401 45.4681 147.313 61.8841 148.987L61.1281 115.291C58.4821 115.345 43.4161 115.183 37.8001 103.735L40.6081 139.699Z" fill="#484954"/>
<path d="M186.25 155.63L208.39 130.52L232.798 147.638L204.502 177.77L186.25 155.63Z" fill="url(#paint1_linear_4507_6001)"/>
<path d="M204.501 178.147C204.393 178.147 204.285 178.093 204.231 178.039L185.979 155.899C185.871 155.737 185.871 155.575 185.979 155.413L208.119 130.303C208.227 130.141 208.443 130.141 208.605 130.249L233.013 147.313C233.121 147.367 233.175 147.475 233.175 147.583C233.175 147.691 233.175 147.799 233.067 147.853L204.771 178.039C204.717 178.093 204.609 178.147 204.501 178.147ZM186.735 155.629L204.501 177.175L232.203 147.637L208.443 131.005L186.735 155.629Z" fill="#484954"/>
<path d="M202.123 146.179L203.473 145.801C203.689 145.747 203.959 145.693 204.175 145.639C204.445 145.531 204.769 145.693 204.931 145.963C205.093 146.287 205.255 146.611 205.417 146.935C205.471 147.097 205.579 147.259 205.687 147.421C205.741 147.529 205.903 147.637 206.011 147.691C206.551 147.799 207.091 147.907 207.685 147.961C207.901 147.961 208.117 147.907 208.225 147.745C208.495 147.421 208.819 147.097 209.089 146.773C209.197 146.665 209.359 146.557 209.467 146.449C209.575 146.395 209.683 146.395 209.845 146.395C210.547 146.665 211.249 147.097 211.843 147.583C212.005 147.745 212.113 147.961 212.005 148.177C211.843 148.609 211.735 149.041 211.573 149.473C211.411 149.797 211.465 150.121 211.681 150.391C211.951 150.769 212.221 151.147 212.545 151.525C212.653 151.633 212.815 151.741 212.977 151.741C213.247 151.741 213.571 151.741 213.841 151.741H214.597C214.867 151.741 215.083 151.903 215.137 152.119C215.353 152.767 215.515 153.415 215.677 154.117C215.731 154.387 215.623 154.657 215.353 154.765C215.029 154.927 214.705 155.089 214.381 155.251C214.219 155.305 214.057 155.413 213.949 155.467C213.733 155.575 213.625 155.791 213.571 156.007C213.517 156.493 213.463 156.925 213.355 157.411C213.301 157.681 213.409 157.951 213.625 158.167C213.949 158.491 214.327 158.815 214.651 159.139C214.921 159.355 214.975 159.733 214.813 160.003C214.489 160.543 214.219 161.083 213.895 161.569C213.733 161.893 213.355 162.055 213.031 161.893C212.761 161.785 212.437 161.677 212.167 161.623C211.951 161.569 211.735 161.515 211.519 161.461C211.357 161.407 211.141 161.461 210.979 161.569C210.601 161.839 210.169 162.163 209.791 162.433C209.575 162.595 209.467 162.865 209.467 163.135C209.467 163.459 209.521 163.729 209.521 164.053C209.521 164.269 209.521 164.431 209.521 164.647C209.521 164.917 209.359 165.133 209.089 165.241L207.307 165.727C207.199 165.727 207.091 165.727 207.037 165.727C206.821 165.727 206.605 165.619 206.497 165.457L205.957 164.323C205.957 164.269 205.903 164.269 205.903 164.215C205.795 163.891 205.471 163.621 205.093 163.621C204.715 163.567 204.391 163.513 204.013 163.459C203.689 163.405 203.365 163.513 203.149 163.783C202.879 164.107 202.609 164.431 202.285 164.701C202.123 164.971 201.745 165.079 201.475 164.917L201.421 164.863C200.881 164.539 200.341 164.215 199.801 163.891C199.531 163.729 199.423 163.405 199.531 163.135C199.639 162.811 199.747 162.433 199.855 162.109C200.125 161.353 200.125 161.245 199.639 160.651L199.099 159.949C198.937 159.733 198.667 159.571 198.343 159.625C197.965 159.625 197.641 159.679 197.263 159.679C197.101 159.679 196.885 159.679 196.723 159.625C196.561 159.625 196.399 159.463 196.345 159.301C196.183 158.653 196.021 158.059 195.859 157.411C195.859 157.303 195.859 157.249 195.859 157.141C195.859 156.925 195.967 156.709 196.129 156.601L197.263 156.061C197.371 156.007 197.479 155.953 197.587 155.845C197.749 155.737 197.911 155.575 197.911 155.359C197.965 154.927 198.019 154.441 198.127 154.009C198.181 153.739 198.073 153.469 197.857 153.307C197.533 153.037 197.209 152.767 196.939 152.443L196.885 152.389C196.507 152.011 196.453 151.849 196.723 151.363C196.993 150.877 197.371 150.337 197.695 149.797C197.803 149.527 198.127 149.419 198.397 149.527H198.451C198.829 149.635 199.207 149.797 199.585 149.959C199.963 150.121 200.341 150.067 200.665 149.797C200.989 149.527 201.367 149.257 201.691 148.987C201.853 148.879 201.907 148.717 201.907 148.501C201.907 148.069 201.853 147.637 201.853 147.205C201.799 146.935 201.853 146.611 202.015 146.395L202.123 146.179ZM208.063 158.923C209.953 157.627 210.385 155.035 209.089 153.145C209.089 153.145 209.089 153.145 209.089 153.091C207.739 151.309 205.201 150.877 203.365 152.119C201.529 153.415 201.043 155.953 202.339 157.843C203.635 159.733 206.173 160.219 208.009 158.923H208.063Z" fill="white"/>
<path d="M219.137 145.1L219.785 144.884L220.109 144.776C220.271 144.722 220.433 144.83 220.487 144.938C220.595 145.1 220.649 145.262 220.703 145.424C220.757 145.532 220.811 145.586 220.811 145.694C220.865 145.748 220.919 145.802 220.973 145.802C221.243 145.856 221.513 145.91 221.783 145.964C221.891 145.964 221.999 145.91 222.053 145.856C222.215 145.694 222.323 145.532 222.485 145.37C222.539 145.316 222.593 145.262 222.701 145.208C222.755 145.154 222.809 145.154 222.863 145.208C223.241 145.37 223.565 145.532 223.889 145.802C223.997 145.856 223.997 146.018 223.997 146.126C223.943 146.342 223.835 146.558 223.781 146.774C223.727 146.936 223.727 147.098 223.835 147.26C223.997 147.422 224.105 147.638 224.267 147.8C224.321 147.854 224.429 147.908 224.483 147.908C224.645 147.908 224.753 147.908 224.915 147.908C225.077 147.908 225.185 147.908 225.293 147.908C225.401 147.908 225.509 147.962 225.563 148.124C225.671 148.448 225.725 148.772 225.833 149.096C225.887 149.204 225.779 149.366 225.671 149.42C225.509 149.528 225.347 149.582 225.185 149.636L224.969 149.744C224.861 149.798 224.807 149.906 224.807 150.014C224.753 150.23 224.753 150.5 224.699 150.716C224.645 150.878 224.699 150.986 224.807 151.094L225.347 151.58C225.455 151.688 225.509 151.85 225.401 152.012C225.239 152.282 225.077 152.552 224.915 152.822C224.861 152.984 224.645 153.092 224.483 152.984C224.321 152.93 224.213 152.876 224.051 152.822L223.727 152.714C223.619 152.714 223.565 152.714 223.457 152.768L222.863 153.2C222.755 153.254 222.701 153.416 222.701 153.524C222.701 153.686 222.701 153.848 222.755 154.01C222.755 154.118 222.755 154.226 222.755 154.28C222.755 154.442 222.647 154.55 222.539 154.55L221.621 154.766C221.567 154.766 221.513 154.766 221.459 154.766C221.351 154.766 221.243 154.712 221.189 154.604L220.919 154.01V153.956C220.865 153.794 220.703 153.686 220.487 153.686C220.325 153.686 220.109 153.632 219.947 153.632C219.785 153.578 219.623 153.686 219.515 153.794C219.407 153.956 219.245 154.118 219.083 154.28C218.975 154.442 218.813 154.442 218.651 154.388C218.651 154.388 218.651 154.388 218.597 154.388C218.327 154.226 218.057 154.064 217.787 153.902C217.625 153.848 217.571 153.686 217.679 153.524C217.733 153.362 217.787 153.2 217.841 152.984C218.003 152.768 217.949 152.444 217.733 152.228L217.463 151.85C217.355 151.742 217.247 151.688 217.085 151.688L216.545 151.742C216.437 151.742 216.383 151.742 216.275 151.742C216.167 151.742 216.113 151.688 216.059 151.58L215.789 150.608C215.789 150.554 215.789 150.5 215.789 150.5C215.789 150.392 215.843 150.284 215.951 150.23L216.491 149.96C216.545 149.906 216.599 149.906 216.653 149.852C216.761 149.798 216.815 149.69 216.815 149.582C216.815 149.366 216.869 149.15 216.923 148.934C216.923 148.826 216.869 148.664 216.815 148.61L216.329 148.178C216.113 147.962 216.113 147.908 216.275 147.638C216.437 147.368 216.599 147.098 216.761 146.882C216.815 146.72 216.977 146.666 217.139 146.72C217.355 146.774 217.517 146.828 217.733 146.936C217.895 147.044 218.111 146.99 218.273 146.882C218.435 146.774 218.597 146.612 218.813 146.504C218.867 146.45 218.921 146.342 218.921 146.288C218.921 146.072 218.921 145.856 218.921 145.64C218.921 145.478 218.921 145.37 218.975 145.208L219.029 145.154L219.137 145.1ZM222.107 151.472C223.025 150.824 223.295 149.528 222.647 148.61C221.999 147.692 220.703 147.476 219.785 148.124C218.867 148.772 218.651 150.068 219.299 150.986C219.947 151.904 221.189 152.174 222.107 151.472Z" fill="white"/>
<path d="M215.681 141.211C215.573 141.211 215.519 141.157 215.411 141.103L208.121 135.001C207.959 134.893 207.959 134.623 208.067 134.461C208.175 134.299 208.445 134.299 208.607 134.407L215.897 140.509C216.059 140.617 216.059 140.887 215.951 141.049C215.897 141.157 215.789 141.211 215.681 141.211Z" fill="#484954"/>
<path d="M211.357 142.291C211.249 142.291 211.195 142.237 211.087 142.183L205.957 137.863C205.795 137.755 205.795 137.485 205.903 137.323C206.065 137.161 206.281 137.161 206.443 137.269L211.573 141.589C211.735 141.697 211.735 141.967 211.627 142.129C211.573 142.237 211.465 142.291 211.357 142.291Z" fill="#484954"/>
<path d="M120.558 175.803L88.9062 182.727L93.4991 203.722L125.151 196.798L120.558 175.803Z" fill="white"/>
<path d="M93.5305 204.066C93.3685 204.066 93.2065 203.958 93.1525 203.796L88.5625 182.79C88.5625 182.682 88.5625 182.574 88.6165 182.52C88.6705 182.412 88.7785 182.358 88.8325 182.358L120.477 175.446C120.693 175.392 120.855 175.554 120.909 175.716L125.499 196.722C125.499 196.83 125.499 196.938 125.445 196.992C125.391 197.1 125.283 197.154 125.229 197.154L93.5845 204.066H93.5305ZM89.3725 183.006L93.8005 203.256L124.743 196.506L120.315 176.256L89.3725 183.006Z" fill="#484954"/>
<path d="M114.253 182.89L110.93 183.617L113.48 195.276L116.803 194.549L114.253 182.89Z" fill="url(#paint2_linear_4507_6001)"/>
<path d="M113.455 195.642C113.293 195.642 113.131 195.534 113.077 195.372L110.539 183.708C110.539 183.6 110.539 183.492 110.593 183.438C110.647 183.33 110.755 183.276 110.809 183.276L114.103 182.574C114.319 182.52 114.481 182.628 114.535 182.844L117.073 194.508C117.073 194.616 117.073 194.724 117.019 194.778C116.965 194.886 116.857 194.94 116.803 194.94L113.509 195.642H113.455ZM111.349 183.87L113.725 194.778L116.317 194.238L113.941 183.33L111.349 183.87Z" fill="#484954"/>
<path d="M109.441 187.015L106.117 187.742L108.021 196.446L111.345 195.719L109.441 187.015Z" fill="url(#paint3_linear_4507_6001)"/>
<path d="M108.005 196.832C107.843 196.832 107.681 196.724 107.627 196.562L105.737 187.868C105.683 187.652 105.845 187.49 106.007 187.436L109.301 186.68C109.409 186.68 109.517 186.68 109.571 186.734C109.679 186.788 109.733 186.896 109.733 186.95L111.623 195.644C111.623 195.752 111.623 195.86 111.569 195.914C111.515 196.022 111.407 196.076 111.353 196.076L108.059 196.778L108.005 196.832ZM106.547 188.03L108.275 195.968L110.867 195.428L109.139 187.49L106.547 188.03Z" fill="#484954"/>
<path d="M104.847 192.154L101.523 192.881L102.562 197.629L105.885 196.902L104.847 192.154Z" fill="url(#paint4_linear_4507_6001)"/>
<path d="M102.602 198.019C102.548 198.019 102.44 198.019 102.386 197.965C102.278 197.911 102.224 197.803 102.224 197.749L101.198 192.997C101.144 192.781 101.306 192.619 101.468 192.565L104.762 191.809C104.87 191.809 104.978 191.809 105.032 191.863C105.14 191.917 105.194 192.025 105.194 192.079L106.22 196.831C106.274 197.047 106.112 197.209 105.95 197.263L102.656 198.019H102.602ZM102.008 193.213L102.872 197.209L105.464 196.669L104.6 192.673L102.008 193.213Z" fill="#484954"/>
<path d="M99.203 198.721C99.041 198.721 98.879 198.613 98.825 198.451L95.639 184.033C95.585 183.817 95.693 183.601 95.855 183.547C96.071 183.493 96.287 183.601 96.341 183.763V183.817L99.419 197.911L120.101 193.375C120.317 193.321 120.479 193.429 120.533 193.645C120.587 193.861 120.425 194.023 120.263 194.077L99.203 198.667V198.721Z" fill="#484954"/>
<path d="M175.072 143.586C178.711 143.586 181.66 140.637 181.66 136.998C181.66 133.36 178.711 130.41 175.072 130.41C171.434 130.41 168.484 133.36 168.484 136.998C168.484 140.637 171.434 143.586 175.072 143.586Z" fill="white"/>
<path d="M175.068 143.965C171.234 143.965 168.102 140.833 168.102 136.999C168.102 133.165 171.234 130.033 175.068 130.033C178.902 130.033 182.034 133.165 182.034 136.999C182.034 140.833 178.902 143.965 175.068 143.965ZM175.068 130.789C171.666 130.789 168.858 133.543 168.858 136.999C168.858 140.401 171.612 143.209 175.068 143.209C178.47 143.209 181.278 140.455 181.278 136.999C181.278 133.597 178.524 130.843 175.068 130.789Z" fill="#484954"/>
<path d="M175.072 141.805C172.426 141.805 170.266 139.645 170.266 136.999C170.266 134.353 172.426 132.193 175.072 132.193C177.718 132.193 179.878 134.353 179.878 136.999C179.878 139.645 177.718 141.805 175.072 141.805ZM175.072 132.895C172.804 132.895 170.968 134.731 170.968 136.999C170.968 139.267 172.804 141.103 175.072 141.103C177.34 141.103 179.176 139.267 179.176 136.999C179.176 134.731 177.34 132.895 175.072 132.895Z" fill="#484954"/>
<path d="M175.067 139.699C173.555 139.699 172.367 138.511 172.367 136.999C172.367 135.487 173.555 134.299 175.067 134.299C176.579 134.299 177.767 135.487 177.767 136.999C177.767 138.511 176.579 139.699 175.067 139.699ZM175.067 135.001C173.987 135.001 173.069 135.919 173.069 136.999C173.069 138.079 173.987 138.997 175.067 138.997C176.147 138.997 177.065 138.079 177.065 136.999C177.065 135.919 176.201 135.001 175.067 135.001Z" fill="#484954"/>
<path d="M142.511 45.6304H142.457L127.715 42.8224C127.499 42.7684 127.391 42.6064 127.391 42.3904C127.445 42.1744 127.607 42.0664 127.823 42.0664L142.565 44.8744C142.781 44.9284 142.889 45.0904 142.889 45.3064C142.889 45.5224 142.727 45.6844 142.511 45.6304Z" fill="white"/>
<path d="M157.845 74.1964C155.901 74.1964 154.281 72.6304 154.281 70.6324C154.281 68.6884 155.847 67.0684 157.845 67.0684C159.789 67.0684 161.409 68.6344 161.409 70.6324C161.409 72.5764 159.789 74.1424 157.845 74.1964ZM157.845 67.8244C156.279 67.8244 155.037 69.0664 155.037 70.6324C155.037 72.1984 156.279 73.4404 157.845 73.4404C159.411 73.4404 160.653 72.1984 160.653 70.6324C160.653 69.0664 159.411 67.8244 157.845 67.8244Z" fill="#484954"/>
<path d="M71.4484 114.912C72.6711 114.912 73.6624 113.921 73.6624 112.698C73.6624 111.476 72.6711 110.484 71.4484 110.484C70.2256 110.484 69.2344 111.476 69.2344 112.698C69.2344 113.921 70.2256 114.912 71.4484 114.912Z" fill="#484954"/>
<path d="M175.93 87.6405C175.93 87.6405 177.928 80.4045 178.144 79.3785C178.36 78.3525 177.766 74.3025 178.9 73.6545C180.034 73.0065 180.736 76.7325 180.736 79.3785C180.736 79.3785 185.326 69.3885 186.622 70.8465C187.918 72.3045 188.08 75.4365 187.54 77.0565C187 78.6765 179.872 92.8245 179.872 92.8245L175.93 87.6405Z" fill="white"/>
<path d="M179.766 93.2034C179.658 93.2034 179.55 93.1494 179.442 93.0414L175.608 87.8574C175.554 87.7494 175.5 87.6414 175.554 87.5334C175.554 87.4794 177.552 80.2974 177.768 79.3254C177.822 78.8394 177.822 78.3534 177.768 77.8134C177.714 75.5994 177.768 73.8174 178.686 73.3314C178.956 73.1694 179.28 73.1694 179.55 73.3314C180.414 73.8174 180.846 76.0854 181.008 77.8674C182.25 75.2754 184.734 70.5234 186.138 70.3614C186.408 70.3074 186.678 70.4154 186.84 70.6314C188.244 72.2514 188.406 75.5994 187.812 77.2194C187.218 78.8394 180.36 92.4474 180.09 93.0414C180.036 93.1494 179.928 93.2034 179.766 93.2034ZM176.31 87.5334L179.658 92.1234C180.954 89.5314 186.57 78.3534 187.056 76.9494C187.596 75.3294 187.326 72.4134 186.192 71.0634C185.544 70.9554 183.06 74.8974 180.954 79.4874C180.846 79.7034 180.63 79.7574 180.468 79.7034C180.306 79.6494 180.252 79.4874 180.252 79.3794C180.252 77.0034 179.658 74.3574 179.064 73.9794C179.01 73.9794 179.01 73.9794 178.956 73.9794C178.362 74.3034 178.416 76.5714 178.47 77.8134C178.524 78.3534 178.47 78.8934 178.416 79.4334C178.308 80.3514 176.634 86.3994 176.31 87.5334Z" fill="#484954"/>
<path d="M165.083 185.543C165.083 185.543 160.385 196.289 161.843 197.045C163.301 197.801 178.259 202.661 178.097 201.689C177.935 200.717 169.835 195.047 169.835 195.047L173.561 185.597H165.083V185.543Z" fill="#484954"/>
<path d="M177.823 202.176C174.961 202.176 161.839 197.478 161.677 197.37C161.029 197.046 160.543 195.048 164.755 185.382C164.809 185.22 164.971 185.166 165.079 185.166H173.557C173.773 185.166 173.935 185.328 173.935 185.544C173.935 185.598 173.935 185.652 173.881 185.706L170.263 194.886C172.855 196.722 178.309 200.61 178.471 201.636C178.471 201.798 178.417 201.96 178.255 202.068C178.147 202.122 177.985 202.176 177.823 202.176ZM165.349 185.922C163.027 191.268 161.515 196.182 162.055 196.722C163.621 197.478 175.069 201.15 177.553 201.42C176.635 200.394 173.017 197.694 169.669 195.318C169.507 195.21 169.453 195.048 169.561 194.886L173.071 185.922H165.349Z" fill="#484954"/>
<path d="M141.104 206.874C141.266 207.414 141.266 216.378 141.104 218.592C140.942 220.806 148.61 233.28 150.986 230.85C153.362 228.42 149.15 217.836 149.15 217.836L149.96 205.74L141.104 206.874Z" fill="#484954"/>
<path d="M150.229 231.552C149.905 231.552 149.581 231.444 149.311 231.336C146.071 229.824 140.509 220.644 140.725 218.592C140.941 216.324 140.887 207.576 140.725 206.982C140.671 206.874 140.725 206.766 140.779 206.658C140.833 206.55 140.941 206.496 141.049 206.496L149.905 205.416C150.013 205.416 150.121 205.416 150.229 205.524C150.337 205.578 150.337 205.74 150.337 205.848L149.581 217.836C150.121 219.24 153.739 228.744 151.309 231.174C150.985 231.444 150.607 231.552 150.229 231.552ZM141.481 207.198C141.643 209.196 141.589 216.81 141.427 218.646C141.319 220.266 146.503 229.23 149.581 230.634C150.229 230.904 150.499 230.742 150.661 230.634C152.497 228.798 149.905 220.914 148.717 218.052C148.717 217.998 148.663 217.944 148.717 217.89L149.473 206.226L141.481 207.198Z" fill="#484954"/>
<path d="M130.414 95.6329C123.502 93.6889 111.352 97.5769 103.954 104.435C98.0685 109.889 109.246 135.809 114.808 149.039L148.504 138.995C148.504 138.941 137.326 97.577 130.414 95.6329Z" fill="#797B87"/>
<path d="M148.501 138.941C148.501 138.941 182.737 149.309 183.439 156.761C184.141 164.213 174.151 190.619 174.151 190.619L162.595 188.621C162.595 188.621 172.531 160.919 167.833 158.813C163.135 156.707 144.073 153.143 144.073 153.143C144.073 153.143 146.017 168.911 149.527 179.549C153.037 190.187 151.687 209.195 151.687 209.195L139.591 211.193C139.591 211.193 139.159 186.731 134.029 175.553C128.899 164.375 114.805 149.039 114.805 149.039L148.501 138.941Z" fill="#484954"/>
<path d="M139.486 211.624C139.378 211.624 139.324 211.57 139.216 211.516C139.108 211.462 139.108 211.354 139.108 211.246C139.108 210.976 138.622 186.73 133.6 175.768C128.578 164.806 114.7 149.416 114.538 149.254C114.43 149.146 114.43 149.038 114.43 148.877C114.484 148.769 114.538 148.661 114.7 148.607L148.342 138.562C148.396 138.562 148.504 138.562 148.558 138.562C149.962 138.994 183.01 149.092 183.766 156.706C184.468 164.158 174.856 189.646 174.424 190.78C174.37 190.942 174.208 191.05 173.992 190.996L162.382 188.998C162.166 188.944 162.058 188.782 162.058 188.566V188.512C169.24 168.424 169.24 159.946 167.512 159.136C163.354 157.246 147.424 154.168 144.346 153.574C144.724 156.382 146.614 169.99 149.692 179.44C153.148 190.024 151.852 209.032 151.852 209.248C151.852 209.41 151.69 209.572 151.528 209.572L139.486 211.624ZM115.51 149.2C117.832 151.846 129.712 165.4 134.302 175.444C139 185.704 139.81 207.412 139.864 210.76L151.258 208.87C151.42 206.386 152.284 189.376 149.098 179.656C145.642 169.072 143.698 153.304 143.698 153.142C143.698 153.034 143.752 152.926 143.806 152.818C143.914 152.71 144.022 152.71 144.13 152.71C144.886 152.872 163.3 156.328 167.998 158.434C170.158 159.406 169.942 164.698 167.35 174.58C165.73 180.682 163.678 186.676 163.084 188.296L173.938 190.186C175.018 187.27 183.766 163.618 183.118 156.76C182.902 154.762 179.716 151.144 165.622 145.367C157.63 142.127 149.584 139.588 148.558 139.264L115.51 149.2Z" fill="#484954"/>
<path d="M103.303 79.1089C103.735 79.0549 104.221 79.1089 104.599 79.3249C103.789 77.4889 105.463 76.0849 106.543 74.8969C107.785 73.5469 109.513 72.7909 111.349 72.8989C113.509 72.9529 115.507 73.9249 117.343 75.0049C118.801 75.8689 120.475 76.8949 122.149 76.4629C122.635 76.2469 123.121 76.1389 123.661 76.0309C124.201 75.9769 124.795 76.3009 124.795 76.8409C124.795 77.1109 124.633 77.3809 124.471 77.5969C123.931 78.2449 123.283 78.7309 122.527 79.0549C122.905 79.6489 123.769 79.7029 124.471 79.6489L126.739 79.4869C127.171 79.4329 127.711 79.4869 127.873 79.8649C127.927 80.0809 127.927 80.3509 127.819 80.5129C127.225 82.0249 126.199 83.3749 124.849 84.2929C125.983 84.5629 127.117 84.4009 128.143 83.8609C128.413 87.1009 125.983 90.1249 123.067 91.5829C120.259 92.9869 116.803 93.5269 113.671 93.4189C111.241 93.3649 108.217 93.9589 106.111 92.3389C103.519 90.2869 101.737 87.4249 101.089 84.1849C100.873 82.9429 100.765 81.5929 101.413 80.4589C101.737 79.7029 102.439 79.2169 103.303 79.1089Z" fill="#797B87"/>
<path d="M110.484 93.852C108.81 93.852 107.136 93.636 105.786 92.61C103.14 90.504 101.304 87.534 100.656 84.24C100.332 82.566 100.44 81.27 101.034 80.298C101.52 79.488 102.33 78.894 103.248 78.732C103.518 78.678 103.788 78.678 104.004 78.732C103.788 77.22 104.976 75.978 105.894 75.06L106.272 74.682C107.568 73.278 109.404 72.468 111.348 72.576C113.724 72.63 115.884 73.764 117.504 74.736L117.612 74.79C118.962 75.6 120.528 76.518 121.986 76.14C122.148 76.086 122.31 76.032 122.526 75.978C122.85 75.816 123.228 75.708 123.606 75.708C124.038 75.654 124.47 75.816 124.794 76.086C125.01 76.302 125.172 76.572 125.172 76.842C125.172 77.22 125.01 77.598 124.74 77.868C124.308 78.408 123.768 78.84 123.174 79.218C123.552 79.326 123.984 79.38 124.416 79.326L126.684 79.164C127.494 79.11 127.98 79.326 128.196 79.812C128.304 80.136 128.25 80.46 128.142 80.73C127.656 82.026 126.846 83.214 125.766 84.132C126.522 84.132 127.278 83.97 127.926 83.646C128.034 83.592 128.196 83.592 128.304 83.646C128.412 83.7 128.466 83.808 128.52 83.97C128.79 87.588 126.09 90.612 123.228 92.07C120.258 93.474 116.964 94.122 113.67 93.96C113.13 93.96 112.59 93.96 111.996 94.014C111.51 94.014 111.078 94.068 110.592 94.068L110.484 93.852ZM103.356 79.488C102.654 79.596 102.06 80.028 101.682 80.676C101.196 81.54 101.088 82.674 101.412 84.132C102.06 87.264 103.788 90.072 106.272 92.07C107.784 93.258 109.836 93.15 111.888 93.096C112.482 93.096 113.076 93.042 113.616 93.096C116.802 93.204 119.934 92.61 122.796 91.26C125.28 90.018 127.656 87.48 127.71 84.456C126.738 84.834 125.712 84.888 124.686 84.672C124.524 84.618 124.416 84.51 124.416 84.348C124.362 84.186 124.47 84.024 124.578 83.97C125.874 83.106 126.846 81.81 127.386 80.352C127.44 80.244 127.494 80.082 127.44 79.974C127.386 79.866 127.116 79.758 126.684 79.812L124.416 79.974C123.606 80.028 122.58 80.028 122.094 79.218C122.04 79.11 122.04 79.002 122.04 78.894C122.094 78.786 122.148 78.732 122.256 78.678C122.958 78.354 123.606 77.922 124.092 77.328C124.2 77.166 124.308 77.004 124.362 76.842C124.362 76.734 124.308 76.68 124.254 76.626C124.092 76.464 123.876 76.41 123.66 76.41C123.39 76.464 123.066 76.518 122.796 76.626C122.58 76.68 122.418 76.788 122.202 76.842C120.42 77.328 118.746 76.302 117.234 75.438L117.126 75.384C115.56 74.466 113.508 73.386 111.294 73.332C109.566 73.278 107.946 73.98 106.812 75.222C106.704 75.33 106.596 75.492 106.434 75.6C105.354 76.68 104.274 77.814 104.922 79.218C105.03 79.38 104.922 79.65 104.76 79.704C104.652 79.758 104.49 79.758 104.382 79.704C104.058 79.488 103.68 79.434 103.356 79.488Z" fill="#484954"/>
<path d="M120.747 96.4439L123.393 102.438C123.393 102.438 122.259 106.812 117.885 106.704C113.511 106.596 112.161 103.572 112.161 103.518C111.567 101.304 110.919 99.0899 110.325 96.8759C109.947 95.5259 109.569 94.1759 109.191 92.7719C109.029 92.3939 108.921 91.9619 108.867 91.5299C108.975 90.5579 110.055 89.8559 110.271 88.7759C110.649 86.7239 110.163 84.5639 109.029 82.8359C111.027 83.9699 113.295 85.1039 115.563 84.5639C115.023 84.1859 114.537 83.6999 114.051 83.2139L118.749 84.0779C119.343 84.1859 119.991 84.2399 120.585 84.1859C121.287 84.1859 120.963 83.8079 121.557 84.5639C123.123 86.3999 123.879 89.7479 123.987 92.0699C124.149 95.4719 120.693 96.4979 120.747 96.4439Z" fill="white"/>
<path d="M118.042 107.081H117.826C113.128 106.973 111.778 103.679 111.778 103.679L108.808 92.9327C108.754 92.8247 108.754 92.7167 108.7 92.6087C108.538 92.2847 108.484 91.9067 108.43 91.5287C108.538 90.9347 108.808 90.3947 109.186 89.9627C109.51 89.6387 109.726 89.2067 109.834 88.7747C110.158 86.7767 109.78 84.7787 108.646 83.1047C108.538 82.9427 108.592 82.7807 108.7 82.6187C108.808 82.5107 109.024 82.4567 109.186 82.5647C110.86 83.4827 112.75 84.4547 114.64 84.4007C114.316 84.1307 114.046 83.8607 113.776 83.5367C113.668 83.4287 113.668 83.2667 113.722 83.1047C113.776 82.9427 113.938 82.8887 114.1 82.8887L118.798 83.7527C119.392 83.8607 119.932 83.8607 120.526 83.8607C120.634 83.8607 120.742 83.8607 120.85 83.8067C121.228 83.6987 121.39 83.8607 121.768 84.2927C123.442 86.2367 124.198 89.6927 124.36 92.0687C124.522 94.9307 122.2 96.2267 121.282 96.6587L123.766 102.275C123.766 102.329 123.766 102.437 123.766 102.491C123.712 102.599 122.524 107.135 118.042 107.081ZM112.48 103.463C112.48 103.463 113.83 106.217 117.88 106.325H118.042C121.552 106.325 122.74 103.139 122.956 102.437L120.364 96.5507C120.256 96.3887 120.364 96.1187 120.526 96.0647C120.526 96.0647 120.58 96.0647 120.58 96.0107C120.688 95.9567 123.712 95.0387 123.55 92.0147C123.442 89.5847 122.632 86.3987 121.228 84.7247C121.12 84.5627 121.012 84.5087 120.958 84.4547C120.796 84.5087 120.634 84.5087 120.472 84.5087C119.824 84.5087 119.176 84.4547 118.582 84.3467L115.072 83.6987C115.234 83.8607 115.45 84.0227 115.666 84.1847C115.774 84.2927 115.828 84.4007 115.828 84.5627C115.774 84.7247 115.666 84.8327 115.558 84.8327C113.614 85.2647 111.67 84.5627 109.888 83.6987C110.59 85.2647 110.86 87.0467 110.536 88.7747C110.374 89.3147 110.158 89.8547 109.78 90.2867C109.456 90.6107 109.24 91.0427 109.186 91.4747C109.24 91.7447 109.294 91.9607 109.402 92.1767C109.456 92.3387 109.51 92.4467 109.51 92.5547L112.48 103.463Z" fill="#484954"/>
<path d="M122.095 99.5752C120.691 100.169 119.125 100.007 117.829 99.1972C115.615 97.7932 115.453 96.2812 115.453 96.2812C115.453 96.2812 118.099 97.5232 120.691 96.3892L122.095 99.5752Z" fill="#484954"/>
<path d="M120.311 100.331C119.339 100.331 118.421 100.061 117.611 99.575C115.289 98.117 115.073 96.497 115.073 96.389C115.019 96.173 115.181 96.011 115.397 95.957C115.451 95.957 115.559 95.957 115.613 96.011C115.667 96.011 118.151 97.145 120.581 96.119C120.743 96.011 121.013 96.119 121.067 96.335L122.471 99.467C122.525 99.629 122.471 99.845 122.309 99.953C121.607 100.223 120.959 100.385 120.311 100.331ZM116.099 96.983C116.585 97.793 117.233 98.441 118.043 98.927C119.123 99.629 120.419 99.791 121.607 99.413L120.527 96.929C119.069 97.415 117.557 97.415 116.099 96.983Z" fill="#484954"/>
<path d="M117.562 87.3184C117.562 87.3184 120.533 90.0184 120.155 90.7204C119.777 91.4224 118.265 91.3684 118.265 91.3684" fill="white"/>
<path d="M118.263 91.7458C118.047 91.7458 117.885 91.5838 117.885 91.3678C117.885 91.1518 118.047 90.9898 118.263 90.9898C118.803 90.9898 119.667 90.8278 119.829 90.5038C119.829 90.1798 118.695 88.8298 117.345 87.5878C117.237 87.4258 117.291 87.1558 117.453 87.0478C117.561 86.9398 117.723 86.9398 117.885 87.0478C119.343 88.3438 120.963 90.1258 120.531 90.8818C120.099 91.6378 118.533 91.7458 118.263 91.7458Z" fill="#484954"/>
<path d="M115.577 88.3923C115.871 88.3452 116.056 87.9728 115.99 87.5605C115.925 87.1482 115.632 86.8521 115.338 86.8992C115.043 86.9462 114.858 87.3186 114.924 87.7309C114.99 88.1432 115.282 88.4393 115.577 88.3923Z" fill="#484954"/>
<path d="M121.465 87.1766C121.732 87.0449 121.8 86.6344 121.615 86.2598C121.431 85.8852 121.065 85.6883 120.797 85.8201C120.529 85.9518 120.462 86.3623 120.646 86.7369C120.831 87.1115 121.197 87.3084 121.465 87.1766Z" fill="#484954"/>
<path d="M118.313 94.2826C117.449 94.2826 116.639 94.0126 115.883 93.6346C115.721 93.5266 115.667 93.3106 115.775 93.0946C115.883 92.9326 116.045 92.8786 116.261 92.9326C119.663 94.7146 121.337 91.8526 121.391 91.6906C121.499 91.4746 121.715 91.4206 121.877 91.4746C122.039 91.5286 122.147 91.7986 122.093 91.9606C122.093 91.9606 122.093 92.0146 122.039 92.0146C121.985 92.1226 120.743 94.2826 118.313 94.2826Z" fill="#484954"/>
<path d="M110.539 90.719C109.945 90.287 109.189 90.179 108.487 90.287C107.785 90.449 107.191 90.989 107.083 91.691C107.029 92.501 107.407 93.311 108.055 93.797C109.027 94.607 110.269 94.931 111.511 94.769" fill="white"/>
<path d="M110.808 95.2011C109.728 95.2011 108.648 94.8231 107.784 94.1211C107.028 93.5271 106.596 92.6091 106.704 91.6911C106.866 90.8271 107.568 90.1791 108.432 89.9631C109.242 89.8011 110.052 89.9631 110.754 90.4491C110.916 90.5571 110.97 90.7731 110.862 90.9891C110.754 91.2051 110.538 91.2051 110.322 91.0971C109.836 90.7191 109.188 90.6111 108.594 90.7191C108 90.8271 107.568 91.2591 107.46 91.8531C107.406 92.5551 107.73 93.2031 108.324 93.5811C109.188 94.2831 110.322 94.6071 111.456 94.4451C111.672 94.3911 111.888 94.5531 111.888 94.7151C111.942 94.9311 111.78 95.1471 111.618 95.1471H111.564C111.294 95.2011 111.078 95.2011 110.808 95.2011Z" fill="#484954"/>
<path d="M120.368 106.217L119.18 108.755L120.854 109.241C120.854 109.241 129.98 134.459 149.582 129.869L154.658 123.227L147.746 120.527C147.746 120.527 144.398 123.389 137.918 121.715C130.304 119.771 122.042 108.971 122.042 108.971L122.42 106.865L120.368 106.217Z" fill="#484954"/>
<path d="M144.935 130.788C129.275 130.788 121.391 111.618 120.581 109.512L119.069 109.08C118.961 109.026 118.853 108.972 118.853 108.864C118.799 108.756 118.799 108.648 118.853 108.54L120.041 106.002C120.095 105.84 120.311 105.732 120.473 105.786L122.579 106.488C122.741 106.542 122.849 106.704 122.849 106.92L122.525 108.864C123.497 110.052 131.165 119.556 138.077 121.338C144.233 122.904 147.527 120.258 147.527 120.204C147.635 120.096 147.797 120.096 147.905 120.15L154.817 122.85C154.925 122.904 155.033 123.012 155.033 123.12C155.087 123.228 155.033 123.336 154.979 123.444L149.903 130.086C149.849 130.14 149.795 130.194 149.687 130.194C148.121 130.626 146.501 130.842 144.935 130.788ZM119.663 108.54L120.959 108.918C121.067 108.972 121.175 109.026 121.229 109.134C121.337 109.404 130.463 133.92 149.417 129.546L154.115 123.39L147.905 120.906C147.095 121.5 143.747 123.552 137.969 122.04C130.301 120.096 122.201 109.62 121.877 109.134C121.823 109.026 121.769 108.972 121.823 108.864L122.147 107.028L120.689 106.542L119.663 108.54Z" fill="#484954"/>
<path d="M115.452 91.206C113.724 91.206 112.266 89.802 112.266 88.02C112.266 86.238 113.67 84.834 115.452 84.834C117.234 84.834 118.638 86.238 118.638 88.02C118.638 89.802 117.234 91.206 115.452 91.206ZM115.452 85.644C114.102 85.644 113.022 86.724 113.022 88.074C113.022 89.424 114.102 90.504 115.452 90.504C116.802 90.504 117.882 89.424 117.882 88.074C117.882 86.724 116.802 85.644 115.452 85.644Z" fill="#484954"/>
<path d="M120.53 89.4228C118.802 89.4228 117.344 88.0188 117.344 86.2368C117.344 84.4548 118.748 83.0508 120.53 83.0508C122.312 83.0508 123.716 84.4548 123.716 86.2368C123.662 88.0188 122.258 89.4228 120.53 89.4228ZM120.53 83.8608C119.18 83.8608 118.1 84.9408 118.1 86.2908C118.1 87.6408 119.18 88.7208 120.53 88.7208C121.88 88.7208 122.96 87.6408 122.96 86.2908C122.906 84.9408 121.826 83.8608 120.53 83.8608Z" fill="#484954"/>
<path d="M109.673 90.7199C109.511 90.7199 109.349 90.6119 109.295 90.4499C109.241 90.2339 109.349 90.0179 109.511 89.9639L112.535 88.9379C112.751 88.8839 112.967 88.9919 113.021 89.1539C113.075 89.3159 112.967 89.5859 112.805 89.6399L109.781 90.6659C109.727 90.7199 109.727 90.7199 109.673 90.7199Z" fill="#484954"/>
<path d="M91.2616 147.095C91.1536 147.581 91.3696 152.063 91.2616 152.873C91.1536 153.845 92.6656 154.763 93.1516 155.465C94.1236 156.869 94.7176 158.813 95.3116 160.379C95.3656 160.595 95.4736 160.865 95.3116 161.027C95.2576 161.081 95.1496 161.135 95.0416 161.135C94.0696 161.243 93.3136 160.379 92.7196 159.623L91.2616 157.679C91.6396 158.165 90.7756 161.837 90.6676 162.593C90.4516 163.835 90.3976 165.293 89.9116 166.481C89.1556 168.371 84.2956 168.155 83.7556 166.373C83.1076 164.213 82.0276 159.893 83.4316 155.735C83.3236 154.007 82.3516 144.287 82.3516 144.287L91.2616 147.095Z" fill="white"/>
<path d="M86.8899 168.21H86.6739C85.3779 168.156 83.7039 167.67 83.3799 166.536C82.0839 162.486 81.9759 158.868 83.0019 155.736C82.8939 153.846 81.9219 144.45 81.9219 144.396C81.9219 144.288 81.9759 144.126 82.0299 144.072C82.1379 144.018 82.2459 143.964 82.3539 144.018L91.3179 146.88C91.4799 146.934 91.5879 147.15 91.5879 147.312C91.5339 147.528 91.5879 148.878 91.5879 149.904C91.6419 151.308 91.6419 152.604 91.5879 153.036C91.5339 153.468 92.1819 154.116 92.6679 154.602C92.9379 154.818 93.2079 155.088 93.4239 155.412C94.1799 156.654 94.8279 157.95 95.2599 159.354C95.3679 159.732 95.5299 160.056 95.6379 160.38C95.8539 160.704 95.7999 161.136 95.5299 161.46C95.3679 161.568 95.2059 161.676 95.0439 161.676C93.9099 161.838 92.9919 160.866 92.3979 160.002L91.6959 159.03C91.6419 159.678 91.4799 160.65 91.2099 161.946C91.1559 162.324 91.1019 162.594 91.0479 162.81C90.9939 163.08 90.9939 163.404 90.9399 163.674C90.8319 164.754 90.6159 165.78 90.2919 166.806C89.8059 167.832 88.1859 168.21 86.8899 168.21ZM82.6779 144.828C82.8939 146.934 83.6499 154.224 83.7039 155.736C83.7039 155.79 83.7039 155.844 83.7039 155.898C82.7319 158.868 82.8399 162.432 84.0279 166.32C84.2439 166.914 85.3239 167.4 86.6739 167.454C87.8619 167.508 89.2119 167.184 89.5359 166.374C89.8599 165.402 90.0759 164.43 90.1299 163.458C90.1839 163.134 90.1839 162.864 90.2379 162.594C90.2379 162.432 90.3459 162.108 90.3999 161.73C90.5619 160.812 91.0479 158.328 90.8859 157.95C90.7779 157.788 90.7779 157.572 90.9399 157.41C90.9399 157.41 90.9399 157.41 90.9939 157.41C91.1559 157.302 91.4259 157.302 91.5339 157.518L92.9919 159.516C93.4779 160.218 94.1799 160.974 94.9359 160.866H94.9899C94.9899 160.866 94.9899 160.758 94.9359 160.65C94.8279 160.326 94.6659 159.948 94.5579 159.57C94.1259 158.22 93.5859 156.978 92.8299 155.79C92.6139 155.52 92.3979 155.304 92.1819 155.142C91.5339 154.494 90.7779 153.792 90.8859 152.928C90.9399 152.55 90.8859 151.146 90.8859 149.904C90.8859 148.662 90.8319 147.906 90.8859 147.474L82.6779 144.828Z" fill="#484954"/>
<path d="M109.244 100.439C106.976 102.329 85.8075 111.293 79.5975 120.797C76.4115 125.657 81.4335 152.873 81.4335 152.873L92.7195 150.659L92.8815 126.629C94.1775 125.009 108.812 116.855 108.812 116.855L109.244 100.439Z" fill="#797B87"/>
<path d="M130.414 95.6339C130.414 95.6339 158.386 99.2519 161.572 98.1719C164.758 97.0919 177.232 81.7559 177.232 81.7559L183.442 88.3439C183.442 88.3439 176.746 108.702 167.728 110.808C158.71 112.914 133.276 110.808 133.276 110.808L130.414 95.6339Z" fill="#797B87"/>
<path d="M92.8802 127.061C92.7722 127.061 92.6102 127.007 92.5562 126.899C92.4482 126.737 92.5022 126.467 92.6642 126.359L111.294 114.587C111.456 114.479 111.726 114.533 111.834 114.695C111.942 114.857 111.888 115.127 111.726 115.235L93.0962 127.007C93.0422 127.007 92.9342 127.007 92.8802 127.061Z" fill="#484954"/>
<path d="M142.995 121.176C142.833 121.176 142.671 121.068 142.617 120.906C142.347 120.15 134.355 99.6297 134.301 99.4137C134.247 99.1977 134.301 98.9817 134.517 98.9277C134.733 98.8737 134.949 98.9277 135.003 99.1437C135.327 100.008 143.103 119.934 143.373 120.69C143.427 120.906 143.319 121.122 143.157 121.176C143.049 121.176 143.049 121.176 142.995 121.176Z" fill="#484954"/>
<path d="M188.783 61.8824C188.783 61.8824 188.351 61.6124 187.757 61.2344C187.757 61.2344 187.055 62.5844 187.055 62.5304C187.055 62.4764 188.783 61.8824 188.783 61.8824Z" fill="#484954"/>
<path d="M187.105 62.9094H186.997C186.835 62.9094 186.727 62.8014 186.673 62.6394C186.619 62.4774 186.619 62.3694 186.781 62.2614C186.943 62.1534 187.159 61.5594 187.429 61.0734C187.483 60.9654 187.537 60.9114 187.645 60.8574C187.753 60.8574 187.861 60.8574 187.969 60.9114C188.617 61.2894 189.049 61.6134 189.049 61.6134C189.211 61.7214 189.265 61.9914 189.157 62.1534C189.103 62.2074 189.049 62.2614 188.995 62.3154C188.347 62.5314 187.591 62.8014 187.375 62.9094C187.267 62.8554 187.159 62.9094 187.105 62.9094Z" fill="#484954"/>
<path d="M182.354 85.8061L181.328 85.1581L181.76 84.0781L182.354 85.8061Z" fill="#484954"/>
<path d="M182.354 86.1832C182.3 86.1832 182.192 86.1832 182.138 86.1292L181.112 85.4812C180.95 85.3732 180.896 85.2112 180.95 84.9952L181.382 83.9152C181.436 83.7532 181.598 83.6992 181.76 83.6992C181.922 83.6992 182.084 83.8072 182.084 83.9692L182.678 85.6972C182.732 85.9132 182.624 86.1292 182.462 86.1832C182.408 86.1292 182.408 86.1832 182.354 86.1832Z" fill="#484954"/>
<path d="M182.786 85.8051L192.29 82.6732C192.668 82.5112 192.938 82.1332 192.884 81.7012L188.996 62.2072C188.942 61.8832 188.618 61.6672 188.294 61.7212C188.24 61.7212 188.186 61.7212 188.132 61.7752L178.736 65.5012C178.358 65.6632 178.142 66.0412 178.196 66.4732L181.976 85.2651C182.03 85.5891 182.354 85.8591 182.678 85.8051C182.732 85.8591 182.732 85.8051 182.786 85.8051Z" fill="#484954"/>
<path d="M182.57 86.2363C182.408 86.2363 182.246 86.1823 182.084 86.1283C181.814 85.9663 181.652 85.7503 181.598 85.4263L177.818 66.5803C177.71 65.9863 178.034 65.3923 178.574 65.1763L188.024 61.4503C188.294 61.3423 188.618 61.3423 188.888 61.5043C189.158 61.6663 189.32 61.8823 189.374 62.2063L193.262 81.7003C193.37 82.2943 193.046 82.8883 192.452 83.1043L182.948 86.2363C182.786 86.1823 182.678 86.2363 182.57 86.2363ZM188.402 62.0983C188.348 62.0983 188.294 62.0983 188.294 62.0983L178.844 65.8783C178.628 65.9863 178.52 66.2023 178.574 66.4183L182.354 85.2643C182.354 85.3183 182.408 85.4263 182.462 85.4263C182.516 85.4803 182.624 85.4803 182.678 85.4263L192.182 82.2943C192.398 82.2403 192.56 81.9703 192.506 81.7543L188.618 62.2603C188.618 62.2063 188.564 62.0983 188.51 62.0983C188.456 62.0983 188.456 62.0983 188.402 62.0983Z" fill="#484954"/>
<path d="M181.762 85.1567L191.266 82.0247C191.644 81.8627 191.914 81.4847 191.86 81.0527L187.972 61.5587C187.918 61.2347 187.594 61.0187 187.27 61.0727C187.216 61.0727 187.162 61.0727 187.108 61.1267L177.658 64.9067C177.28 65.0687 177.064 65.4467 177.118 65.8787L180.898 84.7247C180.952 85.0487 181.276 85.3187 181.6 85.2647C181.654 85.1567 181.708 85.1567 181.762 85.1567Z" fill="white"/>
<path d="M181.546 85.5351C181.384 85.5351 181.222 85.4811 181.06 85.4271C180.79 85.2651 180.628 85.0491 180.574 84.7251L176.794 65.8791C176.686 65.2851 177.01 64.6911 177.55 64.4751L187 60.7491C187.27 60.6411 187.594 60.6411 187.864 60.8031C188.134 60.9651 188.296 61.1811 188.35 61.5051L192.238 80.9991C192.346 81.5931 192.022 82.1871 191.428 82.4031L181.924 85.5351C181.762 85.5351 181.654 85.5891 181.546 85.5351ZM187.378 61.4511C187.324 61.4511 187.27 61.4511 187.27 61.4511L177.82 65.1771C177.604 65.2851 177.496 65.5011 177.55 65.7171L181.33 84.5631C181.33 84.6171 181.384 84.7251 181.438 84.7251C181.492 84.7791 181.6 84.7791 181.654 84.7251L191.158 81.6471C191.374 81.5931 191.536 81.3231 191.482 81.1071L187.594 61.6131C187.594 61.5591 187.54 61.4511 187.486 61.4511C187.432 61.4511 187.432 61.4511 187.378 61.4511Z" fill="#484954"/>
<path d="M185.541 82.5109L187.377 81.9169C187.593 81.8089 187.755 81.5929 187.701 81.3229L187.539 80.5669C187.485 80.3509 187.323 80.1889 187.107 80.2429C187.053 80.2429 187.053 80.2429 186.999 80.2969L185.163 80.9449C184.947 81.0529 184.785 81.2689 184.839 81.5389L185.001 82.2949C185.055 82.5109 185.217 82.6189 185.433 82.6189C185.487 82.5109 185.541 82.5109 185.541 82.5109Z" fill="#484954"/>
<path d="M181.71 64.6374C181.656 64.6374 181.656 64.6374 181.602 64.5834C181.602 64.5294 181.602 64.4754 181.656 64.4754L184.41 63.3954C184.464 63.3414 184.518 63.3954 184.518 63.4494C184.518 63.5034 184.518 63.5574 184.464 63.5574C184.464 63.5574 184.464 63.5574 184.41 63.5574L181.71 64.6374Z" fill="#484954"/>
<path d="M180.952 64.908C180.898 64.908 180.898 64.908 180.844 64.854C180.844 64.8 180.844 64.746 180.898 64.746L181.276 64.584C181.33 64.584 181.384 64.584 181.384 64.638C181.384 64.692 181.384 64.746 181.33 64.746L180.952 64.908Z" fill="#484954"/>
<path d="M187.001 62.9102L178.469 66.4742L181.655 81.4862L189.971 78.4622L187.001 62.9102Z" fill="url(#paint5_linear_4507_6001)"/>
<path d="M78.2457 94.661H63.5577C63.3417 94.661 63.1797 94.499 63.1797 94.283C63.1797 94.067 63.3417 93.959 63.5577 93.959H78.2457C78.4617 93.959 78.5697 94.121 78.5697 94.283C78.5697 94.499 78.4077 94.661 78.2457 94.661Z" fill="#484954"/>
<path d="M85.1023 88.3973H63.4483C63.2323 88.3973 63.0703 88.2353 63.0703 88.0193C63.0703 87.8033 63.2323 87.6953 63.4483 87.6953H85.1023C85.3183 87.6953 85.4263 87.8573 85.4263 88.0193C85.4263 88.2353 85.2643 88.3973 85.1023 88.3973Z" fill="#484954"/>
<path d="M70.523 82.1864H63.503C63.287 82.1864 63.125 82.0244 63.125 81.8084C63.125 81.5924 63.287 81.4844 63.503 81.4844H70.523C70.739 81.4844 70.847 81.6464 70.847 81.8084C70.847 82.0244 70.685 82.1864 70.523 82.1864Z" fill="#484954"/>
<path d="M87.3748 82.4032H74.8468C74.6308 82.4032 74.4688 82.2412 74.4688 82.0252C74.4688 81.8092 74.6308 81.7012 74.8468 81.7012H87.3748C87.5908 81.7012 87.6988 81.8632 87.6988 82.0252C87.7528 82.2412 87.5908 82.4032 87.3748 82.4032Z" fill="#484954"/>
<path d="M78.2494 95.04H63.5614C63.1834 95.04 62.8594 94.716 62.8594 94.284C62.8594 93.906 63.1834 93.582 63.5614 93.582H78.2494C78.6274 93.582 78.9514 93.906 78.9514 94.338C78.9514 94.716 78.6274 95.04 78.2494 95.04Z" fill="#484954"/>
<path d="M85.106 88.7744H63.452C63.074 88.7744 62.75 88.4504 62.75 88.0184C62.75 87.6404 63.074 87.3164 63.452 87.3164H85.106C85.484 87.3164 85.808 87.6404 85.808 88.0724C85.808 88.4504 85.484 88.7744 85.106 88.7744Z" fill="#484954"/>
<path d="M70.5267 82.5654H63.5067C63.1287 82.5654 62.8047 82.2414 62.8047 81.8094C62.8047 81.4314 63.1287 81.1074 63.5067 81.1074H70.5267C70.9047 81.1074 71.2287 81.4314 71.2287 81.8634C71.2287 82.2414 70.9047 82.5654 70.5267 82.5654Z" fill="#484954"/>
<path d="M87.3706 82.7822H74.8426C74.4646 82.7822 74.1406 82.4582 74.1406 82.0262C74.1406 81.6482 74.4646 81.3242 74.8426 81.3242H87.3706C87.7486 81.3242 88.0726 81.6482 88.0726 82.0802C88.1266 82.4582 87.8026 82.7822 87.3706 82.7822Z" fill="#484954"/>
<path d="M201.637 112.806H186.949C186.733 112.806 186.625 112.644 186.625 112.482C186.625 112.266 186.787 112.104 186.949 112.104H201.637C201.853 112.104 201.961 112.266 201.961 112.482C201.961 112.644 201.799 112.806 201.637 112.806Z" fill="#484954"/>
<path d="M207.148 112.806H204.34C204.124 112.806 204.016 112.644 204.016 112.482C204.016 112.266 204.178 112.104 204.34 112.104H207.148C207.364 112.104 207.472 112.266 207.472 112.482C207.526 112.644 207.364 112.806 207.148 112.806Z" fill="#484954"/>
<path d="M208.494 106.542H186.84C186.624 106.542 186.516 106.38 186.516 106.218C186.516 106.002 186.678 105.84 186.84 105.84H208.494C208.71 105.84 208.818 106.002 208.818 106.218C208.872 106.38 208.71 106.542 208.494 106.542Z" fill="#484954"/>
<path d="M193.914 100.331H186.894C186.678 100.331 186.57 100.169 186.57 100.007C186.57 99.7909 186.732 99.6289 186.894 99.6289H193.914C194.13 99.6289 194.238 99.7909 194.238 100.007C194.292 100.169 194.13 100.331 193.914 100.331Z" fill="#484954"/>
<path d="M210.821 100.548H198.293C198.077 100.548 197.969 100.386 197.969 100.224C197.969 100.008 198.131 99.8457 198.293 99.8457H210.821C211.037 99.8457 211.145 100.008 211.145 100.224C211.145 100.386 210.983 100.548 210.821 100.548Z" fill="#484954"/>
<defs>
<linearGradient id="paint0_linear_4507_6001" x1="63.4374" y1="51.8945" x2="63.4374" y2="67.4465" gradientUnits="userSpaceOnUse">
<stop stop-color="#00D885"/>
<stop offset="1" stop-color="white"/>
</linearGradient>
<linearGradient id="paint1_linear_4507_6001" x1="209.524" y1="130.52" x2="209.524" y2="177.77" gradientUnits="userSpaceOnUse">
<stop stop-color="white"/>
<stop offset="1" stop-color="#444AFA"/>
</linearGradient>
<linearGradient id="paint2_linear_4507_6001" x1="112.591" y1="183.254" x2="115.142" y2="194.912" gradientUnits="userSpaceOnUse">
<stop stop-color="#EEE420"/>
<stop offset="1" stop-color="white"/>
</linearGradient>
<linearGradient id="paint3_linear_4507_6001" x1="107.779" y1="187.379" x2="109.683" y2="196.083" gradientUnits="userSpaceOnUse">
<stop stop-color="#00D885"/>
<stop offset="1" stop-color="white"/>
</linearGradient>
<linearGradient id="paint4_linear_4507_6001" x1="103.185" y1="192.517" x2="104.224" y2="197.265" gradientUnits="userSpaceOnUse">
<stop stop-color="#F75A5A"/>
<stop offset="1" stop-color="white"/>
</linearGradient>
<linearGradient id="paint5_linear_4507_6001" x1="184.22" y1="62.9102" x2="184.22" y2="81.4862" gradientUnits="userSpaceOnUse">
<stop stop-color="white"/>
<stop offset="1" stop-color="#00D885"/>
</linearGradient>
</defs>
</svg>