<svg xmlns="http://www.w3.org/2000/svg" fill="none" viewBox="12.86 66.93 283.27 202.14">
<path d="M36.2295 127.411L39.7239 141.59L31.1223 144.95C31.1223 144.95 26.4855 130.57 28.8375 129.091C31.1895 127.613 36.2295 127.411 36.2295 127.411Z" fill="white"/>
<path d="M31.0506 145.354C30.9834 145.354 30.9162 145.354 30.849 145.287C30.7146 145.219 30.6474 145.152 30.6474 145.018C29.841 142.599 26.0778 130.234 28.5642 128.688C31.0506 127.143 35.9562 126.941 36.1578 126.941C36.3594 126.941 36.561 127.075 36.561 127.277L40.0554 141.389C40.1226 141.591 39.9882 141.792 39.7866 141.859L31.185 145.219C31.1178 145.219 31.0506 145.219 31.0506 145.219V145.354ZM35.889 127.882C34.7466 127.949 30.9162 128.285 29.0346 129.495C27.6234 130.368 29.505 138.634 31.3866 144.413L39.1818 141.322L35.889 127.882Z" fill="#282932"/>
<path d="M65.7949 214.838C65.7949 214.838 60.6205 212.15 60.2173 211.478C58.8733 209.664 57.3949 208.051 55.7149 206.573C54.3709 205.498 55.2445 201.734 54.9757 200.256C54.2365 196.56 52.0189 199.718 51.6829 201.734C51.5485 202.742 51.3469 203.818 51.2125 204.826C51.2125 204.96 51.1453 205.094 51.0781 205.162C50.9437 205.229 50.8093 205.162 50.7421 205.094C45.2989 202.944 43.2157 214.637 46.2397 217.526C48.6589 219.811 65.3245 224.986 65.3245 224.986L65.7949 214.838Z" fill="white"/>
<path d="M65.257 225.389C65.1898 225.389 65.1898 225.389 65.1226 225.389C64.4506 225.187 48.3226 220.147 45.9034 217.795C43.6186 215.645 44.089 209.597 46.0378 206.506C47.2474 204.557 48.9274 203.952 50.809 204.624L51.2794 201.533C51.481 200.122 52.6234 197.971 53.833 197.971C54.5722 197.971 55.1098 198.643 55.3786 199.987C55.4458 200.726 55.513 201.466 55.4458 202.205C55.3786 203.683 55.3114 205.498 55.9834 206.102C57.6634 207.648 59.209 209.328 60.553 211.142C60.8218 211.546 63.5098 213.091 65.929 214.368C66.0634 214.435 66.1306 214.57 66.1306 214.771L65.6602 224.918C65.6602 225.053 65.593 225.187 65.4586 225.254C65.4586 225.389 65.3242 225.389 65.257 225.389ZM49.3978 205.229C48.2554 205.296 47.2474 205.968 46.777 206.976C44.8954 210 44.6938 215.51 46.5082 217.19C48.3226 218.87 59.0074 222.566 64.921 224.381L65.3914 215.04C63.7114 214.166 60.2842 212.285 59.881 211.613C58.6042 209.866 57.1258 208.253 55.513 206.842C54.4378 206.035 54.5722 204.019 54.6394 202.272C54.7066 201.6 54.7066 200.928 54.6394 200.256C54.4378 199.248 54.1018 198.912 53.9674 198.912C53.4298 198.912 52.4218 200.39 52.2202 201.802L51.7498 204.893C51.7498 205.162 51.6154 205.363 51.4138 205.498C51.2122 205.632 50.9434 205.632 50.6746 205.498C50.2714 205.363 49.8682 205.296 49.3978 205.229Z" fill="#282932"/>
<path d="M97.4471 133.93C101.882 134.266 105.713 137.155 107.191 141.322C108.333 144.614 108.065 148.579 110.618 150.998C112.164 152.41 114.314 152.947 116.33 152.41C118.346 151.872 120.093 150.662 121.236 148.915C122.244 153.149 120.698 157.517 117.204 160.07C114.18 162.221 110.215 162.624 106.586 161.75C102.957 160.877 99.7319 158.928 96.9095 156.576C92.2055 152.813 89.0471 148.176 87.8375 142.262C86.6951 136.886 92.4743 133.661 97.4471 133.93Z" fill="white"/>
<path d="M110.147 162.691C108.937 162.691 107.727 162.557 106.518 162.288C103.359 161.549 100.134 159.802 96.6393 157.046C91.6665 153.082 88.6425 148.31 87.4329 142.464C86.9625 140.448 87.5001 138.365 88.8441 136.819C90.7257 134.669 94.0857 133.392 97.4457 133.594C102.015 133.93 105.98 136.954 107.593 141.254C107.996 142.397 108.265 143.606 108.467 144.749C108.937 147.034 109.34 149.251 110.886 150.73C112.364 152.006 114.38 152.544 116.262 152.074C118.143 151.603 119.823 150.394 120.899 148.781C120.966 148.646 121.167 148.579 121.302 148.579C121.436 148.579 121.571 148.714 121.638 148.848C122.713 153.216 121.1 157.786 117.471 160.474C115.321 162.019 112.767 162.758 110.147 162.691ZM96.7737 134.333C93.9513 134.333 91.0617 135.475 89.4489 137.29C88.2393 138.634 87.7689 140.515 88.1721 142.262C89.3145 147.907 92.2713 152.477 97.1097 156.374C100.47 159.062 103.628 160.742 106.652 161.482C110.415 162.355 114.246 161.75 116.934 159.869C120.025 157.584 121.571 153.754 120.966 149.99C119.756 151.402 118.143 152.477 116.329 152.88C114.179 153.418 111.894 152.813 110.214 151.334C108.467 149.654 107.996 147.235 107.526 144.883C107.324 143.741 107.055 142.598 106.719 141.456C105.241 137.424 101.545 134.669 97.3113 134.333C97.1769 134.4 96.9753 134.4 96.7737 134.333Z" fill="#282932"/>
<path d="M93.3473 143.069C92.1377 141.591 90.5921 140.583 88.7777 140.045C87.4337 139.776 86.0225 139.843 84.6785 140.314C83.6705 140.515 82.8641 141.12 82.3265 141.994C81.9233 142.935 82.2593 144.077 82.6625 145.018C84.0737 148.311 88.6433 155.635 93.0113 155.031C99.0593 154.224 95.6321 145.623 93.3473 143.069Z" fill="#282932"/>
<path d="M92.5404 155.434C88.1724 155.434 83.8044 148.579 82.2588 145.085C81.8556 144.144 81.4524 142.867 81.9228 141.725C82.326 140.851 83.1324 140.246 84.5436 139.843C85.9548 139.373 87.4332 139.306 88.8444 139.574C90.4572 139.978 92.07 140.986 93.6156 142.733C95.1612 144.48 97.7148 149.654 96.5052 152.88C95.9676 154.358 94.6236 155.299 93.078 155.366C92.8764 155.434 92.6748 155.434 92.5404 155.434ZM87.2988 140.246C86.4252 140.246 85.6188 140.381 84.8124 140.65C83.9388 140.851 83.1996 141.322 82.7292 142.128C82.326 143.002 82.7292 144.01 83.0652 144.816C84.4764 148.109 88.9116 155.098 92.9436 154.627C94.1532 154.56 95.2956 153.821 95.6988 152.678C96.7068 149.923 94.5564 145.085 93.0108 143.338C91.5324 141.725 90.1212 140.784 88.6428 140.448C88.2396 140.246 87.7692 140.246 87.2988 140.246Z" fill="#282932"/>
<path d="M123.854 250.589L124.66 264.23H81.2489L79.0312 245.078L123.854 250.589Z" fill="#282932"/>
<path d="M124.661 264.634H81.2497C81.0481 264.634 80.8465 264.499 80.8465 264.298L78.6289 245.146C78.6289 245.011 78.6289 244.877 78.7633 244.81C78.8305 244.742 78.9649 244.675 79.0993 244.675L123.989 250.186C124.191 250.186 124.325 250.387 124.325 250.589L125.064 264.298C125.064 264.432 124.863 264.634 124.661 264.634ZM81.6529 263.827H124.258L123.518 250.925L79.5025 245.549L81.6529 263.827Z" fill="#282932"/>
<path d="M98.6583 182.112C98.6583 182.112 116.533 187.085 120.901 194.611C125.269 202.138 126.412 253.142 126.412 253.142C126.412 253.142 94.6263 257.846 78.4311 250.522C78.4311 250.522 74.7351 230.294 71.9127 216.317C70.5687 209.664 71.1063 200.726 70.7703 200.39C69.8967 199.45 40.9335 182.582 39.0519 179.626C37.1703 176.669 29.0391 142.934 29.0391 142.934L39.7239 137.491C39.7239 137.491 51.1479 167.731 53.0967 170.285C55.0455 172.838 79.0359 184.8 79.0359 184.8L98.6583 182.112Z" fill="#797B87"/>
<path d="M42.4083 120.087L42.5427 120.288C42.9459 120.759 43.6179 120.893 44.0883 120.557C44.5587 120.154 44.6931 119.482 44.2899 118.944C44.2227 118.877 44.2227 118.81 44.1555 118.743C37.2339 109.267 38.5107 100.733 41.9379 95.9617C44.3571 92.6017 47.9187 90.9889 50.7411 91.9297C53.5635 92.8705 55.3107 95.1553 55.7139 98.7169C55.9155 100.531 55.8483 102.346 55.5123 104.16C55.3779 104.765 55.7811 105.37 56.4531 105.437C56.9907 105.504 57.5955 105.168 57.7299 104.631C58.6707 100.531 58.6035 92.1313 51.4803 89.7793C47.7171 88.5025 43.1475 90.4513 40.1235 94.6177C36.2931 100.128 34.8147 109.671 42.4083 120.087Z" fill="white"/>
<path d="M43.4844 121.162C43.4172 121.162 43.35 121.162 43.2828 121.162C42.8796 121.094 42.5436 120.893 42.2748 120.557L42.1404 120.355C34.4124 109.738 35.8908 99.9936 39.9228 94.4832C43.0812 90.1824 47.7852 88.1664 51.75 89.4432C59.142 91.9296 59.2764 100.531 58.2684 104.765C57.9996 105.571 57.1932 106.042 56.3868 105.84C55.6476 105.638 55.1772 104.899 55.3116 104.093C55.6476 102.346 55.7148 100.598 55.5132 98.784C55.11 95.424 53.4972 93.2736 50.8092 92.3328C48.1212 91.392 44.8284 93.0048 42.4764 96.2304C39.1164 100.867 37.9068 109.2 44.694 118.474C44.7612 118.541 44.8284 118.608 44.8956 118.742C45.366 119.414 45.1644 120.355 44.4924 120.826C44.1564 121.094 43.8204 121.229 43.4844 121.162ZM42.7452 119.818L42.8796 120.019C43.0812 120.355 43.5516 120.422 43.8876 120.154C44.2236 119.885 44.2908 119.482 44.022 119.146L43.8876 118.944C36.8316 109.267 38.1084 100.598 41.67 95.6928C44.2236 92.1984 47.9196 90.5184 50.9436 91.4592C53.9676 92.4 55.782 94.8864 56.2524 98.5824C56.454 100.464 56.3868 102.346 56.0508 104.16C55.9836 104.563 56.1852 104.899 56.5884 104.966C56.9916 105.034 57.3276 104.832 57.3948 104.429C58.3356 100.464 58.2684 92.3328 51.414 90.048C47.8524 88.8384 43.4844 90.72 40.5276 94.752C36.6972 100.195 35.2188 109.536 42.7452 119.818Z" fill="#282932"/>
<path d="M47.8528 127.613C55.4464 138.096 64.9888 139.574 71.3728 137.491C76.2784 135.878 79.504 132.182 79.504 128.218C79.4368 120.691 71.5072 118.07 67.2736 117.734C66.6688 117.667 66.1312 118.138 66.064 118.742C65.9968 119.347 66.4672 119.885 67.072 119.952C68.8864 120.154 70.6336 120.624 72.3136 121.43C75.5392 122.976 77.2192 125.261 77.2192 128.285C77.2192 131.309 74.5984 134.131 70.6336 135.408C64.9888 137.222 56.5216 135.811 49.6672 126.336L49.5328 126.134C49.1296 125.664 48.4576 125.53 47.9872 125.866C47.5168 126.269 47.3824 126.941 47.7856 127.478L47.8528 127.613Z" fill="white"/>
<path d="M66.1989 138.701C60.3525 138.701 53.3637 135.878 47.5173 127.814L47.3829 127.613C47.1141 127.277 47.0469 126.873 47.1141 126.47C47.2485 125.664 48.0549 125.059 48.8613 125.193C49.2645 125.261 49.6005 125.462 49.8693 125.798L49.9365 125.933C56.7909 135.341 65.0565 136.752 70.4997 134.937C74.2629 133.728 76.8165 130.973 76.7493 128.217C76.6821 125.462 75.1365 123.177 72.0453 121.766C70.4325 121.027 68.6853 120.557 66.9381 120.355C66.0645 120.288 65.4597 119.549 65.5269 118.675C65.5941 117.801 66.3333 117.197 67.2069 117.264C71.5077 117.667 79.7061 120.355 79.8405 128.15C79.9077 132.317 76.4805 136.214 71.4405 137.827C69.7605 138.432 67.9461 138.701 66.1989 138.701ZM48.1893 127.344C55.7157 137.625 64.9893 139.104 71.2389 137.088C75.9429 135.542 79.1013 131.981 79.0341 128.217C78.9669 121.027 71.2389 118.473 67.2069 118.137C66.8037 118.137 66.4677 118.406 66.4677 118.809C66.4677 119.213 66.7365 119.549 67.1397 119.549C69.0213 119.75 70.8357 120.288 72.5157 121.027C75.8757 122.64 77.6229 125.059 77.6901 128.217C77.7573 131.376 75.0021 134.4 70.8357 135.744C65.0565 137.625 56.4549 136.214 49.3989 126.537L49.2645 126.336C49.0629 126 48.5925 125.933 48.2565 126.201C48.1221 126.336 47.9877 126.47 47.9877 126.672C47.9877 126.873 47.9877 127.075 48.1221 127.209L48.1893 127.344Z" fill="#282932"/>
<path d="M13.5159 134.669L25.1415 150.662C25.5447 151.267 26.3511 151.402 26.8887 150.998C27.2247 150.73 27.4263 150.326 27.4263 149.923V140.65L27.3591 140.582L47.6535 125.798L44.0247 120.826L23.7975 135.542L23.7303 135.475L14.8599 132.653C14.1879 132.451 13.4487 132.854 13.3143 133.526C13.2471 133.93 13.3143 134.333 13.5159 134.669Z" fill="white"/>
<path d="M26.1476 151.536C25.61 151.536 25.1396 151.267 24.8036 150.864L13.178 134.87C12.6404 134.131 12.7748 133.056 13.5812 132.518C13.9844 132.182 14.5892 132.115 15.0596 132.25L23.7956 135.005L43.8212 120.422C43.8884 120.355 44.0228 120.355 44.1572 120.355C44.2916 120.355 44.3588 120.422 44.426 120.49L48.0548 125.462C48.1892 125.664 48.122 125.933 47.9876 126.067L28.0292 140.582L27.8948 149.856C27.8948 150.595 27.4244 151.2 26.7524 151.469C26.5508 151.536 26.3492 151.536 26.1476 151.536ZM14.522 133.056C14.2532 133.056 13.9844 133.19 13.85 133.392C13.6484 133.661 13.6484 134.131 13.85 134.4L25.4756 150.394C25.7444 150.797 26.282 150.864 26.6852 150.595C26.8868 150.461 27.0212 150.192 27.0212 149.923L27.0884 140.717C27.0212 140.582 27.0884 140.381 27.2228 140.246L47.114 125.798L43.9556 121.498L24.1316 135.946C24.0644 136.013 23.93 136.013 23.7956 136.013C23.7284 136.013 23.6612 135.946 23.594 135.878L14.858 133.123C14.7236 133.056 14.6564 133.056 14.522 133.056Z" fill="#282932"/>
<path d="M41.6707 129.965L38.2435 125.261C37.0003 120.5 36 114 40.9315 108.125L58.8739 95.0879L76.7491 119.616L58.8067 132.653C50.499 135 47.499 134 41.6707 129.965Z" fill="white"/>
<path d="M52.2186 134.266C51.4122 134.266 50.6058 134.198 49.7322 134.064C41.265 132.72 35.4186 124.723 36.7626 116.256C37.4346 112.157 39.6522 108.528 43.0122 106.109L58.5354 94.752C58.6026 94.6848 58.737 94.6848 58.8714 94.6848C59.0058 94.6848 59.073 94.752 59.1402 94.8192L77.0154 119.347C77.0826 119.414 77.0826 119.549 77.0826 119.683C77.0826 119.818 77.0154 119.885 76.9482 119.952L61.3578 131.309C58.737 133.19 55.5114 134.266 52.2186 134.266ZM58.737 95.6928L43.4826 106.781C36.897 111.619 35.4858 120.826 40.257 127.411C45.0954 133.997 54.3018 135.408 60.8874 130.637L76.0746 119.549L58.737 95.6928Z" fill="#282932"/>
<path d="M64.3148 109.872L56.3852 112.493L51.5468 105.706V114.038L43.6172 116.659L51.5468 119.213V127.546L56.4524 120.758L64.3148 123.379L59.4092 116.592L64.3148 109.872Z" fill="url(#paint0_linear_4380_14587)"/>
<path d="M51.5495 127.949C51.4823 127.949 51.4823 127.949 51.4151 127.949C51.2135 127.881 51.1463 127.747 51.1463 127.545V119.481L43.4855 116.995C43.2839 116.928 43.1495 116.659 43.2167 116.457C43.2839 116.323 43.3511 116.256 43.4855 116.189L51.0791 113.702V105.705C51.0791 105.504 51.2135 105.369 51.3479 105.302C51.5495 105.235 51.6839 105.302 51.8183 105.437L56.5223 111.888L64.1159 109.401C64.3175 109.334 64.4519 109.401 64.5863 109.536C64.7207 109.67 64.7207 109.872 64.5863 110.006L59.8823 116.525L64.5863 122.976C64.7207 123.11 64.7207 123.312 64.5863 123.446C64.4519 123.581 64.3175 123.648 64.1159 123.581L56.5223 121.094L51.8183 127.613C51.7511 127.881 51.6167 127.949 51.5495 127.949ZM44.9639 116.659L51.6839 118.809C51.8855 118.877 51.9527 119.011 51.9527 119.213V126.269L56.1191 120.557C56.2535 120.422 56.3879 120.355 56.5895 120.422L63.3095 122.573L59.0759 116.861C58.9415 116.726 58.9415 116.525 59.0759 116.39L63.2423 110.678L56.5223 112.829C56.3207 112.896 56.1863 112.829 56.0519 112.694L51.8855 106.982V114.038C51.8855 114.24 51.7511 114.374 51.6167 114.441L44.8967 116.592L44.9639 116.659Z" fill="#282932"/>
<path d="M92.4754 146.631C92.1395 146.093 91.7363 145.623 91.4003 145.152C88.1075 140.851 82.6643 140.784 78.0947 143.002C77.1539 143.405 76.213 144.144 76.1458 145.152C74.197 144.48 71.9122 145.555 70.6354 147.168C66.469 152.477 67.2754 160.272 69.2914 166.253C69.6946 167.664 70.3666 168.941 71.3074 170.083C72.2482 171.091 73.4578 171.898 74.8018 172.368C83.7394 176.064 96.1715 171.562 97.2467 161.011C97.7843 156.039 95.4322 150.73 92.4754 146.631Z" fill="#6C6E7A"/>
<path d="M81.452 174.048C79.1 174.048 76.8152 173.645 74.6648 172.704C73.3208 172.166 72.044 171.36 71.036 170.285C70.0952 169.075 69.356 167.731 68.9528 166.32C67.676 162.624 65.2568 153.283 70.364 146.832C71.5736 145.354 73.724 144.077 75.8744 144.547C76.2776 143.606 77.0168 142.934 77.9576 142.598C82.1912 140.582 88.0376 140.112 91.7336 144.883C92.0696 145.354 92.4728 145.824 92.8088 146.362C94.892 149.318 98.252 155.165 97.6472 161.011C97.1768 165.446 94.6232 169.344 90.7928 171.562C87.9704 173.174 84.7448 174.048 81.452 174.048ZM74.9336 145.286C73.388 145.354 71.9768 146.16 71.036 147.37C66.1976 153.485 68.5496 162.49 69.7592 166.051C70.1624 167.395 70.7672 168.672 71.6408 169.747C72.5816 170.688 73.724 171.427 74.9336 171.898C79.9736 173.914 85.6184 173.443 90.3224 170.755C93.9512 168.672 96.3704 164.976 96.7736 160.877C97.3784 155.299 94.0856 149.654 92.0696 146.765C91.7336 146.294 91.3976 145.824 90.9944 145.354C87.6344 140.918 82.1912 141.389 78.2264 143.338C77.4872 143.674 76.6136 144.278 76.5464 145.085C76.5464 145.286 76.3448 145.488 76.076 145.488C76.0088 145.488 76.0088 145.488 75.9416 145.488C75.74 145.421 75.3368 145.354 74.9336 145.286Z" fill="#282932"/>
<path d="M80.3093 174.72L81.7205 183.12C81.7205 183.12 84.4757 187.421 89.7173 185.136C94.9589 182.851 95.0261 178.752 95.0261 178.752L92.2037 163.229C92.0693 162.557 89.3141 160.608 88.7093 160.205C87.1637 159.062 85.4165 158.122 83.6021 157.382C82.7285 157.114 81.9221 156.71 81.1157 156.307C79.0997 155.098 77.8229 153.014 77.6885 150.662C78.0245 152.544 77.5541 154.493 76.3445 155.971C75.5381 156.979 74.3957 157.718 73.7237 158.861C72.3797 160.81 73.1189 162.422 73.5221 164.438C73.9925 166.79 73.8581 169.142 74.5973 171.427C75.8741 175.526 80.2421 174.72 80.3093 174.72Z" fill="white"/>
<path d="M86.7607 186.211C84.6103 186.144 82.5943 185.069 81.3847 183.322C81.3847 183.254 81.3175 183.254 81.3175 183.187L79.9735 175.123C77.0167 175.258 75.0007 173.981 74.1943 171.494C73.7911 170.15 73.5895 168.739 73.5223 167.328C73.4551 166.387 73.3207 165.379 73.1191 164.438C73.0519 164.102 72.9847 163.834 72.9175 163.565C72.5143 161.952 72.1783 160.406 73.3879 158.592C73.8583 157.987 74.3287 157.382 74.9335 156.912C75.3367 156.509 75.7399 156.106 76.0759 155.702C76.9495 154.56 77.4199 153.149 77.4199 151.67C77.3527 151.334 77.3527 150.998 77.2855 150.662C77.2855 150.461 77.4199 150.259 77.6887 150.259C77.8903 150.259 78.0919 150.394 78.1591 150.595C78.2263 150.931 78.2935 151.267 78.2935 151.67C78.6295 153.485 79.7719 155.098 81.3847 156.038C81.9895 156.374 82.5943 156.643 83.1991 156.845L83.8039 157.046C85.6855 157.786 87.4327 158.726 89.0455 159.936L89.1799 160.07C91.9351 162.086 92.5399 162.758 92.6743 163.229C92.6743 163.363 95.4967 178.752 95.4967 178.752C95.4967 179.021 95.4295 183.187 89.9863 185.606C88.9111 185.942 87.8359 186.144 86.7607 186.211ZM82.1239 182.918C82.5271 183.456 85.0135 186.682 89.5831 184.666C94.5559 182.515 94.6231 178.819 94.6231 178.685C93.5479 172.973 91.8007 163.229 91.8007 163.229C91.7335 163.094 91.3303 162.49 88.6423 160.608L88.4407 160.474C86.8951 159.331 85.2151 158.39 83.4007 157.718L82.8631 157.517C82.1911 157.315 81.5191 156.979 80.9143 156.643C79.6375 155.904 78.6295 154.829 78.0247 153.552C77.7559 154.56 77.2855 155.434 76.6807 156.24C76.2775 156.71 75.8743 157.114 75.4711 157.517C74.9335 157.987 74.4631 158.525 74.0599 159.062C73.0519 160.541 73.3207 161.818 73.7239 163.43C73.7911 163.699 73.8583 164.035 73.9255 164.371C74.1271 165.379 74.2615 166.387 74.3287 167.328C74.3959 168.672 74.6647 170.016 75.0007 171.293C75.6727 173.443 77.4199 174.518 80.1079 174.317C80.2423 174.317 80.3767 174.317 80.5111 174.384C80.6455 174.451 80.7127 174.586 80.7127 174.653L82.1239 182.918Z" fill="#282932"/>
<path d="M88.9141 163.498C88.9813 162.691 89.2501 161.952 89.7877 161.347C90.3253 160.81 90.8629 160.339 91.5349 160.003C91.8709 159.802 92.2741 159.667 92.6773 159.6C92.9461 159.6 93.2149 159.667 93.4837 159.734C94.1557 159.936 94.6933 160.339 95.0965 160.877C95.3653 161.347 95.4325 161.885 95.4325 162.422C95.4325 163.027 95.4325 163.632 95.2981 164.17C94.7605 166.589 92.3413 168.067 89.9893 167.462H89.9221" fill="white"/>
<path d="M90.995 168.067C90.5918 168.067 90.1886 168 89.8526 167.933C89.651 167.866 89.4494 167.664 89.5166 167.462C89.5838 167.261 89.7854 167.059 89.987 167.126H90.0542C92.2046 167.664 94.4222 166.32 94.8926 164.17C95.027 163.632 95.027 163.094 95.027 162.557C95.027 162.086 94.9598 161.616 94.7582 161.213C94.4222 160.742 93.9518 160.406 93.4142 160.272C93.2126 160.205 92.9438 160.138 92.7422 160.138C92.4062 160.205 92.0702 160.339 91.8014 160.474C91.1966 160.81 90.659 161.213 90.1214 161.683C89.651 162.221 89.3822 162.893 89.315 163.565C89.315 163.766 89.1134 163.968 88.8446 163.968C88.643 163.968 88.4414 163.766 88.4414 163.498C88.5086 162.624 88.8446 161.75 89.4494 161.078C89.987 160.474 90.5918 160.003 91.331 159.667C91.7342 159.398 92.1374 159.264 92.6078 159.197C92.9438 159.197 93.2798 159.264 93.6158 159.331C94.355 159.533 95.027 160.003 95.4302 160.675C95.699 161.213 95.8334 161.818 95.8334 162.422C95.9006 163.027 95.8334 163.699 95.699 164.304C95.2286 166.522 93.2798 168.067 90.995 168.067Z" fill="#282932"/>
<path d="M80.1117 160.675C80.1117 160.675 77.8269 165.446 78.6333 166.051C79.4397 166.656 81.3213 165.917 81.3213 165.917" fill="white"/>
<path d="M79.5745 166.723C79.1713 166.723 78.7009 166.589 78.3649 166.387C77.4241 165.648 78.8354 162.355 79.7762 160.474C79.8434 160.272 80.1122 160.205 80.3138 160.272C80.5154 160.339 80.5825 160.608 80.5153 160.81C79.4401 163.027 78.7009 165.379 78.9025 165.715C79.3729 166.051 80.5826 165.715 81.1202 165.514C81.3218 165.446 81.5906 165.514 81.6578 165.715C81.725 165.917 81.6578 166.186 81.4562 166.253C80.8514 166.589 80.2465 166.723 79.5745 166.723Z" fill="#282932"/>
<path d="M83.8318 160.032C84.2296 159.941 84.4512 159.427 84.3266 158.884C84.202 158.342 83.7785 157.976 83.3806 158.067C82.9827 158.159 82.7612 158.673 82.8857 159.215C83.0103 159.758 83.4339 160.124 83.8318 160.032Z" fill="#282932"/>
<path d="M76.9797 161.346C77.3861 161.308 77.6733 160.827 77.6211 160.273C77.5689 159.719 77.1971 159.3 76.7906 159.339C76.3842 159.377 76.097 159.857 76.1492 160.412C76.2014 160.966 76.5732 161.384 76.9797 161.346Z" fill="#282932"/>
<path d="M80.3125 174.72C80.3125 174.72 85.7557 175.056 88.5109 172.771C88.5109 172.771 86.2933 180.432 81.2533 180.499L80.3125 174.72Z" fill="#282932"/>
<path d="M81.3206 180.902C81.119 180.902 80.9174 180.768 80.9174 180.566L79.9766 174.787C79.9766 174.653 79.9766 174.518 80.0438 174.451C80.111 174.384 80.2454 174.317 80.3798 174.317C80.447 174.317 85.6886 174.653 88.3094 172.502C88.4438 172.368 88.6454 172.368 88.7798 172.502C88.9142 172.637 88.9814 172.771 88.9142 172.973C88.847 173.242 86.5622 180.835 81.3206 180.902ZM80.8502 175.123L81.6566 180.029C84.9494 179.693 86.9654 175.795 87.7718 173.779C85.3526 175.056 82.0598 175.123 80.8502 175.123Z" fill="#282932"/>
<path d="M79.9062 183.456L80.3095 187.958L98.655 182.112L96.639 178.013L79.9062 183.456Z" fill="white"/>
<path d="M80.3111 188.362C80.2439 188.362 80.1767 188.362 80.1095 188.294C79.9751 188.227 79.9079 188.093 79.9079 187.958L79.4375 183.523C79.4375 183.322 79.5047 183.12 79.7063 183.12L96.5063 177.677C96.7079 177.61 96.9095 177.677 97.0439 177.878L99.0599 181.978C99.1943 182.179 99.0599 182.448 98.8583 182.515C98.8583 182.515 98.8583 182.515 98.7911 182.515L80.4455 188.294C80.4455 188.362 80.3783 188.362 80.3111 188.362ZM80.3111 183.792L80.6471 187.421L98.0519 181.91L96.4391 178.55L80.3111 183.792Z" fill="#282932"/>
<path d="M90.7937 254.218C90.5921 254.218 90.4577 254.083 90.3905 253.949C86.9633 245.414 86.7617 188.227 86.7617 185.808C86.7617 185.606 86.9633 185.405 87.1649 185.405C87.3665 185.405 87.5681 185.606 87.5681 185.808C87.5681 186.413 87.7697 245.28 91.1297 253.68C91.1969 253.882 91.1297 254.15 90.9281 254.218C90.8609 254.218 90.8609 254.218 90.7937 254.218Z" fill="#282932"/>
<path d="M36.7652 123.312C38.042 125.395 38.5796 127.814 38.3108 130.301C38.3108 130.57 38.2436 130.838 37.9748 130.973C37.7732 131.04 37.5716 131.04 37.4372 130.906C36.7652 130.637 36.2276 130.032 36.026 129.293C36.026 130.032 36.2948 130.704 36.2948 131.443C36.2948 132.182 35.8244 132.989 35.0852 132.989C34.4804 132.989 34.0772 132.451 33.7412 131.981C33.8756 132.518 33.8756 133.056 33.7412 133.526C33.6068 134.064 33.2036 134.467 32.666 134.534C31.994 134.534 31.5236 133.862 31.1876 133.258C31.8596 133.93 31.3892 135.206 30.5156 135.542C29.5748 135.811 28.5668 135.542 27.8948 134.87C26.4164 133.526 26.0132 131.309 26.3492 129.293C26.618 127.344 27.5588 125.462 29.1044 124.186C30.2468 123.245 31.658 122.774 33.1364 122.774C34.4804 122.842 35.9588 122.035 36.7652 123.312Z" fill="white"/>
<path d="M29.9782 136.08C29.1718 136.013 28.3654 135.744 27.7606 135.139C26.3494 133.862 25.6774 131.645 26.0806 129.226C26.3494 127.142 27.3574 125.261 28.9702 123.85C30.1798 122.842 31.6582 122.371 33.2038 122.371C33.5398 122.371 33.8758 122.304 34.279 122.237C35.2198 122.102 36.4294 121.834 37.1686 123.043C38.4454 125.194 39.0502 127.747 38.7814 130.234C38.7814 130.637 38.5798 131.04 38.2438 131.242C37.975 131.376 37.639 131.376 37.3702 131.242C37.1686 131.174 36.967 131.04 36.7654 130.906C36.7654 131.04 36.7654 131.242 36.7654 131.376C36.7654 132.317 36.1606 133.325 35.1526 133.325C34.8838 133.325 34.5478 133.258 34.3462 133.056C34.3462 133.258 34.279 133.392 34.279 133.594C34.1446 134.333 33.5398 134.803 32.8006 134.87C32.5318 134.87 32.1958 134.803 31.9942 134.602C31.7926 135.139 31.3894 135.61 30.919 135.811C30.583 136.013 30.3142 136.08 29.9782 136.08ZM33.2038 123.245C31.8598 123.245 30.5158 123.648 29.5078 124.522C28.0966 125.798 27.1558 127.478 26.9542 129.36C26.6182 131.51 27.1558 133.459 28.3654 134.534C28.903 135.139 29.7766 135.341 30.583 135.139C30.919 134.938 31.1878 134.602 31.255 134.266C31.255 134.131 31.255 133.997 31.255 133.862C31.1206 133.661 31.0534 133.526 30.9862 133.392C30.919 133.19 30.919 132.989 31.1206 132.854C31.255 132.72 31.5238 132.72 31.6582 132.922C31.8598 133.056 31.927 133.258 32.0614 133.526C32.3302 133.93 32.599 134.131 32.8678 134.064C33.1366 133.997 33.4726 133.728 33.5398 133.392C33.607 132.922 33.607 132.451 33.4726 131.981C33.4054 131.779 33.4726 131.51 33.7414 131.443C33.943 131.376 34.2118 131.443 34.279 131.712C34.5478 132.115 34.8838 132.518 35.287 132.518C35.6902 132.518 36.0262 131.914 36.0262 131.376C36.0262 131.04 35.959 130.704 35.8918 130.368C35.8246 129.965 35.7574 129.629 35.7574 129.226C35.7574 129.024 35.959 128.822 36.1606 128.822C36.3622 128.822 36.4966 128.957 36.5638 129.158C36.6982 129.763 37.1686 130.234 37.7062 130.502C37.7734 130.57 37.8406 130.57 37.9078 130.57C37.9078 130.57 37.975 130.502 37.975 130.234C38.1766 127.882 37.639 125.53 36.4294 123.514C36.0262 122.842 35.4214 122.909 34.4134 123.11C34.0774 123.178 33.6742 123.245 33.2038 123.245Z" fill="#282932"/>
<path d="M79.7716 172.704C79.6372 172.704 79.5028 172.704 79.3684 172.637C77.4196 172.032 77.9572 168.605 78.0244 168.202C78.0244 168 78.226 167.866 78.4276 167.866C81.9892 167.731 81.9892 167.798 82.1908 168.067C82.3924 168.47 81.7876 171.091 80.914 172.099C80.6452 172.502 80.242 172.771 79.7716 172.704ZM78.8308 168.672C78.6964 169.68 78.6964 171.562 79.6372 171.83C79.7716 171.898 79.9732 171.83 80.0404 171.763C80.7124 171.226 81.1828 169.411 81.3172 168.672C80.8468 168.672 79.8388 168.672 78.8308 168.672Z" fill="#282932"/>
<path d="M110.08 207.648C110.08 207.648 102.554 221.088 101.142 223.709C99.7311 226.329 64.1151 211.68 64.1151 211.68L62.6367 226.329C62.6367 226.329 111.021 251.933 112.97 246.086C114.918 240.24 123.453 205.632 123.453 205.632" fill="#797B87"/>
<path d="M100.136 224.246C93.8193 224.246 70.4337 215.309 67.5441 214.166C67.3425 214.099 67.2081 213.83 67.2753 213.629C67.3425 213.427 67.6113 213.293 67.8129 213.36C79.7073 217.93 98.3217 224.381 100.875 223.238C104.302 221.76 108.603 211.546 108.671 211.478C108.738 211.277 109.007 211.142 109.208 211.21C109.41 211.277 109.544 211.546 109.477 211.747V211.814C109.275 212.218 105.042 222.432 101.278 224.045C100.943 224.179 100.539 224.246 100.136 224.246Z" fill="#282932"/>
<path d="M108.873 247.43C103.631 247.43 72.4501 231.034 68.7541 229.085C68.5525 228.95 68.4853 228.749 68.5525 228.547C68.6869 228.346 68.8885 228.278 69.0901 228.346C83.6053 236.006 106.252 247.162 108.94 246.557C111.628 245.952 117.609 233.318 120.969 225.053C121.036 224.851 121.305 224.717 121.506 224.851C121.708 224.986 121.842 225.187 121.708 225.389C120.834 227.539 113.039 246.49 109.074 247.363C109.074 247.43 108.94 247.498 108.873 247.43Z" fill="#282932"/>
<path d="M280.568 112.695C280.904 113.77 281.038 114.845 280.971 115.987C280.971 118.81 280.299 121.565 278.888 123.984C277.746 125.933 274.99 128.957 272.437 128.957C270.085 128.89 270.219 128.016 270.622 126C271.026 123.984 271.496 119.213 272.37 117.331C273.781 114.24 274.117 110.813 274.99 107.587C277.275 108.461 279.762 110.41 280.568 112.695Z" fill="white"/>
<path d="M272.566 129.36C271.423 129.36 270.751 129.159 270.415 128.688C269.878 128.016 270.079 127.075 270.281 125.866C270.415 125.261 270.55 124.455 270.617 123.581C270.953 121.363 271.356 118.541 272.028 117.13C272.834 115.114 273.439 113.031 273.842 110.88C274.111 109.738 274.313 108.595 274.649 107.453C274.716 107.319 274.783 107.251 274.85 107.184C274.985 107.117 275.052 107.117 275.186 107.184C277.27 108.058 279.958 110.007 280.966 112.627C281.302 113.703 281.503 114.912 281.436 116.055C281.436 118.944 280.697 121.767 279.286 124.253C278.076 126.269 275.254 129.36 272.566 129.36ZM275.321 108.125C275.052 109.066 274.85 110.074 274.649 111.082C274.246 113.299 273.641 115.45 272.767 117.533C272.162 118.81 271.759 121.565 271.423 123.783C271.289 124.723 271.154 125.53 271.02 126.135C270.818 127.21 270.684 127.949 270.953 128.218C271.222 128.487 271.625 128.554 272.431 128.621C274.582 128.621 277.337 125.866 278.479 123.85C279.823 121.498 280.495 118.81 280.495 116.055C280.562 114.979 280.428 113.971 280.092 112.963C279.353 110.813 277.202 109.066 275.321 108.125Z" fill="#282932"/>
<path d="M205.773 252.538V265.238L249.319 264.23L249.185 239.971L205.773 252.538Z" fill="#282932"/>
<path d="M205.77 265.709C205.636 265.709 205.569 265.642 205.502 265.575C205.434 265.507 205.367 265.373 205.367 265.306V252.605C205.367 252.403 205.502 252.269 205.703 252.202L249.114 239.568C249.249 239.501 249.383 239.568 249.45 239.635C249.585 239.703 249.585 239.837 249.585 239.971L249.719 264.231C249.719 264.432 249.518 264.634 249.316 264.634L205.77 265.709ZM206.174 252.874V264.835L248.913 263.827L248.778 240.509L206.174 252.874Z" fill="#282932"/>
<path d="M239.841 256.099C239.841 256.099 242.798 257.981 243.268 257.779C243.739 257.578 246.36 256.637 247.368 256.704C248.376 256.771 249.048 257.04 250.392 258.451C251.736 259.862 252.878 260.467 251.803 261.878C251.803 261.878 253.819 262.214 252.139 264.499C250.459 266.784 248.779 268.464 247.771 268.598C246.763 268.733 232.449 261.341 232.449 261.341L239.841 256.099Z" fill="white"/>
<path d="M247.905 269.069C246.628 269.069 235.675 263.491 232.315 261.744C232.18 261.677 232.113 261.542 232.113 261.408C232.113 261.274 232.18 261.139 232.315 261.072L239.707 255.83C239.841 255.763 240.043 255.763 240.177 255.83C241.185 256.502 242.193 257.04 243.336 257.51L243.873 257.309C245.016 256.838 246.225 256.57 247.502 256.368C248.712 256.368 249.518 256.838 250.862 258.25C251.064 258.518 251.332 258.72 251.534 258.922C252.408 259.795 253.214 260.602 252.609 261.744C252.945 261.878 253.147 262.147 253.281 262.483C253.55 263.088 253.348 263.894 252.676 264.835C251.534 266.314 249.451 268.934 247.905 269.069ZM233.256 261.341C238.699 264.096 246.964 268.195 247.838 268.262C248.644 268.195 250.257 266.65 251.937 264.365C252.408 263.693 252.609 263.155 252.475 262.819C252.34 262.618 252.139 262.416 251.87 262.349C251.736 262.349 251.601 262.214 251.534 262.08C251.467 261.946 251.534 261.811 251.601 261.677C252.206 260.87 251.937 260.534 250.929 259.459C250.728 259.258 250.459 258.989 250.257 258.787C248.98 257.443 248.376 257.174 247.502 257.174C246.36 257.376 245.284 257.645 244.209 258.048L243.537 258.25C243.067 258.384 241.857 257.846 239.976 256.637L233.256 261.341Z" fill="#282932"/>
<path d="M219.682 180.97C219.682 180.97 202.882 188.765 199.724 196.829C196.565 204.893 203.621 255.495 203.621 255.495C203.621 255.495 235.81 255.091 250.594 245.28C250.594 245.28 251.669 198.24 252.409 197.098C253.148 195.955 271.359 156.71 272.837 153.485C274.316 150.259 283.119 118.877 283.119 118.877L271.426 117.6C271.426 117.6 261.077 145.085 259.599 147.84C258.121 150.595 239.573 180.432 239.573 180.432L219.682 180.97Z" fill="#797B87"/>
<path d="M271.561 98.9857L271.36 99.1201C270.822 99.4561 270.15 99.2545 269.814 98.7169C269.545 98.2465 269.613 97.7089 270.016 97.3057C270.083 97.2385 270.15 97.2385 270.217 97.1713C279.491 90.0481 280.701 81.5137 278.685 75.9361C277.273 72.0385 274.317 69.4849 271.36 69.5521C268.403 69.6193 266.051 71.3665 264.64 74.6593C263.901 76.3393 263.497 78.0865 263.363 79.9009C263.363 80.5057 262.825 81.0433 262.221 81.0433C261.616 81.0433 261.078 80.5057 261.078 79.9009C261.078 79.8337 261.078 79.8337 261.078 79.7665C261.347 75.5329 263.766 67.5361 271.225 67.2673C275.19 67.1329 279.021 70.2913 280.768 75.1297C282.985 81.5137 281.776 91.0561 271.561 98.9857Z" fill="white"/>
<path d="M270.685 99.7921C270.617 99.7921 270.55 99.7921 270.483 99.7921C270.08 99.7249 269.744 99.5233 269.475 99.1873C268.937 98.5153 269.072 97.5745 269.744 97.0369C269.811 96.9697 269.811 96.9697 269.878 96.9025C279.017 89.8465 280.227 81.5137 278.278 76.0705C276.934 72.3073 274.179 69.8881 271.357 70.0225C268.534 70.1569 266.384 71.7697 265.04 74.8609C264.368 76.4737 263.897 78.2209 263.763 79.9681C263.696 80.8417 262.957 81.4465 262.15 81.4465C261.277 81.3793 260.672 80.7073 260.672 79.8337C260.941 75.5329 263.427 67.2001 271.222 66.9313C275.321 66.7969 279.353 70.0225 281.168 75.0625C283.453 81.5137 282.243 91.2577 271.827 99.3217L271.625 99.4561C271.357 99.7249 271.021 99.7921 270.685 99.7921ZM271.491 69.1489C274.582 69.1489 277.606 71.7697 279.017 75.8017C281.033 81.5137 279.891 90.1825 270.416 97.5073L270.349 97.5745L270.214 97.6417C269.878 97.9105 269.878 98.3137 270.08 98.6497C270.349 98.9857 270.752 98.9857 271.088 98.7841L271.289 98.6497C281.369 90.8545 282.579 81.5137 280.361 75.3313C278.681 70.6945 275.053 67.6033 271.222 67.7377C264.032 68.0065 261.68 75.8017 261.478 79.8337C261.478 80.2369 261.747 80.5729 262.15 80.5729C262.553 80.5729 262.889 80.3041 262.889 79.9009C263.024 78.0193 263.494 76.2049 264.233 74.4577C265.712 71.0305 268.131 69.2161 271.289 69.0817L271.491 69.1489Z" fill="#282932"/>
<path d="M264.236 104.631C254.022 112.56 244.412 111.351 238.902 107.587C234.668 104.698 232.585 100.195 233.728 96.3649C235.878 89.1745 244.278 88.8385 248.377 89.7121C248.982 89.8465 249.385 90.4513 249.251 91.0561C249.116 91.6609 248.512 92.0641 247.907 91.9297C246.092 91.5937 244.278 91.5937 242.464 91.8625C238.902 92.4001 236.684 94.1473 235.811 97.0369C234.937 99.9265 236.684 103.354 240.112 105.706C245.017 109.066 253.552 110.007 262.825 102.883L263.027 102.749C263.497 102.346 264.236 102.48 264.64 102.951C265.043 103.421 264.908 104.16 264.438 104.563L264.236 104.631Z" fill="white"/>
<path d="M248.85 110.947C245.221 111.014 241.659 109.939 238.703 107.923C234.335 104.899 232.184 100.262 233.327 96.2305C235.611 88.7713 244.213 88.4353 248.447 89.2417C249.253 89.4433 249.791 90.2497 249.589 91.0561C249.387 91.8625 248.648 92.4001 247.842 92.2657C246.095 91.9969 244.28 91.9297 242.533 92.1985C239.173 92.7361 237.023 94.3489 236.216 97.1041C235.41 99.8593 237.09 103.085 240.383 105.302C245.154 108.528 253.487 109.536 262.559 102.48L262.76 102.346C263.432 101.808 264.44 101.942 264.978 102.614C265.515 103.286 265.381 104.294 264.709 104.832L264.575 104.966C258.93 109.267 253.554 110.947 248.85 110.947ZM244.952 89.7793C240.853 89.7793 235.679 91.1905 234.066 96.4993C232.991 100.128 235.007 104.429 239.106 107.251C244.482 110.947 253.89 112.09 263.97 104.362L264.104 104.227C264.239 104.093 264.373 103.958 264.373 103.757C264.373 103.555 264.373 103.354 264.239 103.219C264.037 102.883 263.634 102.816 263.298 103.085C263.298 103.085 263.231 103.085 263.231 103.152L263.096 103.286C253.554 110.611 244.885 109.603 239.845 106.176C236.283 103.757 234.469 100.061 235.41 97.0369C236.351 94.0129 238.703 92.1313 242.399 91.5937C244.28 91.3249 246.162 91.3249 247.976 91.6609C248.312 91.7281 248.715 91.5265 248.783 91.1905V91.1233C248.85 90.7201 248.581 90.3841 248.245 90.3169C247.17 89.9137 246.095 89.8465 244.952 89.7793Z" fill="#282932"/>
<path d="M295.217 121.027L279.626 133.123C279.089 133.594 278.282 133.459 277.812 132.922C277.543 132.586 277.476 132.182 277.61 131.779L280.164 122.842L280.231 122.774L264.977 102.95L269.815 99.1873L285.137 118.944L285.204 118.877L294.477 118.675C295.149 118.675 295.754 119.213 295.754 119.885C295.687 120.355 295.553 120.758 295.217 121.027Z" fill="white"/>
<path d="M278.817 133.795C278.481 133.795 278.145 133.661 277.876 133.526C277.271 133.123 277.002 132.384 277.204 131.645L279.758 122.842L264.638 103.286C264.57 103.219 264.57 103.085 264.57 102.95C264.57 102.816 264.638 102.749 264.705 102.682L269.543 98.9184C269.745 98.784 270.014 98.784 270.148 98.9856L285.268 118.541L294.407 118.339C295.146 118.339 295.818 118.742 296.02 119.482C296.289 120.154 296.02 120.96 295.482 121.363L279.892 133.459C279.556 133.661 279.22 133.795 278.817 133.795ZM280.497 123.043L277.943 131.846C277.809 132.182 277.943 132.586 278.279 132.787C278.548 132.989 279.018 132.989 279.287 132.787L294.878 120.691C295.146 120.49 295.281 120.086 295.146 119.75C295.012 119.414 294.676 119.146 294.34 119.146L285.134 119.347C285.066 119.347 284.999 119.347 284.932 119.347C284.798 119.347 284.73 119.28 284.596 119.213L269.543 99.792L265.377 103.018L280.43 122.438C280.631 122.64 280.631 122.909 280.497 123.043Z" fill="#282932"/>
<path d="M238.766 88.973L262.756 70.4258L276.33 87.965C279.5 95.5 276.33 102 274.113 105.168L269.476 108.73C264 111 258.5 110 252.273 106.512L238.766 88.973Z" fill="white"/>
<path d="M262.555 110.477C261.883 110.477 261.211 110.41 260.539 110.342C256.44 109.805 252.744 107.722 250.19 104.429L238.43 89.1744C238.363 89.1072 238.363 88.9728 238.363 88.8384C238.363 88.704 238.43 88.6368 238.498 88.5696L262.488 70.0224C262.69 69.888 262.958 69.888 263.093 70.0896L274.853 85.2768C280.094 92.064 278.885 101.875 272.098 107.117C269.41 109.334 266.05 110.477 262.555 110.477ZM239.371 88.9728L250.862 103.891C255.835 110.342 265.109 111.485 271.56 106.512C278.011 101.539 279.154 92.2656 274.248 85.8144L262.69 70.9632L239.371 88.9728Z" fill="#282932"/>
<path d="M253.349 83.0592L260.271 87.696L266.856 82.656L264.504 90.6528L271.359 95.2896L263.026 95.5584L260.741 103.555L257.919 95.6928L249.586 95.9616L256.172 90.8544L253.349 83.0592Z" fill="url(#paint1_linear_4380_14587)"/>
<path d="M260.744 103.959C260.543 103.959 260.408 103.824 260.341 103.69L257.653 96.1634L249.656 96.4322C249.455 96.4322 249.32 96.2978 249.253 96.1634C249.186 95.9618 249.253 95.8274 249.387 95.693L255.704 90.7874L253.016 83.261C252.949 83.0594 253.016 82.925 253.151 82.7906C253.285 82.6562 253.487 82.6562 253.621 82.7906L260.274 87.293L266.658 82.3874C266.792 82.253 266.994 82.253 267.128 82.3874C267.263 82.5218 267.33 82.6562 267.263 82.8578L264.978 90.5186L271.631 95.021C271.765 95.1554 271.832 95.2898 271.765 95.4914C271.698 95.693 271.563 95.7602 271.362 95.7602L263.365 96.029L261.08 103.69C261.08 103.824 260.946 103.959 260.744 103.959ZM257.922 95.2898C258.123 95.2898 258.258 95.4242 258.325 95.5586L260.677 102.211L262.693 95.4242C262.76 95.2226 262.895 95.1554 263.096 95.1554L270.152 94.9538L264.306 90.989C264.171 90.8546 264.104 90.7202 264.171 90.5186L266.12 83.7314L260.543 88.0322C260.408 88.1666 260.207 88.1666 260.072 88.0322L254.226 84.0674L256.578 90.7202C256.645 90.9218 256.578 91.0562 256.443 91.1906L250.866 95.4914L257.922 95.2898Z" fill="#282932"/>
<path d="M220.621 145.085C222.57 142.464 225.392 140.314 228.215 140.314C230.298 140.314 232.516 141.725 232.986 143.741C234.599 141.12 238.093 140.247 240.714 141.859C241.722 142.599 242.528 143.607 243.066 144.749C245.552 149.789 243.872 155.904 245.015 161.482C245.216 162.49 245.821 163.699 246.829 163.565C247.3 164.707 246.359 166.051 245.149 166.387C243.94 166.656 242.663 166.455 241.52 165.917C240.445 165.379 239.236 164.909 238.026 164.707C235.338 164.371 232.65 165.783 230.029 166.32C226.938 166.925 223.78 167.395 220.688 167.933C219.076 168.202 217.463 168.471 215.917 168.067C214.036 167.53 212.557 166.051 212.02 164.17C212.356 164.573 212.96 164.707 213.431 164.371C213.901 164.103 214.237 163.699 214.439 163.162C215.984 160.541 216.992 157.584 217.396 154.56C217.53 152.88 217.732 151.267 218.135 149.655C218.74 147.975 219.546 146.429 220.621 145.085Z" fill="#797B87"/>
<path d="M217.802 168.672C217.13 168.672 216.525 168.605 215.853 168.403C213.837 167.798 212.224 166.253 211.619 164.237C211.552 164.035 211.687 163.834 211.821 163.766C212.023 163.699 212.224 163.766 212.359 163.901C212.56 164.102 212.963 164.17 213.232 163.968C213.635 163.699 213.904 163.363 214.106 162.96C215.651 160.339 216.659 157.45 217.063 154.493C217.13 154.022 217.197 153.485 217.197 153.014C217.264 151.805 217.466 150.662 217.735 149.52C218.272 147.84 219.079 146.227 220.154 144.883C222.506 141.792 225.395 139.978 228.016 139.978H228.083C230.167 139.978 232.048 141.12 232.989 142.934C233.863 141.926 235.005 141.187 236.282 140.918C237.827 140.515 239.507 140.784 240.851 141.658C241.927 142.464 242.8 143.472 243.338 144.682C244.883 147.773 244.883 151.334 244.883 154.694C244.816 156.979 244.951 159.197 245.354 161.482C245.488 162.221 246.026 163.296 246.698 163.229C246.899 163.229 247.101 163.296 247.168 163.498C247.37 164.102 247.37 164.774 247.034 165.312C246.631 166.051 245.959 166.656 245.152 166.925C243.741 167.328 242.263 166.858 241.255 166.387L240.515 166.051C239.642 165.648 238.768 165.312 237.827 165.178C236.147 164.976 234.333 165.514 232.653 166.051C231.779 166.32 230.906 166.589 229.965 166.79C227.882 167.194 225.799 167.53 223.715 167.866C222.707 168 221.632 168.202 220.624 168.403C219.616 168.605 218.608 168.739 217.533 168.739L217.802 168.672ZM212.829 164.909C213.501 166.253 214.711 167.194 216.122 167.597C217.6 168 219.28 167.731 220.759 167.462C221.767 167.261 222.842 167.126 223.85 166.925C225.866 166.589 228.016 166.253 230.032 165.85C230.906 165.648 231.779 165.446 232.653 165.11C234.467 164.573 236.282 163.968 238.163 164.17C239.171 164.304 240.179 164.64 241.053 165.11L241.725 165.379C242.733 165.917 243.943 166.051 245.085 165.85C245.69 165.648 246.16 165.245 246.429 164.707C246.563 164.438 246.631 164.102 246.563 163.834C245.555 163.766 244.883 162.624 244.615 161.414C244.211 159.13 244.077 156.778 244.144 154.493C244.144 151.066 244.144 147.773 242.666 144.816C242.195 143.741 241.389 142.8 240.448 142.128C238.029 140.65 234.803 141.389 233.325 143.808C233.258 143.942 233.056 144.01 232.922 144.01C232.72 144.01 232.586 143.875 232.586 143.674C232.183 141.926 230.301 140.582 228.218 140.515C225.799 140.515 223.111 142.195 220.96 145.085C219.952 146.429 219.146 147.907 218.675 149.453C218.407 150.528 218.205 151.67 218.138 152.813C218.071 153.35 218.071 153.821 218.003 154.291C217.6 157.382 216.525 160.406 214.979 163.094C214.711 163.632 214.307 164.102 213.77 164.438C213.501 164.909 213.165 164.976 212.829 164.909Z" fill="#282932"/>
<path d="M236.617 170.688V179.222C236.617 179.222 234.601 183.926 229.023 182.448C223.445 180.97 222.773 177.005 222.773 177.005C222.773 177.005 223.042 161.28 223.042 161.213C223.042 160.944 224.789 159.398 224.991 158.995C225.865 157.248 226.133 155.098 226.805 153.216C227.141 152.275 227.477 151.402 227.948 150.528C228.754 149.117 230.3 147.84 231.913 148.243C233.391 148.646 234.063 150.326 234.332 151.805C234.869 150.595 236.146 149.789 237.423 149.99C238.431 150.125 240.313 151.805 240.716 152.544C241.186 153.35 241.052 154.963 241.186 155.904C241.657 159.331 242.194 163.094 241.724 166.589C241.186 170.755 236.684 170.688 236.617 170.688Z" fill="white"/>
<path d="M231.042 183.187C230.303 183.187 229.631 183.053 228.891 182.919C223.112 181.44 222.373 177.274 222.306 177.139C222.239 177.005 222.575 161.415 222.642 161.28C222.642 161.011 222.843 160.81 223.717 159.869C224.053 159.533 224.322 159.197 224.658 158.861C225.128 157.786 225.531 156.643 225.733 155.501C225.935 154.695 226.136 153.888 226.405 153.082C226.741 152.141 227.144 151.2 227.615 150.327C228.488 148.714 230.235 147.37 231.983 147.84C233.461 148.243 234.133 149.587 234.469 150.73C235.208 149.856 236.351 149.453 237.493 149.587C238.703 149.789 240.651 151.536 241.055 152.343C241.391 153.149 241.525 154.023 241.525 154.896C241.525 155.232 241.525 155.568 241.592 155.837L241.659 156.643C242.063 159.936 242.533 163.363 242.063 166.656C241.727 169.21 239.912 170.823 236.955 171.159V179.29C236.955 179.357 236.955 179.424 236.955 179.424C235.813 181.642 233.528 183.12 231.042 183.187ZM223.448 161.347C223.448 162.288 223.247 170.285 223.112 177.072C223.112 177.139 223.851 180.768 229.026 182.112C233.864 183.389 235.813 179.76 236.082 179.155V170.688C236.082 170.554 236.149 170.419 236.216 170.352C236.351 170.285 236.485 170.218 236.552 170.218C239.24 170.016 240.853 168.672 241.122 166.387C241.592 163.229 241.122 159.869 240.719 156.643L240.651 155.837C240.651 155.568 240.584 155.232 240.584 154.829C240.584 154.09 240.45 153.351 240.248 152.611C239.912 151.939 238.098 150.461 237.291 150.327C236.149 150.192 235.074 150.797 234.603 151.872C234.536 152.074 234.267 152.208 234.066 152.141C233.931 152.074 233.797 151.939 233.797 151.805C233.663 151.133 233.259 148.983 231.647 148.579C230.303 148.176 228.891 149.386 228.219 150.663C227.749 151.536 227.413 152.41 227.077 153.283C226.808 154.023 226.607 154.829 226.405 155.568C226.136 156.778 225.733 157.987 225.263 159.063C224.927 159.533 224.591 159.936 224.187 160.272C223.919 160.743 223.515 161.146 223.448 161.347Z" fill="#282932"/>
<path d="M226.335 161.011C226.133 160.272 225.73 159.533 225.125 159.062C224.52 158.592 223.848 158.256 223.176 158.054C222.84 157.853 222.437 157.786 221.967 157.853C221.698 157.92 221.429 157.987 221.16 158.122C220.555 158.39 220.085 158.928 219.816 159.533C219.682 160.07 219.615 160.608 219.749 161.146C219.816 161.75 219.951 162.288 220.152 162.893C221.093 165.178 223.647 166.253 225.931 165.312H225.999" fill="white"/>
<path d="M224.249 165.917C222.3 165.917 220.486 164.707 219.747 162.893C219.545 162.288 219.343 161.683 219.343 161.079C219.209 160.474 219.276 159.869 219.478 159.264C219.814 158.525 220.351 157.987 221.023 157.651C221.292 157.45 221.628 157.383 221.964 157.315C222.435 157.315 222.905 157.383 223.308 157.584C224.047 157.853 224.787 158.189 225.391 158.659C226.063 159.197 226.534 160.003 226.735 160.877C226.803 161.079 226.668 161.347 226.467 161.415C226.265 161.482 225.996 161.347 225.929 161.146V161.079C225.795 160.407 225.391 159.802 224.854 159.331C224.316 158.928 223.711 158.592 223.039 158.391C222.703 158.256 222.367 158.189 222.031 158.189C221.763 158.189 221.561 158.323 221.359 158.391C220.822 158.659 220.419 159.063 220.15 159.6C220.015 160.071 220.015 160.541 220.083 161.011C220.15 161.549 220.284 162.087 220.486 162.624C221.359 164.707 223.711 165.648 225.727 164.842C225.929 164.775 226.198 164.842 226.265 165.043C226.332 165.245 226.265 165.514 226.063 165.581C225.459 165.85 224.787 165.984 224.249 165.917Z" fill="#282932"/>
<path d="M234.534 156.845C234.534 156.845 237.558 161.146 236.886 161.952C236.214 162.758 234.266 162.288 234.266 162.288" fill="white"/>
<path d="M235.473 162.759C235.003 162.759 234.6 162.691 234.196 162.624C233.995 162.557 233.86 162.288 233.928 162.087C233.995 161.885 234.196 161.818 234.398 161.818C234.936 161.952 236.28 162.087 236.616 161.616C236.75 161.213 235.675 159.063 234.264 157.047C234.129 156.845 234.264 156.576 234.465 156.509C234.6 156.442 234.801 156.442 234.936 156.576C236.145 158.323 238.027 161.28 237.22 162.221C236.75 162.624 236.078 162.826 235.473 162.759Z" fill="#282932"/>
<path d="M231.981 154.657C232.015 154.101 231.711 153.631 231.304 153.607C230.896 153.582 230.539 154.013 230.506 154.569C230.472 155.124 230.776 155.595 231.183 155.619C231.591 155.643 231.948 155.213 231.981 154.657Z" fill="#282932"/>
<path d="M238.443 156.917C238.85 156.89 239.15 156.417 239.113 155.862C239.076 155.306 238.715 154.878 238.308 154.905C237.901 154.932 237.6 155.405 237.638 155.96C237.675 156.516 238.035 156.944 238.443 156.917Z" fill="#282932"/>
<path d="M234.732 165.379C233.052 165.379 230.767 165.111 229.356 163.901C229.155 163.767 229.155 163.498 229.289 163.296C229.423 163.095 229.692 163.095 229.894 163.229C232.179 165.111 236.95 164.371 236.95 164.371C237.151 164.371 237.353 164.506 237.42 164.775C237.42 164.976 237.286 165.178 237.084 165.245C236.278 165.312 235.471 165.379 234.732 165.379Z" fill="#282932"/>
<path d="M236.616 170.688C236.616 170.688 231.307 171.898 228.148 170.083C228.148 170.083 231.576 177.274 236.548 176.534L236.616 170.688Z" fill="#282932"/>
<path d="M235.878 177.005C231.106 177.005 227.948 170.554 227.814 170.285C227.746 170.15 227.746 169.949 227.881 169.814C228.015 169.68 228.217 169.68 228.351 169.747C231.308 171.427 236.415 170.285 236.482 170.285C236.617 170.285 236.751 170.285 236.818 170.352C236.886 170.419 236.953 170.554 236.953 170.688V176.534C236.953 176.736 236.818 176.938 236.617 176.938C236.415 177.005 236.146 177.005 235.878 177.005ZM229.158 170.957C230.3 172.771 232.854 176.333 236.214 176.131V171.158C234.937 171.427 231.711 171.83 229.158 170.957Z" fill="#282932"/>
<path d="M238.428 179.29L238.697 183.792L219.68 180.97L221.024 176.602L238.428 179.29Z" fill="white"/>
<path d="M238.7 184.195L219.615 181.44C219.413 181.373 219.212 181.171 219.279 180.97V180.903L220.623 176.535C220.69 176.333 220.892 176.199 221.093 176.266L238.498 178.954C238.7 178.954 238.834 179.155 238.834 179.357L239.103 183.792C239.103 183.927 239.036 184.061 238.968 184.128C238.968 184.195 238.834 184.195 238.7 184.195ZM220.22 180.634L238.296 183.255L238.095 179.626L221.362 177.005L220.22 180.634Z" fill="#282932"/>
<path d="M212.492 207.984C212.492 207.984 216.591 236.88 218.472 239.299C220.354 241.719 242.127 256.167 242.127 256.167L234.332 263.491C234.332 263.491 208.661 258.048 205.772 252.605C202.882 247.162 198.984 208.186 198.984 208.186" fill="#797B87"/>
<path d="M238.97 250.858H238.903C238.701 250.79 238.567 250.589 238.567 250.387C240.583 241.584 231.309 183.389 231.242 182.851C231.242 182.65 231.377 182.448 231.578 182.381C231.78 182.314 232.049 182.515 232.049 182.717C232.452 185.136 241.389 241.584 239.373 250.589C239.306 250.723 239.172 250.858 238.97 250.858Z" fill="#282932"/>
<path d="M242.125 256.57C242.058 256.57 241.991 256.57 241.923 256.503C239.571 255.159 219.143 242.995 218.067 239.367C216.992 235.738 212.557 200.659 212.355 199.114C212.355 198.912 212.49 198.711 212.759 198.643C212.96 198.643 213.162 198.778 213.229 198.979C213.296 199.315 217.866 235.603 218.941 239.098C219.747 241.92 236.144 252.067 242.394 255.763C242.595 255.898 242.663 256.167 242.528 256.368C242.394 256.503 242.259 256.57 242.125 256.57Z" fill="#282932"/>
<path d="M276.467 104.295C274.653 105.975 273.443 108.125 273.04 110.544C272.973 110.813 272.973 111.082 273.175 111.283C273.309 111.418 273.511 111.418 273.712 111.418C274.451 111.351 275.123 110.88 275.459 110.275C275.258 110.947 274.787 111.552 274.586 112.224C274.384 112.896 274.586 113.837 275.325 114.039C275.93 114.106 276.467 113.904 276.871 113.434C276.602 113.904 276.467 114.375 276.4 114.912C276.333 115.45 276.669 115.987 277.139 116.189C277.811 116.391 278.416 115.853 278.887 115.383C278.08 115.853 278.147 117.197 278.887 117.802C279.693 118.339 280.701 118.339 281.575 117.869C283.389 116.995 284.33 114.979 284.599 112.963C284.935 111.015 284.464 108.999 283.389 107.319C282.583 106.109 281.373 105.235 279.962 104.899C278.819 104.429 277.61 103.219 276.467 104.295Z" fill="white"/>
<path d="M280.229 118.608C279.691 118.608 279.086 118.474 278.683 118.138C278.213 117.734 277.944 117.197 277.944 116.592C277.675 116.659 277.339 116.659 277.07 116.592C276.398 116.323 275.995 115.651 275.995 114.912C275.995 114.71 275.995 114.576 276.062 114.374C275.794 114.442 275.458 114.442 275.189 114.374C274.248 114.106 273.912 112.963 274.181 112.09C274.248 111.955 274.248 111.754 274.315 111.619C274.114 111.686 273.845 111.754 273.643 111.754C273.307 111.821 273.038 111.754 272.77 111.552C272.501 111.216 272.434 110.813 272.501 110.41C272.971 107.923 274.248 105.638 276.062 103.958C277.07 103.018 278.146 103.555 279.086 103.958C279.422 104.093 279.691 104.227 280.027 104.362C281.506 104.765 282.85 105.706 283.723 106.982C284.866 108.73 285.336 110.88 285 112.963C284.664 115.382 283.454 117.331 281.707 118.205C281.304 118.406 280.766 118.541 280.229 118.608ZM278.885 115.987C278.818 116.122 278.818 116.256 278.818 116.39C278.75 116.794 278.952 117.197 279.221 117.466C279.893 117.869 280.766 117.869 281.506 117.466C282.984 116.726 284.059 115.046 284.328 112.896C284.597 111.014 284.261 109.133 283.186 107.52C282.446 106.378 281.304 105.571 279.96 105.235C279.557 105.101 279.221 104.966 278.885 104.765C277.944 104.294 277.406 104.093 276.802 104.63C275.054 106.243 273.912 108.326 273.442 110.611C273.374 110.88 273.442 110.947 273.442 110.947C273.509 110.947 273.576 110.947 273.643 110.947C274.248 110.88 274.786 110.544 275.122 110.006C275.256 109.805 275.458 109.738 275.659 109.872C275.861 109.939 275.928 110.141 275.928 110.342C275.794 110.678 275.659 111.082 275.458 111.418C275.323 111.686 275.189 112.022 275.054 112.358C274.92 112.896 275.054 113.501 275.458 113.635C275.861 113.77 276.264 113.434 276.667 113.098C276.802 112.963 277.003 112.963 277.205 113.098C277.339 113.232 277.406 113.434 277.339 113.635C277.07 114.038 276.936 114.509 276.936 114.979C276.936 115.315 277.07 115.651 277.406 115.853C277.675 115.92 277.944 115.853 278.347 115.517C278.482 115.315 278.683 115.181 278.885 115.046C279.086 114.979 279.288 114.979 279.422 115.181C279.557 115.315 279.557 115.584 279.355 115.718C279.154 115.786 279.019 115.92 278.885 115.987Z" fill="#282932"/>
<path d="M188.367 237.888L189.308 265.238H139.445L141.193 236.141L188.367 237.888Z" fill="#282932"/>
<path d="M189.309 265.709H139.446C139.312 265.709 139.245 265.642 139.177 265.574C139.11 265.507 139.043 265.373 139.043 265.238L140.79 236.141C140.79 235.939 140.992 235.738 141.193 235.738L188.368 237.485C188.569 237.485 188.771 237.686 188.771 237.888L189.712 265.238C189.712 265.373 189.645 265.44 189.577 265.574C189.51 265.642 189.443 265.709 189.309 265.709ZM139.917 264.835H188.905L187.965 238.291L141.597 236.544L139.917 264.835Z" fill="#282932"/>
<path d="M190.452 177.946L190.183 178.08V178.013V177.946C190.183 177.946 174.727 171.696 171.233 170.352C171.098 170.285 171.031 170.285 170.897 170.218L170.695 170.15C170.359 170.083 170.09 170.016 169.754 170.016C169.62 170.016 169.486 170.016 169.351 170.016C169.082 170.016 168.814 170.016 168.478 169.949C167.604 169.949 166.462 169.949 165.252 169.949C163.572 169.949 161.623 170.016 159.876 170.15C158.532 170.218 157.255 170.285 156.18 170.352C155.71 170.419 155.239 170.419 154.769 170.419C154.702 170.419 154.702 170.419 154.702 170.419C154.164 170.486 153.694 170.486 153.358 170.486L152.887 170.554C152.484 170.621 152.215 170.621 152.215 170.621C152.215 170.621 140.388 176.87 139.716 178.013C139.514 178.349 129.636 183.389 129.031 237.955H148.99C149.191 239.501 150.132 240.845 151.476 241.651C159.809 240.912 168.142 239.635 176.34 237.955H188.436L188.503 235.133C192.804 233.99 196.097 232.848 197.306 231.84C202.414 227.606 190.452 177.946 190.452 177.946ZM146.705 227.606C146.705 227.539 146.772 227.539 146.839 227.674C146.772 227.674 146.705 227.674 146.705 227.606Z" fill="#797B87"/>
<path d="M139.648 220.281C139.514 220.281 139.38 220.214 139.312 220.08C137.632 217.056 131.584 215.981 131.517 215.981C131.316 215.914 131.114 215.712 131.181 215.51C131.248 215.309 131.45 215.107 131.652 215.174C131.92 215.242 138.17 216.317 139.984 219.677C140.119 219.878 140.052 220.147 139.85 220.214C139.783 220.282 139.716 220.281 139.648 220.281Z" fill="#282932"/>
<path d="M146.838 227.674C146.77 227.674 146.703 227.674 146.703 227.606C146.703 227.539 146.77 227.606 146.838 227.674Z" fill="#797B87"/>
<path d="M141.865 228.279C141.597 228.211 141.395 228.01 141.462 227.808L147.577 184.464C147.577 184.263 147.846 184.061 148.048 184.128C148.249 184.195 148.451 184.397 148.384 184.599L142.269 227.943C142.269 228.144 142.134 228.279 141.865 228.279Z" fill="#282932"/>
<path d="M174.256 149.453C175.063 147.571 175.332 145.085 175.668 143.136C175.936 141.658 176.541 139.238 175.869 137.76C175.399 136.819 173.92 135.878 172.98 135.341C172.509 131.578 169.015 129.293 165.52 129.158C163.37 129.158 161.287 129.494 159.271 130.234C157.255 130.906 155.172 131.712 154.096 133.526C153.895 133.93 153.693 134.333 153.424 134.669C153.088 135.005 152.618 135.274 152.215 135.542C149.46 137.357 149.728 139.843 150.064 142.666C150.468 145.69 151.476 148.714 151.812 151.67C155.306 151.872 158.868 152.208 162.362 152.141C165.117 152.141 172.778 152.746 174.256 149.453Z" fill="#797B87"/>
<path d="M165.184 152.611C164.646 152.611 164.109 152.611 163.706 152.611C163.302 152.611 162.698 152.611 162.362 152.611C159.472 152.678 156.582 152.477 153.76 152.275L151.744 152.141C151.542 152.141 151.341 151.939 151.341 151.738C151.139 150.192 150.87 148.579 150.467 147.101C150.131 145.69 149.795 144.211 149.594 142.733C149.258 139.843 148.922 137.155 151.878 135.206L152.214 135.005C152.483 134.87 152.752 134.669 153.021 134.4C153.222 134.198 153.357 133.93 153.491 133.661L153.693 133.258C154.768 131.376 156.918 130.435 159.069 129.763C161.085 129.024 163.302 128.621 165.453 128.621C168.947 128.822 172.71 131.04 173.315 135.005C174.122 135.475 175.667 136.416 176.205 137.491C176.81 138.835 176.474 140.717 176.205 142.262C176.138 142.531 176.07 142.8 176.07 143.069C176.003 143.472 175.936 143.808 175.869 144.211C175.667 146.026 175.264 147.84 174.592 149.52C173.382 152.275 168.746 152.611 165.184 152.611ZM162.63 151.738H163.638C166.797 151.805 172.643 151.872 173.853 149.251C174.458 147.638 174.861 145.891 175.062 144.144C175.13 143.741 175.197 143.338 175.264 143.002C175.331 142.733 175.331 142.464 175.398 142.195C175.667 140.851 176.003 138.97 175.466 137.894C175.13 137.155 173.853 136.282 172.778 135.677C172.643 135.61 172.576 135.475 172.576 135.341C172.173 131.712 168.678 129.696 165.453 129.494C163.37 129.494 161.286 129.83 159.338 130.57C157.322 131.242 155.373 132.048 154.432 133.661L154.23 133.997C154.096 134.333 153.894 134.602 153.693 134.87C153.424 135.139 153.088 135.408 152.685 135.61L152.416 135.811C149.862 137.491 150.131 139.709 150.467 142.531C150.669 143.942 151.005 145.421 151.274 146.765C151.61 148.243 151.946 149.654 152.147 151.133L153.827 151.267C156.582 151.469 159.539 151.67 162.362 151.603L162.63 151.738Z" fill="#282932"/>
<path d="M155.506 149.923C155.036 146.093 148.719 144.95 148.854 149.453C148.854 150.998 149.391 152.544 150.399 153.754C151.474 154.963 153.087 155.434 154.633 154.896" fill="white"/>
<path d="M153.424 155.501C152.148 155.501 150.938 154.963 150.132 154.022C149.056 152.746 148.452 151.133 148.452 149.453C148.384 147.168 149.796 146.227 151.14 146.093C153.424 145.958 155.508 147.571 155.844 149.856C155.844 150.058 155.709 150.259 155.44 150.326C155.239 150.326 155.037 150.192 154.97 149.99C154.634 148.176 153.021 146.832 151.14 146.966C149.863 147.034 149.124 147.974 149.191 149.453C149.191 150.931 149.661 152.342 150.602 153.485C151.543 154.56 153.021 154.963 154.365 154.56C154.567 154.493 154.836 154.56 154.903 154.762C154.97 154.963 154.903 155.232 154.701 155.299C154.298 155.434 153.828 155.501 153.424 155.501Z" fill="#282932"/>
<path d="M169.215 149.923C169.685 146.093 176.002 144.95 175.868 149.453C175.868 150.998 175.33 152.544 174.322 153.754C173.247 154.963 171.634 155.434 170.088 154.896" fill="white"/>
<path d="M171.3 155.501C170.829 155.501 170.359 155.434 169.956 155.232C169.754 155.165 169.62 154.896 169.754 154.694C169.888 154.493 170.09 154.358 170.292 154.493C171.636 154.896 173.114 154.493 174.055 153.418C174.996 152.275 175.466 150.864 175.466 149.386C175.533 147.907 174.794 147.034 173.517 146.899C171.636 146.765 170.023 148.109 169.687 149.923C169.62 150.125 169.418 150.326 169.216 150.259C169.015 150.259 168.813 149.99 168.88 149.789C169.216 147.504 171.3 145.891 173.584 146.026C174.928 146.16 176.407 147.101 176.272 149.386C176.272 151.066 175.668 152.678 174.592 153.955C173.719 154.963 172.576 155.501 171.3 155.501Z" fill="#282932"/>
<path d="M155.039 169.075C155.039 169.075 157.929 170.554 162.969 170.755C168.009 170.957 168.815 169.546 168.815 169.546L168.681 166.858L168.412 160.608L168.143 154.829L156.719 154.426L156.181 159.13L156.047 160.675L155.039 169.075Z" fill="white"/>
<path d="M163.774 171.158C163.505 171.158 163.237 171.158 162.901 171.158C157.861 170.957 154.904 169.546 154.837 169.478C154.702 169.411 154.568 169.21 154.635 169.075L156.315 154.426C156.315 154.224 156.517 154.022 156.718 154.022L168.142 154.426C168.344 154.426 168.545 154.627 168.545 154.829L169.217 169.546C169.217 169.613 169.217 169.68 169.15 169.814C169.083 169.882 168.209 171.158 163.774 171.158ZM155.441 168.806C157.793 169.747 160.347 170.285 162.901 170.285C166.798 170.419 168.008 169.613 168.277 169.344L167.672 155.232L156.987 154.829L155.441 168.806Z" fill="#282932"/>
<path d="M155.977 160.675C156.917 162.086 158.127 163.296 159.605 164.102C162.025 165.514 165.653 167.194 168.61 166.858L168.341 160.608C166.124 160.81 163.906 160.742 161.756 160.406C159.807 160.272 157.925 159.802 156.111 159.13L155.977 160.675Z" fill="#282932"/>
<path d="M167.805 167.328C164.646 167.328 161.286 165.581 159.405 164.506C157.859 163.632 156.582 162.422 155.641 160.944C155.574 160.877 155.574 160.81 155.574 160.675L155.709 159.13C155.709 158.995 155.776 158.861 155.91 158.794C156.045 158.726 156.179 158.726 156.313 158.794C158.061 159.466 159.942 159.936 161.824 160.07C163.974 160.406 166.125 160.474 168.342 160.272C168.477 160.272 168.544 160.272 168.678 160.339C168.745 160.406 168.813 160.541 168.813 160.608L169.081 166.858C169.081 167.059 168.947 167.261 168.745 167.261C168.409 167.328 168.073 167.328 167.805 167.328ZM156.381 160.608C157.254 161.885 158.397 163.027 159.808 163.766C161.286 164.64 165.049 166.656 168.208 166.522L167.939 161.146C165.856 161.28 163.773 161.213 161.689 160.944C159.875 160.81 158.128 160.406 156.448 159.869L156.381 160.608Z" fill="#282932"/>
<path d="M172.377 139.574L171.907 153.418C171.907 154.022 171.839 154.627 171.638 155.165C170.697 159.197 167.001 162.019 162.835 161.885L161.827 161.818C157.929 161.683 154.636 158.995 153.628 155.232C153.427 154.426 153.359 153.619 153.359 152.746L153.83 138.835C153.83 138.835 155.98 141.658 162.163 141.59C165.724 141.792 169.151 141.053 172.377 139.574Z" fill="white"/>
<path d="M163.167 162.355H162.831L161.823 162.288C156.783 162.086 152.818 157.853 152.953 152.813L153.423 138.97C153.423 138.768 153.557 138.634 153.692 138.566C153.893 138.499 154.028 138.566 154.162 138.701C154.162 138.701 156.245 141.322 162.025 141.322H162.159C165.586 141.322 169.013 140.65 172.105 139.238C172.239 139.171 172.373 139.171 172.508 139.238C172.642 139.306 172.709 139.44 172.709 139.642L172.239 153.485C172.105 158.39 168.073 162.355 163.167 162.355ZM154.229 139.91L153.759 152.813C153.625 157.382 157.186 161.28 161.823 161.414L162.831 161.482C167.401 161.616 171.298 158.054 171.433 153.418L171.903 140.246C168.812 141.523 165.519 142.128 162.159 142.128C157.791 142.128 155.372 140.784 154.229 139.91Z" fill="#282932"/>
<path d="M162.697 147.37C162.697 147.37 165.587 153.686 164.31 153.821C163.033 153.955 161.219 153.014 161.219 153.014" fill="white"/>
<path d="M164.11 154.224C163.035 154.157 162.027 153.821 161.086 153.351C160.885 153.216 160.817 153.015 160.885 152.813C160.952 152.611 161.221 152.544 161.422 152.611C162.296 153.082 163.237 153.351 164.177 153.418C164.379 152.88 163.505 150.192 162.296 147.504C162.229 147.303 162.296 147.034 162.497 146.967C162.699 146.899 162.968 146.967 163.035 147.168C163.774 148.848 165.454 152.813 164.849 153.888C164.715 154.09 164.513 154.224 164.312 154.224H164.11Z" fill="#282932"/>
<path d="M159.003 145.085C159.339 145.085 159.608 145.69 159.608 146.429C159.608 147.168 159.339 147.773 159.003 147.773C158.667 147.773 158.398 147.168 158.398 146.429C158.398 145.69 158.667 145.085 159.003 145.085Z" fill="#282932"/>
<path d="M166.995 147.773C167.329 147.773 167.6 147.171 167.6 146.429C167.6 145.687 167.329 145.085 166.995 145.085C166.661 145.085 166.391 145.687 166.391 146.429C166.391 147.171 166.661 147.773 166.995 147.773Z" fill="#282932"/>
<path d="M172.375 166.925H152.215V171.293H172.375V166.925Z" fill="white"/>
<path d="M172.376 171.696H152.216C152.014 171.696 151.812 171.494 151.812 171.293V166.925C151.812 166.723 152.014 166.521 152.216 166.521H172.376C172.577 166.521 172.779 166.723 172.779 166.925V171.293C172.779 171.494 172.577 171.696 172.376 171.696ZM152.619 170.889H171.973V167.328H152.619V170.889Z" fill="#282932"/>
<path d="M146.838 227.674C146.77 227.674 146.703 227.674 146.703 227.606C146.703 227.539 146.77 227.606 146.838 227.674Z" fill="#797B87"/>
<path d="M149.794 232.109C149.592 232.109 149.391 231.907 149.391 231.706C149.391 231.504 149.525 231.37 149.727 231.302C163.973 227.136 179.496 222.029 180.168 220.685C180.84 219.139 179.832 199.382 179.026 186.413C179.026 186.211 179.16 186.01 179.429 185.942C179.631 185.942 179.832 186.077 179.899 186.346C180.101 189.638 181.983 218.803 180.975 220.954C179.967 223.104 154.968 230.563 149.995 232.042C149.861 232.109 149.861 232.109 149.794 232.109Z" fill="#282932"/>
<path d="M133.131 199.382H132.862C132.123 199.45 131.518 198.912 131.451 198.24C131.384 197.568 131.921 196.896 132.593 196.829C132.661 196.829 132.795 196.829 132.862 196.829C146.235 195.418 152.552 187.891 153.963 181.238C154.971 176.602 153.627 172.301 150.67 170.621C147.713 168.941 144.421 169.21 141.061 171.562C139.381 172.771 137.835 174.25 136.625 175.93C136.222 176.534 135.416 176.669 134.811 176.266C134.206 175.862 134.072 175.056 134.475 174.451C137.23 170.486 144.421 164.17 151.947 168.403C155.912 170.621 157.726 176.064 156.517 181.776C154.904 189.37 147.915 197.904 133.131 199.382Z" fill="white"/>
<path d="M132.726 199.853C131.785 199.786 131.113 198.912 131.18 197.971C131.248 197.232 131.785 196.627 132.524 196.493C132.592 196.493 132.659 196.493 132.726 196.493C145.964 195.149 152.147 187.69 153.491 181.238C154.432 176.736 153.222 172.637 150.4 171.091C147.577 169.546 144.419 169.747 141.26 172.032C139.58 173.242 138.102 174.653 136.892 176.266C136.355 177.005 135.28 177.206 134.54 176.669C133.801 176.131 133.6 175.056 134.137 174.317C136.96 170.285 144.419 163.766 152.147 168.134C156.246 170.486 158.195 176.064 156.918 181.978C155.305 189.638 148.182 198.374 133.196 199.92H132.928L132.726 199.853ZM146.704 169.142C148.182 169.142 149.593 169.546 150.803 170.285C153.961 172.099 155.372 176.534 154.297 181.373C152.886 188.16 146.435 195.888 132.86 197.299H132.726H132.659C132.188 197.299 131.785 197.77 131.785 198.24C131.852 198.71 132.256 199.046 132.726 199.046H132.995C147.51 197.568 154.364 189.168 155.977 181.776C157.187 176.198 155.44 171.024 151.609 168.806C144.419 164.707 137.43 170.89 134.742 174.72C134.473 175.123 134.54 175.661 134.944 175.93C135.347 176.198 135.884 176.131 136.153 175.728C137.43 173.981 138.976 172.502 140.723 171.293C142.537 169.949 144.62 169.21 146.704 169.142Z" fill="#282932"/>
<path d="M122.581 200.525C107.797 202.071 99.2627 195.149 96.1715 188.093C93.7523 182.717 94.4915 177.072 97.8515 174.048C104.303 168.336 112.636 173.107 116.13 176.4C116.668 176.871 116.668 177.677 116.197 178.215C115.727 178.752 114.92 178.752 114.383 178.282C112.837 176.871 111.023 175.728 109.141 174.922C105.378 173.309 102.152 173.645 99.5315 175.997C96.9107 178.349 96.5747 182.717 98.4563 187.085C101.212 193.267 108.872 199.383 122.245 198.039H122.514C123.186 197.971 123.858 198.442 123.925 199.181C123.992 199.853 123.522 200.525 122.783 200.592L122.581 200.525Z" fill="white"/>
<path d="M118.547 201.13C106.048 201.13 98.5885 194.678 95.7661 188.227C93.2797 182.65 94.0189 176.803 97.5805 173.712C104.233 167.798 112.835 172.704 116.464 176.064C117.136 176.736 117.203 177.811 116.531 178.483C115.859 179.155 114.784 179.222 114.112 178.55C112.566 177.206 110.886 176.064 109.004 175.258C105.376 173.712 102.284 174.048 99.8653 176.266C97.4461 178.483 97.0429 182.65 98.9245 186.883C101.612 192.931 109.139 198.912 122.31 197.568H122.579C123.52 197.434 124.326 198.106 124.461 199.046C124.528 199.517 124.393 199.92 124.125 200.323C123.856 200.659 123.453 200.928 122.982 200.928H122.713C121.302 201.062 119.958 201.13 118.547 201.13ZM104.771 171.763C102.284 171.763 99.9325 172.637 98.1181 174.317C94.8253 177.206 94.2205 182.65 96.5053 187.891C99.5293 194.746 107.996 201.6 122.512 200.122H122.781C122.982 200.122 123.251 199.987 123.385 199.786C123.52 199.584 123.587 199.382 123.587 199.114C123.52 198.643 123.117 198.307 122.646 198.374H122.444C108.803 199.786 100.94 193.536 98.1181 187.219C96.1021 182.717 96.5725 178.08 99.2605 175.661C101.948 173.242 105.376 172.906 109.273 174.518C111.222 175.392 113.036 176.534 114.649 177.946C114.985 178.282 115.59 178.214 115.859 177.811C116.128 177.475 116.128 176.938 115.792 176.669C113.574 174.518 109.273 171.763 104.771 171.763Z" fill="#282932"/>
<path d="M142.872 235.133L120.36 237.485C119.554 237.552 118.814 236.947 118.747 236.208C118.68 235.738 118.882 235.267 119.218 234.999L127.08 227.875H127.147L124.19 199.383L131.179 198.643L134.136 227.136H134.27L143.477 232.512C144.149 232.915 144.35 233.856 143.947 234.528C143.746 234.864 143.342 235.066 142.872 235.133Z" fill="white"/>
<path d="M120.225 237.888C119.217 237.888 118.344 237.015 118.344 236.007C118.344 235.469 118.545 234.999 118.949 234.663L126.744 227.607L123.854 199.383C123.854 199.248 123.854 199.181 123.921 199.047C123.989 198.979 124.123 198.912 124.19 198.979L131.179 198.24C131.381 198.24 131.582 198.375 131.649 198.576L134.606 226.8L143.678 232.176C144.417 232.579 144.753 233.386 144.552 234.192C144.417 234.999 143.745 235.603 142.939 235.671L120.427 237.955H120.225V237.888ZM127.349 228.144L119.553 235.267C119.15 235.671 119.083 236.343 119.486 236.746C119.688 237.015 120.024 237.149 120.36 237.082L142.872 234.73C143.477 234.663 143.88 234.192 143.813 233.587C143.813 233.251 143.611 232.983 143.275 232.781L134.203 227.472C134.136 227.472 134.001 227.405 133.934 227.405C133.867 227.338 133.8 227.203 133.8 227.136L130.91 199.047L124.728 199.719L127.617 227.808C127.617 227.943 127.483 228.144 127.349 228.144Z" fill="#282932"/>
<path d="M107.258 169.815L141.866 166.253L144.487 191.52C144 199.5 136 206.909 131.987 206.909L125.335 207.581C118 206 112.5 202 109.946 195.082L107.258 169.815Z" fill="white"/>
<path d="M126.81 207.783C117.671 207.783 110.077 200.861 109.136 191.789L106.852 169.882C106.852 169.747 106.852 169.68 106.919 169.613C106.986 169.546 107.12 169.479 107.188 169.479L141.728 165.917C141.93 165.917 142.132 166.051 142.199 166.32L144.484 188.295C145.492 198.039 138.368 206.775 128.624 207.85C128.02 207.783 127.415 207.783 126.81 207.783ZM107.725 170.218L109.943 191.722C110.884 201.063 119.216 207.783 128.557 206.842C137.898 205.901 144.618 197.568 143.677 188.227L141.46 166.723L107.725 170.218Z" fill="#282932"/>
<path d="M125.065 172.906L128.963 181.642L138.438 180.634L131.315 187.018L135.213 195.754L126.947 190.983L119.824 197.299L121.84 188.026L113.574 183.187L123.049 182.247L125.065 172.906Z" fill="url(#paint2_linear_4380_14587)"/>
<path d="M119.823 197.77C119.756 197.77 119.689 197.77 119.621 197.702C119.487 197.635 119.353 197.434 119.42 197.232L121.369 188.227L113.372 183.59C113.237 183.523 113.103 183.322 113.17 183.12C113.237 182.918 113.372 182.784 113.506 182.784L122.713 181.843L124.661 172.838C124.729 172.637 124.863 172.502 124.997 172.502C125.199 172.502 125.333 172.57 125.401 172.771L129.164 181.238L138.303 180.298C138.505 180.298 138.639 180.365 138.706 180.566C138.773 180.701 138.773 180.902 138.639 181.037L131.785 187.219L135.548 195.619C135.615 195.754 135.615 195.955 135.481 196.09C135.346 196.224 135.145 196.224 135.01 196.157L127.013 191.52L120.159 197.702C120.025 197.702 119.957 197.702 119.823 197.77ZM114.917 183.523L122.041 187.69C122.175 187.757 122.309 187.958 122.242 188.16L120.495 196.224L126.61 190.714C126.745 190.579 126.946 190.579 127.081 190.646L134.204 194.813L130.844 187.286C130.777 187.152 130.777 186.95 130.911 186.816L137.026 181.306L128.828 182.179C128.626 182.179 128.492 182.112 128.425 181.91L125.065 174.384L123.317 182.448C123.25 182.65 123.116 182.784 122.981 182.784L114.917 183.523Z" fill="#282932"/>
<path d="M150.264 232.243C150.264 232.243 146.434 232.714 144.149 231.437C141.864 230.16 136.556 227.539 138.034 230.093C139.512 232.646 141.932 233.856 141.394 233.856C140.856 233.856 127.08 232.579 126.879 234.662C126.677 236.746 130.44 238.224 132.591 239.635C134.741 241.046 151.34 241.584 151.34 241.584L150.264 232.243Z" fill="white"/>
<path d="M151.409 241.987C149.729 241.92 134.676 241.45 132.458 239.971C131.988 239.635 131.383 239.299 130.778 238.963C128.628 237.754 126.41 236.477 126.545 234.595C126.612 233.52 128.359 232.512 140.388 233.319C139.313 232.445 138.439 231.437 137.7 230.227C137.297 229.623 137.297 229.085 137.633 228.816C138.574 227.808 143.076 230.295 144.42 231.034C146.503 232.243 150.199 231.773 150.266 231.773C150.401 231.773 150.468 231.773 150.602 231.84C150.67 231.907 150.737 231.975 150.737 232.109L151.879 241.45C151.879 241.584 151.879 241.719 151.745 241.786C151.61 241.92 151.543 241.987 151.409 241.987ZM132.929 233.856C127.486 233.856 127.351 234.595 127.351 234.663C127.284 236.007 129.3 237.216 131.114 238.224C131.719 238.56 132.324 238.896 132.862 239.299C134.474 240.375 146.033 240.979 150.938 241.181L149.863 232.714C148.788 232.781 145.831 232.915 143.95 231.84C141.463 230.429 138.842 229.354 138.238 229.488C138.305 229.623 138.372 229.757 138.439 229.891C139.178 231.101 140.186 232.176 141.329 233.05C141.866 233.453 142.068 233.655 141.934 233.991C141.866 234.192 141.665 234.259 141.463 234.259L140.791 234.192C137.364 233.923 134.878 233.856 132.929 233.856Z" fill="#282932"/>
<path d="M129.838 209.53C130.107 209.866 129.838 210.336 129.57 210.672C128.696 211.882 127.688 212.957 126.478 213.83C127.486 213.091 128.629 212.554 129.838 212.419C130.309 212.352 130.914 212.486 130.914 212.957C130.846 213.091 130.779 213.293 130.645 213.36C129.771 214.234 128.898 215.04 127.957 215.846C129.099 215.309 130.578 214.771 131.586 215.51C131.72 215.578 131.854 215.779 131.854 215.914C131.922 216.182 131.653 216.451 131.451 216.653C130.51 217.392 129.57 218.064 128.562 218.669C129.637 218.131 130.846 218.064 131.989 218.534C132.19 218.602 132.325 218.736 132.392 218.87C132.459 219.005 132.392 219.206 132.325 219.341C131.586 221.626 129.502 223.171 127.419 224.314C126.411 224.851 125.202 225.389 124.126 224.986C121.035 223.91 121.102 217.19 121.774 214.637C122.178 213.293 123.051 212.15 124.261 211.344C125.067 210.806 128.965 208.186 129.838 209.53Z" fill="white"/>
<path d="M124.997 225.658C124.661 225.658 124.325 225.59 124.057 225.523C120.629 224.314 120.764 217.258 121.436 214.637C121.906 213.226 122.847 211.949 124.057 211.142C124.124 211.142 127.484 208.522 129.365 208.79C129.701 208.858 130.037 209.059 130.239 209.328C130.441 209.664 130.575 210.134 129.97 210.941C129.634 211.411 129.298 211.814 128.962 212.218C129.231 212.15 129.567 212.083 129.836 212.016C130.306 211.949 130.777 212.083 131.113 212.352C131.314 212.554 131.381 212.755 131.381 213.024C131.314 213.293 131.18 213.494 130.978 213.696C130.575 214.099 130.239 214.435 129.836 214.838C130.508 214.704 131.247 214.838 131.852 215.242C132.121 215.376 132.255 215.645 132.322 215.914C132.322 216.384 132.121 216.787 131.717 216.989C131.381 217.258 131.045 217.526 130.642 217.795C131.18 217.795 131.65 217.93 132.121 218.131C132.389 218.198 132.658 218.467 132.793 218.736C132.86 219.005 132.86 219.274 132.725 219.475C132.053 221.491 130.373 223.171 127.618 224.717C126.879 225.254 125.938 225.523 124.997 225.658ZM129.029 209.597C127.753 209.597 125.333 211.142 124.594 211.747C123.519 212.486 122.645 213.562 122.242 214.771C121.637 217.258 121.57 223.642 124.325 224.65C125.266 224.986 126.409 224.515 127.282 224.045C129.903 222.634 131.449 221.088 131.986 219.274C132.053 219.139 132.053 219.072 132.053 219.072C132.053 219.072 132.053 219.005 131.852 218.938C130.844 218.534 129.769 218.602 128.828 219.072C128.626 219.206 128.357 219.139 128.29 218.938C128.156 218.736 128.223 218.467 128.425 218.4C129.433 217.795 130.373 217.19 131.247 216.451C131.516 216.25 131.516 216.115 131.516 216.115C131.516 216.115 131.516 216.048 131.381 215.981C130.575 215.376 129.231 215.846 128.223 216.317C128.021 216.384 127.753 216.25 127.685 216.048C127.618 215.914 127.685 215.779 127.753 215.645C128.693 214.906 129.567 214.032 130.441 213.158C130.508 213.091 130.575 213.024 130.575 212.957C130.373 212.89 130.172 212.822 129.97 212.89C128.895 213.024 127.887 213.427 127.013 214.099L126.812 214.234C126.61 214.368 126.341 214.301 126.207 214.166C126.073 213.965 126.14 213.696 126.274 213.562L126.476 213.427C127.551 212.621 128.492 211.613 129.231 210.538C129.433 210.202 129.567 209.933 129.433 209.866C129.365 209.731 129.231 209.664 129.097 209.664C129.164 209.597 129.097 209.597 129.029 209.597Z" fill="#282932"/>
<path d="M162.899 228.01C162.698 228.01 162.496 227.808 162.496 227.606V171.293C162.496 171.091 162.698 170.89 162.899 170.89C163.101 170.89 163.303 171.091 163.303 171.293V227.606C163.37 227.808 163.168 228.01 162.899 228.01Z" fill="#282932"/>
<path d="M163.504 156.576C161.756 156.576 160.076 155.568 159.203 154.022C159.068 153.821 159.136 153.552 159.337 153.418C159.539 153.283 159.808 153.35 159.942 153.552C160.681 154.896 162.16 155.77 163.705 155.702C163.907 155.635 164.176 155.837 164.176 156.038C164.243 156.24 164.041 156.509 163.84 156.509H163.772C163.84 156.576 163.705 156.576 163.504 156.576Z" fill="#282932"/>
<path d="M131.38 213.293C131.447 214.099 131.783 214.839 132.455 215.309C132.657 215.443 132.926 215.511 133.127 215.443C134.807 215.175 134.942 210.672 134.068 209.53C133.463 208.791 132.388 208.723 131.649 209.261C130.708 210.202 131.246 212.218 131.38 213.293Z" fill="white"/>
<path d="M132.994 215.914C132.726 215.914 132.457 215.846 132.255 215.712C131.516 215.174 131.046 214.301 130.978 213.36L130.911 212.957C130.71 211.747 130.374 209.933 131.382 208.992C131.785 208.656 132.322 208.454 132.86 208.522C133.465 208.589 134.002 208.858 134.338 209.261C135.078 210.134 135.145 212.688 134.54 214.368C134.137 215.443 133.532 215.779 133.129 215.846C133.129 215.914 133.062 215.914 132.994 215.914ZM131.785 213.226C131.785 213.898 132.121 214.57 132.658 214.973C132.793 215.04 132.86 215.107 132.994 215.04C133.398 214.973 133.666 214.435 133.801 214.099C134.338 212.688 134.204 210.403 133.734 209.798C133.465 209.53 133.129 209.328 132.793 209.328C132.457 209.261 132.121 209.395 131.919 209.597C131.247 210.202 131.583 211.814 131.718 212.755L131.785 213.226Z" fill="#282932"/>
<path d="M95.764 94.6178C95.6296 94.6178 95.5624 94.5506 95.4952 94.4834C94.6216 93.4754 94.9576 91.9298 95.8312 91.1234C96.7048 90.3842 97.7128 89.9138 98.788 89.645C100.132 89.1746 101.61 88.9058 103.022 88.973C103.425 88.2338 104.097 87.629 104.836 87.1586C106.18 86.4866 107.658 86.0162 109.204 85.8818C109.406 85.8818 109.607 86.0162 109.674 86.2178C109.674 86.4194 109.54 86.621 109.338 86.6882C107.927 86.8226 106.516 87.2258 105.239 87.8306C104.702 88.1666 104.231 88.5698 103.895 89.1074C104.903 89.3762 105.777 90.1154 106.314 90.989C106.718 91.661 106.785 92.4674 106.583 93.2066C106.583 93.2738 106.449 93.4082 106.382 93.4082C105.642 93.7442 104.836 93.7442 104.164 93.341C103.29 92.9378 102.686 92.0642 102.551 91.1234C102.484 90.653 102.551 90.1154 102.686 89.7122C101.409 89.7122 100.199 89.981 98.9896 90.3842C98.0488 90.5858 97.108 90.989 96.3688 91.661C95.764 92.2658 95.4952 93.341 96.0328 93.9458C96.1672 94.0802 96.1672 94.349 96.0328 94.4834C95.8984 94.6178 95.8312 94.6178 95.764 94.6178ZM103.492 89.8466C103.358 90.2498 103.29 90.653 103.358 91.0562C103.492 91.7282 103.895 92.333 104.567 92.669C104.97 92.8706 105.441 92.9378 105.844 92.8034C105.911 92.333 105.844 91.7954 105.575 91.3922C105.172 90.653 104.433 90.1154 103.626 89.8466H103.492Z" fill="#EEE420"/>
<path d="M195.354 92.9378C195.287 92.9378 195.22 92.9378 195.153 92.8706C194.951 92.7362 194.951 92.5346 195.018 92.333C195.69 91.325 195.69 89.981 195.085 88.973C194.951 88.7714 194.817 88.637 194.749 88.4354C194.481 88.0994 194.279 87.7634 194.077 87.3602C193.204 85.2098 195.556 83.3954 197.773 82.5218C197.975 82.4546 198.177 82.5218 198.311 82.7234C198.378 82.925 198.311 83.1266 198.109 83.261C196.564 83.8658 194.145 85.3442 194.817 87.0914C194.951 87.4274 195.153 87.6962 195.354 87.965C195.489 88.1666 195.623 88.301 195.757 88.5026C196.564 89.7794 196.497 91.4594 195.69 92.7362C195.556 92.8706 195.421 92.9378 195.354 92.9378Z" fill="#00D885"/>
<path d="M152.079 95.4241C151.944 95.4241 151.81 95.3569 151.743 95.2225C150.802 93.4081 150.533 91.3249 151.071 89.3089C151.138 89.1073 151.34 88.9729 151.541 88.9729C151.743 89.0401 151.877 89.2417 151.877 89.4433C151.877 89.4433 151.877 89.4433 151.877 89.5105C151.407 91.3249 151.608 93.2065 152.482 94.8193C152.549 95.0209 152.482 95.2225 152.348 95.3569C152.28 95.4241 152.213 95.4241 152.079 95.4241Z" fill="#D1D3D4"/>
<path d="M113.641 131.578C113.44 131.578 113.238 131.376 113.238 131.175C113.238 131.04 113.305 130.906 113.44 130.839C115.59 129.763 118.009 129.629 120.294 130.435C120.496 130.503 120.563 130.771 120.496 130.973C120.429 131.175 120.227 131.242 120.025 131.175C118.009 130.503 115.725 130.637 113.776 131.578C113.776 131.511 113.709 131.578 113.641 131.578Z" fill="#00D885"/>
<path d="M208.595 118.675C208.393 118.675 208.191 118.541 208.191 118.272C208.191 118.071 208.326 117.869 208.527 117.869L215.516 116.323C215.718 116.256 215.919 116.391 215.987 116.592C216.054 116.794 215.919 116.995 215.651 117.063L208.662 118.608L208.595 118.675Z" fill="#D1D3D4"/>
<path d="M169.752 118.272C168.677 118.272 167.601 117.936 166.661 117.332C165.384 116.525 164.443 115.316 164.107 113.837C164.04 113.636 164.174 113.434 164.443 113.367C164.645 113.3 164.846 113.434 164.913 113.703C165.585 116.256 168.139 117.869 170.76 117.399C170.961 117.332 171.163 117.466 171.23 117.668C171.297 117.869 171.163 118.071 170.961 118.138C170.491 118.205 170.088 118.272 169.752 118.272Z" fill="#EEE420"/>
<path d="M240.045 127.747C239.978 127.747 239.91 127.747 239.91 127.68C239.709 127.613 239.642 127.344 239.709 127.142C240.65 125.126 242.195 123.446 244.144 122.304C244.346 122.237 244.547 122.304 244.682 122.506C244.749 122.64 244.682 122.842 244.547 122.976C242.733 123.984 241.322 125.597 240.448 127.478C240.314 127.68 240.179 127.747 240.045 127.747Z" fill="#00D885"/>
<path d="M263.836 198.375C263.701 198.375 263.567 198.307 263.5 198.173C263.365 197.971 263.432 197.77 263.634 197.635C265.448 196.426 267.8 196.359 269.749 197.367C269.951 197.501 270.018 197.703 269.884 197.904C269.749 198.106 269.548 198.173 269.346 198.039C267.666 197.165 265.65 197.232 264.037 198.307C264.037 198.307 263.903 198.375 263.836 198.375Z" fill="#EEE420"/>
<path d="M47.9855 240.778C47.9183 240.778 47.8511 240.778 47.8511 240.778C46.6415 240.24 45.2303 240.106 43.8863 240.442C43.6847 240.509 43.4831 240.375 43.4159 240.173C43.3487 239.971 43.4831 239.77 43.6847 239.703C45.1631 239.299 46.7759 239.434 48.1871 240.106C48.3887 240.173 48.4559 240.442 48.3887 240.643C48.3215 240.778 48.1871 240.845 47.9855 240.778Z" fill="#D1D3D4"/>
<path d="M259.53 237.754C259.463 237.754 259.463 237.754 259.396 237.754C259.194 237.687 259.06 237.485 259.127 237.284C259.463 236.007 260.068 234.797 260.941 233.722C261.815 232.781 263.159 232.311 264.436 232.58C265.309 231.303 266.653 230.429 268.132 230.228C268.333 230.228 268.535 230.362 268.602 230.564C268.669 230.765 268.468 230.967 268.266 231.034C267.056 231.236 265.914 231.908 265.175 232.983C265.78 233.386 266.183 234.058 266.317 234.797C266.452 235.469 266.183 236.208 265.645 236.679C265.309 236.948 264.906 237.082 264.436 237.015C264.1 237.015 263.831 236.813 263.629 236.544C263.428 236.276 263.36 235.94 263.428 235.604C263.428 234.864 263.629 234.058 263.965 233.386C263.024 233.319 262.151 233.722 261.479 234.394C260.672 235.335 260.135 236.477 259.866 237.62C259.799 237.687 259.664 237.821 259.53 237.754ZM264.772 233.52C264.436 234.125 264.301 234.797 264.234 235.469C264.234 235.671 264.234 235.805 264.301 235.94C264.368 236.007 264.436 236.074 264.503 236.074C264.704 236.074 264.906 236.007 265.108 235.872C265.444 235.604 265.578 235.133 265.444 234.73C265.444 234.26 265.175 233.856 264.772 233.52Z" fill="#F75A5A"/>
<path d="M199.589 148.983C199.387 148.983 199.253 148.848 199.185 148.714C198.917 147.773 198.581 146.765 197.841 146.429C197.438 146.295 197.035 146.227 196.565 146.227C196.296 146.227 195.96 146.227 195.691 146.16C193.742 145.757 192.398 143.875 192.667 141.859C192.734 141.658 192.936 141.523 193.137 141.523C193.339 141.523 193.473 141.792 193.473 141.994C193.339 142.733 193.541 143.539 194.011 144.144C194.414 144.749 195.086 145.219 195.825 145.354C196.094 145.421 196.363 145.421 196.565 145.421C197.102 145.421 197.64 145.488 198.11 145.69C199.185 146.227 199.589 147.437 199.925 148.512C199.992 148.714 199.857 148.915 199.656 148.983C199.656 148.983 199.656 148.983 199.589 148.983Z" fill="#F75A5A"/>
<path d="M133.129 108.528C132.591 108.528 132.121 108.461 131.583 108.394C131.449 108.394 131.315 108.259 131.247 108.125C130.71 106.714 130.105 105.37 129.433 104.026C128.022 104.16 126.611 103.959 125.334 103.488C125.132 103.421 124.998 103.152 125.132 102.951C125.199 102.749 125.401 102.615 125.603 102.749C126.879 103.219 128.291 103.421 129.635 103.219C129.769 103.219 129.971 103.287 130.038 103.421C130.777 104.765 131.449 106.176 131.987 107.655C133.331 107.856 134.742 107.722 136.019 107.251C136.22 107.184 136.422 107.251 136.489 107.453C136.556 107.655 136.422 107.856 136.22 107.991C135.279 108.327 134.204 108.528 133.129 108.528Z" fill="#F75A5A"/>
<path d="M96.841 116.996C95.6986 116.996 94.7578 116.055 94.7578 114.912C94.7578 113.77 95.6986 112.829 96.841 112.829C97.9834 112.829 98.9242 113.77 98.9242 114.912C98.9242 116.055 97.9834 116.996 96.841 116.996ZM96.841 113.636C96.169 113.636 95.5642 114.24 95.5642 114.912C95.5642 115.584 96.169 116.189 96.841 116.189C97.513 116.189 98.1178 115.584 98.1178 114.912C98.1178 114.24 97.5802 113.703 96.841 113.636Z" fill="#D1D3D4"/>
<path d="M274.384 214.839C273.376 214.839 272.637 214.032 272.637 213.091C272.637 212.083 273.443 211.344 274.384 211.344C275.325 211.344 276.131 212.151 276.131 213.091C276.131 214.099 275.325 214.839 274.384 214.839ZM274.384 212.083C273.846 212.083 273.443 212.487 273.443 213.091C273.443 213.696 273.846 214.032 274.451 214.032C275.056 214.032 275.392 213.629 275.392 213.091C275.392 212.554 274.922 212.083 274.384 212.083Z" fill="#D1D3D4"/>
<path d="M32.4629 221.962C31.2533 221.962 30.3125 221.021 30.3125 219.811C30.3125 218.602 31.2533 217.661 32.4629 217.661C33.6725 217.661 34.6133 218.602 34.6133 219.811C34.6805 220.954 33.6725 221.962 32.4629 221.962ZM32.4629 218.4C31.7237 218.4 31.1189 219.005 31.1189 219.744C31.1189 220.483 31.7237 221.088 32.4629 221.088C33.2021 221.088 33.8069 220.483 33.8069 219.744C33.8069 219.005 33.2693 218.4 32.4629 218.4Z" fill="#EEE420"/>
<path d="M33.6727 185.943C33.4711 185.943 33.3367 185.808 33.2695 185.674C33.0007 184.867 32.2615 184.33 31.4551 183.725C31.1863 183.523 30.9175 183.322 30.6487 183.12C29.8423 182.448 29.3719 181.508 29.3047 180.5C29.3047 179.962 29.5735 179.424 29.9767 179.088C30.1783 178.954 30.3799 178.954 30.5143 179.155C30.6487 179.357 30.6487 179.559 30.4471 179.693C30.1783 179.895 30.1111 180.163 30.1111 180.5C30.1783 181.306 30.5815 182.045 31.1863 182.516C31.4551 182.717 31.7239 182.919 31.9927 183.12C32.8663 183.725 33.8071 184.397 34.1431 185.472C34.2103 185.674 34.0759 185.876 33.8743 185.943H33.6727Z" fill="#F75A5A"/>
<path d="M132.861 149.722C132.727 149.722 132.592 149.655 132.525 149.52C132.458 149.319 132.525 149.117 132.727 148.983C134.944 147.84 136.02 145.354 135.415 143.002C135.348 142.8 135.482 142.599 135.751 142.531C135.952 142.464 136.154 142.599 136.221 142.8C136.96 145.555 135.684 148.445 133.13 149.722C132.996 149.722 132.928 149.722 132.861 149.722Z" fill="#D1D3D4"/>
<path d="M278.752 174.72C278.551 174.72 278.349 174.586 278.349 174.384C278.147 173.107 277.005 172.167 275.728 172.301C275.527 172.301 275.325 172.167 275.258 171.965C275.258 171.763 275.392 171.562 275.594 171.495C277.341 171.293 278.887 172.503 279.155 174.25C279.155 174.519 279.021 174.72 278.752 174.72C278.819 174.72 278.819 174.72 278.752 174.72Z" fill="#D1D3D4"/>
<path d="M63.0379 255.831C62.9707 255.831 62.9707 255.831 62.9035 255.831C62.7019 255.763 62.5675 255.562 62.6347 255.36C63.3739 252.874 65.4571 251.127 68.0107 250.791C68.2123 250.791 68.4139 250.925 68.4811 251.127C68.4811 251.328 68.3467 251.53 68.1451 251.53C65.9275 251.799 64.0459 253.344 63.4411 255.495C63.3739 255.696 63.2395 255.831 63.0379 255.831Z" fill="#00D885"/>
<path d="M191.796 113.501C190.183 113.501 188.906 112.224 188.906 110.611C188.906 108.998 190.183 107.722 191.796 107.722C193.409 107.722 194.685 108.998 194.685 110.611C194.685 112.224 193.409 113.501 191.796 113.501ZM191.796 108.528C190.653 108.528 189.713 109.469 189.713 110.611C189.713 111.754 190.653 112.694 191.796 112.694C192.938 112.694 193.879 111.754 193.879 110.611C193.879 109.469 192.938 108.528 191.796 108.528Z" fill="#D1D3D4"/>
<defs>
<linearGradient id="paint0_linear_4380_14587" x1="48" y1="121" x2="65" y2="109.5" gradientUnits="userSpaceOnUse">
<stop stop-color="#F75A5A"/>
<stop offset="1" stop-color="white"/>
</linearGradient>
<linearGradient id="paint1_linear_4380_14587" x1="268.5" y1="98" x2="253.5" y2="83" gradientUnits="userSpaceOnUse">
<stop stop-color="#00D885"/>
<stop offset="1" stop-color="white"/>
</linearGradient>
<linearGradient id="paint2_linear_4380_14587" x1="126.006" y1="172.906" x2="126.006" y2="197.299" gradientUnits="userSpaceOnUse">
<stop stop-color="white"/>
<stop offset="1" stop-color="#EEE420"/>
</linearGradient>
</defs>
</svg>