<svg width="86" height="112" viewBox="0 0 86 112" fill="none" xmlns="http://www.w3.org/2000/svg">
<path d="M73.1802 25.7898C73.1802 25.7898 73.4761 23.2442 68.5122 21.0013C63.5482 18.7584 51.8488 18.2012 47.3596 20.3615C42.8704 22.5218 37.1806 27.8951 34.4562 31.5793C31.7317 35.2636 26.6026 46.4195 24.4354 51.4625C22.2682 56.5056 20.0494 59.5809 13.2038 66.6742C6.35824 73.7675 3.0008 76.5023 3.0008 78.3702C3.0008 80.2381 5.11641 88.5732 34.1087 95.2915C63.101 102.01 68.3402 101.762 69.3894 100.765C70.4386 99.767 68.9594 89.8151 69.3894 85.5839C69.8194 81.3527 71.9866 74.1975 71.7148 67.8748C71.443 61.552 71.443 59.6704 71.443 59.6704L73.1768 25.7864L73.1802 25.7898Z" fill="url(#paint0_linear_4380_14773)"/>
<path d="M66.3156 101.83C67.9737 101.83 68.6789 101.579 69.016 101.259C69.6318 100.675 69.501 97.9707 69.2327 93.6019C69.0607 90.7605 68.8818 87.8193 69.0676 85.972C69.2121 84.5444 69.5664 82.735 69.9379 80.8189C70.6672 77.0831 71.5719 72.4356 71.393 68.2388C71.1247 61.9952 71.1213 60.0619 71.1213 60.0413L72.855 26.1711C72.8722 25.9956 73.0339 23.45 68.0872 21.214C63.2678 19.0331 51.4376 18.3382 46.7902 20.5776C42.3422 22.7207 36.5974 28.0975 33.8214 31.8505C31.231 35.3559 26.2878 45.927 23.7834 51.7681C21.6025 56.8559 19.2977 59.9725 12.5863 66.9282C10.8456 68.7342 9.35265 70.234 8.03513 71.555C4.12041 75.4869 2.33504 77.2826 2.33504 78.7446C2.33504 80.3889 3.84176 88.9442 33.5737 95.8345C53.911 100.547 62.5557 101.837 66.3122 101.837L66.3156 101.83ZM55.5553 19.5319C60.1993 19.5319 65.2148 20.2887 67.9496 21.5236C72.714 23.6771 72.5214 26.1126 72.5179 26.1367C72.5179 26.1367 72.5179 26.1435 72.5179 26.147L70.7842 60.031C70.7842 60.0585 70.7842 61.9987 71.0525 68.2526C71.2314 72.4081 70.3266 77.0349 69.6042 80.7535C69.2293 82.6765 68.875 84.4963 68.727 85.9376C68.5378 87.8124 68.7167 90.7674 68.8922 93.6226C69.0882 96.8493 69.3118 100.509 68.7821 101.012C68.2317 101.535 66.5599 103.12 33.6562 95.4939C21.3651 92.6456 12.4968 89.1953 7.29552 85.2427C3.01273 81.9885 2.68249 79.4429 2.68249 78.7377C2.68249 77.4167 4.55385 75.5385 8.28281 71.7923C9.60033 70.4679 11.0933 68.9681 12.8374 67.1621C19.5832 60.1686 21.8983 57.0313 24.1034 51.8988C26.6042 46.0715 31.5269 35.5313 34.1034 32.05C36.852 28.3314 42.5452 23.0028 46.945 20.8838C48.892 19.9447 52.1222 19.5319 55.5587 19.5319H55.5553Z" fill="#191A20"/>
<path d="M33.568 76.6221L10.5957 109.914C10.5957 109.914 9.60501 120.358 17.8404 121.896L45.9761 89.0302L48.9414 80.2444L41.253 76.6221H33.5646H33.568Z" fill="#797B87"/>
<path d="M17.8416 122.068C17.8898 122.068 17.938 122.047 17.9724 122.009L46.1081 89.1436C46.1081 89.1436 46.1322 89.1092 46.1391 89.0851L49.1044 80.2993C49.1319 80.2168 49.094 80.1273 49.0149 80.0895L41.3265 76.4637C41.3024 76.4534 41.2784 76.4465 41.2543 76.4465H33.5659C33.5108 76.4465 33.4558 76.4741 33.4248 76.5222L10.4525 109.815C10.4353 109.839 10.425 109.866 10.4216 109.897C10.4112 110.004 9.51339 120.516 17.8072 122.064C17.8176 122.064 17.8279 122.064 17.8382 122.064L17.8416 122.068ZM45.826 88.9441L17.7763 121.707C10.1601 120.203 10.7105 110.702 10.7656 109.973L33.6622 76.794H41.2199L48.7328 80.3372L45.826 88.9441Z" fill="#191A20"/>
<path d="M31.1495 60.0376C31.1495 60.0376 26.7566 66.1883 28.6245 73.5431C30.4924 80.8978 46.5228 82.6591 46.5228 82.6591L30.5991 122.081C30.5991 122.081 37.5169 125.267 43.2273 126.474C43.2273 126.474 60.7472 93.3093 63.5715 86.1713C66.3957 79.0333 66.5436 76.4017 65.866 72.9961C65.1883 69.5905 60.3138 65.7446 60.3138 65.7446L31.146 60.0342L31.1495 60.0376Z" fill="#797B87"/>
<path d="M43.2334 126.65C43.2953 126.65 43.3538 126.616 43.3848 126.557C43.5602 126.227 60.9425 93.3026 63.7393 86.2368C66.5704 79.0816 66.7389 76.4638 66.0406 72.9653C65.3595 69.5356 60.6295 65.7723 60.4265 65.614C60.4059 65.5968 60.3784 65.5865 60.3543 65.5796L31.1865 59.8692C31.1246 59.8555 31.0524 59.883 31.0145 59.938C30.9698 59.9999 26.5976 66.2367 28.4621 73.5879C29.2533 76.7011 32.535 79.202 38.2248 81.0252C41.8678 82.1914 45.3765 82.6867 46.2847 82.8037L30.4469 122.02C30.4125 122.106 30.4504 122.202 30.5329 122.24C30.6017 122.271 37.5333 125.446 43.199 126.643C43.2093 126.643 43.2231 126.647 43.2334 126.647V126.65ZM60.2477 65.9099C60.6708 66.2504 65.0774 69.8693 65.7035 73.0341C66.3846 76.4638 66.2195 79.0403 63.4193 86.113C60.7121 92.9517 44.2826 124.125 43.144 126.282C38.0012 125.171 31.8573 122.46 30.8288 121.996L46.6906 82.7246C46.7113 82.673 46.7078 82.6179 46.6769 82.5732C46.6493 82.5285 46.6012 82.4975 46.5496 82.4907C46.3913 82.4735 30.6155 80.664 28.7992 73.5054C27.0964 66.7905 30.7118 61.0182 31.2347 60.2304L60.2511 65.9099H60.2477Z" fill="#191A20"/>
<path d="M29.3547 60.4917C29.3547 60.4917 32.7087 63.0648 38.3228 65.2045C43.9369 67.3407 48.0133 65.3489 56.0697 67.093C64.1228 68.8405 65.8703 72.9995 65.8703 72.9995C70.3045 66.8247 70.7035 57.8463 70.7035 57.8463C70.7035 57.8463 79.1625 64.1381 83.5485 60.7393C87.931 57.3441 85.6365 44.0072 78.9182 33.154C76.8439 29.8 74.3258 27.3266 71.8353 25.5069C70.9512 24.8636 70.0327 24.2822 69.0867 23.7662C63.5036 20.7149 56.9332 19.9203 50.6861 21.5681C49.6645 21.8364 48.6737 22.1769 47.7759 22.6104C47.4869 22.7514 47.2083 22.9028 46.94 23.061C41.9726 26.0125 39.1518 32.0532 35.3953 39.7794C31.6354 47.5057 33.2453 52.2185 33.2453 52.2185L29.3547 60.4917Z" fill="#797B87"/>
<path d="M65.8712 73.1717C65.9262 73.1717 65.9778 73.1442 66.0122 73.0995C69.9614 67.6024 70.7353 59.8108 70.8557 58.1665C71.499 58.6171 73.2947 59.8108 75.4137 60.7258C78.9604 62.2532 81.8087 62.3048 83.656 60.8772C88.1211 57.4165 85.9333 44.1622 79.067 33.0648C77.206 30.0548 74.8083 27.4644 71.9394 25.3695C71.0518 24.7228 70.123 24.1345 69.1701 23.6151C63.5182 20.526 56.941 19.7416 50.6423 21.4032C49.5381 21.6921 48.5474 22.0464 47.7011 22.4558C47.419 22.5934 47.1335 22.7482 46.8514 22.9133C41.9941 25.7995 39.1665 31.62 35.5854 38.9919L35.238 39.704C31.6879 47.0002 32.8678 51.5789 33.057 52.2049L29.1939 60.4162C29.1595 60.4884 29.1801 60.5779 29.2455 60.626C29.2799 60.6536 32.6855 63.2405 38.2583 65.3629C41.2305 66.4947 43.7554 66.4809 46.6726 66.4637C49.2698 66.45 52.2144 66.4328 56.0294 67.2584C63.8863 68.9646 65.6889 73.0238 65.7061 73.0651C65.7302 73.1236 65.7852 73.1614 65.8471 73.1683C65.854 73.1683 65.8609 73.1683 65.8677 73.1683L65.8712 73.1717ZM70.7044 57.6745C70.6803 57.6745 70.6528 57.6814 70.6321 57.6917C70.5737 57.7192 70.5358 57.7743 70.5358 57.8396C70.5324 57.9291 70.099 66.6151 65.8987 72.666C65.3621 71.7029 63.0779 68.4383 56.1119 66.9247C52.2591 66.0888 49.2938 66.106 46.6794 66.1197C43.7933 66.1335 41.3027 66.1507 38.389 65.043C33.4251 63.151 30.2018 60.8909 29.5757 60.4368L33.4045 52.2909C33.4251 52.2497 33.4251 52.2049 33.4113 52.1636C33.3941 52.1155 31.8737 47.4164 35.5545 39.8553L35.9019 39.1432C39.4554 31.8264 42.2625 26.0437 47.0337 23.2092C47.3055 23.0509 47.5807 22.8996 47.8559 22.7654C48.6815 22.3664 49.6516 22.0189 50.7352 21.7334C56.9478 20.096 63.4357 20.87 69.0085 23.9144C69.9476 24.4269 70.8661 25.0083 71.7398 25.6447C74.5709 27.7121 76.9377 30.2715 78.7781 33.2436C85.4414 44.0074 87.7083 57.303 83.4496 60.602C79.2184 63.8837 70.897 57.7674 70.8145 57.7055C70.7835 57.6814 70.7491 57.6711 70.7113 57.6711L70.7044 57.6745Z" fill="#191A20"/>
<path d="M61.8607 33.3364C62.0361 33.3364 62.2116 33.333 62.387 33.3227C71.0008 32.8996 71.0352 24.9153 71.0352 24.8362C71.0352 24.7433 70.956 24.6642 70.8632 24.6642C70.7668 24.6642 70.6912 24.7433 70.6912 24.8362C70.6912 25.1527 70.6499 32.5728 62.3698 32.9787C54.0072 33.388 46.3016 23.6047 46.2259 23.5049C46.1674 23.4292 46.0608 23.4155 45.9851 23.474C45.9094 23.5324 45.8956 23.6391 45.9541 23.7148C46.0298 23.8145 53.529 33.333 61.8607 33.333V33.3364Z" fill="#191A20"/>
<path d="M74.8935 51.4619C76.1078 47.1928 75.836 43.4157 73.1872 40.5846C70.5384 37.7535 63.9956 35.4143 61.5325 38.8783C59.0695 42.3424 58.354 47.8051 58.354 47.8051L74.8935 51.4653V51.4619Z" fill="#797B87"/>
<path d="M74.894 51.6338C74.9697 51.6338 75.0385 51.5857 75.0591 51.51C76.387 46.8385 75.7987 43.1233 73.3116 40.4676C71.5607 38.5962 67.9349 36.7868 64.8836 36.9897C63.3563 37.0929 62.1488 37.7121 61.392 38.7785C58.9359 42.2357 58.1894 47.726 58.1825 47.781C58.1722 47.8705 58.2272 47.953 58.3167 47.9702L74.8562 51.6304C74.8562 51.6304 74.8803 51.6338 74.894 51.6338ZM65.3721 37.32C68.2101 37.32 71.4506 38.9884 73.0605 40.7049C75.4651 43.2746 76.0258 46.7284 74.7736 51.2623L58.5471 47.6744C58.6882 46.7593 59.4966 42.0431 61.6741 38.9815C62.3793 37.9873 63.4698 37.4335 64.9077 37.3372C65.0625 37.3269 65.2173 37.3234 65.3721 37.3234V37.32Z" fill="#191A20"/>
<path d="M71.2794 39.7589L72.5006 41.503C72.5006 41.503 74.3892 41.5237 75.4969 40.4022C76.6046 39.2808 77.953 36.6767 76.8626 35.1597C76.8626 35.1597 76.9279 33.0372 74.3342 31.4032C71.7404 29.7692 68.4724 29.7692 67.6399 31.1796C66.8074 32.59 71.276 39.7589 71.276 39.7589H71.2794Z" fill="#797B87"/>
<path d="M72.5127 41.6749C72.7019 41.6749 74.5113 41.6439 75.6224 40.5225C76.6854 39.4492 78.1749 36.7729 77.0363 35.1045C77.026 34.733 76.8608 32.7894 74.4253 31.2551C72.7088 30.175 70.5863 29.7243 69.0142 30.1027C68.2952 30.2782 67.7689 30.6187 67.4903 31.0866C66.6303 32.5417 70.6654 39.1018 71.1298 39.8448C71.1298 39.8448 71.1298 39.8482 71.1333 39.8517L72.3544 41.5957C72.3854 41.6405 72.437 41.668 72.492 41.668H72.5058L72.5127 41.6749ZM70.1838 30.3229C71.4807 30.3229 72.9977 30.7666 74.243 31.551C76.7232 33.1127 76.6923 35.1354 76.6923 35.1561C76.6923 35.1939 76.7026 35.2318 76.7233 35.2627C77.7036 36.6284 76.5478 39.0983 75.3748 40.2817C74.4632 41.2036 72.9633 41.3171 72.5884 41.3309L71.4222 39.6659C69.6472 36.8176 67.2185 32.2355 67.7896 31.2689C68.0201 30.8802 68.4707 30.5946 69.0968 30.4433C69.4305 30.3607 69.7985 30.3229 70.1838 30.3229Z" fill="#191A20"/>
<path d="M67.6437 31.1797C67.6437 31.1797 65.8756 32.0775 65.7208 34.0693C65.6623 34.8502 64.7644 35.0807 64.5993 35.9785C64.0558 38.93 66.6014 41.6511 69.2089 42.0363C71.8164 42.4216 73.8839 40.6603 73.8839 40.6603C73.8839 40.6603 75.8068 40.0549 75.4525 38.5791C75.0982 37.1034 73.4676 38.5791 73.4676 38.5791C73.4676 38.5791 72.6352 38.414 72.8588 37.2169C73.0824 36.0198 73.3404 34.5784 73.3404 34.5784C73.3404 34.5784 69.8488 32.6899 67.6403 31.1831L67.6437 31.1797Z" fill="white"/>
<path d="M69.9725 42.2631C72.1156 42.2631 73.7359 41.0075 73.9698 40.8115C74.6922 40.5707 75.9237 39.807 75.621 38.5376C75.5247 38.1317 75.3251 37.8771 75.0293 37.7877C74.4342 37.5985 73.6774 38.1764 73.4263 38.3863C73.2543 38.3175 72.8724 38.0663 73.0272 37.2476C73.2508 36.0471 73.5088 34.6057 73.5088 34.6057C73.5226 34.5335 73.4882 34.4612 73.4228 34.4234C73.3884 34.4062 69.914 32.5211 67.7365 31.0384C67.6849 31.004 67.6195 31.0006 67.5611 31.0281C67.4854 31.066 65.7035 31.9913 65.5452 34.0553C65.5211 34.3855 65.3113 34.6057 65.0705 34.8603C64.8125 35.1355 64.5167 35.4485 64.4238 35.9473C64.183 37.2442 64.5132 38.6064 65.3526 39.776C66.2883 41.0832 67.7159 41.9914 69.1779 42.2047C69.4462 42.2425 69.7076 42.2631 69.9656 42.2631H69.9725ZM74.7816 38.0939C74.8332 38.0939 74.8848 38.1007 74.9295 38.1145C75.1015 38.1695 75.2185 38.3312 75.2873 38.6168C75.5969 39.9171 73.9044 40.4709 73.8322 40.495C73.8115 40.5019 73.7909 40.5122 73.7737 40.5294C73.7531 40.5466 71.7338 42.2356 69.2363 41.8675C67.8844 41.668 66.5084 40.7908 65.6381 39.58C64.8538 38.486 64.5442 37.2167 64.7678 36.0127C64.84 35.6136 65.0774 35.3625 65.3251 35.1011C65.5865 34.8224 65.8548 34.5369 65.8927 34.0863C66.0165 32.466 67.2893 31.5957 67.6333 31.3859C69.6079 32.7171 72.5491 34.3408 73.1511 34.6711C73.0857 35.0426 72.8793 36.1984 72.6935 37.1891C72.4424 38.5411 73.4263 38.7509 73.4366 38.7543C73.4882 38.7647 73.5432 38.7509 73.5845 38.7131C73.7909 38.5273 74.3619 38.1008 74.7816 38.1008V38.0939Z" fill="#191A20"/>
<path d="M66.7884 37.5814C67.0739 37.5814 67.3698 37.4576 67.5349 37.1789C67.5831 37.0964 67.5555 36.9932 67.473 36.945C67.3939 36.8968 67.2872 36.9244 67.2391 37.0069C67.098 37.2477 66.7575 37.2924 66.5304 37.1824C66.4203 37.1273 66.2518 36.9966 66.3619 36.7145C66.3997 36.6148 66.4582 36.5563 66.5407 36.5288C66.7643 36.4496 67.1152 36.6148 67.2219 36.6767C67.3044 36.7248 67.4076 36.6973 67.4558 36.6148C67.5039 36.5322 67.4764 36.429 67.3939 36.3808C67.3388 36.3499 66.8366 36.0644 66.4238 36.2054C66.2483 36.2673 66.1142 36.4015 66.0385 36.5907C65.8906 36.9691 66.0247 37.3234 66.3756 37.4954C66.4995 37.5539 66.6405 37.5883 66.7884 37.5883V37.5814Z" fill="#191A20"/>
<path d="M70.0056 37.0654C69.8852 37.2546 69.6788 37.3406 69.5481 37.258C69.4174 37.1755 69.4071 36.9519 69.5309 36.7627C69.5653 36.7076 69.6135 36.6595 69.6616 36.6216L69.8096 36.8865L69.8784 36.5391C69.9196 36.5391 69.954 36.5494 69.985 36.57C70.1157 36.6526 70.126 36.8762 70.0056 37.0619V37.0654Z" fill="#191A20"/>
<path d="M66.4818 35.4451C66.3511 35.6515 66.1275 35.7444 65.983 35.6549C65.8386 35.5655 65.8317 35.3212 65.9624 35.1148C66.0002 35.0529 66.0518 35.0013 66.1034 34.96L66.2651 35.249L66.3408 34.8706C66.3855 34.8706 66.4233 34.8809 66.4577 34.905C66.5988 34.9944 66.6091 35.2387 66.4784 35.4416L66.4818 35.4451Z" fill="#191A20"/>
<path d="M67.352 39.0261C67.6272 39.0261 67.9059 38.9023 68.1398 38.6683C68.2086 38.603 68.2086 38.4929 68.1398 38.4241C68.071 38.3553 67.9644 38.3553 67.8956 38.4241C67.6926 38.6271 67.4518 38.7165 67.2351 38.6683C66.9805 38.6133 66.7638 38.3794 66.6193 38.0044C66.5849 37.915 66.4852 37.8703 66.3957 37.9047C66.3063 37.9391 66.2616 38.0388 66.296 38.1283C66.4817 38.6133 66.7879 38.9263 67.1594 39.0055C67.2213 39.0192 67.2833 39.0261 67.3486 39.0261H67.352Z" fill="#191A20"/>
<path d="M67.2675 34.8089C67.3569 34.8089 67.4326 34.7401 67.4395 34.6506C67.4601 34.372 67.3122 34.1071 67.0611 33.9764C66.8306 33.856 66.5692 33.8801 66.3628 34.0452C66.2905 34.1037 66.2768 34.2137 66.3353 34.286C66.3937 34.3617 66.5038 34.372 66.5761 34.3135C66.7102 34.2069 66.8341 34.2481 66.8994 34.2791C67.0061 34.3341 67.1058 34.4614 67.0921 34.6231C67.0852 34.7194 67.1574 34.7985 67.2503 34.8089C67.2537 34.8089 67.2572 34.8089 67.2641 34.8089H67.2675Z" fill="#191A20"/>
<path d="M70.7061 36.6734C70.799 36.6734 70.8747 36.6011 70.8781 36.5082C70.8884 36.2055 70.799 35.975 70.6132 35.8271C70.2727 35.5588 69.7429 35.6998 69.7188 35.7067C69.6259 35.7308 69.5743 35.8271 69.5984 35.9166C69.6225 36.0094 69.7154 36.061 69.8083 36.037C69.9149 36.0094 70.2279 35.9613 70.3965 36.0954C70.4928 36.1711 70.5375 36.3053 70.5307 36.4945C70.5307 36.5908 70.6029 36.6699 70.6958 36.6734H70.7027H70.7061Z" fill="#191A20"/>
<path d="M75.5004 47.9564C75.583 47.9564 75.6552 47.898 75.669 47.8154C75.6862 47.7225 75.6243 47.6331 75.5314 47.6159C64.8502 45.7101 62.8619 37.8566 62.8447 37.7775C62.824 37.6846 62.7312 37.6261 62.6383 37.6502C62.5454 37.6708 62.4904 37.7637 62.511 37.8566C62.5316 37.9392 64.5612 46.0094 75.4729 47.953C75.4832 47.953 75.4936 47.953 75.5039 47.953L75.5004 47.9564Z" fill="#191A20"/>
<path d="M78.3945 51.3828C76.0381 51.6443 72.1131 49.8796 69.8049 48.9611C67.4966 48.0426 61.3184 44.7092 59.9183 46.1024C59.9183 46.1024 57.899 47.8018 56.7569 50.4506C55.6149 53.0994 64.8169 57.4648 69.1203 58.6688" fill="#797B87"/>
<path d="M69.1191 58.8442C69.1948 58.8442 69.2636 58.796 69.2843 58.7169C69.3083 58.624 69.2567 58.5311 69.1639 58.5036C67.179 57.9498 64.4201 56.8077 62.1394 55.5968C59.3564 54.121 57.5298 52.6934 56.9966 51.572C56.8074 51.1729 56.7799 50.8289 56.914 50.5193C58.0286 47.9393 60.01 46.2503 60.0307 46.2331C61.0695 45.1977 65.3489 47.1481 67.9048 48.3109C68.6341 48.6445 69.2671 48.9301 69.7418 49.1193C70.0204 49.2294 70.3231 49.3532 70.6465 49.4839C73.0339 50.454 76.3019 51.7853 78.414 51.5513C78.5069 51.541 78.5757 51.455 78.5654 51.3622C78.5551 51.2693 78.4759 51.2005 78.3762 51.2108C76.3466 51.4378 73.1302 50.1238 70.7772 49.1674C70.4539 49.0367 70.1511 48.9129 69.8725 48.8028C69.4047 48.617 68.7751 48.3315 68.0493 48.0013C65.0737 46.6459 60.9973 44.7917 59.8002 45.982C59.7279 46.0439 57.7465 47.7295 56.601 50.3852C56.429 50.7877 56.4565 51.2383 56.687 51.7233C57.9873 54.4478 65.5519 57.8534 69.0744 58.8373C69.0882 58.8407 69.1054 58.8442 69.1191 58.8442Z" fill="#191A20"/>
<path d="M59.918 46.1058C58.2289 44.3445 58.5179 42.2254 57.6166 41.9021C56.7153 41.5787 56.8254 44.0039 56.8254 44.0039C56.8254 44.0039 56.0342 42.9788 55.1708 41.6854C54.3073 40.3919 54.4174 39.8174 54.0562 39.7796C53.695 39.7418 53.0139 41.6854 54.9197 43.9489C54.9197 43.9489 53.6262 42.7621 53.0861 41.9709C52.546 41.1797 52.405 41.0352 51.9372 41.1074C51.4693 41.1797 51.9028 43.0854 53.7707 45.0256C53.7707 45.0256 52.5254 44.3789 51.7652 43.481C51.0049 42.5832 50.7538 43.77 51.6138 44.919C52.4738 46.0679 53.1584 46.6424 53.1584 46.6424C53.1584 46.6424 52.2605 46.3534 51.6138 45.8512C50.9671 45.349 50.6437 45.8512 51.6138 47.0002C52.5839 48.1491 53.5918 48.3658 54.6341 48.9403C55.6764 49.5148 56.7532 50.4505 56.7532 50.4505C56.7532 50.4505 58.1532 47.5024 59.9145 46.1023L59.918 46.1058Z" fill="white"/>
<path d="M56.7565 50.6259C56.7565 50.6259 56.7806 50.6259 56.7909 50.6225C56.8425 50.6122 56.8872 50.5778 56.9113 50.5296C56.925 50.5021 58.3148 47.6022 60.0245 46.2434C60.0623 46.2124 60.0864 46.1677 60.0898 46.1195C60.0898 46.0714 60.0761 46.0232 60.0417 45.9888C59.1507 45.06 58.8274 44.0349 58.5694 43.2093C58.3423 42.4869 58.1634 41.9193 57.675 41.7404C57.4307 41.6544 57.2553 41.7267 57.1486 41.8058C56.7668 42.0844 56.6739 42.9272 56.6533 43.4914C56.3437 43.0751 55.8414 42.3837 55.3151 41.5925C54.8954 40.963 54.7097 40.5055 54.5858 40.2027C54.4482 39.8622 54.3554 39.6386 54.0733 39.6111C53.9873 39.5973 53.8187 39.6283 53.6674 39.9138C53.3956 40.4263 53.3234 41.4687 53.8944 42.6864C53.6398 42.4112 53.3956 42.1223 53.227 41.878C52.6938 41.0937 52.4943 40.8529 51.9095 40.9423C51.8338 40.9527 51.6928 41.0043 51.6274 41.2003C51.4692 41.6751 51.8407 42.9066 52.883 44.2654C52.5459 44.0211 52.1813 43.715 51.8923 43.371C51.4589 42.8584 51.1768 42.9926 51.077 43.0717C50.7193 43.3572 50.905 44.2688 51.4726 45.0222C51.8235 45.49 52.1434 45.8615 52.4014 46.1402C52.1744 46.0267 51.9302 45.8822 51.7169 45.7171C51.2318 45.3421 50.991 45.5244 50.9291 45.5898C50.6849 45.8443 50.8913 46.4154 51.4795 47.1137C52.2157 47.9875 52.9897 48.3452 53.7362 48.6927C54.001 48.8165 54.2762 48.9438 54.548 49.0917C55.5628 49.6524 56.6292 50.5709 56.6395 50.5812C56.6705 50.6087 56.7118 50.6225 56.753 50.6225L56.7565 50.6259ZM59.6702 46.0886C58.2116 47.327 57.042 49.5079 56.7014 50.1822C56.354 49.8967 55.5353 49.2431 54.72 48.7959C54.4379 48.6411 54.1593 48.5103 53.8875 48.3865C53.141 48.0391 52.4393 47.7123 51.7478 46.897C51.1665 46.209 51.1562 45.8753 51.1837 45.8306C51.1974 45.8306 51.311 45.8375 51.5105 45.9923C52.1744 46.5083 53.0722 46.8007 53.1101 46.811C53.1892 46.8351 53.2718 46.8007 53.313 46.7319C53.3543 46.6596 53.3371 46.5702 53.2718 46.5186C53.2649 46.5117 52.5906 45.9407 51.7547 44.8227C51.1974 44.0796 51.1974 43.426 51.2972 43.3469C51.3075 43.34 51.4176 43.3469 51.6343 43.6015C52.4083 44.5165 53.6398 45.1598 53.6914 45.1873C53.7671 45.2251 53.86 45.2045 53.9082 45.1391C53.9598 45.0703 53.9529 44.9775 53.8944 44.9155C52.4427 43.4054 51.9233 41.9881 51.937 41.4446C51.937 41.3173 51.9714 41.2829 51.9714 41.2829C52.3154 41.2313 52.4014 41.276 52.945 42.0741C53.4885 42.8722 54.751 44.0315 54.8026 44.0796C54.8679 44.1415 54.9711 44.1381 55.0365 44.0796C55.1018 44.0177 55.1087 43.9145 55.0502 43.8457C53.6295 42.1567 53.7774 40.7944 53.8566 40.4195C53.9185 40.1167 54.0251 39.9757 54.0664 39.9551C54.1077 39.9654 54.1455 40.0411 54.2659 40.3369C54.3932 40.6534 54.5858 41.1281 55.0262 41.7886C55.8827 43.0717 56.6774 44.1071 56.6877 44.1175C56.7324 44.1759 56.8115 44.2 56.8838 44.1725C56.956 44.145 57.0007 44.0796 56.9973 44.0039C56.9698 43.3847 57.042 42.3149 57.3516 42.0879C57.3894 42.0603 57.4479 42.0294 57.558 42.0707C57.8882 42.1876 58.0362 42.6623 58.2391 43.3159C58.4834 44.0934 58.8102 45.1426 59.6633 46.0955L59.6702 46.0886Z" fill="#191A20"/>
<path d="M67.7031 48.0355C65.2229 51.2519 64.0774 56.7146 64.0774 56.7146L61.5283 55.2767C61.5283 55.2767 62.5638 49.611 65.216 46.9485L67.6997 48.0355H67.7031Z" fill="url(#paint1_linear_4380_14773)"/>
<path d="M64.0827 56.8868C64.1068 56.8868 64.1309 56.8833 64.1549 56.873C64.2065 56.8489 64.2409 56.8042 64.2513 56.7526C64.2616 56.6976 65.4174 51.2899 67.8426 48.1423C67.8736 48.101 67.8873 48.046 67.8736 47.9944C67.8598 47.9428 67.8254 47.9015 67.7773 47.8809L65.2936 46.7938C65.2282 46.7663 65.1525 46.7801 65.1044 46.8282C62.4418 49.4977 61.4098 55.012 61.3685 55.2459C61.3548 55.3181 61.3892 55.3904 61.4545 55.4282L64.0036 56.8661C64.0311 56.8799 64.0586 56.8868 64.0896 56.8868H64.0827ZM67.4367 48.1045C65.3349 50.9528 64.21 55.3973 63.9657 56.4499L61.7263 55.184C61.8914 54.3653 62.9441 49.5596 65.2626 47.1516L67.4401 48.1045H67.4367Z" fill="#191A20"/>
<path d="M36.9134 55.1804C39.2698 57.21 50.4567 60.9389 53.25 61.6579C56.0432 62.3768 60.5978 64.2757 61.5335 62.6589C61.5335 62.6589 63.7282 60.4711 63.57 56.1264C63.2156 54.5268 59.7481 54.2653 57.4571 53.6771C55.166 53.0888 42.9334 48.5928 42.9334 48.5928C42.9334 48.5928 49.7377 36.2741 49.2802 30.9077" fill="#797B87"/>
<path d="M59.9816 63.4607C60.759 63.4607 61.3645 63.2681 61.6706 62.7624C61.8873 62.5388 63.8963 60.3406 63.7415 56.1163C63.4388 54.7334 61.2613 54.2931 59.1525 53.87C58.5643 53.7496 58.007 53.6395 57.4979 53.5088C55.3961 52.9687 44.7286 49.0677 43.1772 48.4967C44.0372 46.9143 49.8817 35.9613 49.4483 30.8908C49.4414 30.7979 49.352 30.7291 49.2625 30.7325C49.1697 30.7394 49.0974 30.8254 49.1043 30.9183C49.5515 36.1712 42.8469 48.3832 42.7781 48.5036C42.7541 48.5483 42.7506 48.5999 42.7678 48.6481C42.785 48.6962 42.8229 48.7306 42.871 48.7478C43.3698 48.9301 55.1415 53.2542 57.4119 53.8356C57.9279 53.9697 58.4886 54.0798 59.0837 54.2002C60.9895 54.5855 63.1498 55.0224 63.4009 56.1541C63.5489 60.3372 61.4333 62.5078 61.4092 62.5285C61.3989 62.5388 61.3885 62.5525 61.3817 62.5629C60.7109 63.7187 57.6802 62.7933 55.2413 62.0503C54.5429 61.837 53.879 61.6341 53.2908 61.4827C50.6076 60.7913 39.3932 57.0829 37.023 55.043C36.9508 54.9811 36.8407 54.988 36.7788 55.0602C36.7169 55.1325 36.7237 55.2425 36.796 55.3045C39.204 57.3788 50.5009 61.1215 53.2013 61.8164C53.7861 61.9677 54.4432 62.1673 55.1381 62.3805C56.8237 62.8965 58.6503 63.4538 59.9747 63.4538L59.9816 63.4607Z" fill="#191A20"/>
<path d="M63.5709 56.123C67.2621 55.7825 69.0853 54.8915 70.2755 54.3411C71.4657 53.7907 71.335 55.4454 69.5531 56.6322C69.5531 56.6322 71.7581 57.1413 74.3037 56.6322C76.8493 56.123 76.8081 57.7364 74.8129 58.3281C74.8129 58.3281 76.4675 59.7694 73.9632 60.4918C73.9632 60.4918 74.9401 61.8506 71.968 62.401C71.968 62.401 71.765 63.8011 69.9143 63.7598C68.0636 63.7186 66.3229 63.464 64.8816 62.9102C63.4402 62.3563 61.531 62.6556 61.531 62.6556C61.531 62.6556 63.5675 58.8785 63.5675 56.123H63.5709Z" fill="white"/>
<path d="M69.9964 63.9317C71.5719 63.9317 72.0053 62.91 72.1085 62.5488C73.285 62.3148 73.9936 61.9158 74.2138 61.3654C74.3376 61.0558 74.2792 60.7737 74.2069 60.5949C74.9603 60.3437 75.3937 59.986 75.4969 59.5353C75.6001 59.0744 75.3249 58.6478 75.122 58.407C76.1127 58.0389 76.5289 57.4301 76.4154 56.9829C76.3088 56.546 75.6861 56.1813 74.2654 56.4669C72.4009 56.8384 70.7084 56.656 69.9723 56.5391C70.9871 55.741 71.3999 54.7812 71.1384 54.3134C71.08 54.2068 70.8392 53.8903 70.1959 54.1861L70.0892 54.2343C68.899 54.7881 67.1033 55.6241 63.5498 55.9509C63.4604 55.9577 63.395 56.0334 63.395 56.1229C63.395 58.8061 61.3998 62.5384 61.3792 62.5763C61.3482 62.6348 61.3516 62.7036 61.3895 62.7586C61.4273 62.8136 61.4892 62.8412 61.558 62.8309C61.5752 62.8309 63.4397 62.5488 64.8226 63.0751C66.1952 63.598 67.9048 63.8904 69.9138 63.9351C69.9413 63.9351 69.9723 63.9351 69.9998 63.9351L69.9964 63.9317ZM75.177 56.7076C75.7343 56.7076 76.0336 56.8659 76.0817 57.0654C76.1608 57.3819 75.6792 57.8945 74.7608 58.1662C74.7023 58.1834 74.6541 58.235 74.6404 58.2935C74.6266 58.352 74.6472 58.4173 74.6954 58.4586C74.7023 58.462 75.2699 58.9677 75.1598 59.4631C75.0807 59.8174 74.6507 60.1167 73.9145 60.3265C73.8595 60.3403 73.8182 60.3816 73.801 60.4366C73.7838 60.4882 73.7907 60.5467 73.8251 60.5949C73.832 60.6052 74.0384 60.9045 73.8973 61.245C73.77 61.5546 73.3297 61.9777 71.94 62.2357C71.8677 62.2495 71.8127 62.308 71.8024 62.3802C71.7955 62.4284 71.596 63.5911 69.9998 63.5911C69.9757 63.5911 69.9482 63.5911 69.9241 63.5911C67.9564 63.5464 66.2846 63.2643 64.9499 62.7552C63.8284 62.3252 62.4593 62.3905 61.8401 62.4524C62.308 61.5271 63.684 58.6169 63.7459 56.2845C67.2547 55.944 69.0504 55.108 70.244 54.5508L70.3507 54.5026C70.447 54.4579 70.7635 54.3272 70.8495 54.4854C71.0008 54.7537 70.6465 55.7066 69.4597 56.4944C69.4012 56.5322 69.3737 56.601 69.3875 56.6698C69.4012 56.7386 69.4528 56.7902 69.5182 56.8074C69.6111 56.828 71.7886 57.32 74.3411 56.8074C74.6679 56.742 74.95 56.7145 75.1839 56.7145L75.177 56.7076Z" fill="#191A20"/>
<path d="M69.5507 56.8041C69.647 56.8041 69.7227 56.7284 69.7227 56.6321C69.7227 56.5358 69.647 56.4601 69.5507 56.4601C69.5403 56.4601 68.3432 56.4567 65.8836 56.123C65.7873 56.1058 65.7013 56.1746 65.691 56.2709C65.6772 56.3638 65.7426 56.4532 65.8389 56.4636C68.326 56.8007 69.5025 56.8041 69.5541 56.8041H69.5507Z" fill="#191A20"/>
<path d="M70.5462 59.1846C71.334 59.1846 72.913 59.0918 74.8634 58.4932C74.9529 58.4657 75.0045 58.3694 74.977 58.2799C74.9494 58.1905 74.8531 58.1354 74.7637 58.1664C72.0736 58.992 70.0543 58.8303 70.0371 58.8269C69.9442 58.8166 69.8582 58.8888 69.8514 58.9817C69.8445 59.0746 69.9133 59.1606 70.0062 59.1674C70.0302 59.1674 70.2229 59.1846 70.5497 59.1846H70.5462Z" fill="#191A20"/>
<path d="M70.6969 61.1627C72.7816 61.1627 73.9718 60.6776 74.0303 60.6535C74.1163 60.6157 74.161 60.5159 74.1232 60.4299C74.0853 60.3439 73.9856 60.3027 73.8996 60.3371C73.8858 60.344 72.3722 60.9563 69.8197 60.7911C69.7268 60.7774 69.6443 60.8565 69.6374 60.9528C69.6305 61.0491 69.7028 61.1283 69.7991 61.1351C70.1156 61.1558 70.4183 61.1661 70.7004 61.1661L70.6969 61.1627Z" fill="#191A20"/>
<path d="M70.169 62.6314C70.6266 62.6314 71.2217 62.6176 71.9785 62.5729C72.0748 62.566 72.1471 62.4869 72.1402 62.3906C72.1333 62.2977 72.0611 62.222 71.9579 62.2289C69.7631 62.3527 68.9306 62.2289 68.9238 62.2289C68.8309 62.2151 68.7415 62.2805 68.7277 62.3734C68.7139 62.4662 68.7793 62.5557 68.8722 62.5694C68.8963 62.5694 69.2678 62.6279 70.169 62.6279V62.6314Z" fill="#191A20"/>
<path d="M60.3203 54.2896C60.3203 54.2896 59.9798 58.906 57.5752 62.9068L54.5102 62.0124C54.5102 62.0124 57.073 57.2996 57.073 53.5637L60.3203 54.2861V54.2896Z" fill="url(#paint2_linear_4380_14773)"/>
<path d="M57.5745 63.0822C57.633 63.0822 57.6915 63.0512 57.7224 62.9996C60.1236 59.0092 60.4882 54.3515 60.4916 54.3067C60.4985 54.2207 60.44 54.1451 60.3575 54.1244L57.1101 53.402C57.0585 53.3917 57.0069 53.402 56.9656 53.4364C56.9244 53.4708 56.9003 53.519 56.9003 53.5706C56.9003 57.217 54.3822 61.8885 54.3581 61.9366C54.334 61.9814 54.3306 62.0364 54.3512 62.0846C54.3719 62.1327 54.4132 62.1706 54.4613 62.1843L57.5264 63.0787C57.5264 63.0787 57.5573 63.0856 57.5745 63.0856V63.0822ZM60.1339 54.4237C60.0513 55.2321 59.556 59.2087 57.492 62.7038L54.7572 61.9057C55.2284 60.9975 57.1583 57.0931 57.2408 53.7804L60.1304 54.4237H60.1339Z" fill="#191A20"/>
<path d="M47.7774 22.6104C47.7774 22.6104 54.3581 31.9293 62.0465 31.5716C69.7349 31.2173 69.0882 23.7662 69.0882 23.7662C63.505 20.7149 56.9346 19.9203 50.6876 21.5681C49.6659 21.8364 48.6752 22.1769 47.7774 22.6104Z" fill="url(#paint3_linear_4380_14773)"/>
<path d="M61.618 31.7539C61.7624 31.7539 61.9069 31.7539 62.0514 31.7436C64.4044 31.6335 66.231 30.8595 67.4763 29.4388C69.5231 27.103 69.2685 23.89 69.2582 23.7524C69.2548 23.694 69.2204 23.6424 69.1688 23.6148C63.5168 20.5257 56.9361 19.7414 50.6409 21.4029C49.5367 21.6919 48.546 22.0462 47.6997 22.4556C47.655 22.4762 47.6206 22.5175 47.6068 22.5691C47.5931 22.6172 47.6068 22.6688 47.6344 22.7101C47.6997 22.803 54.1084 31.7539 61.618 31.7539ZM68.9211 23.8728C68.9452 24.4095 68.9796 27.1993 67.2148 29.2152C66.0349 30.5636 64.2908 31.2998 62.0376 31.403C55.0992 31.716 48.9691 23.9244 48.0368 22.6792C48.8212 22.318 49.7259 22.0015 50.7304 21.7366C56.912 20.106 63.3689 20.8663 68.9211 23.8728Z" fill="#191A20"/>
<path d="M60.2727 15.5276C59.2166 18.8747 58.6834 21.4065 58.4529 22.6862C58.3463 23.271 58.6559 23.8524 59.1994 24.0897C60.0938 24.4785 61.5455 24.905 63.0281 24.4853C63.5235 24.3443 63.8915 23.9315 63.9603 23.4224L64.3594 20.5672L60.2727 15.5276Z" fill="white"/>
<path d="M61.7358 24.8328C62.1692 24.8328 62.6164 24.7778 63.0705 24.6505C63.6312 24.4922 64.0474 24.0175 64.1266 23.4465L64.5256 20.5913C64.5325 20.5431 64.5187 20.495 64.4878 20.4606L60.401 15.421C60.3598 15.3728 60.2978 15.3487 60.2359 15.359C60.174 15.3694 60.1224 15.4175 60.1052 15.476C59.0354 18.8644 58.5022 21.4272 58.2786 22.6553C58.1582 23.3226 58.5056 23.9762 59.1282 24.2446C59.8059 24.5404 60.7278 24.8294 61.7392 24.8294L61.7358 24.8328ZM64.1747 20.6188L63.786 23.3983C63.7241 23.8352 63.4076 24.1964 62.9742 24.3202C61.5638 24.7227 60.1774 24.3306 59.2624 23.935C58.7877 23.7286 58.5228 23.2298 58.6157 22.7206C58.829 21.5373 59.3347 19.1086 60.3357 15.8888L64.1747 20.6188Z" fill="#191A20"/>
<path d="M55.6003 14.3924C56.6288 15.3591 58.1768 15.0667 58.1768 15.0667C58.5002 16.2466 58.9508 17.2786 59.4943 18.1764C60.7052 20.1888 62.3771 21.5098 64.1349 22.1806C66.3674 23.0371 68.7342 22.8411 70.4404 21.6749C73.1408 19.8379 73.6774 15.1251 73.7187 12.0119L73.729 11.9947L73.7738 11.9122C73.8426 11.7643 73.9767 11.4581 74.1075 11.0143C74.3758 10.1131 74.6269 8.62698 74.2795 6.72122C74.2244 6.41506 74.135 6.0917 74.0146 5.75802C73.4917 4.32698 72.4081 3.16426 71.0493 2.47282C70.6365 2.26298 70.2031 2.08754 69.7627 1.95338C64.7438 0.463859 62.8449 1.47866 62.8449 1.47866C62.8449 1.47866 56.5084 1.60594 56.4018 10.6084C55.2872 11.2758 54.8228 13.6528 55.6106 14.3959L55.6003 14.3924Z" fill="white"/>
<path d="M66.9165 22.8823C68.2409 22.8823 69.4999 22.5245 70.5319 21.8159C73.2117 19.9927 73.8343 15.5104 73.8825 12.0532L73.9169 11.9878C73.9891 11.833 74.1267 11.5165 74.2643 11.0556C74.5395 10.1337 74.7941 8.63038 74.4398 6.68334C74.3813 6.36686 74.2884 6.03318 74.1646 5.68918C73.6348 4.2375 72.5512 3.03694 71.1133 2.3111C70.7005 2.10126 70.2602 1.92238 69.7992 1.78134C65.083 0.381263 63.0843 1.16214 62.7851 1.29974C62.2381 1.33414 56.3591 1.90862 56.2147 10.5052C55.5301 10.973 55.1379 11.9809 55.0485 12.8031C54.9659 13.5599 55.1207 14.1825 55.4751 14.5128C56.3729 15.3556 57.6079 15.3005 58.0447 15.2524C58.3578 16.3394 58.7912 17.3508 59.3382 18.2589C60.4975 20.1853 62.1315 21.5957 64.0647 22.3353C65.0107 22.6965 65.9774 22.8754 66.9131 22.8754L66.9165 22.8823ZM64.9695 1.3135C66.0531 1.3135 67.6011 1.49238 69.7029 2.11502C70.1432 2.24918 70.5663 2.42118 70.9619 2.6207C72.3207 3.3087 73.3459 4.44046 73.8447 5.80958C73.9616 6.13294 74.0476 6.44942 74.1027 6.74526C74.4432 8.6235 74.199 10.0717 73.9341 10.9593C73.8034 11.3996 73.6761 11.6954 73.6073 11.833L73.566 11.9087C73.5523 11.9328 73.5351 11.9775 73.5351 12.005C73.5007 14.7708 73.0363 19.69 70.3324 21.5304C68.6606 22.669 66.3627 22.8513 64.1851 22.0154C62.3241 21.3033 60.7486 19.9445 59.6306 18.0835C59.0767 17.1616 58.6399 16.1296 58.3337 15.015C58.3096 14.929 58.2236 14.874 58.1342 14.8912C58.1204 14.8912 56.6584 15.1561 55.709 14.2617C55.4407 14.0071 55.3203 13.4773 55.3891 12.8375C55.4854 11.9293 55.9326 11.0693 56.4727 10.746C56.5243 10.715 56.5552 10.66 56.5552 10.6015C56.6584 1.8811 62.5787 1.64718 62.8298 1.6403C62.8573 1.6403 62.8848 1.63342 62.9055 1.61966C62.9158 1.61278 63.535 1.30662 64.9591 1.30662L64.9695 1.3135Z" fill="#191A20"/>
<path d="M66.023 12.38C65.3454 11.3893 63.6013 10.6669 62.8582 11.9672C62.8066 12.0497 62.8342 12.1529 62.9133 12.2045C62.9821 12.2493 63.0681 12.2321 63.1266 12.1839C63.529 11.864 63.9246 11.7677 64.4097 11.9156C64.8947 12.0497 65.3591 12.3525 65.7891 12.6311C65.9439 12.7412 66.14 12.5313 66.023 12.3834V12.38Z" fill="#191A20"/>
<path d="M72.6114 12.4627C72.0163 11.6405 70.7641 11.4789 69.9764 12.1015C69.8456 12.2391 69.5051 12.4077 69.6874 12.6209C69.739 12.6691 69.8147 12.6829 69.8766 12.6553C70.1002 12.559 70.3135 12.4593 70.5267 12.4008C71.1528 12.1909 71.8202 12.3595 72.3637 12.7035C72.522 12.8308 72.7352 12.6278 72.6114 12.4661V12.4627Z" fill="#191A20"/>
<path d="M69.6307 17.5124C70.0573 17.5124 70.4047 17.2475 70.5526 16.7934C70.6421 16.5148 70.618 16.2568 70.4804 16.0298C70.2258 15.617 69.6548 15.4346 69.3727 15.3658C69.4174 14.9702 69.5688 13.8557 69.9541 12.5588C69.9816 12.4659 69.93 12.373 69.8371 12.3455C69.7442 12.318 69.6513 12.3696 69.6238 12.4625C69.1353 14.1102 69.0184 15.4346 69.0149 15.4897C69.0081 15.5791 69.07 15.6617 69.1594 15.6754C69.3761 15.7098 69.9781 15.875 70.188 16.2121C70.274 16.3497 70.2843 16.5079 70.2258 16.6902C70.0504 17.2303 69.6273 17.1925 69.4518 17.1512C69.0321 17.0514 68.6228 16.6352 68.7019 16.1398C68.7157 16.047 68.6503 15.9575 68.5574 15.9438C68.4645 15.93 68.3751 15.9919 68.3613 16.0882C68.2547 16.7797 68.8051 17.3507 69.3727 17.4849C69.4621 17.5055 69.5481 17.5158 69.6307 17.5158V17.5124Z" fill="#191A20"/>
<path d="M64.0155 13.7354C64.0017 14.2445 64.2769 14.6573 64.6244 14.6677C64.9718 14.678 65.2711 14.2755 65.2848 13.7698C65.2883 13.6185 65.2642 13.4705 65.2195 13.3433L64.6072 13.6529L64.9133 12.9201C64.8376 12.872 64.762 12.8445 64.6725 12.841C64.3251 12.8307 64.0258 13.2332 64.012 13.7354H64.0155Z" fill="#191A20"/>
<path d="M70.867 14.4749C70.8533 14.984 71.1285 15.3968 71.4759 15.4072C71.8234 15.4175 72.1226 15.015 72.1364 14.5093C72.1398 14.358 72.1158 14.21 72.071 14.0828L71.4587 14.3924L71.7649 13.6596C71.6892 13.6115 71.6135 13.584 71.5241 13.5805C71.1766 13.5702 70.8774 13.9727 70.8636 14.4749H70.867Z" fill="#191A20"/>
<path d="M66.968 19.401C67.2191 19.401 67.4909 19.3047 67.7626 19.112C67.8417 19.057 67.8589 18.9503 67.8039 18.8712C67.7489 18.7921 67.6422 18.7749 67.5631 18.8299C67.2638 19.0398 66.9783 19.1051 66.7616 19.0191C66.5758 18.9435 66.4417 18.7543 66.3901 18.4997C66.3729 18.4068 66.28 18.3449 66.1871 18.3655C66.0942 18.3827 66.0323 18.4756 66.0529 18.5685C66.1252 18.94 66.3384 19.2221 66.6308 19.3425C66.734 19.3838 66.8441 19.4044 66.9611 19.4044L66.968 19.401Z" fill="#191A20"/>
<path d="M56.0451 13.5188C56.0451 13.5188 56.052 13.5188 56.0589 13.5188C56.1552 13.5119 56.224 13.4294 56.2171 13.3365C56.1793 12.7689 56.3237 11.7816 57.1115 11.6681C57.2044 11.6543 57.2697 11.5683 57.256 11.472C57.2422 11.3791 57.1528 11.3138 57.0599 11.3275C56.021 11.4754 55.8215 12.676 55.8697 13.3606C55.8765 13.45 55.9522 13.5222 56.0417 13.5222L56.0451 13.5188Z" fill="#191A20"/>
<path d="M56.3892 10.6048C57.8236 10.1198 58.9313 11.6403 58.9313 11.6403C58.9313 11.6403 59.0792 14.6881 59.6193 14.406C60.156 14.1274 60.9678 10.4672 60.9678 10.4672C62.76 10.0544 65.2919 8.88484 66.0452 6.99284C71.0023 6.23948 73.7096 12.0118 73.7096 12.0118L73.7199 11.9946L73.7646 11.912C73.7646 11.912 75.0099 12.5966 75.402 11.1105C75.7151 9.9306 75.3848 5.7338 72.2579 3.27764C71.5148 2.69284 70.617 2.21124 69.5334 1.88788C69.4371 1.85692 69.3373 1.8294 69.2376 1.80188C64.6039 0.52564 62.8357 1.47164 62.8357 1.47164C62.8357 1.47164 56.4992 1.59892 56.3926 10.6014L56.3892 10.6048Z" fill="#797B87"/>
<path d="M59.552 14.5988C59.6036 14.5988 59.6517 14.5851 59.6999 14.561C60.2434 14.2789 60.8936 11.5923 61.1137 10.6119C62.9817 10.1613 65.369 8.99853 66.1705 7.15125C70.8833 6.51485 73.5287 12.0292 73.5562 12.0877C73.5837 12.1461 73.6422 12.184 73.7041 12.1874C73.7661 12.1874 73.8004 12.1702 73.8348 12.1324C74.0481 12.2149 74.4472 12.3181 74.829 12.1565C75.1833 12.0051 75.431 11.668 75.5652 11.1554C75.9229 9.81725 75.5067 5.61013 72.3591 3.14365C71.5541 2.51069 70.6185 2.03253 69.5761 1.72637C69.4798 1.69541 69.3766 1.66789 69.2768 1.64037C64.9356 0.44669 63.0711 1.17253 62.7856 1.30669C62.2352 1.34109 56.3184 1.91901 56.2152 10.605C56.2152 10.66 56.2427 10.7151 56.2874 10.7461C56.3321 10.7805 56.3906 10.7873 56.4457 10.7701C57.6221 10.3711 58.5853 11.4822 58.7642 11.7058C58.8055 12.5211 58.95 14.2996 59.3972 14.5576C59.4453 14.5851 59.4969 14.5988 59.552 14.5988ZM66.9273 6.75221C66.6349 6.75221 66.3322 6.77285 66.0226 6.82101C65.9641 6.83133 65.9125 6.86917 65.8885 6.92765C65.2108 8.62357 62.9094 9.84133 60.9314 10.2988C60.8661 10.3126 60.8179 10.3642 60.8007 10.4296C60.4188 12.153 59.8272 14.1035 59.5416 14.2548C59.3834 14.1482 59.1701 12.9477 59.1048 11.6336C59.1048 11.5992 59.091 11.5682 59.0738 11.5407C59.0291 11.4788 57.9902 10.0753 56.5661 10.378C56.769 1.88117 62.5861 1.65069 62.8372 1.64725C62.8647 1.64725 62.8922 1.64037 62.9129 1.62661C62.93 1.61629 64.7016 0.735651 69.1908 1.97061C69.2906 1.99813 69.3869 2.02565 69.4833 2.05317C70.4843 2.34901 71.3821 2.80653 72.1527 3.41197C75.1283 5.74773 75.5652 9.83101 75.2384 11.0625C75.1317 11.465 74.9494 11.7265 74.6983 11.8331C74.3061 12.0017 73.8521 11.7574 73.8486 11.7574C73.8245 11.7437 73.7936 11.7368 73.7661 11.7368C73.2604 10.7839 70.8764 6.75221 66.9273 6.75221Z" fill="#191A20"/>
<path d="M72.2574 3.44967C72.3056 3.44967 72.3572 3.42903 72.3916 3.38775C72.4501 3.31551 72.4397 3.20887 72.3709 3.14695C71.9925 2.82359 71.5694 2.54495 71.1188 2.31791C70.706 2.10807 70.2622 1.92919 69.8013 1.78815C69.7118 1.76063 69.643 1.73999 69.5742 1.72279C69.4813 1.70215 69.3919 1.75375 69.3678 1.84319C69.3437 1.93263 69.3953 2.02551 69.4848 2.05303C70.4858 2.34887 71.3837 2.80639 72.1508 3.41183C72.1817 3.43591 72.2196 3.44967 72.2574 3.44967Z" fill="#191A20"/>
<path d="M7.85477 95.0673C7.90637 95.0673 7.95452 95.0466 7.98892 95.0019L14.1809 87.3548C14.2394 87.2826 14.2291 87.1725 14.1568 87.114C14.0846 87.0555 13.9745 87.0658 13.916 87.1381L7.72405 94.7852C7.66557 94.8574 7.67589 94.9675 7.74813 95.026C7.77909 95.0535 7.81693 95.0638 7.85477 95.0638V95.0673Z" fill="url(#paint4_linear_4380_14773)"/>
<path d="M23.6284 62.1053C23.6834 62.1053 23.7385 62.0778 23.7729 62.0297L26.6865 57.709C26.7381 57.6299 26.7175 57.5233 26.6384 57.4717C26.5593 57.4201 26.4526 57.4407 26.401 57.5198L23.4873 61.8405C23.4357 61.9196 23.4564 62.0262 23.5355 62.0778C23.5665 62.0985 23.5974 62.1053 23.6318 62.1053H23.6284Z" fill="#191A20"/>
<path d="M15.4609 56.2091C15.5125 56.2091 15.5607 56.1885 15.5951 56.1437C17.8517 53.3057 19.9673 50.3095 21.88 47.2341C21.9316 47.155 21.904 47.0484 21.8249 46.9968C21.7424 46.9486 21.6392 46.9693 21.5876 47.0518C19.6784 50.1169 17.5731 53.1028 15.3233 55.9305C15.2648 56.0061 15.2752 56.1128 15.3508 56.1713C15.3818 56.1953 15.4197 56.2091 15.4575 56.2091H15.4609Z" fill="url(#paint5_linear_4380_14773)"/>
<path d="M68.9901 76.7871C69.0348 76.7871 69.083 76.7699 69.1174 76.7321C71.1229 74.5855 72.9942 72.2773 74.6798 69.8727C74.7349 69.7936 74.7142 69.687 74.6386 69.6319C74.5594 69.5769 74.4528 69.5975 74.3978 69.6732C72.7225 72.064 70.8614 74.3585 68.8662 76.4947C68.8009 76.5635 68.8043 76.6736 68.8731 76.739C68.9075 76.7699 68.9488 76.7837 68.9901 76.7837V76.7871Z" fill="url(#paint6_linear_4380_14773)"/>
<path d="M60.4407 104.28C60.4889 104.28 60.5371 104.259 60.5715 104.221L64.438 99.8316C64.4999 99.7594 64.4931 99.6527 64.4243 99.5874C64.352 99.5255 64.2454 99.5323 64.18 99.6011L60.3135 103.991C60.2515 104.063 60.2584 104.169 60.3272 104.235C60.3582 104.262 60.3995 104.276 60.4407 104.276V104.28Z" fill="url(#paint7_linear_4380_14773)"/>
<defs>
<linearGradient id="paint0_linear_4380_14773" x1="38.0922" y1="19" x2="38.0922" y2="101.292" gradientUnits="userSpaceOnUse">
<stop stop-color="#EEE420"/>
<stop offset="1" stop-color="#00D885"/>
</linearGradient>
<linearGradient id="paint1_linear_4380_14773" x1="64.6157" y1="46.9485" x2="64.6157" y2="56.7146" gradientUnits="userSpaceOnUse">
<stop stop-color="#EEE420"/>
<stop offset="1" stop-color="#00D885"/>
</linearGradient>
<linearGradient id="paint2_linear_4380_14773" x1="57.4152" y1="53.5637" x2="57.4152" y2="62.9068" gradientUnits="userSpaceOnUse">
<stop stop-color="#EEE420"/>
<stop offset="1" stop-color="#00D885"/>
</linearGradient>
<linearGradient id="paint3_linear_4380_14773" x1="58.4395" y1="20.7271" x2="58.4395" y2="31.5816" gradientUnits="userSpaceOnUse">
<stop stop-color="#EEE420"/>
<stop offset="1" stop-color="#00D885"/>
</linearGradient>
<linearGradient id="paint4_linear_4380_14773" x1="10.9525" y1="87.0762" x2="10.9525" y2="95.0673" gradientUnits="userSpaceOnUse">
<stop stop-color="#EEE420"/>
<stop offset="1" stop-color="#00D885"/>
</linearGradient>
<linearGradient id="paint5_linear_4380_14773" x1="18.596" y1="46.9712" x2="18.596" y2="56.2091" gradientUnits="userSpaceOnUse">
<stop stop-color="#EEE420"/>
<stop offset="1" stop-color="#00D885"/>
</linearGradient>
<linearGradient id="paint6_linear_4380_14773" x1="71.7651" y1="69.6008" x2="71.7651" y2="76.7871" gradientUnits="userSpaceOnUse">
<stop stop-color="#EEE420"/>
<stop offset="1" stop-color="#00D885"/>
</linearGradient>
<linearGradient id="paint7_linear_4380_14773" x1="62.3757" y1="99.5449" x2="62.3757" y2="104.28" gradientUnits="userSpaceOnUse">
<stop stop-color="#EEE420"/>
<stop offset="1" stop-color="#00D885"/>
</linearGradient>
</defs>
</svg>
