<svg width="135" height="128" viewBox="0 0 135 128" fill="none" xmlns="http://www.w3.org/2000/svg">
<path d="M79.1763 41.7898C79.1763 41.7898 79.4722 39.2442 74.5082 37.0013C69.5443 34.7584 57.8449 34.2012 53.3557 36.3615C48.8665 38.5218 43.1767 43.8951 40.4523 47.5793C37.7278 51.2636 32.5987 62.4195 30.4315 67.4625C28.2643 72.5056 26.0455 75.5809 19.1999 82.6742C12.3543 89.7675 8.99689 92.5023 8.99689 94.3702C8.99689 96.2381 11.1125 104.573 40.1048 111.292C69.0971 118.01 74.3363 117.762 75.3855 116.765C76.4347 115.767 74.9555 105.815 75.3855 101.584C75.8155 97.3527 77.9827 90.1975 77.7109 83.8748C77.4391 77.552 77.4391 75.6704 77.4391 75.6704L79.1729 41.7864L79.1763 41.7898Z" fill="url(#paint0_linear_4507_5685)"/>
<path d="M72.3156 117.83C73.9737 117.83 74.6789 117.579 75.016 117.259C75.6318 116.675 75.501 113.971 75.2327 109.602C75.0607 106.76 74.8818 103.819 75.0676 101.972C75.2121 100.544 75.5664 98.735 75.9379 96.8189C76.6672 93.0831 77.5719 88.4356 77.393 84.2388C77.1247 77.9952 77.1213 76.0619 77.1213 76.0413L78.855 42.1711C78.8722 41.9956 79.0339 39.45 74.0872 37.214C69.2678 35.0331 57.4376 34.3382 52.7902 36.5776C48.3422 38.7207 42.5974 44.0975 39.8214 47.8505C37.231 51.3559 32.2878 61.927 29.7834 67.7681C27.6025 72.8559 25.2977 75.9725 18.5863 82.9282C16.8456 84.7342 15.3526 86.234 14.0351 87.555C10.1204 91.4869 8.33504 93.2826 8.33504 94.7446C8.33504 96.3889 9.84176 104.944 39.5737 111.835C59.911 116.547 68.5557 117.837 72.3122 117.837L72.3156 117.83ZM61.5553 35.5319C66.1993 35.5319 71.2148 36.2887 73.9496 37.5236C78.714 39.6771 78.5214 42.1126 78.5179 42.1367C78.5179 42.1367 78.5179 42.1435 78.5179 42.147L76.7842 76.031C76.7842 76.0585 76.7842 77.9987 77.0525 84.2526C77.2314 88.4081 76.3266 93.0349 75.6042 96.7535C75.2293 98.6765 74.875 100.496 74.727 101.938C74.5378 103.812 74.7167 106.767 74.8922 109.623C75.0882 112.849 75.3118 116.509 74.7821 117.012C74.2317 117.535 72.5599 119.12 39.6562 111.494C27.3651 108.646 18.4968 105.195 13.2955 101.243C9.01273 97.9885 8.68249 95.4429 8.68249 94.7377C8.68249 93.4167 10.5538 91.5385 14.2828 87.7923C15.6003 86.4679 17.0933 84.9681 18.8374 83.1621C25.5832 76.1686 27.8983 73.0313 30.1034 67.8988C32.6042 62.0715 37.5269 51.5313 40.1034 48.05C42.852 44.3314 48.5452 39.0028 52.945 36.8838C54.892 35.9447 58.1222 35.5319 61.5587 35.5319H61.5553Z" fill="#191A20"/>
<path d="M39.5641 92.623L16.5918 125.915C16.5918 125.915 15.6011 136.359 23.8365 137.897L51.9722 105.031L54.9375 96.2454L47.2491 92.623H39.5607H39.5641Z" fill="#797B87"/>
<path d="M23.8377 138.069C23.8859 138.069 23.9341 138.048 23.9685 138.01L52.1042 105.144C52.1042 105.144 52.1283 105.11 52.1352 105.086L55.1004 96.3001C55.128 96.2175 55.0901 96.1281 55.011 96.0902L47.3226 92.4645C47.2985 92.4542 47.2744 92.4473 47.2504 92.4473H39.562C39.5069 92.4473 39.4519 92.4748 39.4209 92.5229L16.4486 125.815C16.4314 125.839 16.4211 125.867 16.4176 125.898C16.4073 126.004 15.5095 136.517 23.8033 138.065C23.8136 138.065 23.824 138.065 23.8343 138.065L23.8377 138.069ZM51.8221 104.945L23.7724 137.707C16.1562 136.204 16.7066 126.703 16.7616 125.974L39.6583 92.7947H47.216L54.7289 96.3379L51.8221 104.945Z" fill="#191A20"/>
<path d="M37.1495 76.0386C37.1495 76.0386 32.7566 82.1893 34.6245 89.544C36.4924 96.8988 52.5228 98.66 52.5228 98.66L36.5991 138.082C36.5991 138.082 43.5169 141.268 49.2273 142.475C49.2273 142.475 66.7472 109.31 69.5715 102.172C72.3957 95.0343 72.5436 92.4027 71.866 88.9971C71.1883 85.5915 66.3138 81.7456 66.3138 81.7456L37.146 76.0352L37.1495 76.0386Z" fill="#797B87"/>
<path d="M49.2373 142.649C49.2993 142.649 49.3577 142.615 49.3887 142.557C49.5641 142.226 66.9465 109.302 69.7432 102.236C72.5743 95.0811 72.7429 92.4633 72.0445 88.9648C71.3634 85.5351 66.6334 81.7718 66.4305 81.6135C66.4098 81.5963 66.3823 81.586 66.3582 81.5791L37.1904 75.8687C37.1285 75.855 37.0563 75.8825 37.0185 75.9375C36.9737 75.9995 32.6015 82.2362 34.466 89.5875C35.2572 92.7007 38.5389 95.2015 44.2287 97.0247C47.8717 98.1909 51.3805 98.6863 52.2886 98.8032L36.4509 138.019C36.4165 138.105 36.4543 138.202 36.5369 138.239C36.6057 138.27 43.5373 141.445 49.2029 142.643C49.2133 142.643 49.227 142.646 49.2373 142.646V142.649ZM66.2516 81.9094C66.6747 82.2499 71.0813 85.8688 71.7074 89.0336C72.3885 92.4633 72.2234 95.0399 69.4233 102.112C66.716 108.951 50.2865 140.124 49.1479 142.281C44.0051 141.17 37.8613 138.46 36.8327 137.995L52.6945 98.7241C52.7152 98.6725 52.7117 98.6175 52.6808 98.5727C52.6533 98.528 52.6051 98.4971 52.5535 98.4902C52.3953 98.473 36.6194 96.6635 34.8031 89.5049C33.1003 82.79 36.7157 77.0177 37.2386 76.2299L66.255 81.9094H66.2516Z" fill="#191A20"/>
<path d="M35.3586 76.4912C35.3586 76.4912 38.7126 79.0643 44.3267 81.204C49.9408 83.3402 54.0172 81.3485 62.0736 83.0925C70.1267 84.8401 71.8742 88.999 71.8742 88.999C76.3084 82.8242 76.7074 73.8458 76.7074 73.8458C76.7074 73.8458 85.1664 80.1376 89.5524 76.7389C93.9349 73.3436 91.6404 60.0067 84.9221 49.1535C82.8478 45.7995 80.3297 43.3261 77.8392 41.5064C76.9551 40.8631 76.0366 40.2817 75.0906 39.7657C69.5075 36.7145 62.9371 35.9198 56.69 37.5676C55.6684 37.8359 54.6776 38.1765 53.7798 38.6099C53.4908 38.7509 53.2122 38.9023 52.9439 39.0605C47.9765 42.0121 45.1557 48.0527 41.3992 55.7789C37.6393 63.5052 39.2492 68.218 39.2492 68.218L35.3586 76.4912Z" fill="#797B87"/>
<path d="M71.8712 89.1715C71.9262 89.1715 71.9778 89.144 72.0122 89.0993C75.9614 83.6021 76.7353 75.8105 76.8557 74.1662C77.499 74.6168 79.2947 75.8105 81.4137 76.7256C84.9604 78.2529 87.8087 78.3045 89.656 76.8769C94.1211 73.4163 91.9333 60.162 85.067 49.0645C83.206 46.0545 80.8083 43.4642 77.9394 41.3692C77.0518 40.7225 76.123 40.1343 75.1701 39.6148C69.5182 36.5257 62.941 35.7414 56.6423 37.4029C55.5381 37.6919 54.5474 38.0462 53.7011 38.4556C53.419 38.5932 53.1335 38.748 52.8514 38.9131C47.9941 41.7992 45.1665 47.6197 41.5854 54.9916L41.238 55.7037C37.6879 63 38.8678 67.5786 39.057 68.2047L35.1939 76.416C35.1595 76.4882 35.1801 76.5776 35.2455 76.6258C35.2799 76.6533 38.6855 79.2402 44.2583 81.3627C47.2305 82.4944 49.7554 82.4807 52.6726 82.4635C55.2698 82.4497 58.2144 82.4325 62.0294 83.2581C69.8863 84.9644 71.6889 89.0236 71.7061 89.0648C71.7302 89.1233 71.7852 89.1612 71.8471 89.168C71.854 89.168 71.8609 89.168 71.8677 89.168L71.8712 89.1715ZM76.7044 73.6743C76.6803 73.6743 76.6528 73.6812 76.6321 73.6915C76.5737 73.719 76.5358 73.774 76.5358 73.8394C76.5324 73.9288 76.099 82.6148 71.8987 88.6658C71.3621 87.7026 69.0779 84.438 62.1119 82.9244C58.2591 82.0885 55.2938 82.1057 52.6794 82.1195C49.7933 82.1332 47.3027 82.1504 44.389 81.0428C39.4251 79.1508 36.2018 76.8907 35.5757 76.4366L39.4045 68.2907C39.4251 68.2494 39.4251 68.2047 39.4113 68.1634C39.3941 68.1152 37.8737 63.4162 41.5545 55.8551L41.9019 55.143C45.4554 47.8261 48.2625 42.0435 53.0337 39.2089C53.3055 39.0507 53.5807 38.8993 53.8559 38.7652C54.6815 38.3661 55.6516 38.0187 56.7352 37.7332C62.9478 36.0957 69.4357 36.8697 75.0085 39.9141C75.9476 40.4267 76.8661 41.008 77.7398 41.6444C80.5709 43.7119 82.9377 46.2712 84.7781 49.2434C91.4414 60.0072 93.7083 73.3028 89.4496 76.6017C85.2184 79.8835 76.897 73.7672 76.8145 73.7052C76.7835 73.6812 76.7491 73.6708 76.7113 73.6708L76.7044 73.6743Z" fill="#191A20"/>
<path d="M67.8568 49.3362C68.0322 49.3362 68.2077 49.3328 68.3831 49.3224C76.9969 48.8993 77.0312 40.9151 77.0312 40.836C77.0312 40.7431 76.9521 40.664 76.8593 40.664C76.7629 40.664 76.6873 40.7431 76.6873 40.836C76.6873 41.1524 76.646 48.5725 68.3659 48.9784C60.0033 49.3878 52.2977 39.6044 52.222 39.5047C52.1635 39.429 52.0569 39.4152 51.9812 39.4737C51.9055 39.5322 51.8917 39.6388 51.9502 39.7145C52.0259 39.8143 59.5251 49.3328 67.8568 49.3328V49.3362Z" fill="#191A20"/>
<path d="M80.8935 67.4628C82.1078 63.1938 81.836 59.4167 79.1872 56.5856C76.5384 53.7544 69.9956 51.4152 67.5325 54.8793C65.0695 58.3434 64.354 63.8061 64.354 63.8061L80.8935 67.4663V67.4628Z" fill="#797B87"/>
<path d="M80.894 67.6343C80.9697 67.6343 81.0385 67.5861 81.0591 67.5105C82.387 62.8389 81.7987 59.1237 79.3116 56.4681C77.5607 54.5967 73.9349 52.7873 70.8836 52.9902C69.3563 53.0934 68.1488 53.7126 67.392 54.779C64.9359 58.2362 64.1894 63.7265 64.1825 63.7815C64.1722 63.8709 64.2272 63.9535 64.3167 63.9707L80.8562 67.6309C80.8562 67.6309 80.8803 67.6343 80.894 67.6343ZM71.3721 53.3205C74.2101 53.3205 77.4506 54.9889 79.0605 56.7054C81.4651 59.2751 82.0258 62.7289 80.7736 67.2628L64.5471 63.6749C64.6882 62.7598 65.4966 58.0436 67.6741 54.982C68.3793 53.9878 69.4698 53.434 70.9077 53.3377C71.0625 53.3273 71.2173 53.3239 71.3721 53.3239V53.3205Z" fill="#191A20"/>
<path d="M77.2794 55.7592L78.5006 57.5033C78.5006 57.5033 80.3892 57.5239 81.4969 56.4025C82.6046 55.281 83.953 52.677 82.8626 51.1599C82.8626 51.1599 82.9279 49.0374 80.3342 47.4034C77.7404 45.7694 74.4724 45.7694 73.6399 47.1798C72.8074 48.5902 77.276 55.7592 77.276 55.7592H77.2794Z" fill="#797B87"/>
<path d="M78.5127 57.6749C78.7019 57.6749 80.5113 57.6439 81.6224 56.5225C82.6854 55.4492 84.1749 52.7729 83.0363 51.1045C83.026 50.733 82.8608 48.7894 80.4253 47.2551C78.7088 46.175 76.5863 45.7243 75.0142 46.1027C74.2952 46.2782 73.7689 46.6187 73.4903 47.0866C72.6303 48.5417 76.6654 55.1018 77.1298 55.8448C77.1298 55.8448 77.1298 55.8482 77.1333 55.8517L78.3544 57.5957C78.3854 57.6405 78.437 57.668 78.492 57.668H78.5058L78.5127 57.6749ZM76.1838 46.3229C77.4807 46.3229 78.9977 46.7666 80.243 47.551C82.7232 49.1127 82.6923 51.1354 82.6923 51.1561C82.6923 51.1939 82.7026 51.2318 82.7233 51.2627C83.7036 52.6284 82.5478 55.0983 81.3748 56.2817C80.4632 57.2036 78.9633 57.3171 78.5884 57.3309L77.4222 55.6659C75.6472 52.8176 73.2185 48.2355 73.7896 47.2689C74.0201 46.8802 74.4707 46.5946 75.0968 46.4433C75.4305 46.3607 75.7985 46.3229 76.1838 46.3229Z" fill="#191A20"/>
<path d="M73.6476 47.1797C73.6476 47.1797 71.8795 48.0775 71.7247 50.0693C71.6662 50.8502 70.7684 51.0807 70.6032 51.9785C70.0597 54.93 72.6053 57.6511 75.2128 58.0363C77.8203 58.4216 79.8878 56.6603 79.8878 56.6603C79.8878 56.6603 81.8107 56.0549 81.4564 54.5791C81.1021 53.1034 79.4716 54.5791 79.4716 54.5791C79.4716 54.5791 78.6391 54.414 78.8627 53.2169C79.0863 52.0198 79.3443 50.5784 79.3443 50.5784C79.3443 50.5784 75.8527 48.6899 73.6442 47.1831L73.6476 47.1797Z" fill="white"/>
<path d="M75.9764 58.2631C78.1195 58.2631 79.7398 57.0075 79.9737 56.8115C80.6961 56.5707 81.9276 55.807 81.6249 54.5376C81.5286 54.1317 81.3291 53.8771 81.0332 53.7877C80.4381 53.5985 79.6813 54.1764 79.4302 54.3863C79.2582 54.3175 78.8763 54.0663 79.0311 53.2476C79.2547 52.0471 79.5127 50.6057 79.5127 50.6057C79.5265 50.5335 79.4921 50.4612 79.4267 50.4234C79.3923 50.4062 75.9179 48.5211 73.7404 47.0384C73.6888 47.004 73.6235 47.0006 73.565 47.0281C73.4893 47.066 71.7074 47.9913 71.5491 50.0553C71.5251 50.3855 71.3152 50.6057 71.0744 50.8603C70.8164 51.1355 70.5206 51.4485 70.4277 51.9473C70.1869 53.2442 70.5171 54.6064 71.3565 55.776C72.2922 57.0832 73.7198 57.9914 75.1818 58.2047C75.4501 58.2425 75.7115 58.2631 75.9695 58.2631H75.9764ZM80.7855 54.0939C80.8371 54.0939 80.8887 54.1007 80.9335 54.1145C81.1055 54.1695 81.2224 54.3312 81.2912 54.6168C81.6008 55.9171 79.9083 56.4709 79.8361 56.495C79.8155 56.5019 79.7948 56.5122 79.7776 56.5294C79.757 56.5466 77.7377 58.2356 75.2403 57.8675C73.8883 57.668 72.5123 56.7908 71.642 55.58C70.8577 54.486 70.5481 53.2167 70.7717 52.0127C70.8439 51.6136 71.0813 51.3625 71.329 51.1011C71.5904 50.8224 71.8587 50.5369 71.8966 50.0863C72.0204 48.466 73.2932 47.5957 73.6372 47.3859C75.6118 48.7171 78.553 50.3408 79.155 50.6711C79.0896 51.0426 78.8832 52.1984 78.6975 53.1891C78.4463 54.5411 79.4302 54.7509 79.4405 54.7543C79.4921 54.7647 79.5471 54.7509 79.5884 54.7131C79.7948 54.5273 80.3659 54.1008 80.7855 54.1008V54.0939Z" fill="#191A20"/>
<path d="M72.7923 53.5809C73.0778 53.5809 73.3737 53.4571 73.5388 53.1784C73.587 53.0959 73.5594 52.9927 73.4769 52.9445C73.3978 52.8964 73.2911 52.9239 73.243 53.0064C73.1019 53.2472 72.7614 53.292 72.5343 53.1819C72.4242 53.1268 72.2557 52.9961 72.3658 52.714C72.4036 52.6143 72.4621 52.5558 72.5446 52.5283C72.7682 52.4492 73.1191 52.6143 73.2258 52.6762C73.3083 52.7244 73.4115 52.6968 73.4597 52.6143C73.5078 52.5317 73.4803 52.4285 73.3978 52.3804C73.3427 52.3494 72.8405 52.0639 72.4277 52.2049C72.2522 52.2668 72.1181 52.401 72.0424 52.5902C71.8945 52.9686 72.0286 53.3229 72.3795 53.4949C72.5034 53.5534 72.6444 53.5878 72.7923 53.5878V53.5809Z" fill="#191A20"/>
<path d="M76.0095 53.0654C75.8891 53.2546 75.6827 53.3406 75.552 53.258C75.4213 53.1755 75.411 52.9519 75.5348 52.7627C75.5692 52.7076 75.6174 52.6595 75.6655 52.6216L75.8135 52.8865L75.8823 52.5391C75.9235 52.5391 75.9579 52.5494 75.9889 52.57C76.1196 52.6526 76.1299 52.8762 76.0095 53.0619V53.0654Z" fill="#191A20"/>
<path d="M72.4818 51.4456C72.3511 51.652 72.1275 51.7449 71.983 51.6554C71.8386 51.566 71.8317 51.3217 71.9624 51.1153C72.0002 51.0534 72.0518 51.0018 72.1034 50.9605L72.2651 51.2495L72.3408 50.8711C72.3855 50.8711 72.4233 50.8814 72.4577 50.9055C72.5988 50.9949 72.6091 51.2392 72.4784 51.4421L72.4818 51.4456Z" fill="#191A20"/>
<path d="M73.3481 55.0256C73.6233 55.0256 73.902 54.9018 74.1359 54.6679C74.2047 54.6025 74.2047 54.4924 74.1359 54.4236C74.0671 54.3548 73.9605 54.3548 73.8917 54.4236C73.6887 54.6266 73.4479 54.716 73.2312 54.6679C72.9766 54.6128 72.7599 54.3789 72.6154 54.0039C72.581 53.9145 72.4813 53.8698 72.3918 53.9042C72.3024 53.9386 72.2577 54.0383 72.2921 54.1278C72.4778 54.6128 72.784 54.9259 73.1555 55.005C73.2174 55.0187 73.2793 55.0256 73.3447 55.0256H73.3481Z" fill="#191A20"/>
<path d="M73.2636 50.8084C73.353 50.8084 73.4287 50.7396 73.4356 50.6501C73.4562 50.3715 73.3083 50.1066 73.0572 49.9759C72.8267 49.8555 72.5653 49.8796 72.3589 50.0447C72.2866 50.1032 72.2729 50.2132 72.3313 50.2855C72.3898 50.3612 72.4999 50.3715 72.5722 50.313C72.7063 50.2064 72.8301 50.2477 72.8955 50.2786C73.0021 50.3337 73.1019 50.4609 73.0882 50.6226C73.0813 50.7189 73.1535 50.7981 73.2464 50.8084C73.2498 50.8084 73.2533 50.8084 73.2602 50.8084H73.2636Z" fill="#191A20"/>
<path d="M76.7022 52.6738C76.7951 52.6738 76.8708 52.6016 76.8742 52.5087C76.8845 52.206 76.7951 51.9755 76.6093 51.8276C76.2688 51.5593 75.739 51.7003 75.7149 51.7072C75.622 51.7313 75.5704 51.8276 75.5945 51.917C75.6186 52.0099 75.7115 52.0615 75.8044 52.0374C75.911 52.0099 76.224 51.9618 76.3926 52.0959C76.4889 52.1716 76.5336 52.3058 76.5268 52.495C76.5268 52.5913 76.599 52.6704 76.6919 52.6738H76.6988H76.7022Z" fill="#191A20"/>
<path d="M81.5004 63.9562C81.583 63.9562 81.6552 63.8977 81.669 63.8152C81.6862 63.7223 81.6243 63.6328 81.5314 63.6156C70.8502 61.7099 68.8619 53.8564 68.8447 53.7772C68.824 53.6844 68.7312 53.6259 68.6383 53.65C68.5454 53.6706 68.4904 53.7635 68.511 53.8564C68.5316 53.9389 70.5612 62.0092 81.4729 63.9528C81.4832 63.9528 81.4936 63.9528 81.5039 63.9528L81.5004 63.9562Z" fill="#191A20"/>
<path d="M84.3906 67.3838C82.0342 67.6453 78.1092 65.8805 75.8009 64.9621C73.4927 64.0436 67.3145 60.7102 65.9144 62.1034C65.9144 62.1034 63.8951 63.8028 62.753 66.4516C61.6109 69.1004 70.8129 73.4657 75.1164 74.6697" fill="#797B87"/>
<path d="M75.1152 74.8451C75.1909 74.8451 75.2597 74.797 75.2804 74.7178C75.3044 74.625 75.2528 74.5321 75.16 74.5046C73.1751 73.9507 70.4162 72.8086 68.1355 71.5978C65.3525 70.122 63.5259 68.6944 62.9927 67.573C62.8035 67.1739 62.776 66.8299 62.9101 66.5203C64.0247 63.9403 66.0061 62.2513 66.0268 62.2341C67.0656 61.1986 71.345 63.1491 73.9009 64.3118C74.6302 64.6455 75.2632 64.931 75.7379 65.1202C76.0165 65.2303 76.3192 65.3542 76.6426 65.4849C79.03 66.455 82.298 67.7862 84.4101 67.5523C84.503 67.542 84.5718 67.456 84.5615 67.3631C84.5512 67.2702 84.472 67.2014 84.3723 67.2118C82.3427 67.4388 79.1263 66.1247 76.7733 65.1684C76.45 65.0377 76.1472 64.9138 75.8686 64.8038C75.4008 64.618 74.7712 64.3325 74.0454 64.0022C71.0698 62.6469 66.9934 60.7927 65.7963 61.983C65.724 62.0449 63.7426 63.7305 62.5971 66.3862C62.4251 66.7886 62.4526 67.2393 62.6831 67.7243C63.9834 70.4488 71.548 73.8544 75.0705 74.8382C75.0843 74.8417 75.1015 74.8451 75.1152 74.8451Z" fill="#191A20"/>
<path d="M65.9219 62.106C64.2328 60.3447 64.5218 58.2257 63.6205 57.9023C62.7192 57.579 62.8293 60.0042 62.8293 60.0042C62.8293 60.0042 62.0381 58.979 61.1747 57.6856C60.3112 56.3922 60.4213 55.8177 60.0601 55.7798C59.6989 55.742 59.0178 57.6856 60.9236 59.9491C60.9236 59.9491 59.6301 58.7623 59.09 57.9711C58.55 57.1799 58.4089 57.0354 57.9411 57.1077C57.4732 57.1799 57.9067 59.0857 59.7746 61.0258C59.7746 61.0258 58.5293 60.3791 57.7691 59.4813C57.0088 58.5834 56.7577 59.7702 57.6177 60.9192C58.4777 62.0682 59.1623 62.6426 59.1623 62.6426C59.1623 62.6426 58.2644 62.3537 57.6177 61.8514C56.971 61.3492 56.6476 61.8514 57.6177 63.0004C58.5878 64.1494 59.5957 64.3661 60.638 64.9406C61.6804 65.515 62.7571 66.4507 62.7571 66.4507C62.7571 66.4507 64.1572 63.5026 65.9184 62.1026L65.9219 62.106Z" fill="white"/>
<path d="M62.7604 66.6269C62.7604 66.6269 62.7845 66.6269 62.7948 66.6235C62.8464 66.6132 62.8911 66.5788 62.9152 66.5306C62.9289 66.5031 64.3187 63.6032 66.0284 62.2444C66.0662 62.2134 66.0903 62.1687 66.0938 62.1205C66.0938 62.0724 66.08 62.0242 66.0456 61.9898C65.1546 61.061 64.8313 60.0359 64.5733 59.2103C64.3462 58.4879 64.1673 57.9203 63.6789 57.7414C63.4346 57.6554 63.2592 57.7276 63.1525 57.8068C62.7707 58.0854 62.6778 58.9282 62.6572 59.4924C62.3476 59.0761 61.8453 58.3847 61.319 57.5935C60.8993 56.964 60.7136 56.5064 60.5898 56.2037C60.4522 55.8632 60.3593 55.6396 60.0772 55.612C59.9912 55.5983 59.8226 55.6292 59.6713 55.9148C59.3995 56.4273 59.3273 57.4696 59.8983 58.6874C59.6437 58.4122 59.3995 58.1232 59.2309 57.879C58.6977 57.0947 58.4982 56.8539 57.9134 56.9433C57.8378 56.9536 57.6967 57.0052 57.6313 57.2013C57.4731 57.676 57.8446 58.9076 58.8869 60.2664C58.5498 60.0221 58.1852 59.716 57.8962 59.372C57.4628 58.8594 57.1807 58.9936 57.0809 59.0727C56.7232 59.3582 56.9089 60.2698 57.4765 61.0232C57.8274 61.491 58.1473 61.8625 58.4053 62.1412C58.1783 62.0276 57.9341 61.8832 57.7208 61.718C57.2357 61.3431 56.9949 61.5254 56.933 61.5908C56.6888 61.8453 56.8952 62.4164 57.4834 63.1147C58.2196 63.9884 58.9936 64.3462 59.7401 64.6936C60.005 64.8175 60.2801 64.9448 60.5519 65.0927C61.5667 65.6534 62.6331 66.5719 62.6434 66.5822C62.6744 66.6097 62.7157 66.6235 62.7569 66.6235L62.7604 66.6269ZM65.6741 62.0896C64.2155 63.328 63.0459 65.5089 62.7053 66.1832C62.3579 65.8976 61.5392 65.244 60.7239 64.7968C60.4418 64.642 60.1632 64.5113 59.8914 64.3875C59.145 64.04 58.4432 63.7132 57.7517 62.898C57.1704 62.21 57.1601 61.8763 57.1876 61.8316C57.2014 61.8316 57.3149 61.8384 57.5144 61.9932C58.1783 62.5092 59.0761 62.8016 59.114 62.812C59.1931 62.836 59.2757 62.8016 59.3169 62.7328C59.3582 62.6606 59.341 62.5712 59.2757 62.5196C59.2688 62.5127 58.5945 61.9416 57.7586 60.8236C57.2013 60.0806 57.2014 59.427 57.3011 59.3479C57.3114 59.341 57.4215 59.3479 57.6382 59.6024C58.4122 60.5175 59.6437 61.1608 59.6953 61.1883C59.771 61.2261 59.8639 61.2055 59.9121 61.1401C59.9637 61.0713 59.9568 60.9784 59.8983 60.9165C58.4466 59.4064 57.9272 57.9891 57.9409 57.4456C57.9409 57.3183 57.9753 57.2839 57.9753 57.2839C58.3193 57.2323 58.4053 57.277 58.9489 58.0751C59.4924 58.8732 60.7549 60.0324 60.8065 60.0806C60.8718 60.1425 60.975 60.1391 61.0404 60.0806C61.1057 60.0187 61.1126 59.9155 61.0541 59.8467C59.6334 58.1576 59.7813 56.7954 59.8605 56.4204C59.9224 56.1177 60.029 55.9767 60.0703 55.956C60.1116 55.9664 60.1494 56.042 60.2698 56.3379C60.3971 56.6544 60.5897 57.1291 61.0301 57.7896C61.8866 59.0727 62.6813 60.1081 62.6916 60.1184C62.7363 60.1769 62.8154 60.201 62.8877 60.1735C62.9599 60.146 63.0046 60.0806 63.0012 60.0049C62.9737 59.3857 63.0459 58.3159 63.3555 58.0888C63.3933 58.0613 63.4518 58.0304 63.5619 58.0716C63.8921 58.1886 64.0401 58.6633 64.243 59.3169C64.4873 60.0944 64.8141 61.1436 65.6672 62.0964L65.6741 62.0896Z" fill="#191A20"/>
<path d="M73.7031 64.0363C71.2229 67.2527 70.0774 72.7154 70.0774 72.7154L67.5283 71.2775C67.5283 71.2775 68.5638 65.6118 71.216 62.9492L73.6997 64.0363H73.7031Z" fill="url(#paint1_linear_4507_5685)"/>
<path d="M70.0788 72.8863C70.1029 72.8863 70.1269 72.8828 70.151 72.8725C70.2026 72.8484 70.237 72.8037 70.2473 72.7521C70.2577 72.6971 71.4135 67.2894 73.8387 64.1418C73.8697 64.1005 73.8834 64.0455 73.8697 63.9939C73.8559 63.9423 73.8215 63.901 73.7733 63.8804L71.2897 62.7933C71.2243 62.7658 71.1486 62.7796 71.1005 62.8277C68.4379 65.4972 67.4059 71.0115 67.3646 71.2454C67.3509 71.3176 67.3853 71.3899 67.4506 71.4277L69.9997 72.8656C70.0272 72.8794 70.0547 72.8863 70.0857 72.8863H70.0788ZM73.4328 64.104C71.3309 66.9523 70.2061 71.3968 69.9618 72.4494L67.7224 71.1835C67.8875 70.3648 68.9401 65.5591 71.2587 63.1511L73.4362 64.104H73.4328Z" fill="#191A20"/>
<path d="M42.9134 71.1808C45.2698 73.2104 56.4567 76.9394 59.25 77.6584C62.0432 78.3773 66.5978 80.2762 67.5335 78.6594C67.5335 78.6594 69.7282 76.4716 69.57 72.1268C69.2156 70.5272 65.7481 70.2658 63.4571 69.6776C61.166 69.0893 48.9334 64.5932 48.9334 64.5932C48.9334 64.5932 55.7377 52.2746 55.2802 46.9082" fill="#797B87"/>
<path d="M65.9816 79.4607C66.759 79.4607 67.3645 79.2681 67.6706 78.7624C67.8873 78.5388 69.8963 76.3406 69.7415 72.1163C69.4388 70.7334 67.2613 70.2931 65.1525 69.87C64.5643 69.7496 64.007 69.6395 63.4979 69.5088C61.3961 68.9687 50.7286 65.0677 49.1772 64.4967C50.0372 62.9143 55.8817 51.9613 55.4483 46.8908C55.4414 46.7979 55.352 46.7291 55.2625 46.7325C55.1697 46.7394 55.0974 46.8254 55.1043 46.9183C55.5515 52.1712 48.8469 64.3832 48.7781 64.5036C48.7541 64.5483 48.7506 64.5999 48.7678 64.6481C48.785 64.6962 48.8229 64.7306 48.871 64.7478C49.3698 64.9301 61.1415 69.2542 63.4119 69.8356C63.9279 69.9697 64.4886 70.0798 65.0837 70.2002C66.9895 70.5855 69.1498 71.0224 69.4009 72.1541C69.5489 76.3372 67.4333 78.5078 67.4092 78.5285C67.3989 78.5388 67.3885 78.5525 67.3817 78.5629C66.7109 79.7187 63.6802 78.7933 61.2413 78.0503C60.5429 77.837 59.879 77.6341 59.2908 77.4827C56.6076 76.7913 45.3932 73.0829 43.023 71.043C42.9508 70.9811 42.8407 70.988 42.7788 71.0602C42.7169 71.1325 42.7237 71.2425 42.796 71.3045C45.204 73.3788 56.5009 77.1215 59.2013 77.8164C59.7861 77.9677 60.4432 78.1673 61.1381 78.3805C62.8237 78.8965 64.6503 79.4538 65.9747 79.4538L65.9816 79.4607Z" fill="#191A20"/>
<path d="M69.5709 72.1233C73.2621 71.7827 75.0853 70.8918 76.2755 70.3414C77.4657 69.791 77.335 71.4456 75.5531 72.6324C75.5531 72.6324 77.7581 73.1415 80.3037 72.6324C82.8493 72.1233 82.8081 73.7366 80.8129 74.3283C80.8129 74.3283 82.4675 75.7697 79.9632 76.4921C79.9632 76.4921 80.9401 77.8509 77.968 78.4013C77.968 78.4013 77.765 79.8014 75.9143 79.7601C74.0636 79.7188 72.3229 79.4642 70.8816 78.9104C69.4402 78.3566 67.531 78.6558 67.531 78.6558C67.531 78.6558 69.5675 74.8787 69.5675 72.1233H69.5709Z" fill="white"/>
<path d="M76.0003 79.9312C77.5758 79.9312 78.0092 78.9095 78.1124 78.5483C79.2889 78.3144 79.9976 77.9153 80.2177 77.3649C80.3416 77.0553 80.2831 76.7732 80.2108 76.5944C80.9642 76.3432 81.3976 75.9855 81.5008 75.5348C81.604 75.0739 81.3288 74.6473 81.1259 74.4065C82.1166 74.0384 82.5328 73.4296 82.4193 72.9824C82.3127 72.5455 81.69 72.1808 80.2693 72.4664C78.4048 72.8379 76.7124 72.6556 75.9762 72.5386C76.991 71.7405 77.4038 70.7808 77.1424 70.3129C77.0839 70.2063 76.8431 69.8898 76.1998 70.1856L76.0932 70.2338C74.9029 70.7876 73.1072 71.6236 69.5537 71.9504C69.4643 71.9572 69.3989 72.0329 69.3989 72.1224C69.3989 74.8056 67.4037 78.538 67.3831 78.5758C67.3521 78.6343 67.3556 78.7031 67.3934 78.7581C67.4312 78.8132 67.4931 78.8407 67.5619 78.8304C67.5791 78.8304 69.4436 78.5483 70.8265 79.0746C72.1991 79.5975 73.9088 79.8899 75.9177 79.9346C75.9452 79.9346 75.9762 79.9346 76.0037 79.9346L76.0003 79.9312ZM81.1809 72.7072C81.7382 72.7072 82.0375 72.8654 82.0856 73.0649C82.1647 73.3814 81.6832 73.894 80.7647 74.1657C80.7062 74.1829 80.658 74.2345 80.6443 74.293C80.6305 74.3515 80.6512 74.4168 80.6993 74.4581C80.7062 74.4616 81.2738 74.9672 81.1637 75.4626C81.0846 75.8169 80.6546 76.1162 79.9184 76.326C79.8634 76.3398 79.8221 76.3811 79.8049 76.4361C79.7877 76.4877 79.7946 76.5462 79.829 76.5944C79.8359 76.6047 80.0423 76.904 79.9012 77.2445C79.774 77.5541 79.3336 77.9772 77.9439 78.2352C77.8716 78.249 77.8166 78.3075 77.8063 78.3797C77.7994 78.4279 77.5999 79.5906 76.0037 79.5906C75.9796 79.5906 75.9521 79.5906 75.928 79.5906C73.9604 79.5459 72.2885 79.2638 70.9538 78.7547C69.8323 78.3247 68.4632 78.39 67.844 78.452C68.3119 77.5266 69.6879 74.6164 69.7498 72.284C73.2586 71.9435 75.0543 71.1076 76.2479 70.5503L76.3546 70.5021C76.4509 70.4574 76.7674 70.3267 76.8534 70.4849C77.0048 70.7532 76.6504 71.7061 75.4636 72.4939C75.4051 72.5317 75.3776 72.6005 75.3914 72.6693C75.4052 72.7381 75.4567 72.7897 75.5221 72.8069C75.615 72.8276 77.7925 73.3195 80.345 72.8069C80.6718 72.7416 80.9539 72.714 81.1878 72.714L81.1809 72.7072Z" fill="#191A20"/>
<path d="M75.5468 72.8049C75.6431 72.8049 75.7188 72.7292 75.7188 72.6329C75.7188 72.5365 75.6431 72.4609 75.5468 72.4609C75.5364 72.4609 74.3393 72.4574 71.8797 72.1237C71.7834 72.1065 71.6974 72.1753 71.6871 72.2717C71.6733 72.3645 71.7387 72.454 71.835 72.4643C74.3221 72.8014 75.4986 72.8049 75.5502 72.8049H75.5468Z" fill="#191A20"/>
<path d="M76.5462 75.1851C77.334 75.1851 78.913 75.0923 80.8634 74.4937C80.9529 74.4662 81.0045 74.3698 80.977 74.2804C80.9494 74.191 80.8531 74.1359 80.7637 74.1669C78.0736 74.9925 76.0543 74.8308 76.0371 74.8274C75.9442 74.8171 75.8582 74.8893 75.8514 74.9822C75.8445 75.075 75.9133 75.161 76.0062 75.1679C76.0302 75.1679 76.2229 75.1851 76.5497 75.1851H76.5462Z" fill="#191A20"/>
<path d="M76.7008 77.1619C78.7855 77.1619 79.9757 76.6769 80.0342 76.6528C80.1202 76.615 80.1649 76.5152 80.1271 76.4292C80.0892 76.3432 79.9895 76.3019 79.9035 76.3363C79.8897 76.3432 78.3761 76.9555 75.8236 76.7904C75.7308 76.7767 75.6482 76.8558 75.6413 76.9521C75.6344 77.0484 75.7067 77.1275 75.803 77.1344C76.1195 77.1551 76.4222 77.1654 76.7043 77.1654L76.7008 77.1619Z" fill="#191A20"/>
<path d="M76.169 78.6309C76.6266 78.6309 77.2217 78.6171 77.9785 78.5724C78.0748 78.5655 78.1471 78.4864 78.1402 78.3901C78.1333 78.2972 78.0611 78.2215 77.9579 78.2284C75.7631 78.3522 74.9306 78.2284 74.9238 78.2284C74.8309 78.2146 74.7415 78.28 74.7277 78.3729C74.7139 78.4658 74.7793 78.5552 74.8722 78.5689C74.8963 78.5689 75.2678 78.6274 76.169 78.6274V78.6309Z" fill="#191A20"/>
<path d="M66.3203 70.2903C66.3203 70.2903 65.9798 74.9068 63.5752 78.9075L60.5102 78.0131C60.5102 78.0131 63.073 73.3003 63.073 69.5645L66.3203 70.2869V70.2903Z" fill="url(#paint2_linear_4507_5685)"/>
<path d="M63.5745 79.0824C63.633 79.0824 63.6915 79.0515 63.7224 78.9999C66.1236 75.0095 66.4882 70.3517 66.4916 70.307C66.4985 70.221 66.44 70.1453 66.3575 70.1247L63.1101 69.4023C63.0585 69.3919 63.0069 69.4023 62.9656 69.4367C62.9244 69.4711 62.9003 69.5192 62.9003 69.5708C62.9003 73.2172 60.3822 77.8887 60.3581 77.9369C60.334 77.9816 60.3306 78.0367 60.3512 78.0848C60.3719 78.133 60.4132 78.1708 60.4613 78.1846L63.5264 79.079C63.5264 79.079 63.5573 79.0859 63.5745 79.0859V79.0824ZM66.1339 70.4239C66.0513 71.2323 65.556 75.209 63.492 78.704L60.7572 77.9059C61.2284 76.9978 63.1583 73.0934 63.2408 69.7807L66.1304 70.4239H66.1339Z" fill="#191A20"/>
<path d="M53.7774 38.6099C53.7774 38.6099 60.3581 47.9289 68.0465 47.5711C75.7349 47.2168 75.0882 39.7657 75.0882 39.7657C69.505 36.7145 62.9346 35.9198 56.6876 37.5676C55.6659 37.8359 54.6752 38.1765 53.7774 38.6099Z" fill="url(#paint3_linear_4507_5685)"/>
<path d="M67.618 47.7539C67.7624 47.7539 67.9069 47.7539 68.0514 47.7436C70.4044 47.6335 72.231 46.8595 73.4763 45.4388C75.5231 43.103 75.2685 39.89 75.2582 39.7524C75.2548 39.694 75.2204 39.6424 75.1688 39.6148C69.5168 36.5257 62.9361 35.7414 56.6409 37.4029C55.5367 37.6919 54.546 38.0462 53.6997 38.4556C53.655 38.4762 53.6206 38.5175 53.6068 38.5691C53.5931 38.6172 53.6068 38.6688 53.6344 38.7101C53.6997 38.803 60.1084 47.7539 67.618 47.7539ZM74.9211 39.8728C74.9452 40.4095 74.9796 43.1993 73.2148 45.2152C72.0349 46.5636 70.2908 47.2998 68.0376 47.403C61.0992 47.716 54.9691 39.9244 54.0368 38.6792C54.8212 38.318 55.7259 38.0015 56.7304 37.7366C62.912 36.106 69.3689 36.8663 74.9211 39.8728Z" fill="#191A20"/>
<path d="M66.2727 31.5273C65.2166 34.8745 64.6834 37.4063 64.4529 38.686C64.3463 39.2708 64.6559 39.8521 65.1994 40.0895C66.0938 40.4782 67.5455 40.9048 69.0281 40.4851C69.5235 40.3441 69.8915 39.9313 69.9603 39.4221L70.3594 36.5669L66.2727 31.5273Z" fill="white"/>
<path d="M67.7397 40.8335C68.1731 40.8335 68.6203 40.7785 69.0744 40.6512C69.6351 40.493 70.0514 40.0183 70.1305 39.4472L70.5295 36.592C70.5364 36.5439 70.5226 36.4957 70.4917 36.4613L66.405 31.4217C66.3637 31.3735 66.3018 31.3495 66.2398 31.3598C66.1779 31.3701 66.1263 31.4183 66.1091 31.4767C65.0393 34.8651 64.5061 37.4279 64.2825 38.656C64.1621 39.3234 64.5095 39.977 65.1322 40.2453C65.8098 40.5411 66.7318 40.8301 67.7431 40.8301L67.7397 40.8335ZM70.1786 36.6195L69.7899 39.3991C69.728 39.8359 69.4115 40.1971 68.9781 40.321C67.5677 40.7235 66.1814 40.3313 65.2663 39.9357C64.7916 39.7293 64.5267 39.2305 64.6196 38.7214C64.8329 37.538 65.3386 35.1094 66.3396 31.8895L70.1786 36.6195Z" fill="#191A20"/>
<path d="M61.6042 30.3919C62.6327 31.3586 64.1807 31.0662 64.1807 31.0662C64.5041 32.2461 64.9547 33.2781 65.4982 34.1759C66.7091 36.1883 68.381 37.5093 70.1388 38.1801C72.3714 39.0366 74.7381 38.8406 76.4443 37.6744C79.1447 35.8374 79.6814 31.1247 79.7226 28.0115L79.733 27.9943L79.7777 27.9117C79.8465 27.7638 79.9806 27.4576 80.1114 27.0139C80.3797 26.1126 80.6308 24.6265 80.2834 22.7207C80.2283 22.4146 80.1389 22.0912 80.0185 21.7575C79.4956 20.3265 78.412 19.1638 77.0532 18.4723C76.6404 18.2625 76.207 18.0871 75.7666 17.9529C70.7477 16.4634 68.8488 17.4782 68.8488 17.4782C68.8488 17.4782 62.5123 17.6055 62.4057 26.6079C61.2911 27.2753 60.8267 29.6523 61.6145 30.3954L61.6042 30.3919Z" fill="white"/>
<path d="M72.9126 38.8825C74.237 38.8825 75.496 38.5248 76.528 37.8161C79.2078 35.9929 79.8304 31.5106 79.8786 28.0534L79.913 27.9881C79.9852 27.8333 80.1228 27.5168 80.2604 27.0558C80.5356 26.1339 80.7902 24.6306 80.4359 22.6836C80.3774 22.3671 80.2845 22.0334 80.1607 21.6894C79.6309 20.2377 78.5473 19.0372 77.1094 18.3113C76.6966 18.1015 76.2563 17.9226 75.7953 17.7816C71.0791 16.3815 69.0804 17.1624 68.7812 17.3C68.2342 17.3344 62.3552 17.9089 62.2108 26.5054C61.5262 26.9733 61.134 27.9812 61.0446 28.8033C60.962 29.5601 61.1168 30.1828 61.4712 30.513C62.369 31.3558 63.604 31.3008 64.0408 31.2526C64.3539 32.3397 64.7873 33.351 65.3343 34.2592C66.4936 36.1856 68.1276 37.596 70.0608 38.3356C71.0068 38.6968 71.9735 38.8757 72.9092 38.8757L72.9126 38.8825ZM70.9656 17.3137C72.0492 17.3137 73.5972 17.4926 75.699 18.1153C76.1393 18.2494 76.5624 18.4214 76.958 18.6209C78.3168 19.3089 79.342 20.4407 79.8408 21.8098C79.9577 22.1332 80.0437 22.4497 80.0988 22.7455C80.4393 24.6237 80.1951 26.072 79.9302 26.9595C79.7995 27.3998 79.6722 27.6957 79.6034 27.8333L79.5621 27.9089C79.5484 27.933 79.5312 27.9777 79.5312 28.0053C79.4968 30.771 79.0324 35.6902 76.3285 37.5306C74.6567 38.6693 72.3588 38.8516 70.1812 38.0157C68.3202 37.3036 66.7447 35.9448 65.6267 34.0837C65.0728 33.1618 64.636 32.1298 64.3298 31.0153C64.3057 30.9293 64.2197 30.8742 64.1303 30.8914C64.1165 30.8914 62.6545 31.1563 61.7051 30.2619C61.4368 30.0073 61.3164 29.4776 61.3852 28.8377C61.4815 27.9296 61.9287 27.0696 62.4688 26.7462C62.5204 26.7153 62.5513 26.6602 62.5513 26.6017C62.6545 17.8813 68.5748 17.6474 68.8259 17.6405C68.8534 17.6405 68.8809 17.6337 68.9016 17.6199C68.9119 17.613 69.5311 17.3069 70.9552 17.3069L70.9656 17.3137Z" fill="#191A20"/>
<path d="M72.0269 28.381C71.3493 27.3902 69.6052 26.6678 68.8621 27.9682C68.8105 28.0507 68.8381 28.1539 68.9172 28.2055C68.986 28.2502 69.072 28.233 69.1305 28.1849C69.5329 27.865 69.9285 27.7686 70.4136 27.9166C70.8986 28.0507 71.363 28.3534 71.793 28.6321C71.9478 28.7422 72.1439 28.5323 72.0269 28.3844V28.381Z" fill="#191A20"/>
<path d="M78.6114 28.4627C78.0163 27.6405 76.7641 27.4789 75.9764 28.1015C75.8456 28.2391 75.5051 28.4077 75.6874 28.6209C75.739 28.6691 75.8147 28.6829 75.8766 28.6553C76.1002 28.559 76.3135 28.4593 76.5267 28.4008C77.1528 28.1909 77.8202 28.3595 78.3637 28.7035C78.522 28.8308 78.7352 28.6278 78.6114 28.4661V28.4627Z" fill="#191A20"/>
<path d="M75.6346 33.5122C76.0612 33.5122 76.4086 33.2473 76.5565 32.7932C76.646 32.5146 76.6219 32.2566 76.4843 32.0295C76.2297 31.6167 75.6587 31.4344 75.3766 31.3656C75.4213 30.97 75.5727 29.8554 75.958 28.5586C75.9855 28.4657 75.9339 28.3728 75.841 28.3453C75.7481 28.3178 75.6552 28.3694 75.6277 28.4622C75.1392 30.11 75.0223 31.4344 75.0188 31.4894C75.012 31.5789 75.0739 31.6614 75.1633 31.6752C75.38 31.7096 75.982 31.8747 76.1919 32.2118C76.2779 32.3494 76.2882 32.5077 76.2297 32.69C76.0543 33.2301 75.6312 33.1922 75.4557 33.151C75.036 33.0512 74.6267 32.635 74.7058 32.1396C74.7196 32.0467 74.6542 31.9573 74.5613 31.9435C74.4684 31.9298 74.379 31.9917 74.3652 32.088C74.2586 32.7794 74.809 33.3505 75.3766 33.4846C75.466 33.5053 75.552 33.5156 75.6346 33.5156V33.5122Z" fill="#191A20"/>
<path d="M70.0116 29.7364C69.9978 30.2455 70.273 30.6583 70.6204 30.6686C70.9679 30.679 71.2672 30.2765 71.2809 29.7708C71.2844 29.6194 71.2603 29.4715 71.2156 29.3442L70.6032 29.6538L70.9094 28.9211C70.8337 28.873 70.758 28.8454 70.6686 28.842C70.3212 28.8317 70.0219 29.2342 70.0081 29.7364H70.0116Z" fill="#191A20"/>
<path d="M76.8709 30.4747C76.8572 30.9838 77.1324 31.3966 77.4798 31.4069C77.8273 31.4172 78.1265 31.0148 78.1403 30.5091C78.1437 30.3577 78.1197 30.2098 78.0749 30.0825L77.4626 30.3921L77.7688 29.6594C77.6931 29.6112 77.6174 29.5837 77.528 29.5803C77.1805 29.57 76.8813 29.9724 76.8675 30.4747H76.8709Z" fill="#191A20"/>
<path d="M72.968 35.4007C73.2191 35.4007 73.4909 35.3044 73.7626 35.1118C73.8417 35.0567 73.8589 34.9501 73.8039 34.871C73.7489 34.7919 73.6422 34.7747 73.5631 34.8297C73.2638 35.0395 72.9783 35.1049 72.7616 35.0189C72.5758 34.9432 72.4417 34.754 72.3901 34.4995C72.3729 34.4066 72.28 34.3447 72.1871 34.3653C72.0942 34.3825 72.0323 34.4754 72.0529 34.5683C72.1252 34.9398 72.3384 35.2219 72.6308 35.3423C72.734 35.3835 72.8441 35.4042 72.9611 35.4042L72.968 35.4007Z" fill="#191A20"/>
<path d="M62.0451 29.5193C62.0451 29.5193 62.052 29.5193 62.0589 29.5193C62.1552 29.5124 62.224 29.4298 62.2171 29.337C62.1793 28.7694 62.3237 27.7821 63.1115 27.6686C63.2044 27.6548 63.2697 27.5688 63.256 27.4725C63.2422 27.3796 63.1528 27.3142 63.0599 27.328C62.021 27.4759 61.8215 28.6765 61.8697 29.361C61.8765 29.4505 61.9522 29.5227 62.0417 29.5227L62.0451 29.5193Z" fill="#191A20"/>
<path d="M62.3931 26.6053C63.8276 26.1203 64.9352 27.6408 64.9352 27.6408C64.9352 27.6408 65.0831 30.6886 65.6232 30.4065C66.1599 30.1279 66.9717 26.4677 66.9717 26.4677C68.7639 26.0549 71.2958 24.8853 72.0491 22.9933C77.0062 22.24 79.7135 28.0123 79.7135 28.0123L79.7238 27.9951L79.7685 27.9125C79.7685 27.9125 81.0138 28.5971 81.4059 27.111C81.719 25.9311 81.3887 21.7343 78.2618 19.2781C77.5187 18.6933 76.6209 18.2117 75.5373 17.8884C75.441 17.8574 75.3412 17.8299 75.2415 17.8024C70.6078 16.5261 68.8396 17.4721 68.8396 17.4721C68.8396 17.4721 62.5031 17.5994 62.3965 26.6019L62.3931 26.6053Z" fill="#797B87"/>
<path d="M65.552 30.5981C65.6036 30.5981 65.6517 30.5844 65.6999 30.5603C66.2434 30.2782 66.8936 27.5916 67.1137 26.6112C68.9817 26.1605 71.369 24.9978 72.1705 23.1505C76.8833 22.5141 79.5287 28.0284 79.5562 28.0869C79.5837 28.1454 79.6422 28.1832 79.7041 28.1867C79.7661 28.1867 79.8004 28.1695 79.8348 28.1316C80.0481 28.2142 80.4472 28.3174 80.829 28.1557C81.1833 28.0044 81.431 27.6672 81.5652 27.1547C81.9229 25.8165 81.5067 21.6094 78.3591 19.1429C77.5541 18.51 76.6185 18.0318 75.5761 17.7256C75.4798 17.6947 75.3766 17.6672 75.2768 17.6396C70.9356 16.446 69.0711 17.1718 68.7856 17.306C68.2352 17.3404 62.3184 17.9183 62.2152 26.6043C62.2152 26.6593 62.2427 26.7144 62.2874 26.7453C62.3321 26.7797 62.3906 26.7866 62.4457 26.7694C63.6221 26.3704 64.5853 27.4815 64.7642 27.7051C64.8055 28.5204 64.95 30.2988 65.3972 30.5568C65.4453 30.5844 65.4969 30.5981 65.552 30.5981ZM72.9273 22.7515C72.6349 22.7515 72.3322 22.7721 72.0226 22.8203C71.9641 22.8306 71.9125 22.8684 71.8885 22.9269C71.2108 24.6228 68.9094 25.8406 66.9314 26.2981C66.8661 26.3119 66.8179 26.3635 66.8007 26.4288C66.4188 28.1523 65.8272 30.1028 65.5416 30.2541C65.3834 30.1475 65.1701 28.9469 65.1048 27.6328C65.1048 27.5984 65.091 27.5675 65.0738 27.54C65.0291 27.478 63.9902 26.0745 62.5661 26.3772C62.769 17.8804 68.5861 17.65 68.8372 17.6465C68.8647 17.6465 68.8922 17.6396 68.9129 17.6259C68.93 17.6156 70.7016 16.7349 75.1908 17.9699C75.2906 17.9974 75.3869 18.0249 75.4833 18.0524C76.4843 18.3483 77.3821 18.8058 78.1527 19.4112C81.1283 21.747 81.5652 25.8303 81.2384 27.0618C81.1317 27.4643 80.9494 27.7257 80.6983 27.8324C80.3061 28.0009 79.8521 27.7567 79.8486 27.7567C79.8245 27.7429 79.7936 27.736 79.7661 27.736C79.2604 26.7832 76.8764 22.7515 72.9273 22.7515Z" fill="#191A20"/>
<path d="M78.2574 19.4502C78.3056 19.4502 78.3572 19.4295 78.3916 19.3882C78.4501 19.316 78.4397 19.2094 78.3709 19.1474C77.9925 18.8241 77.5694 18.5454 77.1188 18.3184C76.706 18.1086 76.2622 17.9297 75.8013 17.7886C75.7118 17.7611 75.643 17.7405 75.5742 17.7233C75.4813 17.7026 75.3919 17.7542 75.3678 17.8437C75.3437 17.9331 75.3953 18.026 75.4848 18.0535C76.4858 18.3494 77.3837 18.8069 78.1508 19.4123C78.1817 19.4364 78.2196 19.4502 78.2574 19.4502Z" fill="#191A20"/>
<path d="M13.8548 111.067C13.9064 111.067 13.9545 111.047 13.9889 111.002L20.1809 103.355C20.2394 103.283 20.2291 103.172 20.1568 103.114C20.0846 103.056 19.9745 103.066 19.916 103.138L13.724 110.785C13.6656 110.857 13.6759 110.968 13.7481 111.026C13.7791 111.054 13.8169 111.064 13.8548 111.064V111.067Z" fill="url(#paint4_linear_4507_5685)"/>
<path d="M29.6323 78.1053C29.6873 78.1053 29.7424 78.0778 29.7768 78.0297L32.6904 73.709C32.742 73.6299 32.7214 73.5233 32.6423 73.4717C32.5632 73.4201 32.4565 73.4407 32.4049 73.5198L29.4912 77.8405C29.4396 77.9196 29.4603 78.0262 29.5394 78.0778C29.5704 78.0985 29.6013 78.1053 29.6357 78.1053H29.6323Z" fill="#191A20"/>
<path d="M21.4609 72.2086C21.5125 72.2086 21.5607 72.188 21.5951 72.1432C23.8517 69.3052 25.9673 66.309 27.88 63.2337C27.9316 63.1545 27.904 63.0479 27.8249 62.9963C27.7424 62.9481 27.6392 62.9688 27.5876 63.0513C25.6784 66.1164 23.5731 69.1023 21.3233 71.93C21.2648 72.0057 21.2752 72.1123 21.3508 72.1708C21.3818 72.1948 21.4197 72.2086 21.4575 72.2086H21.4609Z" fill="url(#paint5_linear_4507_5685)"/>
<path d="M74.9901 92.7879C75.0348 92.7879 75.083 92.7707 75.1174 92.7328C77.1229 90.5863 78.9942 88.278 80.6798 85.8735C80.7349 85.7943 80.7142 85.6877 80.6386 85.6327C80.5594 85.5776 80.4528 85.5983 80.3978 85.6739C78.7225 88.0647 76.8614 90.3592 74.8662 92.4955C74.8009 92.5643 74.8043 92.6743 74.8731 92.7397C74.9075 92.7707 74.9488 92.7844 74.9901 92.7844V92.7879Z" fill="url(#paint6_linear_4507_5685)"/>
<path d="M66.4446 120.28C66.4928 120.28 66.541 120.259 66.5754 120.221L70.4419 115.832C70.5039 115.759 70.497 115.653 70.4282 115.587C70.3559 115.525 70.2493 115.532 70.1839 115.601L66.3174 119.991C66.2554 120.063 66.2623 120.169 66.3311 120.235C66.3621 120.262 66.4034 120.276 66.4446 120.276V120.28Z" fill="url(#paint7_linear_4507_5685)"/>
<defs>
<linearGradient id="paint0_linear_4507_5685" x1="44.0883" y1="35" x2="44.0883" y2="117.292" gradientUnits="userSpaceOnUse">
<stop stop-color="#EEE420"/>
<stop offset="1" stop-color="#00D885"/>
</linearGradient>
<linearGradient id="paint1_linear_4507_5685" x1="70.6157" y1="62.9492" x2="70.6157" y2="72.7154" gradientUnits="userSpaceOnUse">
<stop stop-color="#EEE420"/>
<stop offset="1" stop-color="#00D885"/>
</linearGradient>
<linearGradient id="paint2_linear_4507_5685" x1="63.4152" y1="69.5645" x2="63.4152" y2="78.9075" gradientUnits="userSpaceOnUse">
<stop stop-color="#EEE420"/>
<stop offset="1" stop-color="#00D885"/>
</linearGradient>
<linearGradient id="paint3_linear_4507_5685" x1="64.4395" y1="36.7266" x2="64.4395" y2="47.5811" gradientUnits="userSpaceOnUse">
<stop stop-color="#EEE420"/>
<stop offset="1" stop-color="#00D885"/>
</linearGradient>
<linearGradient id="paint4_linear_4507_5685" x1="16.9525" y1="103.076" x2="16.9525" y2="111.067" gradientUnits="userSpaceOnUse">
<stop stop-color="#EEE420"/>
<stop offset="1" stop-color="#00D885"/>
</linearGradient>
<linearGradient id="paint5_linear_4507_5685" x1="24.596" y1="62.9707" x2="24.596" y2="72.2086" gradientUnits="userSpaceOnUse">
<stop stop-color="#EEE420"/>
<stop offset="1" stop-color="#00D885"/>
</linearGradient>
<linearGradient id="paint6_linear_4507_5685" x1="77.7651" y1="85.6016" x2="77.7651" y2="92.7879" gradientUnits="userSpaceOnUse">
<stop stop-color="#EEE420"/>
<stop offset="1" stop-color="#00D885"/>
</linearGradient>
<linearGradient id="paint7_linear_4507_5685" x1="68.3797" y1="115.545" x2="68.3797" y2="120.28" gradientUnits="userSpaceOnUse">
<stop stop-color="#EEE420"/>
<stop offset="1" stop-color="#00D885"/>
</linearGradient>
</defs>
</svg>
