<svg width="16" height="16" viewBox="0 0 16 16" fill="none" xmlns="http://www.w3.org/2000/svg">
<path d="M7.99875 3.10156C4.81208 3.10156 2.21875 5.6949 2.21875 8.88156C2.21875 12.0682 4.81208 14.6682 7.99875 14.6682C11.1854 14.6682 13.7787 12.0749 13.7787 8.88823C13.7787 5.70156 11.1854 3.10156 7.99875 3.10156ZM8.49875 8.66823C8.49875 8.94156 8.27208 9.16823 7.99875 9.16823C7.72542 9.16823 7.49875 8.94156 7.49875 8.66823V5.3349C7.49875 5.06156 7.72542 4.8349 7.99875 4.8349C8.27208 4.8349 8.49875 5.06156 8.49875 5.3349V8.66823Z" fill="white"/>
<path d="M9.92708 2.2987H6.07375C5.80708 2.2987 5.59375 2.08536 5.59375 1.8187C5.59375 1.55203 5.80708 1.33203 6.07375 1.33203H9.92708C10.1937 1.33203 10.4071 1.54536 10.4071 1.81203C10.4071 2.0787 10.1937 2.2987 9.92708 2.2987Z" fill="white"/>
</svg>
