<svg width="310" height="261" viewBox="0 0 310 261" fill="none" xmlns="http://www.w3.org/2000/svg">
<path d="M36.2295 127.412L39.7239 141.591L31.1223 144.951C31.1223 144.951 26.4855 130.571 28.8375 129.092C31.1895 127.614 36.2295 127.412 36.2295 127.412Z" fill="white"/>
<path d="M31.0584 145.354C30.9912 145.354 30.924 145.354 30.8568 145.287C30.7224 145.22 30.6552 145.153 30.6552 145.018C29.8488 142.599 26.0856 130.234 28.572 128.689C31.0584 127.143 35.964 126.941 36.1656 126.941C36.3672 126.941 36.5688 127.076 36.5688 127.277L40.0632 141.389C40.1304 141.591 39.996 141.793 39.7944 141.86L31.1928 145.22C31.1256 145.22 31.0584 145.22 31.0584 145.22V145.354ZM35.8968 127.882C34.7544 127.949 30.924 128.285 29.0424 129.495C27.6312 130.369 29.5128 138.634 31.3944 144.413L39.1896 141.322L35.8968 127.882Z" fill="#282932"/>
<path d="M65.7988 214.839C65.7988 214.839 60.6244 212.151 60.2212 211.479C58.8772 209.664 57.3988 208.051 55.7188 206.573C54.3748 205.498 55.2484 201.735 54.9796 200.256C54.2404 196.56 52.0228 199.719 51.6868 201.735C51.5524 202.743 51.3508 203.818 51.2164 204.826C51.2164 204.96 51.1492 205.095 51.082 205.162C50.9476 205.229 50.8132 205.162 50.746 205.095C45.3028 202.944 43.2196 214.637 46.2436 217.527C48.6628 219.811 65.3284 224.986 65.3284 224.986L65.7988 214.839Z" fill="white"/>
<path d="M65.257 225.388C65.1898 225.388 65.1898 225.388 65.1226 225.388C64.4506 225.187 48.3226 220.147 45.9034 217.795C43.6186 215.644 44.089 209.596 46.0378 206.505C47.2474 204.556 48.9274 203.951 50.809 204.623L51.2794 201.532C51.481 200.121 52.6234 197.971 53.833 197.971C54.5722 197.971 55.1098 198.643 55.3786 199.987C55.4458 200.726 55.513 201.465 55.4458 202.204C55.3786 203.683 55.3114 205.497 55.9834 206.102C57.6634 207.648 59.209 209.328 60.553 211.142C60.8218 211.545 63.5098 213.091 65.929 214.368C66.0634 214.435 66.1306 214.569 66.1306 214.771L65.6602 224.918C65.6602 225.052 65.593 225.187 65.4586 225.254C65.4586 225.388 65.3242 225.388 65.257 225.388ZM49.3978 205.228C48.2554 205.295 47.2474 205.967 46.777 206.976C44.8954 210 44.6938 215.51 46.5082 217.19C48.3226 218.87 59.0074 222.566 64.921 224.38L65.3914 215.04C63.7114 214.166 60.2842 212.284 59.881 211.612C58.6042 209.865 57.1258 208.252 55.513 206.841C54.4378 206.035 54.5722 204.019 54.6394 202.271C54.7066 201.599 54.7066 200.927 54.6394 200.255C54.4378 199.247 54.1018 198.911 53.9674 198.911C53.4298 198.911 52.4218 200.39 52.2202 201.801L51.7498 204.892C51.7498 205.161 51.6154 205.363 51.4138 205.497C51.2122 205.631 50.9434 205.631 50.6746 205.497C50.2714 205.363 49.8682 205.295 49.3978 205.228Z" fill="#282932"/>
<path d="M97.451 133.93C101.886 134.266 105.717 137.155 107.195 141.322C108.337 144.614 108.069 148.579 110.622 150.998C112.168 152.41 114.318 152.947 116.334 152.41C118.35 151.872 120.097 150.662 121.24 148.915C122.248 153.149 120.702 157.517 117.208 160.07C114.184 162.221 110.219 162.624 106.59 161.75C102.961 160.877 99.7358 158.928 96.9134 156.576C92.2094 152.813 89.051 148.176 87.8414 142.262C86.699 136.886 92.4782 133.661 97.451 133.93Z" fill="white"/>
<path d="M110.147 162.691C108.937 162.691 107.727 162.556 106.518 162.287C103.359 161.548 100.134 159.801 96.6393 157.046C91.6665 153.081 88.6425 148.31 87.4329 142.463C86.9625 140.447 87.5001 138.364 88.8441 136.819C90.7257 134.668 94.0857 133.391 97.4457 133.593C102.015 133.929 105.98 136.953 107.593 141.254C107.996 142.396 108.265 143.606 108.467 144.748C108.937 147.033 109.34 149.251 110.886 150.729C112.364 152.006 114.38 152.543 116.262 152.073C118.143 151.603 119.823 150.393 120.899 148.78C120.966 148.646 121.167 148.579 121.302 148.579C121.436 148.579 121.571 148.713 121.638 148.847C122.713 153.215 121.1 157.785 117.471 160.473C115.321 162.019 112.767 162.758 110.147 162.691ZM96.7737 134.332C93.9513 134.332 91.0617 135.475 89.4489 137.289C88.2393 138.633 87.7689 140.515 88.1721 142.262C89.3145 147.907 92.2713 152.476 97.1097 156.374C100.47 159.062 103.628 160.742 106.652 161.481C110.415 162.355 114.246 161.75 116.934 159.868C120.025 157.583 121.571 153.753 120.966 149.99C119.756 151.401 118.143 152.476 116.329 152.879C114.179 153.417 111.894 152.812 110.214 151.334C108.467 149.654 107.996 147.235 107.526 144.883C107.324 143.74 107.055 142.598 106.719 141.455C105.241 137.423 101.545 134.668 97.3113 134.332C97.1769 134.399 96.9753 134.399 96.7737 134.332Z" fill="#282932"/>
<path d="M93.3512 143.07C92.1416 141.591 90.596 140.583 88.7816 140.046C87.4376 139.777 86.0264 139.844 84.6824 140.315C83.6744 140.516 82.868 141.121 82.3304 141.995C81.9272 142.935 82.2632 144.078 82.6664 145.019C84.0776 148.311 88.6472 155.636 93.0152 155.031C99.0632 154.225 95.636 145.623 93.3512 143.07Z" fill="#282932"/>
<path d="M92.5482 155.434C88.1802 155.434 83.8122 148.58 82.2666 145.086C81.8634 144.145 81.4602 142.868 81.9306 141.726C82.3338 140.852 83.1402 140.247 84.5514 139.844C85.9626 139.374 87.441 139.306 88.8522 139.575C90.465 139.978 92.0778 140.986 93.6234 142.734C95.169 144.481 97.7226 149.655 96.513 152.881C95.9754 154.359 94.6314 155.3 93.0858 155.367C92.8842 155.434 92.6826 155.434 92.5482 155.434ZM87.3066 140.247C86.433 140.247 85.6266 140.382 84.8202 140.65C83.9466 140.852 83.2074 141.322 82.737 142.129C82.3338 143.002 82.737 144.01 83.073 144.817C84.4842 148.11 88.9194 155.098 92.9514 154.628C94.161 154.561 95.3034 153.822 95.7066 152.679C96.7146 149.924 94.5642 145.086 93.0186 143.338C91.5402 141.726 90.129 140.785 88.6506 140.449C88.2474 140.247 87.777 140.247 87.3066 140.247Z" fill="#282932"/>
<path d="M123.854 250.589L124.66 264.23H81.2489L79.0312 245.078L123.854 250.589Z" fill="#282932"/>
<path d="M124.665 264.634H81.2536C81.052 264.634 80.8504 264.5 80.8504 264.298L78.6328 245.146C78.6328 245.012 78.6328 244.877 78.7672 244.81C78.8344 244.743 78.9688 244.676 79.1032 244.676L123.993 250.186C124.194 250.186 124.329 250.388 124.329 250.589L125.068 264.298C125.068 264.433 124.866 264.634 124.665 264.634ZM81.6568 263.828H124.262L123.522 250.925L79.5064 245.549L81.6568 263.828Z" fill="#282932"/>
<path d="M98.6661 182.113C98.6661 182.113 116.541 187.086 120.909 194.612C125.277 202.139 126.42 253.143 126.42 253.143C126.42 253.143 94.6341 257.847 78.4389 250.523C78.4389 250.523 74.7429 230.295 71.9205 216.318C70.5765 209.665 71.1141 200.727 70.7781 200.391C69.9045 199.451 40.9413 182.583 39.0597 179.627C37.1781 176.67 29.0469 142.935 29.0469 142.935L39.7317 137.492C39.7317 137.492 51.1557 167.732 53.1045 170.286C55.0533 172.839 79.0437 184.801 79.0437 184.801L98.6661 182.113Z" fill="#797B87"/>
<path d="M42.4161 120.087L42.5505 120.289C42.9537 120.759 43.6257 120.893 44.0961 120.557C44.5665 120.154 44.7009 119.482 44.2977 118.945C44.2305 118.877 44.2306 118.81 44.1634 118.743C37.2418 109.268 38.5185 100.733 41.9457 95.9622C44.3649 92.6022 47.9265 90.9894 50.7489 91.9302C53.5713 92.871 55.3185 95.1558 55.7217 98.7174C55.9233 100.532 55.8561 102.346 55.5201 104.161C55.3857 104.765 55.7889 105.37 56.4609 105.437C56.9985 105.505 57.6033 105.169 57.7377 104.631C58.6785 100.532 58.6113 92.1318 51.4881 89.7798C47.7249 88.503 43.1554 90.4518 40.1314 94.6182C36.301 100.129 34.8225 109.671 42.4161 120.087Z" fill="white"/>
<path d="M43.4922 121.162C43.425 121.162 43.3578 121.162 43.2906 121.162C42.8874 121.095 42.5514 120.893 42.2826 120.557L42.1482 120.355C34.4202 109.738 35.8986 99.9939 39.9306 94.4835C43.089 90.1827 47.793 88.1667 51.7578 89.4435C59.1498 91.9299 59.2842 100.531 58.2762 104.765C58.0074 105.571 57.201 106.042 56.3946 105.84C55.6554 105.639 55.185 104.899 55.3194 104.093C55.6554 102.346 55.7226 100.599 55.521 98.7843C55.1178 95.4243 53.505 93.2739 50.817 92.3331C48.129 91.3923 44.8362 93.0051 42.4842 96.2307C39.1242 100.867 37.9146 109.2 44.7018 118.474C44.769 118.541 44.8362 118.608 44.9034 118.743C45.3738 119.415 45.1722 120.355 44.5002 120.826C44.1642 121.095 43.8282 121.229 43.4922 121.162ZM42.753 119.818L42.8874 120.019C43.089 120.355 43.5594 120.423 43.8954 120.154C44.2314 119.885 44.2986 119.482 44.0298 119.146L43.8954 118.944C36.8394 109.267 38.1162 100.599 41.6778 95.6931C44.2314 92.1987 47.9274 90.5187 50.9514 91.4595C53.9754 92.4003 55.7898 94.8867 56.2602 98.5827C56.4618 100.464 56.3946 102.346 56.0586 104.16C55.9914 104.563 56.193 104.899 56.5962 104.967C56.9994 105.034 57.3354 104.832 57.4026 104.429C58.3434 100.464 58.2762 92.3331 51.4218 90.0483C47.8602 88.8387 43.4922 90.7203 40.5354 94.7523C36.705 100.195 35.2266 109.536 42.753 119.818Z" fill="#282932"/>
<path d="M47.8528 127.613C55.4464 138.097 64.9888 139.575 71.3728 137.492C76.2784 135.879 79.504 132.183 79.504 128.218C79.4368 120.692 71.5072 118.071 67.2736 117.735C66.6688 117.668 66.1312 118.138 66.064 118.743C65.9968 119.348 66.4672 119.885 67.072 119.953C68.8864 120.154 70.6336 120.625 72.3136 121.431C75.5392 122.977 77.2192 125.261 77.2192 128.285C77.2192 131.309 74.5984 134.132 70.6336 135.409C64.9888 137.223 56.5216 135.812 49.6672 126.337L49.5328 126.135C49.1296 125.665 48.4576 125.53 47.9872 125.866C47.5168 126.269 47.3824 126.941 47.7856 127.479L47.8528 127.613Z" fill="white"/>
<path d="M66.2028 138.702C60.3564 138.702 53.3676 135.879 47.5212 127.815L47.3868 127.614C47.118 127.278 47.0508 126.874 47.118 126.471C47.2524 125.665 48.0588 125.06 48.8652 125.194C49.2684 125.262 49.6044 125.463 49.8732 125.799L49.9404 125.934C56.7948 135.342 65.0604 136.753 70.5036 134.938C74.2668 133.729 76.8204 130.974 76.7532 128.218C76.686 125.463 75.1404 123.178 72.0492 121.767C70.4364 121.028 68.6892 120.558 66.942 120.356C66.0684 120.289 65.4636 119.55 65.5308 118.676C65.598 117.802 66.3372 117.198 67.2108 117.265C71.5116 117.668 79.71 120.356 79.8444 128.151C79.9116 132.318 76.4844 136.215 71.4444 137.828C69.7644 138.433 67.95 138.702 66.2028 138.702ZM48.1932 127.345C55.7196 137.626 64.9932 139.105 71.2428 137.089C75.9468 135.543 79.1052 131.982 79.038 128.218C78.9708 121.028 71.2428 118.474 67.2108 118.138C66.8076 118.138 66.4716 118.407 66.4716 118.81C66.4716 119.214 66.7404 119.55 67.1436 119.55C69.0252 119.751 70.8396 120.289 72.5196 121.028C75.8796 122.641 77.6268 125.06 77.694 128.218C77.7612 131.377 75.006 134.401 70.8396 135.745C65.0604 137.626 56.4588 136.215 49.4028 126.538L49.2684 126.337C49.0668 126.001 48.5964 125.934 48.2604 126.202C48.126 126.337 47.9916 126.471 47.9916 126.673C47.9916 126.874 47.9916 127.076 48.126 127.21L48.1932 127.345Z" fill="#282932"/>
<path d="M13.5237 134.669L25.1493 150.663C25.5525 151.268 26.3589 151.402 26.8965 150.999C27.2325 150.73 27.4341 150.327 27.4341 149.924V140.65L27.3669 140.583L47.6613 125.799L44.0325 120.826L23.8053 135.543L23.7381 135.476L14.8677 132.653C14.1957 132.452 13.4565 132.855 13.3221 133.527C13.2549 133.93 13.3221 134.333 13.5237 134.669Z" fill="white"/>
<path d="M26.1515 151.536C25.6139 151.536 25.1435 151.267 24.8075 150.864L13.1819 134.871C12.6443 134.131 12.7787 133.056 13.5851 132.519C13.9883 132.183 14.5931 132.115 15.0635 132.25L23.7995 135.005L43.8251 120.423C43.8923 120.355 44.0267 120.355 44.1611 120.355C44.2955 120.355 44.3627 120.423 44.4299 120.49L48.0587 125.463C48.1931 125.664 48.1259 125.933 47.9915 126.067L28.0331 140.583L27.8987 149.856C27.8987 150.595 27.4283 151.2 26.7563 151.469C26.5547 151.536 26.3531 151.536 26.1515 151.536ZM14.5259 133.056C14.2571 133.056 13.9883 133.191 13.8539 133.392C13.6523 133.661 13.6523 134.131 13.8539 134.4L25.4795 150.394C25.7483 150.797 26.2859 150.864 26.6891 150.595C26.8907 150.461 27.0251 150.192 27.0251 149.923L27.0923 140.717C27.0251 140.583 27.0923 140.381 27.2267 140.247L47.1179 125.799L43.9595 121.498L24.1355 135.946C24.0683 136.013 23.9339 136.013 23.7995 136.013C23.7323 136.013 23.6651 135.946 23.5979 135.879L14.8619 133.123C14.7275 133.056 14.6603 133.056 14.5259 133.056Z" fill="#282932"/>
<path d="M41.6785 129.965L38.2513 125.261C37.0082 120.5 36.0078 114 40.9393 108.125L58.8817 95.0879L76.7569 119.616L58.8145 132.653C50.5068 135 47.5068 134 41.6785 129.965Z" fill="white"/>
<path d="M52.2264 134.266C51.42 134.266 50.6136 134.199 49.74 134.065C41.2728 132.721 35.4264 124.724 36.7704 116.257C37.4424 112.158 39.66 108.529 43.02 106.11L58.5432 94.7528C58.6104 94.6856 58.7448 94.6855 58.8792 94.6855C59.0136 94.6855 59.0808 94.7528 59.148 94.82L77.0232 119.348C77.0904 119.415 77.0904 119.55 77.0904 119.684C77.0904 119.818 77.0232 119.886 76.956 119.953L61.3656 131.31C58.7448 133.191 55.5192 134.266 52.2264 134.266ZM58.7448 95.6935L43.4904 106.782C36.9048 111.62 35.4936 120.826 40.2648 127.412C45.1032 133.998 54.3096 135.409 60.8952 130.638L76.0824 119.55L58.7448 95.6935Z" fill="#282932"/>
<path d="M64.3226 109.871L56.393 112.492L51.5546 105.705V114.038L43.625 116.659L51.5546 119.212V127.545L56.4602 120.758L64.3226 123.379L59.417 116.591L64.3226 109.871Z" fill="url(#paint0_linear_4507_5758)"/>
<path d="M51.5534 127.948C51.4862 127.948 51.4862 127.948 51.419 127.948C51.2174 127.881 51.1502 127.747 51.1502 127.545V119.481L43.4894 116.995C43.2878 116.927 43.1534 116.659 43.2206 116.457C43.2878 116.323 43.355 116.255 43.4894 116.188L51.083 113.702V105.705C51.083 105.503 51.2174 105.369 51.3518 105.302C51.5534 105.235 51.6878 105.302 51.8222 105.436L56.5262 111.887L64.1198 109.401C64.3214 109.334 64.4558 109.401 64.5902 109.535C64.7246 109.67 64.7246 109.871 64.5902 110.006L59.8862 116.524L64.5902 122.975C64.7246 123.11 64.7246 123.311 64.5902 123.446C64.4558 123.58 64.3214 123.647 64.1198 123.58L56.5262 121.094L51.8222 127.612C51.755 127.881 51.6206 127.948 51.5534 127.948ZM44.9678 116.659L51.6878 118.809C51.8894 118.876 51.9566 119.011 51.9566 119.212V126.268L56.123 120.556C56.2574 120.422 56.3918 120.355 56.5934 120.422L63.3134 122.572L59.0798 116.86C58.9454 116.726 58.9454 116.524 59.0798 116.39L63.2462 110.678L56.5262 112.828C56.3246 112.895 56.1902 112.828 56.0558 112.694L51.8894 106.982V114.038C51.8894 114.239 51.755 114.374 51.6206 114.441L44.9006 116.591L44.9678 116.659Z" fill="#282932"/>
<path d="M92.4754 146.631C92.1395 146.093 91.7363 145.623 91.4003 145.152C88.1075 140.851 82.6643 140.784 78.0947 143.002C77.1539 143.405 76.213 144.144 76.1458 145.152C74.197 144.48 71.9122 145.555 70.6354 147.168C66.469 152.477 67.2754 160.272 69.2914 166.253C69.6946 167.664 70.3666 168.941 71.3074 170.083C72.2482 171.091 73.4578 171.898 74.8018 172.368C83.7394 176.064 96.1715 171.562 97.2467 161.011C97.7843 156.039 95.4322 150.73 92.4754 146.631Z" fill="#6C6E7A"/>
<path d="M81.452 174.047C79.1 174.047 76.8152 173.644 74.6648 172.703C73.3208 172.166 72.044 171.359 71.036 170.284C70.0952 169.075 69.356 167.731 68.9528 166.319C67.676 162.623 65.2568 153.283 70.364 146.831C71.5736 145.353 73.724 144.076 75.8744 144.547C76.2776 143.606 77.0168 142.934 77.9576 142.598C82.1912 140.582 88.0376 140.111 91.7336 144.883C92.0696 145.353 92.4728 145.823 92.8088 146.361C94.892 149.318 98.252 155.164 97.6472 161.011C97.1768 165.446 94.6232 169.343 90.7928 171.561C87.9704 173.174 84.7448 174.047 81.452 174.047ZM74.9336 145.286C73.388 145.353 71.9768 146.159 71.036 147.369C66.1976 153.484 68.5496 162.489 69.7592 166.051C70.1624 167.395 70.7672 168.671 71.6408 169.747C72.5816 170.687 73.724 171.427 74.9336 171.897C79.9736 173.913 85.6184 173.443 90.3224 170.755C93.9512 168.671 96.3704 164.975 96.7736 160.876C97.3784 155.299 94.0856 149.654 92.0696 146.764C91.7336 146.294 91.3976 145.823 90.9944 145.353C87.6344 140.918 82.1912 141.388 78.2264 143.337C77.4872 143.673 76.6136 144.278 76.5464 145.084C76.5464 145.286 76.3448 145.487 76.076 145.487C76.0088 145.487 76.0088 145.487 75.9416 145.487C75.74 145.42 75.3368 145.353 74.9336 145.286Z" fill="#282932"/>
<path d="M80.3093 174.72L81.7205 183.12C81.7205 183.12 84.4757 187.421 89.7173 185.136C94.9589 182.851 95.0261 178.752 95.0261 178.752L92.2037 163.229C92.0693 162.557 89.3141 160.608 88.7093 160.205C87.1637 159.062 85.4165 158.121 83.6021 157.382C82.7285 157.113 81.9221 156.71 81.1157 156.307C79.0997 155.097 77.8229 153.014 77.6885 150.662C78.0245 152.544 77.5541 154.493 76.3445 155.971C75.5381 156.979 74.3957 157.718 73.7237 158.861C72.3797 160.809 73.1189 162.422 73.5221 164.438C73.9925 166.79 73.8581 169.142 74.5973 171.427C75.8741 175.526 80.2421 174.72 80.3093 174.72Z" fill="white"/>
<path d="M86.7607 186.212C84.6103 186.145 82.5943 185.069 81.3847 183.322C81.3847 183.255 81.3175 183.255 81.3175 183.188L79.9735 175.124C77.0167 175.258 75.0007 173.981 74.1943 171.495C73.7911 170.151 73.5895 168.74 73.5223 167.329C73.4551 166.388 73.3207 165.38 73.1191 164.439C73.0519 164.103 72.9847 163.834 72.9175 163.565C72.5143 161.953 72.1783 160.407 73.3879 158.593C73.8583 157.988 74.3287 157.383 74.9335 156.913C75.3367 156.509 75.7399 156.106 76.0759 155.703C76.9495 154.561 77.4199 153.149 77.4199 151.671C77.3527 151.335 77.3527 150.999 77.2855 150.663C77.2855 150.461 77.4199 150.26 77.6887 150.26C77.8903 150.26 78.0919 150.394 78.1591 150.596C78.2263 150.932 78.2935 151.268 78.2935 151.671C78.6295 153.485 79.7719 155.098 81.3847 156.039C81.9895 156.375 82.5943 156.644 83.1991 156.845L83.8039 157.047C85.6855 157.786 87.4327 158.727 89.0455 159.937L89.1799 160.071C91.9351 162.087 92.5399 162.759 92.6743 163.229C92.6743 163.364 95.4967 178.753 95.4967 178.753C95.4967 179.021 95.4295 183.188 89.9863 185.607C88.9111 185.943 87.8359 186.145 86.7607 186.212ZM82.1239 182.919C82.5271 183.457 85.0135 186.682 89.5831 184.666C94.5559 182.516 94.6231 178.82 94.6231 178.685C93.5479 172.973 91.8007 163.229 91.8007 163.229C91.7335 163.095 91.3303 162.49 88.6423 160.609L88.4407 160.474C86.8951 159.332 85.2151 158.391 83.4007 157.719L82.8631 157.517C82.1911 157.316 81.5191 156.98 80.9143 156.644C79.6375 155.905 78.6295 154.829 78.0247 153.553C77.7559 154.561 77.2855 155.434 76.6807 156.241C76.2775 156.711 75.8743 157.114 75.4711 157.517C74.9335 157.988 74.4631 158.525 74.0599 159.063C73.0519 160.541 73.3207 161.818 73.7239 163.431C73.7911 163.7 73.8583 164.036 73.9255 164.372C74.1271 165.38 74.2615 166.388 74.3287 167.329C74.3959 168.673 74.6647 170.017 75.0007 171.293C75.6727 173.444 77.4199 174.519 80.1079 174.317C80.2423 174.317 80.3767 174.317 80.5111 174.385C80.6455 174.452 80.7127 174.586 80.7127 174.653L82.1239 182.919Z" fill="#282932"/>
<path d="M88.9219 163.497C88.9891 162.691 89.2579 161.952 89.7955 161.347C90.3331 160.809 90.8707 160.339 91.5427 160.003C91.8787 159.801 92.2819 159.667 92.6851 159.6C92.9539 159.6 93.2227 159.667 93.4915 159.734C94.1635 159.936 94.7011 160.339 95.1043 160.876C95.3731 161.347 95.4403 161.884 95.4403 162.422C95.4403 163.027 95.4403 163.632 95.3059 164.169C94.7683 166.588 92.3491 168.067 89.9971 167.462H89.9299" fill="white"/>
<path d="M90.9989 168.068C90.5957 168.068 90.1925 168 89.8565 167.933C89.6549 167.866 89.4533 167.664 89.5205 167.463C89.5877 167.261 89.7893 167.06 89.9909 167.127H90.0581C92.2085 167.664 94.4261 166.32 94.8965 164.17C95.0309 163.632 95.0309 163.095 95.0309 162.557C95.0309 162.087 94.9637 161.616 94.7621 161.213C94.4261 160.743 93.9557 160.407 93.4181 160.272C93.2165 160.205 92.9477 160.138 92.7461 160.138C92.4101 160.205 92.0741 160.34 91.8053 160.474C91.2005 160.81 90.6629 161.213 90.1253 161.684C89.6549 162.221 89.3861 162.893 89.3189 163.565C89.3189 163.767 89.1173 163.968 88.8485 163.968C88.6469 163.968 88.4453 163.767 88.4453 163.498C88.5125 162.624 88.8485 161.751 89.4533 161.079C89.9909 160.474 90.5957 160.004 91.3349 159.668C91.7381 159.399 92.1413 159.264 92.6117 159.197C92.9477 159.197 93.2837 159.264 93.6197 159.332C94.3589 159.533 95.0309 160.004 95.4341 160.676C95.7029 161.213 95.8373 161.818 95.8373 162.423C95.9045 163.028 95.8373 163.7 95.7029 164.304C95.2325 166.522 93.2837 168.068 90.9989 168.068Z" fill="#282932"/>
<path d="M80.1195 160.676C80.1195 160.676 77.8347 165.447 78.6411 166.052C79.4475 166.657 81.3291 165.917 81.3291 165.917" fill="white"/>
<path d="M79.5824 166.722C79.1792 166.722 78.7088 166.588 78.3728 166.386C77.432 165.647 78.8432 162.354 79.784 160.473C79.8512 160.271 80.12 160.204 80.3216 160.271C80.5232 160.338 80.5904 160.607 80.5232 160.809C79.448 163.026 78.7088 165.378 78.9104 165.714C79.3808 166.05 80.5904 165.714 81.128 165.513C81.3296 165.446 81.5984 165.513 81.6656 165.714C81.7328 165.916 81.6656 166.185 81.464 166.252C80.8592 166.588 80.2544 166.722 79.5824 166.722Z" fill="#282932"/>
<path d="M83.8357 160.032C84.2336 159.94 84.4551 159.427 84.3305 158.884C84.2059 158.341 83.7824 157.976 83.3845 158.067C82.9866 158.158 82.7651 158.672 82.8897 159.215C83.0142 159.757 83.4378 160.123 83.8357 160.032Z" fill="#282932"/>
<path d="M76.9875 161.346C77.3939 161.308 77.6811 160.827 77.6289 160.273C77.5767 159.719 77.2049 159.301 76.7985 159.339C76.392 159.377 76.1048 159.858 76.157 160.412C76.2092 160.966 76.581 161.384 76.9875 161.346Z" fill="#282932"/>
<path d="M80.3125 174.72C80.3125 174.72 85.7557 175.056 88.5109 172.771C88.5109 172.771 86.2933 180.432 81.2533 180.499L80.3125 174.72Z" fill="#282932"/>
<path d="M81.3284 180.903C81.1268 180.903 80.9252 180.769 80.9252 180.567L79.9844 174.788C79.9844 174.654 79.9844 174.519 80.0516 174.452C80.1188 174.385 80.2532 174.318 80.3876 174.318C80.4548 174.318 85.6964 174.654 88.3172 172.503C88.4516 172.369 88.6532 172.369 88.7876 172.503C88.922 172.638 88.9892 172.772 88.922 172.974C88.8548 173.242 86.57 180.836 81.3284 180.903ZM80.858 175.124L81.6644 180.03C84.9572 179.694 86.9732 175.796 87.7796 173.78C85.3604 175.057 82.0676 175.124 80.858 175.124Z" fill="#282932"/>
<path d="M79.9062 183.457L80.3095 187.959L98.655 182.113L96.639 178.014L79.9062 183.457Z" fill="white"/>
<path d="M80.3111 188.362C80.2439 188.362 80.1767 188.362 80.1095 188.295C79.9751 188.228 79.9079 188.094 79.9079 187.959L79.4375 183.524C79.4375 183.322 79.5047 183.121 79.7063 183.121L96.5063 177.678C96.7079 177.61 96.9095 177.678 97.0439 177.879L99.0599 181.978C99.1943 182.18 99.0599 182.449 98.8583 182.516C98.8583 182.516 98.8583 182.516 98.7911 182.516L80.4455 188.295C80.4455 188.362 80.3783 188.362 80.3111 188.362ZM80.3111 183.793L80.6471 187.422L98.0519 181.911L96.4391 178.551L80.3111 183.793Z" fill="#282932"/>
<path d="M90.7976 254.217C90.596 254.217 90.4616 254.083 90.3944 253.948C86.9672 245.414 86.7656 188.227 86.7656 185.808C86.7656 185.606 86.9672 185.404 87.1688 185.404C87.3704 185.404 87.572 185.606 87.572 185.808C87.572 186.412 87.7736 245.279 91.1336 253.679C91.2008 253.881 91.1336 254.15 90.932 254.217C90.8648 254.217 90.8648 254.217 90.7976 254.217Z" fill="#282932"/>
<path d="M36.7691 123.312C38.0459 125.395 38.5835 127.814 38.3147 130.3C38.3147 130.569 38.2475 130.838 37.9787 130.972C37.7771 131.04 37.5755 131.04 37.4411 130.905C36.7691 130.636 36.2315 130.032 36.0299 129.292C36.0299 130.032 36.2987 130.704 36.2987 131.443C36.2987 132.182 35.8283 132.988 35.0891 132.988C34.4843 132.988 34.0811 132.451 33.7451 131.98C33.8795 132.518 33.8795 133.056 33.7451 133.526C33.6107 134.064 33.2075 134.467 32.6699 134.534C31.9979 134.534 31.5275 133.862 31.1915 133.257C31.8635 133.929 31.3931 135.206 30.5195 135.542C29.5787 135.811 28.5707 135.542 27.8987 134.87C26.4203 133.526 26.0171 131.308 26.3531 129.292C26.6219 127.344 27.5627 125.462 29.1083 124.185C30.2507 123.244 31.6619 122.774 33.1403 122.774C34.4843 122.841 35.9627 122.035 36.7691 123.312Z" fill="white"/>
<path d="M29.9821 136.079C29.1757 136.012 28.3693 135.743 27.7645 135.139C26.3533 133.862 25.6813 131.644 26.0845 129.225C26.3533 127.142 27.3613 125.26 28.9741 123.849C30.1837 122.841 31.6621 122.371 33.2077 122.371C33.5437 122.371 33.8797 122.303 34.2829 122.236C35.2237 122.102 36.4333 121.833 37.1725 123.043C38.4493 125.193 39.0541 127.747 38.7853 130.233C38.7853 130.636 38.5837 131.039 38.2477 131.241C37.9789 131.375 37.6429 131.375 37.3741 131.241C37.1725 131.174 36.9709 131.039 36.7693 130.905C36.7693 131.039 36.7693 131.241 36.7693 131.375C36.7693 132.316 36.1645 133.324 35.1565 133.324C34.8877 133.324 34.5517 133.257 34.3501 133.055C34.3501 133.257 34.2829 133.391 34.2829 133.593C34.1485 134.332 33.5437 134.803 32.8045 134.87C32.5357 134.87 32.1997 134.803 31.9981 134.601C31.7965 135.139 31.3933 135.609 30.9229 135.811C30.5869 136.012 30.3181 136.079 29.9821 136.079ZM33.2077 123.244C31.8637 123.244 30.5197 123.647 29.5117 124.521C28.1005 125.798 27.1597 127.478 26.9581 129.359C26.6221 131.51 27.1597 133.459 28.3693 134.534C28.9069 135.139 29.7805 135.34 30.5869 135.139C30.9229 134.937 31.1917 134.601 31.2589 134.265C31.2589 134.131 31.2589 133.996 31.2589 133.862C31.1245 133.66 31.0573 133.526 30.9901 133.391C30.9229 133.19 30.9229 132.988 31.1245 132.854C31.2589 132.719 31.5277 132.719 31.6621 132.921C31.8637 133.055 31.9309 133.257 32.0653 133.526C32.3341 133.929 32.6029 134.131 32.8717 134.063C33.1405 133.996 33.4765 133.727 33.5437 133.391C33.6109 132.921 33.6109 132.451 33.4765 131.98C33.4093 131.779 33.4765 131.51 33.7453 131.443C33.9469 131.375 34.2157 131.443 34.2829 131.711C34.5517 132.115 34.8877 132.518 35.2909 132.518C35.6941 132.518 36.0301 131.913 36.0301 131.375C36.0301 131.039 35.9629 130.703 35.8957 130.367C35.8285 129.964 35.7613 129.628 35.7613 129.225C35.7613 129.023 35.9629 128.822 36.1645 128.822C36.3661 128.822 36.5005 128.956 36.5677 129.158C36.7021 129.763 37.1725 130.233 37.7101 130.502C37.7773 130.569 37.8445 130.569 37.9117 130.569C37.9117 130.569 37.9789 130.502 37.9789 130.233C38.1805 127.881 37.6429 125.529 36.4333 123.513C36.0301 122.841 35.4253 122.908 34.4173 123.11C34.0813 123.177 33.6781 123.244 33.2077 123.244Z" fill="#282932"/>
<path d="M79.7716 172.704C79.6372 172.704 79.5028 172.704 79.3684 172.637C77.4196 172.032 77.9572 168.605 78.0244 168.202C78.0244 168 78.226 167.866 78.4276 167.866C81.9892 167.732 81.9892 167.799 82.1908 168.068C82.3924 168.471 81.7876 171.092 80.914 172.1C80.6452 172.503 80.242 172.772 79.7716 172.704ZM78.8308 168.672C78.6964 169.68 78.6964 171.562 79.6372 171.831C79.7716 171.898 79.9732 171.831 80.0404 171.764C80.7124 171.226 81.1828 169.412 81.3172 168.672C80.8468 168.672 79.8388 168.672 78.8308 168.672Z" fill="#282932"/>
<path d="M110.084 207.649C110.084 207.649 102.557 221.089 101.146 223.71C99.735 226.33 64.119 211.681 64.119 211.681L62.6406 226.33C62.6406 226.33 111.025 251.934 112.973 246.087C114.922 240.241 123.457 205.633 123.457 205.633" fill="#797B87"/>
<path d="M100.144 224.246C93.8271 224.246 70.4415 215.308 67.5519 214.166C67.3503 214.099 67.2159 213.83 67.2831 213.628C67.3503 213.426 67.6191 213.292 67.8207 213.359C79.7151 217.929 98.3295 224.38 100.883 223.238C104.31 221.759 108.611 211.545 108.678 211.478C108.746 211.276 109.014 211.142 109.216 211.209C109.418 211.276 109.552 211.545 109.485 211.746V211.814C109.283 212.217 105.05 222.431 101.286 224.044C100.95 224.178 100.547 224.246 100.144 224.246Z" fill="#282932"/>
<path d="M108.876 247.43C103.635 247.43 72.4541 231.033 68.7581 229.085C68.5565 228.95 68.4892 228.749 68.5564 228.547C68.6908 228.345 68.8925 228.278 69.0941 228.345C83.6093 236.006 106.256 247.161 108.944 246.557C111.632 245.952 117.612 233.318 120.972 225.053C121.04 224.851 121.308 224.717 121.51 224.851C121.712 224.985 121.846 225.187 121.712 225.389C120.838 227.539 113.043 246.489 109.078 247.363C109.078 247.43 108.944 247.497 108.876 247.43Z" fill="#282932"/>
<path d="M280.568 112.695C280.904 113.77 281.038 114.845 280.971 115.988C280.971 118.81 280.299 121.565 278.888 123.985C277.746 125.933 274.99 128.957 272.437 128.957C270.085 128.89 270.219 128.017 270.622 126.001C271.026 123.985 271.496 119.213 272.37 117.332C273.781 114.241 274.117 110.813 274.99 107.588C277.275 108.461 279.762 110.41 280.568 112.695Z" fill="white"/>
<path d="M272.558 129.361C271.415 129.361 270.743 129.16 270.407 128.689C269.87 128.017 270.071 127.076 270.273 125.867C270.407 125.262 270.542 124.456 270.609 123.582C270.945 121.364 271.348 118.542 272.02 117.131C272.827 115.115 273.431 113.032 273.835 110.881C274.103 109.739 274.305 108.596 274.641 107.454C274.708 107.32 274.775 107.252 274.843 107.185C274.977 107.118 275.044 107.118 275.179 107.185C277.262 108.059 279.95 110.008 280.958 112.628C281.294 113.704 281.495 114.913 281.428 116.056C281.428 118.945 280.689 121.768 279.278 124.254C278.068 126.27 275.246 129.361 272.558 129.361ZM275.313 108.126C275.044 109.067 274.843 110.075 274.641 111.083C274.238 113.3 273.633 115.451 272.759 117.534C272.155 118.811 271.751 121.566 271.415 123.784C271.281 124.724 271.147 125.531 271.012 126.136C270.811 127.211 270.676 127.95 270.945 128.219C271.214 128.488 271.617 128.555 272.423 128.622C274.574 128.622 277.329 125.867 278.471 123.851C279.815 121.499 280.487 118.811 280.487 116.056C280.555 114.98 280.42 113.972 280.084 112.964C279.345 110.814 277.195 109.067 275.313 108.126Z" fill="#282932"/>
<path d="M205.766 252.539V265.24L249.311 264.232L249.177 239.973L205.766 252.539Z" fill="#282932"/>
<path d="M205.763 265.71C205.628 265.71 205.561 265.642 205.494 265.575C205.427 265.508 205.359 265.374 205.359 265.306V252.606C205.359 252.404 205.494 252.27 205.695 252.202L249.107 239.569C249.241 239.502 249.375 239.569 249.443 239.636C249.577 239.703 249.577 239.838 249.577 239.972L249.711 264.231C249.711 264.433 249.51 264.634 249.308 264.634L205.763 265.71ZM206.166 252.874V264.836L248.905 263.828L248.771 240.51L206.166 252.874Z" fill="#282932"/>
<path d="M239.837 256.1C239.837 256.1 242.794 257.981 243.265 257.78C243.735 257.578 246.356 256.637 247.364 256.704C248.372 256.772 249.044 257.04 250.388 258.452C251.732 259.863 252.874 260.468 251.799 261.879C251.799 261.879 253.815 262.215 252.135 264.5C250.455 266.784 248.775 268.464 247.767 268.599C246.759 268.733 232.445 261.341 232.445 261.341L239.837 256.1Z" fill="white"/>
<path d="M247.901 269.07C246.625 269.07 235.671 263.492 232.311 261.745C232.177 261.678 232.109 261.544 232.109 261.409C232.109 261.275 232.177 261.14 232.311 261.073L239.703 255.832C239.837 255.764 240.039 255.764 240.173 255.832C241.181 256.504 242.189 257.041 243.332 257.512L243.869 257.31C245.012 256.84 246.221 256.571 247.498 256.369C248.708 256.369 249.514 256.84 250.858 258.251C251.06 258.52 251.329 258.721 251.53 258.923C252.404 259.796 253.21 260.603 252.605 261.745C252.941 261.88 253.143 262.148 253.277 262.484C253.546 263.089 253.345 263.896 252.673 264.836C251.53 266.315 249.447 268.936 247.901 269.07ZM233.252 261.342C238.695 264.097 246.961 268.196 247.834 268.264C248.641 268.196 250.253 266.651 251.933 264.366C252.404 263.694 252.605 263.156 252.471 262.82C252.337 262.619 252.135 262.417 251.866 262.35C251.732 262.35 251.597 262.216 251.53 262.081C251.463 261.947 251.53 261.812 251.597 261.678C252.202 260.872 251.933 260.536 250.925 259.46C250.724 259.259 250.455 258.99 250.253 258.788C248.977 257.444 248.372 257.176 247.498 257.176C246.356 257.377 245.281 257.646 244.205 258.049L243.533 258.251C243.063 258.385 241.853 257.848 239.972 256.638L233.252 261.342Z" fill="#282932"/>
<path d="M219.678 180.969C219.678 180.969 202.878 188.764 199.72 196.828C196.561 204.892 203.617 255.494 203.617 255.494C203.617 255.494 235.806 255.091 250.59 245.28C250.59 245.28 251.665 198.24 252.405 197.097C253.144 195.955 271.355 156.71 272.833 153.484C274.312 150.259 283.115 118.876 283.115 118.876L271.422 117.6C271.422 117.6 261.073 145.084 259.595 147.84C258.117 150.595 239.569 180.432 239.569 180.432L219.678 180.969Z" fill="#797B87"/>
<path d="M271.561 98.9862L271.36 99.1206C270.822 99.4566 270.15 99.255 269.814 98.7174C269.545 98.247 269.613 97.7094 270.016 97.3062C270.083 97.239 270.15 97.239 270.217 97.1718C279.491 90.0486 280.701 81.5142 278.685 75.9366C277.273 72.039 274.317 69.4854 271.36 69.5526C268.403 69.6198 266.051 71.367 264.64 74.6598C263.901 76.3398 263.497 78.087 263.363 79.9014C263.363 80.5062 262.825 81.0438 262.221 81.0438C261.616 81.0438 261.078 80.5062 261.078 79.9014C261.078 79.8342 261.078 79.8342 261.078 79.767C261.347 75.5334 263.766 67.5366 271.225 67.2678C275.19 67.1334 279.021 70.2918 280.768 75.1302C282.985 81.5142 281.776 91.0566 271.561 98.9862Z" fill="white"/>
<path d="M270.685 99.7926C270.617 99.7926 270.55 99.7926 270.483 99.7926C270.08 99.7254 269.744 99.5238 269.475 99.1878C268.937 98.5158 269.072 97.575 269.744 97.0374C269.811 96.9702 269.811 96.9702 269.878 96.903C279.017 89.847 280.227 81.5142 278.278 76.071C276.934 72.3078 274.179 69.8886 271.357 70.023C268.534 70.1574 266.384 71.7702 265.04 74.8614C264.368 76.4742 263.897 78.2214 263.763 79.9686C263.696 80.8422 262.957 81.447 262.15 81.447C261.277 81.3798 260.672 80.7078 260.672 79.8342C260.941 75.5334 263.427 67.2006 271.222 66.9318C275.321 66.7974 279.353 70.023 281.168 75.063C283.453 81.5142 282.243 91.2582 271.827 99.3222L271.625 99.4566C271.357 99.7254 271.021 99.7926 270.685 99.7926ZM271.491 69.1494C274.582 69.1494 277.606 71.7702 279.017 75.8022C281.033 81.5142 279.891 90.183 270.416 97.5078L270.349 97.575L270.214 97.6422C269.878 97.911 269.878 98.3142 270.08 98.6502C270.349 98.9862 270.752 98.9862 271.088 98.7846L271.289 98.6502C281.369 90.855 282.579 81.5142 280.361 75.3318C278.681 70.695 275.053 67.6038 271.222 67.7382C264.032 68.007 261.68 75.8022 261.478 79.8342C261.478 80.2374 261.747 80.5734 262.15 80.5734C262.553 80.5734 262.889 80.3046 262.889 79.9014C263.024 78.0198 263.494 76.2054 264.233 74.4582C265.712 71.031 268.131 69.2166 271.289 69.0822L271.491 69.1494Z" fill="#282932"/>
<path d="M264.233 104.632C254.018 112.561 244.409 111.352 238.898 107.589C234.665 104.699 232.581 100.197 233.724 96.3661C235.874 89.1757 244.274 88.8397 248.373 89.7133C248.978 89.8477 249.381 90.4525 249.247 91.0573C249.113 91.6621 248.508 92.0653 247.903 91.9309C246.089 91.5949 244.274 91.5949 242.46 91.8637C238.898 92.4013 236.681 94.1485 235.807 97.0381C234.933 99.9277 236.681 103.355 240.108 105.707C245.013 109.067 253.548 110.008 262.821 102.885L263.023 102.75C263.493 102.347 264.233 102.481 264.636 102.952C265.039 103.422 264.905 104.161 264.434 104.565L264.233 104.632Z" fill="white"/>
<path d="M248.842 110.948C245.213 111.015 241.652 109.94 238.695 107.924C234.327 104.9 232.176 100.263 233.319 96.231C235.604 88.7718 244.205 88.4358 248.439 89.2422C249.245 89.4438 249.783 90.2502 249.581 91.0566C249.38 91.863 248.64 92.4006 247.834 92.2662C246.087 91.9974 244.272 91.9302 242.525 92.199C239.165 92.7366 237.015 94.3494 236.208 97.1046C235.402 99.8598 237.082 103.085 240.375 105.303C245.146 108.529 253.479 109.537 262.551 102.481L262.752 102.346C263.424 101.809 264.432 101.943 264.97 102.615C265.508 103.287 265.373 104.295 264.701 104.833L264.567 104.967C258.922 109.268 253.546 110.948 248.842 110.948ZM244.944 89.7798C240.845 89.7798 235.671 91.191 234.058 96.4998C232.983 100.129 234.999 104.429 239.098 107.252C244.474 110.948 253.882 112.09 263.962 104.362L264.096 104.228C264.231 104.093 264.365 103.959 264.365 103.757C264.365 103.556 264.365 103.354 264.231 103.22C264.029 102.884 263.626 102.817 263.29 103.085C263.29 103.085 263.223 103.085 263.223 103.153L263.088 103.287C253.546 110.612 244.877 109.604 239.837 106.177C236.276 103.757 234.461 100.061 235.402 97.0374C236.343 94.0134 238.695 92.1318 242.391 91.5942C244.272 91.3254 246.154 91.3254 247.968 91.6614C248.304 91.7286 248.708 91.527 248.775 91.191V91.1238C248.842 90.7206 248.573 90.3846 248.237 90.3174C247.162 89.9142 246.087 89.847 244.944 89.7798Z" fill="#282932"/>
<path d="M295.209 121.027L279.618 133.123C279.081 133.594 278.274 133.459 277.804 132.922C277.535 132.586 277.468 132.183 277.602 131.779L280.156 122.842L280.223 122.775L264.969 102.951L269.807 99.1875L285.129 118.944L285.196 118.877L294.47 118.675C295.142 118.675 295.746 119.213 295.746 119.885C295.679 120.355 295.545 120.759 295.209 121.027Z" fill="white"/>
<path d="M278.809 133.795C278.473 133.795 278.137 133.66 277.868 133.526C277.263 133.123 276.995 132.383 277.196 131.644L279.75 122.841L264.63 103.286C264.563 103.219 264.562 103.084 264.562 102.95C264.562 102.815 264.63 102.748 264.697 102.681L269.535 98.9179C269.737 98.7835 270.006 98.7835 270.14 98.9851L285.26 118.54L294.399 118.339C295.139 118.339 295.811 118.742 296.012 119.481C296.281 120.153 296.012 120.959 295.474 121.363L279.884 133.459C279.548 133.66 279.212 133.795 278.809 133.795ZM280.489 123.043L277.935 131.846C277.801 132.182 277.935 132.585 278.271 132.787C278.54 132.988 279.011 132.988 279.279 132.787L294.87 120.691C295.139 120.489 295.273 120.086 295.139 119.75C295.004 119.414 294.668 119.145 294.332 119.145L285.126 119.347C285.059 119.347 284.991 119.347 284.924 119.347C284.79 119.347 284.723 119.279 284.588 119.212L269.535 99.7915L265.369 103.017L280.422 122.438C280.623 122.639 280.623 122.908 280.489 123.043Z" fill="#282932"/>
<path d="M238.766 88.973L262.756 70.4258L276.33 87.965C279.5 95.5 276.33 102 274.113 105.168L269.476 108.73C264 111 258.5 110 252.273 106.512L238.766 88.973Z" fill="white"/>
<path d="M262.551 110.478C261.879 110.478 261.207 110.411 260.535 110.343C256.436 109.806 252.74 107.723 250.187 104.43L238.427 89.1754C238.359 89.1082 238.359 88.9738 238.359 88.8394C238.359 88.705 238.427 88.6378 238.494 88.5706L262.484 70.0234C262.686 69.889 262.955 69.889 263.089 70.0906L274.849 85.2778C280.091 92.065 278.881 101.876 272.094 107.118C269.406 109.335 266.046 110.478 262.551 110.478ZM239.367 88.9738L250.859 103.892C255.831 110.343 265.105 111.486 271.556 106.513C278.007 101.54 279.15 92.2666 274.244 85.8154L262.686 70.9642L239.367 88.9738Z" fill="#282932"/>
<path d="M253.349 83.0594L260.271 87.6962L266.856 82.6562L264.504 90.653L271.359 95.2899L263.026 95.5586L260.741 103.555L257.919 95.693L249.586 95.9619L256.172 90.8546L253.349 83.0594Z" fill="url(#paint1_linear_4507_5758)"/>
<path d="M260.736 103.959C260.535 103.959 260.4 103.825 260.333 103.69L257.645 96.1639L249.648 96.4327C249.447 96.4327 249.312 96.2983 249.245 96.1639C249.178 95.9623 249.245 95.8279 249.38 95.6935L255.696 90.7879L253.008 83.2615C252.941 83.0599 253.008 82.9255 253.143 82.7911C253.277 82.6567 253.479 82.6567 253.613 82.7911L260.266 87.2935L266.65 82.3879C266.784 82.2535 266.986 82.2535 267.12 82.3879C267.255 82.5223 267.322 82.6567 267.255 82.8583L264.97 90.5191L271.623 95.0215C271.757 95.1559 271.824 95.2903 271.757 95.4919C271.69 95.6935 271.556 95.7607 271.354 95.7607L263.357 96.0295L261.072 103.69C261.072 103.825 260.938 103.959 260.736 103.959ZM257.914 95.2903C258.116 95.2903 258.25 95.4247 258.317 95.5591L260.669 102.212L262.685 95.4247C262.752 95.2231 262.887 95.1559 263.088 95.1559L270.144 94.9543L264.298 90.9895C264.164 90.8551 264.096 90.7207 264.164 90.5191L266.112 83.7319L260.535 88.0327C260.4 88.1671 260.199 88.1671 260.064 88.0327L254.218 84.0679L256.57 90.7207C256.637 90.9223 256.57 91.0567 256.436 91.1911L250.858 95.4919L257.914 95.2903Z" fill="#282932"/>
<path d="M220.617 145.086C222.566 142.465 225.388 140.314 228.211 140.314C230.294 140.314 232.512 141.726 232.982 143.742C234.595 141.121 238.089 140.247 240.71 141.86C241.718 142.599 242.524 143.607 243.062 144.75C245.548 149.79 243.868 155.905 245.011 161.482C245.212 162.49 245.817 163.7 246.825 163.566C247.296 164.708 246.355 166.052 245.145 166.388C243.936 166.657 242.659 166.455 241.516 165.918C240.441 165.38 239.232 164.91 238.022 164.708C235.334 164.372 232.646 165.783 230.025 166.321C226.934 166.926 223.776 167.396 220.684 167.934C219.072 168.202 217.459 168.471 215.913 168.068C214.032 167.53 212.553 166.052 212.016 164.17C212.352 164.574 212.956 164.708 213.427 164.372C213.897 164.103 214.233 163.7 214.435 163.162C215.98 160.542 216.988 157.585 217.392 154.561C217.526 152.881 217.728 151.268 218.131 149.655C218.736 147.975 219.542 146.43 220.617 145.086Z" fill="#797B87"/>
<path d="M217.794 168.673C217.122 168.673 216.517 168.606 215.845 168.404C213.829 167.799 212.216 166.254 211.612 164.238C211.544 164.036 211.679 163.835 211.813 163.767C212.015 163.7 212.216 163.767 212.351 163.902C212.552 164.103 212.956 164.171 213.224 163.969C213.628 163.7 213.896 163.364 214.098 162.961C215.644 160.34 216.652 157.451 217.055 154.494C217.122 154.023 217.189 153.486 217.189 153.015C217.256 151.806 217.458 150.663 217.727 149.521C218.264 147.841 219.071 146.228 220.146 144.884C222.498 141.793 225.388 139.979 228.008 139.979H228.076C230.159 139.979 232.04 141.121 232.981 142.935C233.855 141.927 234.997 141.188 236.274 140.919C237.82 140.516 239.5 140.785 240.844 141.659C241.919 142.465 242.792 143.473 243.33 144.683C244.876 147.774 244.876 151.335 244.876 154.695C244.808 156.98 244.943 159.198 245.346 161.483C245.48 162.222 246.018 163.297 246.69 163.23C246.892 163.23 247.093 163.297 247.16 163.499C247.362 164.103 247.362 164.775 247.026 165.313C246.623 166.052 245.951 166.657 245.144 166.926C243.733 167.329 242.255 166.859 241.247 166.388L240.508 166.052C239.634 165.649 238.76 165.313 237.82 165.179C236.14 164.977 234.325 165.515 232.645 166.052C231.772 166.321 230.898 166.59 229.957 166.791C227.874 167.195 225.791 167.531 223.708 167.867C222.7 168.001 221.624 168.203 220.616 168.404C219.608 168.606 218.6 168.74 217.525 168.74L217.794 168.673ZM212.821 164.91C213.493 166.254 214.703 167.195 216.114 167.598C217.592 168.001 219.272 167.732 220.751 167.463C221.759 167.262 222.834 167.127 223.842 166.926C225.858 166.59 228.008 166.254 230.024 165.851C230.898 165.649 231.772 165.447 232.645 165.111C234.46 164.574 236.274 163.969 238.156 164.171C239.164 164.305 240.172 164.641 241.045 165.111L241.717 165.38C242.725 165.918 243.935 166.052 245.077 165.851C245.682 165.649 246.152 165.246 246.421 164.708C246.556 164.439 246.623 164.103 246.556 163.835C245.548 163.767 244.876 162.625 244.607 161.415C244.204 159.131 244.069 156.779 244.136 154.494C244.136 151.067 244.136 147.774 242.658 144.817C242.188 143.742 241.381 142.801 240.44 142.129C238.021 140.651 234.796 141.39 233.317 143.809C233.25 143.943 233.048 144.011 232.914 144.011C232.712 144.011 232.578 143.876 232.578 143.675C232.175 141.927 230.293 140.583 228.21 140.516C225.791 140.516 223.103 142.196 220.952 145.086C219.944 146.43 219.138 147.908 218.668 149.454C218.399 150.529 218.197 151.671 218.13 152.814C218.063 153.351 218.063 153.822 217.996 154.292C217.592 157.383 216.517 160.407 214.972 163.095C214.703 163.633 214.3 164.103 213.762 164.439C213.493 164.91 213.157 164.977 212.821 164.91Z" fill="#282932"/>
<path d="M236.609 170.688V179.223C236.609 179.223 234.593 183.927 229.015 182.448C223.438 180.97 222.766 177.005 222.766 177.005C222.766 177.005 223.034 161.28 223.034 161.213C223.034 160.944 224.782 159.399 224.983 158.995C225.857 157.248 226.126 155.098 226.798 153.216C227.134 152.275 227.47 151.402 227.94 150.528C228.746 149.117 230.292 147.84 231.905 148.243C233.383 148.647 234.055 150.327 234.324 151.805C234.862 150.595 236.138 149.789 237.415 149.991C238.423 150.125 240.305 151.805 240.708 152.544C241.178 153.351 241.044 154.963 241.178 155.904C241.649 159.331 242.186 163.095 241.716 166.589C241.178 170.755 236.676 170.688 236.609 170.688Z" fill="white"/>
<path d="M231.042 183.188C230.303 183.188 229.631 183.054 228.891 182.92C223.112 181.441 222.373 177.275 222.306 177.14C222.239 177.006 222.575 161.416 222.642 161.281C222.642 161.012 222.843 160.811 223.717 159.87C224.053 159.534 224.322 159.198 224.658 158.862C225.128 157.787 225.531 156.644 225.733 155.502C225.935 154.696 226.136 153.889 226.405 153.083C226.741 152.142 227.144 151.201 227.615 150.328C228.488 148.715 230.235 147.371 231.983 147.841C233.461 148.244 234.133 149.588 234.469 150.731C235.208 149.857 236.351 149.454 237.493 149.588C238.703 149.79 240.651 151.537 241.055 152.344C241.391 153.15 241.525 154.024 241.525 154.897C241.525 155.233 241.525 155.569 241.592 155.838L241.659 156.644C242.063 159.937 242.533 163.364 242.063 166.657C241.727 169.211 239.912 170.824 236.955 171.16V179.291C236.955 179.358 236.955 179.425 236.955 179.425C235.813 181.643 233.528 183.121 231.042 183.188ZM223.448 161.348C223.448 162.289 223.247 170.286 223.112 177.073C223.112 177.14 223.851 180.769 229.026 182.113C233.864 183.39 235.813 179.761 236.082 179.156V170.689C236.082 170.555 236.149 170.42 236.216 170.353C236.351 170.286 236.485 170.219 236.552 170.219C239.24 170.017 240.853 168.673 241.122 166.388C241.592 163.23 241.122 159.87 240.719 156.644L240.651 155.838C240.651 155.569 240.584 155.233 240.584 154.83C240.584 154.091 240.45 153.352 240.248 152.612C239.912 151.94 238.098 150.462 237.291 150.328C236.149 150.193 235.074 150.798 234.603 151.873C234.536 152.075 234.267 152.209 234.066 152.142C233.931 152.075 233.797 151.94 233.797 151.806C233.663 151.134 233.259 148.984 231.647 148.58C230.303 148.177 228.891 149.387 228.219 150.664C227.749 151.537 227.413 152.411 227.077 153.284C226.808 154.024 226.607 154.83 226.405 155.569C226.136 156.779 225.733 157.988 225.263 159.064C224.927 159.534 224.591 159.937 224.187 160.273C223.919 160.744 223.515 161.147 223.448 161.348Z" fill="#282932"/>
<path d="M226.331 161.012C226.129 160.273 225.726 159.533 225.121 159.063C224.516 158.593 223.844 158.257 223.172 158.055C222.836 157.853 222.433 157.786 221.963 157.853C221.694 157.921 221.425 157.988 221.156 158.122C220.552 158.391 220.081 158.929 219.812 159.533C219.678 160.071 219.611 160.609 219.745 161.146C219.812 161.751 219.947 162.289 220.148 162.893C221.089 165.178 223.643 166.253 225.928 165.313H225.995" fill="white"/>
<path d="M224.241 165.918C222.292 165.918 220.478 164.708 219.739 162.894C219.537 162.289 219.336 161.684 219.336 161.08C219.201 160.475 219.268 159.87 219.47 159.265C219.806 158.526 220.344 157.988 221.016 157.652C221.284 157.451 221.62 157.384 221.956 157.316C222.427 157.316 222.897 157.384 223.3 157.585C224.04 157.854 224.779 158.19 225.384 158.66C226.056 159.198 226.526 160.004 226.728 160.878C226.795 161.08 226.66 161.348 226.459 161.416C226.257 161.483 225.988 161.348 225.921 161.147V161.08C225.787 160.408 225.384 159.803 224.846 159.332C224.308 158.929 223.704 158.593 223.032 158.392C222.696 158.257 222.36 158.19 222.024 158.19C221.755 158.19 221.553 158.324 221.352 158.392C220.814 158.66 220.411 159.064 220.142 159.601C220.008 160.072 220.008 160.542 220.075 161.012C220.142 161.55 220.276 162.088 220.478 162.625C221.352 164.708 223.704 165.649 225.72 164.843C225.921 164.776 226.19 164.843 226.257 165.044C226.324 165.246 226.257 165.515 226.056 165.582C225.451 165.851 224.779 165.985 224.241 165.918Z" fill="#282932"/>
<path d="M234.534 156.846C234.534 156.846 237.558 161.147 236.886 161.953C236.214 162.759 234.266 162.289 234.266 162.289" fill="white"/>
<path d="M235.469 162.759C234.999 162.759 234.596 162.691 234.193 162.624C233.991 162.557 233.857 162.288 233.924 162.087C233.991 161.885 234.193 161.818 234.394 161.818C234.932 161.952 236.276 162.087 236.612 161.616C236.746 161.213 235.671 159.063 234.26 157.047C234.125 156.845 234.26 156.576 234.461 156.509C234.596 156.442 234.797 156.442 234.932 156.576C236.141 158.323 238.023 161.28 237.217 162.221C236.746 162.624 236.074 162.826 235.469 162.759Z" fill="#282932"/>
<path d="M231.974 154.657C232.007 154.101 231.704 153.631 231.296 153.606C230.889 153.582 230.531 154.012 230.498 154.568C230.465 155.124 230.768 155.594 231.175 155.618C231.583 155.643 231.94 155.212 231.974 154.657Z" fill="#282932"/>
<path d="M238.435 156.917C238.842 156.89 239.142 156.418 239.105 155.862C239.068 155.307 238.707 154.878 238.3 154.906C237.893 154.933 237.593 155.405 237.63 155.961C237.667 156.516 238.027 156.945 238.435 156.917Z" fill="#282932"/>
<path d="M234.724 165.381C233.044 165.381 230.76 165.112 229.348 163.902C229.147 163.768 229.147 163.499 229.281 163.298C229.416 163.096 229.684 163.096 229.886 163.23C232.171 165.112 236.942 164.373 236.942 164.373C237.144 164.373 237.345 164.507 237.412 164.776C237.412 164.978 237.278 165.179 237.076 165.246C236.27 165.314 235.464 165.381 234.724 165.381Z" fill="#282932"/>
<path d="M236.608 170.689C236.608 170.689 231.299 171.898 228.141 170.084C228.141 170.084 231.568 177.274 236.541 176.535L236.608 170.689Z" fill="#282932"/>
<path d="M235.874 177.005C231.103 177.005 227.944 170.554 227.81 170.285C227.743 170.15 227.743 169.949 227.877 169.814C228.011 169.68 228.213 169.68 228.347 169.747C231.304 171.427 236.411 170.285 236.479 170.285C236.613 170.285 236.747 170.285 236.815 170.352C236.882 170.419 236.949 170.554 236.949 170.688V176.534C236.949 176.736 236.815 176.938 236.613 176.938C236.411 177.005 236.143 177.005 235.874 177.005ZM229.154 170.957C230.296 172.771 232.85 176.333 236.21 176.131V171.158C234.933 171.427 231.707 171.83 229.154 170.957Z" fill="#282932"/>
<path d="M238.421 179.29L238.689 183.792L219.672 180.97L221.016 176.602L238.421 179.29Z" fill="white"/>
<path d="M238.7 184.195L219.615 181.44C219.413 181.373 219.212 181.171 219.279 180.97V180.902L220.623 176.534C220.69 176.333 220.892 176.198 221.093 176.266L238.498 178.954C238.7 178.954 238.834 179.155 238.834 179.357L239.103 183.792C239.103 183.926 239.036 184.061 238.968 184.128C238.968 184.195 238.834 184.195 238.7 184.195ZM220.22 180.634L238.296 183.254L238.095 179.626L221.362 177.005L220.22 180.634Z" fill="#282932"/>
<path d="M212.492 207.984C212.492 207.984 216.591 236.88 218.472 239.3C220.354 241.719 242.127 256.167 242.127 256.167L234.332 263.492C234.332 263.492 208.661 258.048 205.772 252.605C202.882 247.162 198.984 208.186 198.984 208.186" fill="#797B87"/>
<path d="M238.962 250.857H238.895C238.694 250.79 238.559 250.588 238.559 250.387C240.575 241.584 231.302 183.388 231.234 182.851C231.234 182.649 231.369 182.448 231.57 182.38C231.772 182.313 232.041 182.515 232.041 182.716C232.444 185.136 241.382 241.584 239.366 250.588C239.298 250.723 239.164 250.857 238.962 250.857Z" fill="#282932"/>
<path d="M242.121 256.571C242.054 256.571 241.987 256.571 241.92 256.504C239.568 255.16 219.139 242.997 218.064 239.368C216.988 235.739 212.553 200.661 212.352 199.115C212.352 198.913 212.486 198.712 212.755 198.645C212.956 198.645 213.158 198.779 213.225 198.981C213.292 199.317 217.862 235.605 218.937 239.099C219.744 241.921 236.14 252.069 242.39 255.765C242.592 255.899 242.659 256.168 242.524 256.369C242.39 256.504 242.256 256.571 242.121 256.571Z" fill="#282932"/>
<path d="M276.467 104.296C274.653 105.976 273.443 108.126 273.04 110.546C272.973 110.814 272.973 111.083 273.175 111.285C273.309 111.419 273.511 111.419 273.712 111.419C274.451 111.352 275.123 110.882 275.459 110.277C275.258 110.949 274.787 111.554 274.586 112.226C274.384 112.898 274.586 113.838 275.325 114.04C275.93 114.107 276.467 113.906 276.871 113.435C276.602 113.906 276.467 114.376 276.4 114.914C276.333 115.451 276.669 115.989 277.139 116.19C277.811 116.392 278.416 115.854 278.887 115.384C278.08 115.854 278.147 117.198 278.887 117.803C279.693 118.341 280.701 118.341 281.575 117.87C283.389 116.997 284.33 114.981 284.599 112.965C284.935 111.016 284.464 109 283.389 107.32C282.583 106.11 281.373 105.237 279.962 104.901C278.819 104.43 277.61 103.221 276.467 104.296Z" fill="white"/>
<path d="M280.221 118.608C279.683 118.608 279.079 118.474 278.675 118.138C278.205 117.734 277.936 117.197 277.936 116.592C277.667 116.659 277.331 116.659 277.063 116.592C276.391 116.323 275.987 115.651 275.987 114.912C275.987 114.71 275.987 114.576 276.055 114.374C275.786 114.442 275.45 114.442 275.181 114.374C274.24 114.106 273.904 112.963 274.173 112.09C274.24 111.955 274.24 111.754 274.307 111.619C274.106 111.686 273.837 111.754 273.635 111.754C273.299 111.821 273.031 111.754 272.762 111.552C272.493 111.216 272.426 110.813 272.493 110.41C272.963 107.923 274.24 105.638 276.055 103.958C277.063 103.018 278.138 103.555 279.079 103.958C279.415 104.093 279.683 104.227 280.019 104.362C281.498 104.765 282.842 105.706 283.715 106.982C284.858 108.73 285.328 110.88 284.992 112.963C284.656 115.382 283.447 117.331 281.699 118.205C281.296 118.406 280.759 118.541 280.221 118.608ZM278.877 115.987C278.81 116.122 278.81 116.256 278.81 116.39C278.743 116.794 278.944 117.197 279.213 117.466C279.885 117.869 280.759 117.869 281.498 117.466C282.976 116.726 284.051 115.046 284.32 112.896C284.589 111.014 284.253 109.133 283.178 107.52C282.439 106.378 281.296 105.571 279.952 105.235C279.549 105.101 279.213 104.966 278.877 104.765C277.936 104.294 277.399 104.093 276.794 104.63C275.047 106.243 273.904 108.326 273.434 110.611C273.367 110.88 273.434 110.947 273.434 110.947C273.501 110.947 273.568 110.947 273.635 110.947C274.24 110.88 274.778 110.544 275.114 110.006C275.248 109.805 275.45 109.738 275.651 109.872C275.853 109.939 275.92 110.141 275.92 110.342C275.786 110.678 275.651 111.082 275.45 111.418C275.315 111.686 275.181 112.022 275.047 112.358C274.912 112.896 275.047 113.501 275.45 113.635C275.853 113.77 276.256 113.434 276.659 113.098C276.794 112.963 276.995 112.963 277.197 113.098C277.331 113.232 277.399 113.434 277.331 113.635C277.063 114.038 276.928 114.509 276.928 114.979C276.928 115.315 277.063 115.651 277.399 115.853C277.667 115.92 277.936 115.853 278.339 115.517C278.474 115.315 278.675 115.181 278.877 115.046C279.079 114.979 279.28 114.979 279.415 115.181C279.549 115.315 279.549 115.584 279.347 115.718C279.146 115.786 279.011 115.92 278.877 115.987Z" fill="#282932"/>
<path d="M188.367 237.888L189.308 265.238H139.445L141.193 236.141L188.367 237.888Z" fill="#282932"/>
<path d="M189.305 265.709H139.442C139.308 265.709 139.241 265.642 139.173 265.575C139.106 265.508 139.039 265.373 139.039 265.239L140.786 236.141C140.786 235.94 140.988 235.738 141.189 235.738L188.364 237.485C188.565 237.485 188.767 237.687 188.767 237.889L189.708 265.239C189.708 265.373 189.641 265.441 189.573 265.575C189.506 265.642 189.439 265.709 189.305 265.709ZM139.913 264.836H188.901L187.961 238.292L141.593 236.545L139.913 264.836Z" fill="#282932"/>
<path d="M190.452 177.946L190.183 178.08V178.013V177.946C190.183 177.946 174.727 171.696 171.233 170.352C171.098 170.285 171.031 170.285 170.897 170.218L170.695 170.151C170.359 170.084 170.09 170.016 169.754 170.016C169.62 170.016 169.486 170.016 169.351 170.016C169.082 170.016 168.814 170.016 168.478 169.949C167.604 169.949 166.462 169.949 165.252 169.949C163.572 169.949 161.623 170.016 159.876 170.151C158.532 170.218 157.255 170.285 156.18 170.352C155.71 170.42 155.239 170.42 154.769 170.42C154.702 170.42 154.702 170.42 154.702 170.42C154.164 170.487 153.694 170.487 153.358 170.487L152.887 170.554C152.484 170.621 152.215 170.621 152.215 170.621C152.215 170.621 140.388 176.871 139.716 178.013C139.514 178.349 129.636 183.389 129.031 237.956H148.99C149.191 239.501 150.132 240.845 151.476 241.652C159.809 240.912 168.142 239.636 176.34 237.956H188.436L188.503 235.133C192.804 233.991 196.097 232.848 197.306 231.84C202.414 227.607 190.452 177.946 190.452 177.946ZM146.705 227.607C146.705 227.54 146.772 227.54 146.839 227.674C146.772 227.674 146.705 227.674 146.705 227.607Z" fill="#797B87"/>
<path d="M139.652 220.282C139.518 220.282 139.383 220.215 139.316 220.081C137.636 217.057 131.588 215.982 131.521 215.982C131.319 215.914 131.118 215.713 131.185 215.511C131.252 215.31 131.454 215.108 131.655 215.175C131.924 215.242 138.174 216.318 139.988 219.678C140.123 219.879 140.055 220.148 139.854 220.215C139.787 220.282 139.719 220.282 139.652 220.282Z" fill="#282932"/>
<path d="M146.838 227.673C146.77 227.673 146.703 227.673 146.703 227.606C146.703 227.539 146.77 227.606 146.838 227.673Z" fill="#797B87"/>
<path d="M141.862 228.279C141.593 228.212 141.391 228.01 141.458 227.808L147.574 184.464C147.574 184.263 147.842 184.061 148.044 184.128C148.246 184.196 148.447 184.397 148.38 184.599L142.265 227.943C142.265 228.144 142.13 228.279 141.862 228.279Z" fill="#282932"/>
<path d="M174.256 149.453C175.063 147.571 175.332 145.085 175.668 143.136C175.936 141.657 176.541 139.238 175.869 137.76C175.399 136.819 173.92 135.878 172.98 135.341C172.509 131.577 169.015 129.293 165.52 129.158C163.37 129.158 161.287 129.494 159.271 130.233C157.255 130.905 155.172 131.712 154.096 133.526C153.895 133.929 153.693 134.333 153.424 134.669C153.088 135.005 152.618 135.273 152.215 135.542C149.46 137.357 149.728 139.843 150.064 142.665C150.468 145.689 151.476 148.713 151.812 151.67C155.306 151.872 158.868 152.208 162.362 152.141C165.117 152.141 172.778 152.745 174.256 149.453Z" fill="#797B87"/>
<path d="M165.18 152.612C164.642 152.612 164.105 152.612 163.702 152.612C163.298 152.612 162.694 152.612 162.358 152.612C159.468 152.679 156.578 152.477 153.756 152.276L151.74 152.141C151.538 152.141 151.337 151.939 151.337 151.738C151.135 150.192 150.866 148.579 150.463 147.101C150.127 145.69 149.791 144.211 149.59 142.733C149.254 139.843 148.918 137.155 151.874 135.207L152.21 135.005C152.479 134.871 152.748 134.669 153.017 134.4C153.218 134.199 153.353 133.93 153.487 133.661L153.689 133.258C154.764 131.376 156.914 130.436 159.065 129.764C161.081 129.024 163.298 128.621 165.449 128.621C168.943 128.823 172.706 131.04 173.311 135.005C174.118 135.475 175.663 136.416 176.201 137.492C176.806 138.836 176.47 140.717 176.201 142.263C176.134 142.531 176.066 142.8 176.066 143.069C175.999 143.472 175.932 143.808 175.865 144.212C175.663 146.026 175.26 147.84 174.588 149.52C173.378 152.275 168.742 152.612 165.18 152.612ZM162.626 151.738H163.634C166.793 151.805 172.639 151.872 173.849 149.252C174.454 147.639 174.857 145.891 175.058 144.144C175.126 143.741 175.193 143.338 175.26 143.002C175.327 142.733 175.327 142.464 175.394 142.196C175.663 140.852 175.999 138.97 175.462 137.895C175.126 137.155 173.849 136.282 172.774 135.677C172.639 135.61 172.572 135.475 172.572 135.341C172.169 131.712 168.674 129.696 165.449 129.495C163.366 129.495 161.282 129.831 159.334 130.57C157.318 131.242 155.369 132.048 154.428 133.661L154.226 133.997C154.092 134.333 153.89 134.602 153.689 134.871C153.42 135.139 153.084 135.408 152.681 135.61L152.412 135.812C149.858 137.492 150.127 139.709 150.463 142.532C150.665 143.943 151.001 145.421 151.27 146.765C151.606 148.243 151.942 149.655 152.143 151.133L153.823 151.268C156.578 151.469 159.535 151.671 162.358 151.604L162.626 151.738Z" fill="#282932"/>
<path d="M155.506 149.924C155.036 146.094 148.719 144.951 148.854 149.454C148.854 150.999 149.391 152.545 150.399 153.754C151.474 154.964 153.087 155.434 154.633 154.897" fill="white"/>
<path d="M153.428 155.502C152.151 155.502 150.942 154.964 150.135 154.023C149.06 152.747 148.455 151.134 148.455 149.454C148.388 147.169 149.799 146.228 151.143 146.094C153.428 145.959 155.511 147.572 155.847 149.857C155.847 150.059 155.713 150.26 155.444 150.327C155.243 150.327 155.041 150.193 154.974 149.991C154.638 148.177 153.025 146.833 151.143 146.967C149.867 147.035 149.127 147.975 149.195 149.454C149.195 150.932 149.665 152.343 150.606 153.486C151.547 154.561 153.025 154.964 154.369 154.561C154.571 154.494 154.839 154.561 154.907 154.763C154.974 154.964 154.907 155.233 154.705 155.3C154.302 155.435 153.831 155.502 153.428 155.502Z" fill="#282932"/>
<path d="M169.219 149.924C169.689 146.094 176.006 144.951 175.872 149.454C175.872 150.999 175.334 152.545 174.326 153.754C173.251 154.964 171.638 155.434 170.092 154.897" fill="white"/>
<path d="M171.3 155.501C170.829 155.501 170.359 155.433 169.956 155.232C169.754 155.165 169.62 154.896 169.754 154.694C169.888 154.493 170.09 154.358 170.292 154.493C171.636 154.896 173.114 154.493 174.055 153.417C174.996 152.275 175.466 150.864 175.466 149.385C175.533 147.907 174.794 147.033 173.517 146.899C171.636 146.765 170.023 148.109 169.687 149.923C169.62 150.125 169.418 150.326 169.216 150.259C169.015 150.259 168.813 149.99 168.88 149.789C169.216 147.504 171.3 145.891 173.584 146.025C174.928 146.16 176.407 147.101 176.272 149.385C176.272 151.065 175.668 152.678 174.592 153.955C173.719 154.963 172.576 155.501 171.3 155.501Z" fill="#282932"/>
<path d="M155.039 169.075C155.039 169.075 157.929 170.554 162.969 170.755C168.009 170.957 168.815 169.546 168.815 169.546L168.681 166.858L168.412 160.608L168.143 154.829L156.719 154.426L156.181 159.13L156.047 160.675L155.039 169.075Z" fill="white"/>
<path d="M163.774 171.159C163.505 171.159 163.237 171.159 162.901 171.159C157.861 170.958 154.904 169.547 154.837 169.479C154.702 169.412 154.568 169.211 154.635 169.076L156.315 154.427C156.315 154.225 156.517 154.023 156.718 154.023L168.142 154.427C168.344 154.427 168.545 154.628 168.545 154.83L169.217 169.547C169.217 169.614 169.217 169.681 169.15 169.815C169.083 169.883 168.209 171.159 163.774 171.159ZM155.441 168.807C157.793 169.748 160.347 170.286 162.901 170.286C166.798 170.42 168.008 169.614 168.277 169.345L167.672 155.233L156.987 154.83L155.441 168.807Z" fill="#282932"/>
<path d="M155.977 160.675C156.917 162.086 158.127 163.295 159.605 164.102C162.025 165.513 165.653 167.193 168.61 166.857L168.341 160.607C166.124 160.809 163.906 160.742 161.756 160.406C159.807 160.271 157.925 159.801 156.111 159.129L155.977 160.675Z" fill="#282932"/>
<path d="M167.801 167.329C164.642 167.329 161.282 165.582 159.401 164.507C157.855 163.633 156.578 162.423 155.638 160.945C155.57 160.878 155.57 160.811 155.57 160.676L155.705 159.131C155.705 158.996 155.772 158.862 155.906 158.795C156.041 158.727 156.175 158.727 156.31 158.795C158.057 159.467 159.938 159.937 161.82 160.071C163.97 160.407 166.121 160.475 168.338 160.273C168.473 160.273 168.54 160.273 168.674 160.34C168.742 160.407 168.809 160.542 168.809 160.609L169.078 166.859C169.078 167.06 168.943 167.262 168.742 167.262C168.406 167.329 168.069 167.329 167.801 167.329ZM156.377 160.609C157.25 161.886 158.393 163.028 159.804 163.767C161.282 164.641 165.046 166.657 168.204 166.523L167.935 161.147C165.852 161.281 163.769 161.214 161.686 160.945C159.871 160.811 158.124 160.407 156.444 159.87L156.377 160.609Z" fill="#282932"/>
<path d="M172.377 139.575L171.907 153.418C171.907 154.023 171.839 154.628 171.638 155.166C170.697 159.198 167.001 162.02 162.835 161.886L161.827 161.818C157.929 161.684 154.636 158.996 153.628 155.233C153.427 154.426 153.359 153.62 153.359 152.746L153.83 138.836C153.83 138.836 155.98 141.658 162.163 141.591C165.724 141.793 169.151 141.054 172.377 139.575Z" fill="white"/>
<path d="M163.171 162.356H162.835L161.827 162.289C156.787 162.087 152.822 157.854 152.956 152.814L153.427 138.971C153.427 138.769 153.561 138.635 153.696 138.567C153.897 138.5 154.032 138.567 154.166 138.702C154.166 138.702 156.249 141.323 162.028 141.323H162.163C165.59 141.323 169.017 140.651 172.108 139.239C172.243 139.172 172.377 139.172 172.512 139.239C172.646 139.307 172.713 139.441 172.713 139.643L172.243 153.486C172.108 158.391 168.076 162.356 163.171 162.356ZM154.233 139.911L153.763 152.814C153.628 157.383 157.19 161.281 161.827 161.415L162.835 161.483C167.404 161.617 171.302 158.055 171.436 153.419L171.907 140.247C168.816 141.524 165.523 142.129 162.163 142.129C157.795 142.129 155.376 140.785 154.233 139.911Z" fill="#282932"/>
<path d="M162.697 147.369C162.697 147.369 165.587 153.686 164.31 153.82C163.033 153.955 161.219 153.014 161.219 153.014" fill="white"/>
<path d="M164.11 154.224C163.035 154.157 162.027 153.821 161.086 153.351C160.885 153.216 160.817 153.015 160.885 152.813C160.952 152.611 161.221 152.544 161.422 152.611C162.296 153.082 163.237 153.351 164.177 153.418C164.379 152.88 163.505 150.192 162.296 147.504C162.229 147.303 162.296 147.034 162.497 146.967C162.699 146.899 162.968 146.967 163.035 147.168C163.774 148.848 165.454 152.813 164.849 153.888C164.715 154.09 164.513 154.224 164.312 154.224H164.11Z" fill="#282932"/>
<path d="M159.003 145.086C159.339 145.086 159.608 145.691 159.608 146.43C159.608 147.169 159.339 147.774 159.003 147.774C158.667 147.774 158.398 147.169 158.398 146.43C158.398 145.691 158.667 145.086 159.003 145.086Z" fill="#282932"/>
<path d="M166.995 147.774C167.329 147.774 167.6 147.172 167.6 146.43C167.6 145.688 167.329 145.086 166.995 145.086C166.661 145.086 166.391 145.688 166.391 146.43C166.391 147.172 166.661 147.774 166.995 147.774Z" fill="#282932"/>
<path d="M172.379 166.926H152.219V171.294H172.379V166.926Z" fill="white"/>
<path d="M172.376 171.696H152.216C152.014 171.696 151.812 171.494 151.812 171.293V166.925C151.812 166.723 152.014 166.521 152.216 166.521H172.376C172.577 166.521 172.779 166.723 172.779 166.925V171.293C172.779 171.494 172.577 171.696 172.376 171.696ZM152.619 170.889H171.973V167.328H152.619V170.889Z" fill="#282932"/>
<path d="M146.838 227.673C146.77 227.673 146.703 227.673 146.703 227.606C146.703 227.539 146.77 227.606 146.838 227.673Z" fill="#797B87"/>
<path d="M149.794 232.11C149.592 232.11 149.391 231.908 149.391 231.707C149.391 231.505 149.525 231.371 149.727 231.303C163.973 227.137 179.496 222.03 180.168 220.686C180.84 219.14 179.832 199.383 179.026 186.414C179.026 186.212 179.16 186.011 179.429 185.943C179.631 185.943 179.832 186.078 179.899 186.347C180.101 189.639 181.983 218.804 180.975 220.955C179.967 223.105 154.968 230.564 149.995 232.043C149.861 232.11 149.861 232.11 149.794 232.11Z" fill="#282932"/>
<path d="M133.131 199.383H132.862C132.123 199.451 131.518 198.913 131.451 198.241C131.384 197.569 131.921 196.897 132.593 196.83C132.661 196.83 132.795 196.83 132.862 196.83C146.235 195.419 152.552 187.892 153.963 181.239C154.971 176.603 153.627 172.302 150.67 170.622C147.713 168.942 144.421 169.211 141.061 171.563C139.381 172.772 137.835 174.251 136.625 175.931C136.222 176.535 135.416 176.67 134.811 176.267C134.206 175.863 134.072 175.057 134.475 174.452C137.23 170.487 144.421 164.171 151.947 168.404C155.912 170.622 157.726 176.065 156.517 181.777C154.904 189.371 147.915 197.905 133.131 199.383Z" fill="white"/>
<path d="M132.73 199.853C131.789 199.786 131.117 198.913 131.184 197.972C131.252 197.233 131.789 196.628 132.528 196.493C132.596 196.493 132.663 196.493 132.73 196.493C145.968 195.149 152.151 187.69 153.495 181.239C154.436 176.737 153.226 172.637 150.404 171.092C147.581 169.546 144.423 169.748 141.264 172.033C139.584 173.242 138.106 174.653 136.896 176.266C136.359 177.005 135.284 177.207 134.544 176.669C133.805 176.132 133.604 175.057 134.141 174.317C136.964 170.285 144.423 163.767 152.151 168.135C156.25 170.487 158.199 176.065 156.922 181.978C155.309 189.639 148.186 198.375 133.2 199.921H132.932L132.73 199.853ZM146.708 169.143C148.186 169.143 149.597 169.546 150.807 170.285C153.965 172.1 155.376 176.535 154.301 181.373C152.89 188.161 146.439 195.889 132.864 197.3H132.73H132.663C132.192 197.3 131.789 197.77 131.789 198.241C131.856 198.711 132.26 199.047 132.73 199.047H132.999C147.514 197.569 154.368 189.169 155.981 181.777C157.191 176.199 155.444 171.025 151.613 168.807C144.423 164.708 137.434 170.89 134.746 174.721C134.477 175.124 134.544 175.661 134.948 175.93C135.351 176.199 135.888 176.132 136.157 175.729C137.434 173.981 138.98 172.503 140.727 171.293C142.541 169.949 144.624 169.21 146.708 169.143Z" fill="#282932"/>
<path d="M122.581 200.524C107.797 202.07 99.2627 195.148 96.1715 188.092C93.7523 182.716 94.4915 177.072 97.8515 174.048C104.303 168.336 112.636 173.107 116.13 176.4C116.668 176.87 116.668 177.676 116.197 178.214C115.727 178.752 114.92 178.752 114.383 178.281C112.837 176.87 111.023 175.728 109.141 174.921C105.378 173.308 102.152 173.644 99.5315 175.996C96.9107 178.348 96.5747 182.716 98.4563 187.084C101.212 193.267 108.872 199.382 122.245 198.038H122.514C123.186 197.971 123.858 198.441 123.925 199.18C123.992 199.852 123.522 200.524 122.783 200.592L122.581 200.524Z" fill="white"/>
<path d="M118.547 201.131C106.048 201.131 98.5885 194.679 95.7661 188.228C93.2797 182.651 94.0189 176.804 97.5805 173.713C104.233 167.799 112.835 172.705 116.464 176.065C117.136 176.737 117.203 177.812 116.531 178.484C115.859 179.156 114.784 179.223 114.112 178.551C112.566 177.207 110.886 176.065 109.004 175.259C105.376 173.713 102.284 174.049 99.8653 176.267C97.4461 178.484 97.0429 182.651 98.9245 186.884C101.612 192.932 109.139 198.913 122.31 197.569H122.579C123.52 197.435 124.326 198.107 124.461 199.047C124.528 199.518 124.393 199.921 124.125 200.324C123.856 200.66 123.453 200.929 122.982 200.929H122.713C121.302 201.063 119.958 201.131 118.547 201.131ZM104.771 171.764C102.284 171.764 99.9325 172.638 98.1181 174.318C94.8253 177.207 94.2205 182.651 96.5053 187.892C99.5293 194.747 107.996 201.601 122.512 200.123H122.781C122.982 200.123 123.251 199.988 123.385 199.787C123.52 199.585 123.587 199.383 123.587 199.115C123.52 198.644 123.117 198.308 122.646 198.375H122.444C108.803 199.787 100.94 193.537 98.1181 187.22C96.1021 182.718 96.5725 178.081 99.2605 175.662C101.948 173.243 105.376 172.907 109.273 174.519C111.222 175.393 113.036 176.535 114.649 177.947C114.985 178.283 115.59 178.215 115.859 177.812C116.128 177.476 116.128 176.939 115.792 176.67C113.574 174.519 109.273 171.764 104.771 171.764Z" fill="#282932"/>
<path d="M142.872 235.134L120.36 237.486C119.554 237.553 118.814 236.949 118.747 236.209C118.68 235.739 118.882 235.269 119.218 235L127.08 227.877H127.147L124.19 199.384L131.179 198.645L134.136 227.137H134.27L143.477 232.513C144.149 232.917 144.35 233.857 143.947 234.529C143.746 234.865 143.342 235.067 142.872 235.134Z" fill="white"/>
<path d="M120.225 237.888C119.217 237.888 118.344 237.015 118.344 236.007C118.344 235.469 118.545 234.999 118.949 234.663L126.744 227.607L123.854 199.383C123.854 199.248 123.854 199.181 123.921 199.047C123.989 198.979 124.123 198.912 124.19 198.979L131.179 198.24C131.381 198.24 131.582 198.375 131.649 198.576L134.606 226.8L143.678 232.176C144.417 232.579 144.753 233.386 144.552 234.192C144.417 234.999 143.745 235.603 142.939 235.671L120.427 237.955H120.225V237.888ZM127.349 228.144L119.553 235.267C119.15 235.671 119.083 236.343 119.486 236.746C119.688 237.015 120.024 237.149 120.36 237.082L142.872 234.73C143.477 234.663 143.88 234.192 143.813 233.587C143.813 233.251 143.611 232.983 143.275 232.781L134.203 227.472C134.136 227.472 134.001 227.405 133.934 227.405C133.867 227.338 133.8 227.203 133.8 227.136L130.91 199.047L124.728 199.719L127.617 227.808C127.617 227.943 127.483 228.144 127.349 228.144Z" fill="#282932"/>
<path d="M107.258 169.816L141.866 166.254L144.487 191.521C144 199.501 136 206.91 131.987 206.91L125.335 207.582C118 206.001 112.5 202.001 109.946 195.083L107.258 169.816Z" fill="white"/>
<path d="M126.81 207.784C117.671 207.784 110.077 200.862 109.136 191.79L106.852 169.883C106.852 169.748 106.852 169.681 106.919 169.614C106.986 169.547 107.12 169.48 107.188 169.48L141.728 165.918C141.93 165.918 142.132 166.052 142.199 166.321L144.484 188.296C145.492 198.04 138.368 206.776 128.624 207.851C128.02 207.784 127.415 207.784 126.81 207.784ZM107.725 170.219L109.943 191.723C110.884 201.064 119.216 207.784 128.557 206.843C137.898 205.902 144.618 197.569 143.677 188.228L141.46 166.724L107.725 170.219Z" fill="#282932"/>
<path d="M125.062 172.906L128.959 181.642L138.434 180.634L131.311 187.018L135.209 195.754L126.943 190.983L119.82 197.3L121.836 188.026L113.57 183.188L123.046 182.247L125.062 172.906Z" fill="url(#paint2_linear_4507_5758)"/>
<path d="M119.827 197.769C119.76 197.769 119.693 197.769 119.625 197.702C119.491 197.635 119.357 197.433 119.424 197.232L121.373 188.227L113.376 183.59C113.241 183.523 113.107 183.321 113.174 183.12C113.241 182.918 113.376 182.784 113.51 182.784L122.717 181.843L124.665 172.838C124.733 172.636 124.867 172.502 125.001 172.502C125.203 172.502 125.337 172.569 125.405 172.771L129.168 181.238L138.307 180.297C138.509 180.297 138.643 180.364 138.71 180.566C138.777 180.7 138.777 180.902 138.643 181.036L131.789 187.219L135.552 195.619C135.619 195.753 135.619 195.955 135.485 196.089C135.35 196.224 135.149 196.224 135.014 196.156L127.017 191.52L120.163 197.702C120.029 197.702 119.961 197.702 119.827 197.769ZM114.921 183.523L122.045 187.689C122.179 187.756 122.313 187.958 122.246 188.16L120.499 196.224L126.614 190.713C126.749 190.579 126.95 190.579 127.085 190.646L134.208 194.812L130.848 187.286C130.781 187.152 130.781 186.95 130.915 186.816L137.03 181.305L128.832 182.179C128.63 182.179 128.496 182.112 128.429 181.91L125.069 174.384L123.321 182.448C123.254 182.649 123.12 182.784 122.985 182.784L114.921 183.523Z" fill="#282932"/>
<path d="M150.268 232.243C150.268 232.243 146.438 232.714 144.153 231.437C141.868 230.16 136.56 227.539 138.038 230.093C139.516 232.647 141.936 233.856 141.398 233.856C140.86 233.856 127.084 232.579 126.883 234.663C126.681 236.746 130.444 238.224 132.595 239.635C134.745 241.047 151.344 241.584 151.344 241.584L150.268 232.243Z" fill="white"/>
<path d="M151.409 241.988C149.729 241.921 134.676 241.451 132.458 239.972C131.988 239.636 131.383 239.3 130.778 238.964C128.628 237.755 126.41 236.478 126.545 234.596C126.612 233.521 128.359 232.513 140.388 233.32C139.313 232.446 138.439 231.438 137.7 230.228C137.297 229.624 137.297 229.086 137.633 228.817C138.574 227.809 143.076 230.296 144.42 231.035C146.503 232.244 150.199 231.774 150.266 231.774C150.401 231.774 150.468 231.774 150.602 231.841C150.67 231.908 150.737 231.976 150.737 232.11L151.879 241.451C151.879 241.585 151.879 241.72 151.745 241.787C151.61 241.921 151.543 241.988 151.409 241.988ZM132.929 233.857C127.486 233.857 127.351 234.596 127.351 234.664C127.284 236.008 129.3 237.217 131.114 238.225C131.719 238.561 132.324 238.897 132.862 239.3C134.474 240.376 146.033 240.98 150.938 241.182L149.863 232.715C148.788 232.782 145.831 232.916 143.95 231.841C141.463 230.43 138.842 229.355 138.238 229.489C138.305 229.624 138.372 229.758 138.439 229.892C139.178 231.102 140.186 232.177 141.329 233.051C141.866 233.454 142.068 233.656 141.934 233.992C141.866 234.193 141.665 234.26 141.463 234.26L140.791 234.193C137.364 233.924 134.878 233.857 132.929 233.857Z" fill="#282932"/>
<path d="M129.838 209.529C130.107 209.865 129.838 210.336 129.57 210.672C128.696 211.881 127.688 212.957 126.478 213.83C127.486 213.091 128.629 212.553 129.838 212.419C130.309 212.352 130.914 212.486 130.914 212.957C130.846 213.091 130.779 213.293 130.645 213.36C129.771 214.233 128.898 215.04 127.957 215.846C129.099 215.309 130.578 214.771 131.586 215.51C131.72 215.577 131.854 215.779 131.854 215.913C131.922 216.182 131.653 216.451 131.451 216.653C130.51 217.392 129.57 218.064 128.562 218.669C129.637 218.131 130.846 218.064 131.989 218.534C132.19 218.601 132.325 218.736 132.392 218.87C132.459 219.005 132.392 219.206 132.325 219.341C131.586 221.625 129.502 223.171 127.419 224.313C126.411 224.851 125.202 225.389 124.126 224.985C121.035 223.91 121.102 217.19 121.774 214.637C122.178 213.293 123.051 212.15 124.261 211.344C125.067 210.806 128.965 208.185 129.838 209.529Z" fill="white"/>
<path d="M124.997 225.658C124.661 225.658 124.325 225.591 124.057 225.524C120.629 224.314 120.764 217.258 121.436 214.637C121.906 213.226 122.847 211.949 124.057 211.143C124.124 211.143 127.484 208.522 129.365 208.791C129.701 208.858 130.037 209.06 130.239 209.328C130.441 209.664 130.575 210.135 129.97 210.941C129.634 211.412 129.298 211.815 128.962 212.218C129.231 212.151 129.567 212.084 129.836 212.016C130.306 211.949 130.777 212.084 131.113 212.352C131.314 212.554 131.381 212.756 131.381 213.024C131.314 213.293 131.18 213.495 130.978 213.696C130.575 214.1 130.239 214.436 129.836 214.839C130.508 214.704 131.247 214.839 131.852 215.242C132.121 215.376 132.255 215.645 132.322 215.914C132.322 216.384 132.121 216.788 131.717 216.989C131.381 217.258 131.045 217.527 130.642 217.796C131.18 217.796 131.65 217.93 132.121 218.132C132.389 218.199 132.658 218.468 132.793 218.736C132.86 219.005 132.86 219.274 132.725 219.476C132.053 221.492 130.373 223.172 127.618 224.717C126.879 225.255 125.938 225.524 124.997 225.658ZM129.029 209.597C127.753 209.597 125.333 211.143 124.594 211.748C123.519 212.487 122.645 213.562 122.242 214.772C121.637 217.258 121.57 223.642 124.325 224.65C125.266 224.986 126.409 224.516 127.282 224.045C129.903 222.634 131.449 221.088 131.986 219.274C132.053 219.14 132.053 219.072 132.053 219.072C132.053 219.072 132.053 219.005 131.852 218.938C130.844 218.535 129.769 218.602 128.828 219.072C128.626 219.207 128.357 219.14 128.29 218.938C128.156 218.736 128.223 218.468 128.425 218.4C129.433 217.796 130.373 217.191 131.247 216.452C131.516 216.25 131.516 216.116 131.516 216.116C131.516 216.116 131.516 216.048 131.381 215.981C130.575 215.376 129.231 215.847 128.223 216.317C128.021 216.384 127.753 216.25 127.685 216.048C127.618 215.914 127.685 215.78 127.753 215.645C128.693 214.906 129.567 214.032 130.441 213.159C130.508 213.092 130.575 213.024 130.575 212.957C130.373 212.89 130.172 212.823 129.97 212.89C128.895 213.024 127.887 213.428 127.013 214.1L126.812 214.234C126.61 214.368 126.341 214.301 126.207 214.167C126.073 213.965 126.14 213.696 126.274 213.562L126.476 213.428C127.551 212.621 128.492 211.613 129.231 210.538C129.433 210.202 129.567 209.933 129.433 209.866C129.365 209.732 129.231 209.664 129.097 209.664C129.164 209.597 129.097 209.597 129.029 209.597Z" fill="#282932"/>
<path d="M162.903 228.011C162.702 228.011 162.5 227.809 162.5 227.607V171.294C162.5 171.092 162.702 170.891 162.903 170.891C163.105 170.891 163.306 171.092 163.306 171.294V227.607C163.374 227.809 163.172 228.011 162.903 228.011Z" fill="#282932"/>
<path d="M163.504 156.576C161.756 156.576 160.076 155.568 159.203 154.022C159.068 153.821 159.136 153.552 159.337 153.418C159.539 153.283 159.808 153.35 159.942 153.552C160.681 154.896 162.16 155.77 163.705 155.702C163.907 155.635 164.176 155.837 164.176 156.038C164.243 156.24 164.041 156.509 163.84 156.509H163.772C163.84 156.576 163.705 156.576 163.504 156.576Z" fill="#282932"/>
<path d="M131.384 213.293C131.451 214.099 131.787 214.839 132.459 215.309C132.661 215.443 132.93 215.511 133.131 215.443C134.811 215.175 134.946 210.672 134.072 209.53C133.467 208.791 132.392 208.723 131.653 209.261C130.712 210.202 131.25 212.218 131.384 213.293Z" fill="white"/>
<path d="M132.991 215.915C132.722 215.915 132.453 215.847 132.251 215.713C131.512 215.175 131.042 214.302 130.975 213.361L130.907 212.958C130.706 211.748 130.37 209.934 131.378 208.993C131.781 208.657 132.319 208.455 132.856 208.523C133.461 208.59 133.999 208.859 134.335 209.262C135.074 210.135 135.141 212.689 134.536 214.369C134.133 215.444 133.528 215.78 133.125 215.847C133.125 215.915 133.058 215.915 132.991 215.915ZM131.781 213.227C131.781 213.899 132.117 214.571 132.655 214.974C132.789 215.041 132.856 215.108 132.991 215.041C133.394 214.974 133.663 214.436 133.797 214.1C134.335 212.689 134.2 210.404 133.73 209.799C133.461 209.531 133.125 209.329 132.789 209.329C132.453 209.262 132.117 209.396 131.915 209.598C131.243 210.203 131.579 211.815 131.714 212.756L131.781 213.227Z" fill="#282932"/>
<path d="M95.764 94.6169C95.6296 94.6169 95.5624 94.5497 95.4952 94.4825C94.6216 93.4745 94.9576 91.9289 95.8312 91.1225C96.7048 90.3833 97.7128 89.9129 98.788 89.6441C100.132 89.1737 101.61 88.9049 103.022 88.9721C103.425 88.2329 104.097 87.6281 104.836 87.1577C106.18 86.4857 107.658 86.0153 109.204 85.8809C109.406 85.8809 109.607 86.0153 109.674 86.2169C109.674 86.4185 109.54 86.6201 109.338 86.6873C107.927 86.8217 106.516 87.2249 105.239 87.8297C104.702 88.1657 104.231 88.5689 103.895 89.1065C104.903 89.3753 105.777 90.1145 106.314 90.9881C106.718 91.6601 106.785 92.4665 106.583 93.2057C106.583 93.2729 106.449 93.4073 106.382 93.4073C105.642 93.7433 104.836 93.7433 104.164 93.3401C103.29 92.9369 102.686 92.0633 102.551 91.1225C102.484 90.6521 102.551 90.1145 102.686 89.7113C101.409 89.7113 100.199 89.9801 98.9896 90.3833C98.0488 90.5849 97.108 90.9881 96.3688 91.6601C95.764 92.2649 95.4952 93.3401 96.0328 93.9449C96.1672 94.0793 96.1672 94.3481 96.0328 94.4825C95.8984 94.6169 95.8312 94.6169 95.764 94.6169ZM103.492 89.8457C103.358 90.2489 103.29 90.6521 103.358 91.0553C103.492 91.7273 103.895 92.3321 104.567 92.6681C104.97 92.8697 105.441 92.9369 105.844 92.8025C105.911 92.3321 105.844 91.7945 105.575 91.3913C105.172 90.6521 104.433 90.1145 103.626 89.8457H103.492Z" fill="#EEE420"/>
<path d="M195.354 92.9373C195.287 92.9373 195.22 92.9373 195.153 92.8701C194.951 92.7357 194.951 92.5341 195.018 92.3325C195.69 91.3245 195.69 89.9805 195.085 88.9725C194.951 88.7709 194.817 88.6365 194.749 88.4349C194.481 88.0989 194.279 87.7629 194.077 87.3597C193.204 85.2093 195.556 83.3949 197.773 82.5213C197.975 82.4541 198.177 82.5213 198.311 82.7229C198.378 82.9245 198.311 83.1261 198.109 83.2605C196.564 83.8653 194.145 85.3437 194.817 87.0909C194.951 87.4269 195.153 87.6957 195.354 87.9645C195.489 88.1661 195.623 88.3005 195.757 88.5021C196.564 89.7789 196.497 91.4589 195.69 92.7357C195.556 92.8701 195.421 92.9373 195.354 92.9373Z" fill="#00D885"/>
<path d="M152.079 95.4239C151.944 95.4239 151.81 95.3567 151.743 95.2223C150.802 93.4079 150.533 91.3247 151.071 89.3087C151.138 89.1071 151.34 88.9727 151.541 88.9727C151.743 89.0399 151.877 89.2415 151.877 89.4431C151.877 89.4431 151.877 89.4431 151.877 89.5103C151.407 91.3247 151.608 93.2063 152.482 94.8191C152.549 95.0207 152.482 95.2223 152.348 95.3567C152.28 95.4239 152.213 95.4239 152.079 95.4239Z" fill="#D1D3D4"/>
<path d="M113.638 131.577C113.436 131.577 113.234 131.375 113.234 131.174C113.234 131.039 113.302 130.905 113.436 130.838C115.586 129.762 118.006 129.628 120.29 130.434C120.492 130.502 120.559 130.77 120.492 130.972C120.425 131.174 120.223 131.241 120.022 131.174C118.006 130.502 115.721 130.636 113.772 131.577C113.772 131.51 113.705 131.577 113.638 131.577Z" fill="#00D885"/>
<path d="M208.591 118.674C208.389 118.674 208.188 118.54 208.188 118.271C208.188 118.069 208.322 117.868 208.523 117.868L215.512 116.322C215.714 116.255 215.916 116.389 215.983 116.591C216.05 116.793 215.916 116.994 215.647 117.061L208.658 118.607L208.591 118.674Z" fill="#D1D3D4"/>
<path d="M169.756 118.272C168.68 118.272 167.605 117.936 166.664 117.332C165.388 116.525 164.447 115.316 164.111 113.837C164.044 113.636 164.178 113.434 164.447 113.367C164.648 113.3 164.85 113.434 164.917 113.703C165.589 116.256 168.143 117.869 170.764 117.399C170.965 117.332 171.167 117.466 171.234 117.668C171.301 117.869 171.167 118.071 170.965 118.138C170.495 118.205 170.092 118.272 169.756 118.272Z" fill="#EEE420"/>
<path d="M240.049 127.746C239.981 127.746 239.914 127.746 239.914 127.679C239.713 127.611 239.645 127.343 239.713 127.141C240.653 125.125 242.199 123.445 244.148 122.303C244.35 122.235 244.551 122.303 244.686 122.504C244.753 122.639 244.686 122.84 244.551 122.975C242.737 123.983 241.326 125.595 240.452 127.477C240.318 127.679 240.183 127.746 240.049 127.746Z" fill="#00D885"/>
<path d="M263.836 198.374C263.701 198.374 263.567 198.307 263.5 198.172C263.365 197.971 263.432 197.769 263.634 197.635C265.448 196.425 267.8 196.358 269.749 197.366C269.951 197.5 270.018 197.702 269.884 197.904C269.749 198.105 269.548 198.172 269.346 198.038C267.666 197.164 265.65 197.232 264.037 198.307C264.037 198.307 263.903 198.374 263.836 198.374Z" fill="#EEE420"/>
<path d="M47.9855 240.777C47.9183 240.777 47.8511 240.777 47.8511 240.777C46.6415 240.239 45.2303 240.105 43.8863 240.441C43.6847 240.508 43.4831 240.373 43.4159 240.172C43.3487 239.97 43.4831 239.769 43.6847 239.701C45.1631 239.298 46.7759 239.433 48.1871 240.105C48.3887 240.172 48.4559 240.441 48.3887 240.642C48.3215 240.777 48.1871 240.844 47.9855 240.777Z" fill="#D1D3D4"/>
<path d="M259.53 237.753C259.463 237.753 259.463 237.753 259.396 237.753C259.194 237.686 259.06 237.484 259.127 237.283C259.463 236.006 260.068 234.796 260.941 233.721C261.815 232.78 263.159 232.31 264.436 232.579C265.309 231.302 266.653 230.428 268.132 230.227C268.333 230.227 268.535 230.361 268.602 230.563C268.669 230.764 268.468 230.966 268.266 231.033C267.056 231.235 265.914 231.907 265.175 232.982C265.78 233.385 266.183 234.057 266.317 234.796C266.452 235.468 266.183 236.207 265.645 236.678C265.309 236.947 264.906 237.081 264.436 237.014C264.1 237.014 263.831 236.812 263.629 236.543C263.428 236.275 263.36 235.939 263.428 235.603C263.428 234.863 263.629 234.057 263.965 233.385C263.024 233.318 262.151 233.721 261.479 234.393C260.672 235.334 260.135 236.476 259.866 237.619C259.799 237.686 259.664 237.82 259.53 237.753ZM264.772 233.519C264.436 234.124 264.301 234.796 264.234 235.468C264.234 235.67 264.234 235.804 264.301 235.939C264.368 236.006 264.436 236.073 264.503 236.073C264.704 236.073 264.906 236.006 265.108 235.871C265.444 235.603 265.578 235.132 265.444 234.729C265.444 234.259 265.175 233.855 264.772 233.519Z" fill="#F75A5A"/>
<path d="M199.589 148.983C199.387 148.983 199.253 148.848 199.185 148.714C198.917 147.773 198.581 146.765 197.841 146.429C197.438 146.295 197.035 146.227 196.565 146.227C196.296 146.227 195.96 146.227 195.691 146.16C193.742 145.757 192.398 143.875 192.667 141.859C192.734 141.658 192.936 141.523 193.137 141.523C193.339 141.523 193.473 141.792 193.473 141.994C193.339 142.733 193.541 143.539 194.011 144.144C194.414 144.749 195.086 145.219 195.825 145.354C196.094 145.421 196.363 145.421 196.565 145.421C197.102 145.421 197.64 145.488 198.11 145.69C199.185 146.227 199.589 147.437 199.925 148.512C199.992 148.714 199.857 148.915 199.656 148.983C199.656 148.983 199.656 148.983 199.589 148.983Z" fill="#F75A5A"/>
<path d="M133.129 108.529C132.591 108.529 132.121 108.461 131.583 108.394C131.449 108.394 131.315 108.26 131.247 108.125C130.71 106.714 130.105 105.37 129.433 104.026C128.022 104.161 126.611 103.959 125.334 103.489C125.132 103.421 124.998 103.153 125.132 102.951C125.199 102.749 125.401 102.615 125.603 102.749C126.879 103.22 128.291 103.421 129.635 103.22C129.769 103.22 129.971 103.287 130.038 103.421C130.777 104.765 131.449 106.177 131.987 107.655C133.331 107.857 134.742 107.722 136.019 107.252C136.22 107.185 136.422 107.252 136.489 107.453C136.556 107.655 136.422 107.857 136.22 107.991C135.279 108.327 134.204 108.529 133.129 108.529Z" fill="#F75A5A"/>
<path d="M96.841 116.995C95.6986 116.995 94.7578 116.054 94.7578 114.911C94.7578 113.769 95.6986 112.828 96.841 112.828C97.9834 112.828 98.9242 113.769 98.9242 114.911C98.9242 116.054 97.9834 116.995 96.841 116.995ZM96.841 113.635C96.169 113.635 95.5642 114.239 95.5642 114.911C95.5642 115.583 96.169 116.188 96.841 116.188C97.513 116.188 98.1178 115.583 98.1178 114.911C98.1178 114.239 97.5802 113.702 96.841 113.635Z" fill="#D1D3D4"/>
<path d="M274.388 214.838C273.38 214.838 272.641 214.032 272.641 213.091C272.641 212.083 273.447 211.344 274.388 211.344C275.329 211.344 276.135 212.15 276.135 213.091C276.135 214.099 275.329 214.838 274.388 214.838ZM274.388 212.083C273.85 212.083 273.447 212.486 273.447 213.091C273.447 213.696 273.85 214.032 274.455 214.032C275.06 214.032 275.396 213.629 275.396 213.091C275.396 212.553 274.925 212.083 274.388 212.083Z" fill="#D1D3D4"/>
<path d="M32.4629 221.961C31.2533 221.961 30.3125 221.02 30.3125 219.811C30.3125 218.601 31.2533 217.66 32.4629 217.66C33.6725 217.66 34.6133 218.601 34.6133 219.811C34.6805 220.953 33.6725 221.961 32.4629 221.961ZM32.4629 218.399C31.7237 218.399 31.1189 219.004 31.1189 219.743C31.1189 220.483 31.7237 221.087 32.4629 221.087C33.2021 221.087 33.8069 220.483 33.8069 219.743C33.8069 219.004 33.2693 218.399 32.4629 218.399Z" fill="#EEE420"/>
<path d="M33.6727 185.942C33.4711 185.942 33.3367 185.808 33.2695 185.673C33.0007 184.867 32.2615 184.329 31.4551 183.725C31.1863 183.523 30.9175 183.321 30.6487 183.12C29.8423 182.448 29.3719 181.507 29.3047 180.499C29.3047 179.961 29.5735 179.424 29.9767 179.088C30.1783 178.953 30.3799 178.953 30.5143 179.155C30.6487 179.357 30.6487 179.558 30.4471 179.693C30.1783 179.894 30.1111 180.163 30.1111 180.499C30.1783 181.305 30.5815 182.045 31.1863 182.515C31.4551 182.717 31.7239 182.918 31.9927 183.12C32.8663 183.725 33.8071 184.397 34.1431 185.472C34.2103 185.673 34.0759 185.875 33.8743 185.942H33.6727Z" fill="#F75A5A"/>
<path d="M132.861 149.722C132.727 149.722 132.592 149.654 132.525 149.52C132.458 149.318 132.525 149.117 132.727 148.982C134.944 147.84 136.02 145.354 135.415 143.002C135.348 142.8 135.482 142.598 135.751 142.531C135.952 142.464 136.154 142.598 136.221 142.8C136.96 145.555 135.684 148.445 133.13 149.722C132.996 149.722 132.928 149.722 132.861 149.722Z" fill="#D1D3D4"/>
<path d="M278.752 174.72C278.551 174.72 278.349 174.586 278.349 174.384C278.147 173.107 277.005 172.167 275.728 172.301C275.527 172.301 275.325 172.167 275.258 171.965C275.258 171.763 275.392 171.562 275.594 171.495C277.341 171.293 278.887 172.503 279.155 174.25C279.155 174.519 279.021 174.72 278.752 174.72C278.819 174.72 278.819 174.72 278.752 174.72Z" fill="#D1D3D4"/>
<path d="M63.0379 255.829C62.9707 255.829 62.9707 255.829 62.9035 255.829C62.7019 255.762 62.5675 255.56 62.6347 255.359C63.3739 252.872 65.4571 251.125 68.0107 250.789C68.2123 250.789 68.4139 250.923 68.4811 251.125C68.4811 251.327 68.3467 251.528 68.1451 251.528C65.9275 251.797 64.0459 253.343 63.4411 255.493C63.3739 255.695 63.2395 255.829 63.0379 255.829Z" fill="#00D885"/>
<path d="M191.796 113.5C190.183 113.5 188.906 112.223 188.906 110.61C188.906 108.998 190.183 107.721 191.796 107.721C193.409 107.721 194.685 108.998 194.685 110.61C194.685 112.223 193.409 113.5 191.796 113.5ZM191.796 108.527C190.653 108.527 189.713 109.468 189.713 110.61C189.713 111.753 190.653 112.693 191.796 112.693C192.938 112.693 193.879 111.753 193.879 110.61C193.879 109.468 192.938 108.527 191.796 108.527Z" fill="#D1D3D4"/>
<defs>
<linearGradient id="paint0_linear_4507_5758" x1="48.0078" y1="121" x2="65.0078" y2="109.5" gradientUnits="userSpaceOnUse">
<stop stop-color="#F75A5A"/>
<stop offset="1" stop-color="white"/>
</linearGradient>
<linearGradient id="paint1_linear_4507_5758" x1="268.5" y1="98.0002" x2="253.5" y2="83.0002" gradientUnits="userSpaceOnUse">
<stop stop-color="#00D885"/>
<stop offset="1" stop-color="white"/>
</linearGradient>
<linearGradient id="paint2_linear_4507_5758" x1="126.002" y1="172.906" x2="126.002" y2="197.3" gradientUnits="userSpaceOnUse">
<stop stop-color="white"/>
<stop offset="1" stop-color="#EEE420"/>
</linearGradient>
</defs>
</svg>
